  0
SECTION
  2
HEADER
  9
$ACADVER
  1
AC1014
  9
$HANDSEED
  5
FFFF
  9
$MEASUREMENT
 70
     1
  0
ENDSEC
  0
SECTION
  2
TABLES
  0
TABLE
  2
VPORT
  5
8
330
0
100
AcDbSymbolTable
 70
     4
  0
VPORT
  5
2E
330
8
100
AcDbSymbolTableRecord
100
AcDbViewportTableRecord
  2
*ACTIVE
 70
     0
 10
0.0
 20
0.0
 11
1.0
 21
1.0
 12
210.0
 22
148.5
 13
0.0
 23
0.0
 14
10.0
 24
10.0
 15
10.0
 25
10.0
 16
0.0
 26
0.0
 36
1.0
 17
0.0
 27
0.0
 37
0.0
 40
341.0
 41
1.24
 42
50.0
 43
0.0
 44
0.0
 50
0.0
 51
0.0
 71
     0
 72
   100
 73
     1
 74
     3
 75
     0
 76
     0
 77
     0
 78
     0
  0
ENDTAB
  0
TABLE
  2
LTYPE
  5
5
330
0
100
AcDbSymbolTable
 70
     1
  0
LTYPE
  5
14
330
5
100
AcDbSymbolTableRecord
100
AcDbLinetypeTableRecord
  2
BYBLOCK
 70
     0
  3

 72
    65
 73
     0
 40
0.0
  0
LTYPE
  5
15
330
5
100
AcDbSymbolTableRecord
100
AcDbLinetypeTableRecord
  2
BYLAYER
 70
     0
  3

 72
    65
 73
     0
 40
0.0
  0
LTYPE
  5
16
330
5
100
AcDbSymbolTableRecord
100
AcDbLinetypeTableRecord
  2
CONTINUOUS
 70
     0
  3
Solid line
 72
    65
 73
     0
 40
0.0
  0
ENDTAB
  0
TABLE
  2
LAYER
  5
2
100
AcDbSymbolTable
 70
2
  0
LAYER
  5
50
100
AcDbSymbolTableRecord
100
AcDbLayerTableRecord
  2
0
 70
0
  6
CONTINUOUS
  0
LAYER
  5
51
100
AcDbSymbolTableRecord
100
AcDbLayerTableRecord
  2
Layer_1
 70
0
  6
CONTINUOUS
  0
ENDTAB
  0
TABLE
  2
STYLE
  5
3
330
0
100
AcDbSymbolTable
 70
     1
  0
STYLE
  5
11
330
3
100
AcDbSymbolTableRecord
100
AcDbTextStyleTableRecord
  2
STANDARD
 70
     0
 40
0.0
 41
1.0
 50
0.0
 71
     0
 42
2.5
  3
txt
  4

  0
ENDTAB
  0
TABLE
  2
VIEW
  5
6
330
0
100
AcDbSymbolTable
 70
     0
  0
ENDTAB
  0
TABLE
  2
UCS
  5
7
330
0
100
AcDbSymbolTable
 70
     0
  0
ENDTAB
  0
TABLE
  2
APPID
  5
9
330
0
100
AcDbSymbolTable
 70
     2
  0
APPID
  5
12
330
9
100
AcDbSymbolTableRecord
100
AcDbRegAppTableRecord
  2
ACAD
 70
     0
  0
ENDTAB
  0
TABLE
  2
DIMSTYLE
  5
A
330
0
100
AcDbSymbolTable
 70
     1
  0
DIMSTYLE
105
27
330
A
100
AcDbSymbolTableRecord
100
AcDbDimStyleTableRecord
  2
ISO-25
 70
     0
  3

  4

  5

  6

  7

 40
1.0
 41
2.5
 42
0.625
 43
3.75
 44
1.25
 45
0.0
 46
0.0
 47
0.0
 48
0.0
140
2.5
141
2.5
142
0.0
143
0.03937007874016
144
1.0
145
0.0
146
1.0
147
0.625
 71
     0
 72
     0
 73
     0
 74
     0
 75
     0
 76
     0
 77
     1
 78
     8
170
     0
171
     3
172
     1
173
     0
174
     0
175
     0
176
     0
177
     0
178
     0
270
     2
271
     2
272
     2
273
     2
274
     3
340
11
275
     0
280
     0
281
     0
282
     0
283
     0
284
     8
285
     0
286
     0
287
     3
288
     0
  0
ENDTAB
  0
TABLE
  2
BLOCK_RECORD
  5
1
330
0
100
AcDbSymbolTable
 70
     1
  0
BLOCK_RECORD
  5
1F
330
1
100
AcDbSymbolTableRecord
100
AcDbBlockTableRecord
  2
*MODEL_SPACE
  0
BLOCK_RECORD
  5
1B
330
1
100
AcDbSymbolTableRecord
100
AcDbBlockTableRecord
  2
*PAPER_SPACE
  0
ENDTAB
  0
ENDSEC
  0
SECTION
  2
BLOCKS
  0
BLOCK
  5
20
330
1F
100
AcDbEntity
  8
0
100
AcDbBlockBegin
  2
*MODEL_SPACE
 70
     0
 10
0.0
 20
0.0
 30
0.0
  3
*MODEL_SPACE
  1

  0
ENDBLK
  5
21
330
1F
100
AcDbEntity
  8
0
100
AcDbBlockEnd
  0
BLOCK
  5
1C
330
1B
100
AcDbEntity
 67
     1
  8
0
100
AcDbBlockBegin
  2
*PAPER_SPACE
  1

  0
ENDBLK
  5
1D
330
1B
100
AcDbEntity
 67
     1
  8
0
100
AcDbBlockEnd
  0
ENDSEC
  0
SECTION
  2
ENTITIES
  0
LWPOLYLINE
  5
100
100
AcDbEntity
  8
Layer_1
 62
7
100
AcDbPolyline
 90
23
 70
1
 10
62.482357
 20
72.516930
 30
0.0
 10
61.812024
 20
72.411120
 30
0.0
 10
61.176966
 20
72.128950
 30
0.0
 10
60.647755
 20
71.705700
 30
0.0
 10
60.259666
 20
71.141370
 30
0.0
 10
60.047984
 20
70.506490
 30
0.0
 10
60.012704
 20
69.836340
 30
0.0
 10
60.118545
 20
69.166200
 30
0.0
 10
60.436071
 20
68.566590
 30
0.0
 10
60.930004
 20
68.072800
 30
0.0
 10
61.494497
 20
67.720090
 30
0.0
 10
62.164835
 20
67.508470
 30
0.0
 10
62.835170
 20
67.508470
 30
0.0
 10
63.505508
 20
67.720090
 30
0.0
 10
64.069997
 20
68.072800
 30
0.0
 10
64.528652
 20
68.566590
 30
0.0
 10
64.846178
 20
69.166200
 30
0.0
 10
64.987302
 20
69.836340
 30
0.0
 10
64.952022
 20
70.506490
 30
0.0
 10
64.705058
 20
71.141370
 30
0.0
 10
64.316970
 20
71.705700
 30
0.0
 10
63.787758
 20
72.128950
 30
0.0
 10
63.152700
 20
72.411120
 30
0.0
  0
LWPOLYLINE
  5
101
100
AcDbEntity
  8
Layer_1
 62
7
100
AcDbPolyline
 90
23
 70
1
 10
75.007060
 20
85.002820
 30
0.0
 10
75.077620
 20
84.332670
 30
0.0
 10
75.359867
 20
83.697800
 30
0.0
 10
75.783235
 20
83.168740
 30
0.0
 10
76.347728
 20
82.780750
 30
0.0
 10
76.982784
 20
82.569130
 30
0.0
 10
77.653119
 20
82.498630
 30
0.0
 10
78.323457
 20
82.639710
 30
0.0
 10
78.923228
 20
82.957150
 30
0.0
 10
79.417162
 20
83.415670
 30
0.0
 10
79.769968
 20
84.015280
 30
0.0
 10
79.981654
 20
84.650160
 30
0.0
 10
79.981654
 20
85.355570
 30
0.0
 10
79.769968
 20
85.990450
 30
0.0
 10
79.417162
 20
86.590050
 30
0.0
 10
78.923228
 20
87.048570
 30
0.0
 10
78.323457
 20
87.366010
 30
0.0
 10
77.653119
 20
87.507090
 30
0.0
 10
76.982784
 20
87.436590
 30
0.0
 10
76.347728
 20
87.224970
 30
0.0
 10
75.783235
 20
86.836990
 30
0.0
 10
75.359867
 20
86.307930
 30
0.0
 10
75.077620
 20
85.673050
 30
0.0
  0
LWPOLYLINE
  5
102
100
AcDbEntity
  8
Layer_1
 62
7
100
AcDbPolyline
 90
23
 70
1
 10
49.992952
 20
85.002900
 30
0.0
 10
49.887108
 20
85.673050
 30
0.0
 10
49.640140
 20
86.307930
 30
0.0
 10
49.181491
 20
86.836990
 30
0.0
 10
48.652279
 20
87.224970
 30
0.0
 10
47.981941
 20
87.436590
 30
0.0
 10
47.311606
 20
87.507090
 30
0.0
 10
46.641268
 20
87.366010
 30
0.0
 10
46.041495
 20
87.048570
 30
0.0
 10
45.547563
 20
86.590050
 30
0.0
 10
45.194757
 20
85.990450
 30
0.0
 10
45.018351
 20
85.355570
 30
0.0
 10
45.018351
 20
84.650160
 30
0.0
 10
45.194757
 20
84.015280
 30
0.0
 10
45.547563
 20
83.415670
 30
0.0
 10
46.041495
 20
82.957150
 30
0.0
 10
46.641268
 20
82.639710
 30
0.0
 10
47.311606
 20
82.498630
 30
0.0
 10
47.981941
 20
82.569130
 30
0.0
 10
48.652279
 20
82.780750
 30
0.0
 10
49.181491
 20
83.168740
 30
0.0
 10
49.640140
 20
83.697800
 30
0.0
 10
49.887108
 20
84.332670
 30
0.0
  0
LWPOLYLINE
  5
103
100
AcDbEntity
  8
Layer_1
 62
7
100
AcDbPolyline
 90
23
 70
1
 10
62.482362
 20
97.488710
 30
0.0
 10
63.152700
 20
97.594530
 30
0.0
 10
63.787758
 20
97.876690
 30
0.0
 10
64.316970
 20
98.299940
 30
0.0
 10
64.705058
 20
98.829010
 30
0.0
 10
64.952022
 20
99.499150
 30
0.0
 10
64.987302
 20
100.169300
 30
0.0
 10
64.846178
 20
100.839450
 30
0.0
 10
64.528652
 20
101.439050
 30
0.0
 10
64.069997
 20
101.932840
 30
0.0
 10
63.505508
 20
102.285550
 30
0.0
 10
62.835170
 20
102.461910
 30
0.0
 10
62.164835
 20
102.461910
 30
0.0
 10
61.494497
 20
102.285550
 30
0.0
 10
60.930004
 20
101.932840
 30
0.0
 10
60.436071
 20
101.439050
 30
0.0
 10
60.118545
 20
100.839450
 30
0.0
 10
60.012704
 20
100.169300
 30
0.0
 10
60.047984
 20
99.499150
 30
0.0
 10
60.259666
 20
98.829010
 30
0.0
 10
60.647755
 20
98.299940
 30
0.0
 10
61.176966
 20
97.876690
 30
0.0
 10
61.812024
 20
97.594530
 30
0.0
  0
LWPOLYLINE
  5
104
100
AcDbEntity
  8
Layer_1
 62
7
100
AcDbPolyline
 90
41
 70
1
 10
62.482357
 20
77.490120
 30
0.0
 10
63.646627
 20
77.595940
 30
0.0
 10
64.740332
 20
77.842830
 30
0.0
 10
65.834040
 20
78.266080
 30
0.0
 10
66.821902
 20
78.865690
 30
0.0
 10
67.703925
 20
79.606380
 30
0.0
 10
68.444822
 20
80.452880
 30
0.0
 10
69.079877
 20
81.405190
 30
0.0
 10
69.538527
 20
82.463320
 30
0.0
 10
69.856056
 20
83.556710
 30
0.0
 10
69.997177
 20
84.720650
 30
0.0
 10
69.926617
 20
85.849320
 30
0.0
 10
69.714932
 20
86.977990
 30
0.0
 10
69.326844
 20
88.071390
 30
0.0
 10
68.797632
 20
89.058970
 30
0.0
 10
68.092012
 20
89.976020
 30
0.0
 10
67.280554
 20
90.787250
 30
0.0
 10
66.327972
 20
91.457390
 30
0.0
 10
65.304828
 20
91.951190
 30
0.0
 10
64.211123
 20
92.303900
 30
0.0
 10
63.082135
 20
92.480250
 30
0.0
 10
61.917870
 20
92.480250
 30
0.0
 10
60.788883
 20
92.303900
 30
0.0
 10
59.695175
 20
91.951190
 30
0.0
 10
58.672031
 20
91.457390
 30
0.0
 10
57.719446
 20
90.787250
 30
0.0
 10
56.907988
 20
89.976020
 30
0.0
 10
56.202373
 20
89.058970
 30
0.0
 10
55.637879
 20
88.071390
 30
0.0
 10
55.249791
 20
86.977990
 30
0.0
 10
55.038106
 20
85.849320
 30
0.0
 10
55.002826
 20
84.720650
 30
0.0
 10
55.143947
 20
83.556710
 30
0.0
 10
55.426194
 20
82.463320
 30
0.0
 10
55.920126
 20
81.405190
 30
0.0
 10
56.519899
 20
80.452880
 30
0.0
 10
57.296078
 20
79.606380
 30
0.0
 10
58.178101
 20
78.865690
 30
0.0
 10
59.165963
 20
78.266080
 30
0.0
 10
60.224389
 20
77.842830
 30
0.0
 10
61.353377
 20
77.595940
 30
0.0
  0
SPLINE
  5
105
100
AcDbEntity
  8
Layer_1
 62
7
100
AcDbSpline
 70
8
 71
3
 72
8
 73
4
 74
0
 40
0
 40
0
 40
0
 40
0
 40
1
 40
1
 40
1
 40
1
 10
119.990125
 20
-0.000000
 30
0.0
 10
122.910585
 20
0.151360
 30
0.0
 10
124.689555
 20
2.215260
 30
0.0
 10
125.000005
 20
5.008470
 30
0.0
  0
LWPOLYLINE
  5
106
100
AcDbEntity
  8
Layer_1
 62
7
100
AcDbPolyline
 90
2
 70
0
 10
4.974597
 20
-0.000000
 30
0.0
 10
119.990125
 20
-0.000000
 30
0.0
  0
SPLINE
  5
107
100
AcDbEntity
  8
Layer_1
 62
7
100
AcDbSpline
 70
8
 71
3
 72
8
 73
4
 74
0
 40
0
 40
0
 40
0
 40
0
 40
1
 40
1
 40
1
 40
1
 10
125.000005
 20
119.991530
 30
0.0
 10
124.848365
 20
122.905790
 30
0.0
 10
122.782525
 20
124.700900
 30
0.0
 10
119.990125
 20
125.000000
 30
0.0
  0
LWPOLYLINE
  5
108
100
AcDbEntity
  8
Layer_1
 62
7
100
AcDbPolyline
 90
2
 70
0
 10
125.000005
 20
5.008470
 30
0.0
 10
125.000005
 20
119.991530
 30
0.0
  0
SPLINE
  5
109
100
AcDbEntity
  8
Layer_1
 62
7
100
AcDbSpline
 70
8
 71
3
 72
8
 73
4
 74
0
 40
0
 40
0
 40
0
 40
0
 40
1
 40
1
 40
1
 40
1
 10
4.974597
 20
125.000000
 30
0.0
 10
2.118081
 20
124.834420
 30
0.0
 10
0.199672
 20
122.786120
 30
0.0
 10
-0.000000
 20
119.991530
 30
0.0
  0
LWPOLYLINE
  5
10a
100
AcDbEntity
  8
Layer_1
 62
7
100
AcDbPolyline
 90
2
 70
0
 10
119.990125
 20
125.000000
 30
0.0
 10
4.974597
 20
125.000000
 30
0.0
  0
SPLINE
  5
10b
100
AcDbEntity
  8
Layer_1
 62
7
100
AcDbSpline
 70
8
 71
3
 72
8
 73
4
 74
0
 40
0
 40
0
 40
0
 40
0
 40
1
 40
1
 40
1
 40
1
 10
-0.000000
 20
5.008470
 30
0.0
 10
0.074207
 20
2.099870
 30
0.0
 10
2.224588
 20
0.305470
 30
0.0
 10
4.974597
 20
0.000000
 30
0.0
  0
LWPOLYLINE
  5
10c
100
AcDbEntity
  8
Layer_1
 62
7
100
AcDbPolyline
 90
2
 70
0
 10
-0.000000
 20
119.991530
 30
0.0
 10
-0.000000
 20
5.008470
 30
0.0
  0
LWPOLYLINE
  5
10d
100
AcDbEntity
  8
Layer_1
 62
7
100
AcDbPolyline
 90
1
 70
1
 10
4.974597
 20
0.000000
 30
0.0
  0
ENDSEC
  0
SECTION
  2
OBJECTS
  0
DICTIONARY
  5
C
330
0
100
AcDbDictionary
  3
ACAD_GROUP
350
D
  3
ACAD_MLINESTYLE
350
17
  0
DICTIONARY
  5
D
330
C
100
AcDbDictionary
  0
DICTIONARY
  5
1A
330
C
100
AcDbDictionary
  0
DICTIONARY
  5
17
330
C
100
AcDbDictionary
  3
STANDARD
350
18
  0
DICTIONARY
  5
19
330
C
100
AcDbDictionary
  0
ENDSEC
  0
EOF
