  0
SECTION
  2
HEADER
  9
$ACADVER
  1
AC1009
  9
$EXTMIN
 10
-547.87969193
 20
-31.43193419
 30
0.0
  9
$EXTMAX
 10
542.12223226
 20
104.66037419
 30
0.0
  0
ENDSEC
  0
SECTION
  2
TABLES
  0
TABLE
  2
LAYER
 70
1
 0
LAYER
 2
layer_1
 70
0
 62
250
 6
CONTINUOUS
 0
ENDTAB
 0
ENDSEC
  0
SECTION
  2
ENTITIES
  0
POLYLINE
  8
layer_1
 62
256
 66
   1
 39
0.000000
 70
    1
  0
VERTEX
  8
0
 10
-523.68387428
 20
104.66037419
  0
VERTEX
  8
0
 10
535.51005600
 20
104.66037419
  0
VERTEX
  8
0
 10
536.75286449
 20
104.64548672
  0
VERTEX
  8
0
 10
537.82999028
 20
104.59815713
  0
VERTEX
  8
0
 10
538.75321904
 20
104.51438465
  0
VERTEX
  8
0
 10
539.16080505
 20
104.45758209
  0
VERTEX
  8
0
 10
539.53433643
 20
104.39016851
  0
VERTEX
  8
0
 10
539.87528639
 20
104.31164383
  0
VERTEX
  8
0
 10
540.18512813
 20
104.22150794
  0
VERTEX
  8
0
 10
540.46533486
 20
104.11926075
  0
VERTEX
  8
0
 10
540.71737980
 20
104.00440215
  0
VERTEX
  8
0
 10
540.94273614
 20
103.87643207
  0
VERTEX
  8
0
 10
541.14287710
 20
103.73485039
  0
VERTEX
  8
0
 10
541.31927589
 20
103.57915702
  0
VERTEX
  8
0
 10
541.47340572
 20
103.40885187
  0
VERTEX
  8
0
 10
541.60673978
 20
103.22343483
  0
VERTEX
  8
0
 10
541.72075130
 20
103.02240582
  0
VERTEX
  8
0
 10
541.81691349
 20
102.80526473
  0
VERTEX
  8
0
 10
541.89669954
 20
102.57151147
  0
VERTEX
  8
0
 10
541.96158266
 20
102.32064595
  0
VERTEX
  8
0
 10
542.01303608
 20
102.05216806
  0
VERTEX
  8
0
 10
542.08154660
 20
101.46037479
  0
VERTEX
  8
0
 10
542.11401677
 20
100.79213091
  0
VERTEX
  8
0
 10
542.12223226
 20
100.04343564
  0
VERTEX
  8
0
 10
542.11304185
 20
98.28868784
  0
VERTEX
  8
0
 10
542.11304185
 20
36.61422000
  0
VERTEX
  8
0
 10
542.11304185
 20
-25.06024784
  0
VERTEX
  8
0
 10
542.12223226
 20
-26.81499564
  0
VERTEX
  8
0
 10
542.11401677
 20
-27.56369091
  0
VERTEX
  8
0
 10
542.08154660
 20
-28.23193479
  0
VERTEX
  8
0
 10
542.01303608
 20
-28.82372806
  0
VERTEX
  8
0
 10
541.96158266
 20
-29.09220595
  0
VERTEX
  8
0
 10
541.89669954
 20
-29.34307147
  0
VERTEX
  8
0
 10
541.81691349
 20
-29.57682473
  0
VERTEX
  8
0
 10
541.72075130
 20
-29.79396582
  0
VERTEX
  8
0
 10
541.60673978
 20
-29.99499483
  0
VERTEX
  8
0
 10
541.47340572
 20
-30.18041187
  0
VERTEX
  8
0
 10
541.31927589
 20
-30.35071702
  0
VERTEX
  8
0
 10
541.14287710
 20
-30.50641039
  0
VERTEX
  8
0
 10
540.94273614
 20
-30.64799207
  0
VERTEX
  8
0
 10
540.71737980
 20
-30.77596215
  0
VERTEX
  8
0
 10
540.46533486
 20
-30.89082075
  0
VERTEX
  8
0
 10
540.18512813
 20
-30.99306794
  0
VERTEX
  8
0
 10
539.87528639
 20
-31.08320383
  0
VERTEX
  8
0
 10
539.53433643
 20
-31.16172851
  0
VERTEX
  8
0
 10
539.16080505
 20
-31.22914209
  0
VERTEX
  8
0
 10
538.75321904
 20
-31.28594465
  0
VERTEX
  8
0
 10
537.82999028
 20
-31.36971713
  0
VERTEX
  8
0
 10
536.75286449
 20
-31.41704672
  0
VERTEX
  8
0
 10
535.51005600
 20
-31.43193419
  0
VERTEX
  8
0
 10
-523.68387428
 20
-31.43193419
  0
VERTEX
  8
0
 10
-524.36978999
 20
-31.42251077
  0
VERTEX
  8
0
 10
-524.61998653
 20
-31.39956062
  0
VERTEX
  8
0
 10
-524.84175930
 20
-31.35452185
  0
VERTEX
  8
0
 10
-525.06017113
 20
-31.27994721
  0
VERTEX
  8
0
 10
-525.30028488
 20
-31.16838944
  0
VERTEX
  8
0
 10
-525.94586943
 20
-30.80453553
  0
VERTEX
  8
0
 10
-546.90592451
 20
-18.51286187
  0
VERTEX
  8
0
 10
-547.26165090
 20
-18.31572206
  0
VERTEX
  8
0
 10
-547.51889664
 20
-18.17946571
  0
VERTEX
  8
0
 10
-547.69339646
 20
-18.06571400
  0
VERTEX
  8
0
 10
-547.75453376
 20
-18.00528400
  0
VERTEX
  8
0
 10
-547.80088510
 20
-17.93608811
  0
VERTEX
  8
0
 10
-547.83441732
 20
-17.85332896
  0
VERTEX
  8
0
 10
-547.85709728
 20
-17.75220920
  0
VERTEX
  8
0
 10
-547.87776774
 20
-17.47569847
  0
VERTEX
  8
0
 10
-547.87542244
 20
-16.49126620
  0
VERTEX
  8
0
 10
-547.87542244
 20
12.11417250
  0
VERTEX
  8
0
 10
-397.87574387
 20
12.11417250
  0
VERTEX
  8
0
 10
-397.87574387
 20
61.11426750
  0
VERTEX
  8
0
 10
-547.87542244
 20
61.11426750
  0
VERTEX
  8
0
 10
-547.87542244
 20
89.71970620
  0
VERTEX
  8
0
 10
-547.87776774
 20
90.70413847
  0
VERTEX
  8
0
 10
-547.85709728
 20
90.98064920
  0
VERTEX
  8
0
 10
-547.83441732
 20
91.08176896
  0
VERTEX
  8
0
 10
-547.80088510
 20
91.16452811
  0
VERTEX
  8
0
 10
-547.75453376
 20
91.23372400
  0
VERTEX
  8
0
 10
-547.69339646
 20
91.29415400
  0
VERTEX
  8
0
 10
-547.51889664
 20
91.40790571
  0
VERTEX
  8
0
 10
-547.26165090
 20
91.54416206
  0
VERTEX
  8
0
 10
-546.90592451
 20
91.74130187
  0
VERTEX
  8
0
 10
-525.94586943
 20
104.03297553
  0
VERTEX
  8
0
 10
-525.30028488
 20
104.39682944
  0
VERTEX
  8
0
 10
-525.06017113
 20
104.50838721
  0
VERTEX
  8
0
 10
-524.84175930
 20
104.58296185
  0
VERTEX
  8
0
 10
-524.61998653
 20
104.62800062
  0
VERTEX
  8
0
 10
-524.36978999
 20
104.65095077
  0
VERTEX
  8
0
 10
-523.68387428
 20
104.66037419
  0
SEQEND
  0
POLYLINE
  8
layer_1
 62
256
 66
   1
 39
0.000000
 70
    1
  0
VERTEX
  8
0
 10
-367.87630815
 20
39.61421357
  0
VERTEX
  8
0
 10
-367.56956870
 20
39.59872545
  0
VERTEX
  8
0
 10
-367.27169168
 20
39.55326624
  0
VERTEX
  8
0
 10
-366.98418485
 20
39.47934372
  0
VERTEX
  8
0
 10
-366.70855597
 20
39.37846564
  0
VERTEX
  8
0
 10
-366.44631280
 20
39.25213976
  0
VERTEX
  8
0
 10
-366.19896312
 20
39.10187385
  0
VERTEX
  8
0
 10
-365.96801466
 20
38.92917566
  0
VERTEX
  8
0
 10
-365.75497520
 20
38.73555295
  0
VERTEX
  8
0
 10
-365.56135249
 20
38.52251349
  0
VERTEX
  8
0
 10
-365.38865430
 20
38.29156504
  0
VERTEX
  8
0
 10
-365.23838839
 20
38.04421535
  0
VERTEX
  8
0
 10
-365.11206251
 20
37.78197219
  0
VERTEX
  8
0
 10
-365.01118443
 20
37.50634331
  0
VERTEX
  8
0
 10
-364.93726191
 20
37.21883648
  0
VERTEX
  8
0
 10
-364.89180271
 20
36.92095945
  0
VERTEX
  8
0
 10
-364.87631458
 20
36.61422000
  0
VERTEX
  8
0
 10
-364.89180271
 20
36.30748055
  0
VERTEX
  8
0
 10
-364.93726191
 20
36.00960352
  0
VERTEX
  8
0
 10
-365.01118443
 20
35.72209669
  0
VERTEX
  8
0
 10
-365.11206251
 20
35.44646781
  0
VERTEX
  8
0
 10
-365.23838839
 20
35.18422465
  0
VERTEX
  8
0
 10
-365.38865430
 20
34.93687496
  0
VERTEX
  8
0
 10
-365.56135249
 20
34.70592651
  0
VERTEX
  8
0
 10
-365.75497520
 20
34.49288705
  0
VERTEX
  8
0
 10
-365.96801466
 20
34.29926434
  0
VERTEX
  8
0
 10
-366.19896312
 20
34.12656615
  0
VERTEX
  8
0
 10
-366.44631280
 20
33.97630024
  0
VERTEX
  8
0
 10
-366.70855597
 20
33.84997436
  0
VERTEX
  8
0
 10
-366.98418485
 20
33.74909628
  0
VERTEX
  8
0
 10
-367.27169168
 20
33.67517376
  0
VERTEX
  8
0
 10
-367.56956870
 20
33.62971455
  0
VERTEX
  8
0
 10
-367.87630815
 20
33.61422643
  0
VERTEX
  8
0
 10
-368.18304761
 20
33.62971455
  0
VERTEX
  8
0
 10
-368.48092463
 20
33.67517376
  0
VERTEX
  8
0
 10
-368.76843146
 20
33.74909628
  0
VERTEX
  8
0
 10
-369.04406034
 20
33.84997436
  0
VERTEX
  8
0
 10
-369.30630350
 20
33.97630024
  0
VERTEX
  8
0
 10
-369.55365319
 20
34.12656615
  0
VERTEX
  8
0
 10
-369.78460165
 20
34.29926434
  0
VERTEX
  8
0
 10
-369.99764111
 20
34.49288705
  0
VERTEX
  8
0
 10
-370.19126381
 20
34.70592651
  0
VERTEX
  8
0
 10
-370.36396200
 20
34.93687496
  0
VERTEX
  8
0
 10
-370.51422792
 20
35.18422465
  0
VERTEX
  8
0
 10
-370.64055379
 20
35.44646781
  0
VERTEX
  8
0
 10
-370.74143187
 20
35.72209669
  0
VERTEX
  8
0
 10
-370.81535439
 20
36.00960352
  0
VERTEX
  8
0
 10
-370.86081360
 20
36.30748055
  0
VERTEX
  8
0
 10
-370.87630173
 20
36.61422000
  0
VERTEX
  8
0
 10
-370.86081360
 20
36.92095945
  0
VERTEX
  8
0
 10
-370.81535439
 20
37.21883648
  0
VERTEX
  8
0
 10
-370.74143187
 20
37.50634331
  0
VERTEX
  8
0
 10
-370.64055379
 20
37.78197219
  0
VERTEX
  8
0
 10
-370.51422792
 20
38.04421535
  0
VERTEX
  8
0
 10
-370.36396200
 20
38.29156504
  0
VERTEX
  8
0
 10
-370.19126381
 20
38.52251349
  0
VERTEX
  8
0
 10
-369.99764111
 20
38.73555295
  0
VERTEX
  8
0
 10
-369.78460165
 20
38.92917566
  0
VERTEX
  8
0
 10
-369.55365319
 20
39.10187385
  0
VERTEX
  8
0
 10
-369.30630350
 20
39.25213976
  0
VERTEX
  8
0
 10
-369.04406034
 20
39.37846564
  0
VERTEX
  8
0
 10
-368.76843146
 20
39.47934372
  0
VERTEX
  8
0
 10
-368.48092463
 20
39.55326624
  0
VERTEX
  8
0
 10
-368.18304761
 20
39.59872545
  0
VERTEX
  8
0
 10
-367.87630815
 20
39.61421357
  0
SEQEND
  0
POLYLINE
  8
layer_1
 62
256
 66
   1
 39
0.000000
 70
    1
  0
VERTEX
  8
0
 10
-137.87680102
 20
39.61421357
  0
VERTEX
  8
0
 10
-137.57006156
 20
39.59872545
  0
VERTEX
  8
0
 10
-137.27218454
 20
39.55326624
  0
VERTEX
  8
0
 10
-136.98467771
 20
39.47934372
  0
VERTEX
  8
0
 10
-136.70904883
 20
39.37846564
  0
VERTEX
  8
0
 10
-136.44680567
 20
39.25213976
  0
VERTEX
  8
0
 10
-136.19945598
 20
39.10187385
  0
VERTEX
  8
0
 10
-135.96850752
 20
38.92917566
  0
VERTEX
  8
0
 10
-135.75546806
 20
38.73555295
  0
VERTEX
  8
0
 10
-135.56184536
 20
38.52251349
  0
VERTEX
  8
0
 10
-135.38914717
 20
38.29156504
  0
VERTEX
  8
0
 10
-135.23888125
 20
38.04421535
  0
VERTEX
  8
0
 10
-135.11255538
 20
37.78197219
  0
VERTEX
  8
0
 10
-135.01167730
 20
37.50634331
  0
VERTEX
  8
0
 10
-134.93775477
 20
37.21883648
  0
VERTEX
  8
0
 10
-134.89229557
 20
36.92095945
  0
VERTEX
  8
0
 10
-134.87680744
 20
36.61422000
  0
VERTEX
  8
0
 10
-134.89229557
 20
36.30748055
  0
VERTEX
  8
0
 10
-134.93775477
 20
36.00960352
  0
VERTEX
  8
0
 10
-135.01167730
 20
35.72209669
  0
VERTEX
  8
0
 10
-135.11255538
 20
35.44646781
  0
VERTEX
  8
0
 10
-135.23888125
 20
35.18422465
  0
VERTEX
  8
0
 10
-135.38914717
 20
34.93687496
  0
VERTEX
  8
0
 10
-135.56184536
 20
34.70592651
  0
VERTEX
  8
0
 10
-135.75546806
 20
34.49288705
  0
VERTEX
  8
0
 10
-135.96850752
 20
34.29926434
  0
VERTEX
  8
0
 10
-136.19945598
 20
34.12656615
  0
VERTEX
  8
0
 10
-136.44680567
 20
33.97630024
  0
VERTEX
  8
0
 10
-136.70904883
 20
33.84997436
  0
VERTEX
  8
0
 10
-136.98467771
 20
33.74909628
  0
VERTEX
  8
0
 10
-137.27218454
 20
33.67517376
  0
VERTEX
  8
0
 10
-137.57006156
 20
33.62971455
  0
VERTEX
  8
0
 10
-137.87680102
 20
33.61422643
  0
VERTEX
  8
0
 10
-138.18354047
 20
33.62971455
  0
VERTEX
  8
0
 10
-138.48141749
 20
33.67517376
  0
VERTEX
  8
0
 10
-138.76892432
 20
33.74909628
  0
VERTEX
  8
0
 10
-139.04455320
 20
33.84997436
  0
VERTEX
  8
0
 10
-139.30679636
 20
33.97630024
  0
VERTEX
  8
0
 10
-139.55414605
 20
34.12656615
  0
VERTEX
  8
0
 10
-139.78509451
 20
34.29926434
  0
VERTEX
  8
0
 10
-139.99813397
 20
34.49288705
  0
VERTEX
  8
0
 10
-140.19175668
 20
34.70592651
  0
VERTEX
  8
0
 10
-140.36445486
 20
34.93687496
  0
VERTEX
  8
0
 10
-140.51472078
 20
35.18422465
  0
VERTEX
  8
0
 10
-140.64104665
 20
35.44646781
  0
VERTEX
  8
0
 10
-140.74192473
 20
35.72209669
  0
VERTEX
  8
0
 10
-140.81584726
 20
36.00960352
  0
VERTEX
  8
0
 10
-140.86130646
 20
36.30748055
  0
VERTEX
  8
0
 10
-140.87679459
 20
36.61422000
  0
VERTEX
  8
0
 10
-140.86130646
 20
36.92095945
  0
VERTEX
  8
0
 10
-140.81584726
 20
37.21883648
  0
VERTEX
  8
0
 10
-140.74192473
 20
37.50634331
  0
VERTEX
  8
0
 10
-140.64104665
 20
37.78197219
  0
VERTEX
  8
0
 10
-140.51472078
 20
38.04421535
  0
VERTEX
  8
0
 10
-140.36445486
 20
38.29156504
  0
VERTEX
  8
0
 10
-140.19175668
 20
38.52251349
  0
VERTEX
  8
0
 10
-139.99813397
 20
38.73555295
  0
VERTEX
  8
0
 10
-139.78509451
 20
38.92917566
  0
VERTEX
  8
0
 10
-139.55414605
 20
39.10187385
  0
VERTEX
  8
0
 10
-139.30679636
 20
39.25213976
  0
VERTEX
  8
0
 10
-139.04455320
 20
39.37846564
  0
VERTEX
  8
0
 10
-138.76892432
 20
39.47934372
  0
VERTEX
  8
0
 10
-138.48141749
 20
39.55326624
  0
VERTEX
  8
0
 10
-138.18354047
 20
39.59872545
  0
VERTEX
  8
0
 10
-137.87680102
 20
39.61421357
  0
SEQEND
  0
POLYLINE
  8
layer_1
 62
256
 66
   1
 39
0.000000
 70
    1
  0
VERTEX
  8
0
 10
92.12270612
 20
39.61421357
  0
VERTEX
  8
0
 10
92.42944558
 20
39.59872545
  0
VERTEX
  8
0
 10
92.72732260
 20
39.55326624
  0
VERTEX
  8
0
 10
93.01482943
 20
39.47934372
  0
VERTEX
  8
0
 10
93.29045831
 20
39.37846564
  0
VERTEX
  8
0
 10
93.55270147
 20
39.25213976
  0
VERTEX
  8
0
 10
93.80005116
 20
39.10187385
  0
VERTEX
  8
0
 10
94.03099962
 20
38.92917566
  0
VERTEX
  8
0
 10
94.24403908
 20
38.73555295
  0
VERTEX
  8
0
 10
94.43766178
 20
38.52251349
  0
VERTEX
  8
0
 10
94.61035997
 20
38.29156504
  0
VERTEX
  8
0
 10
94.76062588
 20
38.04421535
  0
VERTEX
  8
0
 10
94.88695176
 20
37.78197219
  0
VERTEX
  8
0
 10
94.98782984
 20
37.50634331
  0
VERTEX
  8
0
 10
95.06175236
 20
37.21883648
  0
VERTEX
  8
0
 10
95.10721157
 20
36.92095945
  0
VERTEX
  8
0
 10
95.12269969
 20
36.61422000
  0
VERTEX
  8
0
 10
95.10721157
 20
36.30748055
  0
VERTEX
  8
0
 10
95.06175236
 20
36.00960352
  0
VERTEX
  8
0
 10
94.98782984
 20
35.72209669
  0
VERTEX
  8
0
 10
94.88695176
 20
35.44646781
  0
VERTEX
  8
0
 10
94.76062588
 20
35.18422465
  0
VERTEX
  8
0
 10
94.61035997
 20
34.93687496
  0
VERTEX
  8
0
 10
94.43766178
 20
34.70592651
  0
VERTEX
  8
0
 10
94.24403908
 20
34.49288705
  0
VERTEX
  8
0
 10
94.03099962
 20
34.29926434
  0
VERTEX
  8
0
 10
93.80005116
 20
34.12656615
  0
VERTEX
  8
0
 10
93.55270147
 20
33.97630024
  0
VERTEX
  8
0
 10
93.29045831
 20
33.84997436
  0
VERTEX
  8
0
 10
93.01482943
 20
33.74909628
  0
VERTEX
  8
0
 10
92.72732260
 20
33.67517376
  0
VERTEX
  8
0
 10
92.42944558
 20
33.62971455
  0
VERTEX
  8
0
 10
92.12270612
 20
33.61422643
  0
VERTEX
  8
0
 10
91.81596667
 20
33.62971455
  0
VERTEX
  8
0
 10
91.51808964
 20
33.67517376
  0
VERTEX
  8
0
 10
91.23058281
 20
33.74909628
  0
VERTEX
  8
0
 10
90.95495394
 20
33.84997436
  0
VERTEX
  8
0
 10
90.69271077
 20
33.97630024
  0
VERTEX
  8
0
 10
90.44536108
 20
34.12656615
  0
VERTEX
  8
0
 10
90.21441263
 20
34.29926434
  0
VERTEX
  8
0
 10
90.00137317
 20
34.49288705
  0
VERTEX
  8
0
 10
89.80775046
 20
34.70592651
  0
VERTEX
  8
0
 10
89.63505227
 20
34.93687496
  0
VERTEX
  8
0
 10
89.48478636
 20
35.18422465
  0
VERTEX
  8
0
 10
89.35846048
 20
35.44646781
  0
VERTEX
  8
0
 10
89.25758240
 20
35.72209669
  0
VERTEX
  8
0
 10
89.18365988
 20
36.00960352
  0
VERTEX
  8
0
 10
89.13820068
 20
36.30748055
  0
VERTEX
  8
0
 10
89.12271255
 20
36.61422000
  0
VERTEX
  8
0
 10
89.13820068
 20
36.92095945
  0
VERTEX
  8
0
 10
89.18365988
 20
37.21883648
  0
VERTEX
  8
0
 10
89.25758240
 20
37.50634331
  0
VERTEX
  8
0
 10
89.35846048
 20
37.78197219
  0
VERTEX
  8
0
 10
89.48478636
 20
38.04421535
  0
VERTEX
  8
0
 10
89.63505227
 20
38.29156504
  0
VERTEX
  8
0
 10
89.80775046
 20
38.52251349
  0
VERTEX
  8
0
 10
90.00137317
 20
38.73555295
  0
VERTEX
  8
0
 10
90.21441263
 20
38.92917566
  0
VERTEX
  8
0
 10
90.44536108
 20
39.10187385
  0
VERTEX
  8
0
 10
90.69271077
 20
39.25213976
  0
VERTEX
  8
0
 10
90.95495394
 20
39.37846564
  0
VERTEX
  8
0
 10
91.23058281
 20
39.47934372
  0
VERTEX
  8
0
 10
91.51808964
 20
39.55326624
  0
VERTEX
  8
0
 10
91.81596667
 20
39.59872545
  0
VERTEX
  8
0
 10
92.12270612
 20
39.61421357
  0
SEQEND
  0
POLYLINE
  8
layer_1
 62
256
 66
   1
 39
0.000000
 70
    1
  0
VERTEX
  8
0
 10
322.12221326
 20
39.61421357
  0
VERTEX
  8
0
 10
322.42895272
 20
39.59872545
  0
VERTEX
  8
0
 10
322.72682974
 20
39.55326624
  0
VERTEX
  8
0
 10
323.01433657
 20
39.47934372
  0
VERTEX
  8
0
 10
323.28996545
 20
39.37846564
  0
VERTEX
  8
0
 10
323.55220861
 20
39.25213976
  0
VERTEX
  8
0
 10
323.79955830
 20
39.10187385
  0
VERTEX
  8
0
 10
324.03050675
 20
38.92917566
  0
VERTEX
  8
0
 10
324.24354621
 20
38.73555295
  0
VERTEX
  8
0
 10
324.43716892
 20
38.52251349
  0
VERTEX
  8
0
 10
324.60986711
 20
38.29156504
  0
VERTEX
  8
0
 10
324.76013302
 20
38.04421535
  0
VERTEX
  8
0
 10
324.88645890
 20
37.78197219
  0
VERTEX
  8
0
 10
324.98733698
 20
37.50634331
  0
VERTEX
  8
0
 10
325.06125950
 20
37.21883648
  0
VERTEX
  8
0
 10
325.10671871
 20
36.92095945
  0
VERTEX
  8
0
 10
325.12220683
 20
36.61422000
  0
VERTEX
  8
0
 10
325.10671871
 20
36.30748055
  0
VERTEX
  8
0
 10
325.06125950
 20
36.00960352
  0
VERTEX
  8
0
 10
324.98733698
 20
35.72209669
  0
VERTEX
  8
0
 10
324.88645890
 20
35.44646781
  0
VERTEX
  8
0
 10
324.76013302
 20
35.18422465
  0
VERTEX
  8
0
 10
324.60986711
 20
34.93687496
  0
VERTEX
  8
0
 10
324.43716892
 20
34.70592651
  0
VERTEX
  8
0
 10
324.24354621
 20
34.49288705
  0
VERTEX
  8
0
 10
324.03050675
 20
34.29926434
  0
VERTEX
  8
0
 10
323.79955830
 20
34.12656615
  0
VERTEX
  8
0
 10
323.55220861
 20
33.97630024
  0
VERTEX
  8
0
 10
323.28996545
 20
33.84997436
  0
VERTEX
  8
0
 10
323.01433657
 20
33.74909628
  0
VERTEX
  8
0
 10
322.72682974
 20
33.67517376
  0
VERTEX
  8
0
 10
322.42895272
 20
33.62971455
  0
VERTEX
  8
0
 10
322.12221326
 20
33.61422643
  0
VERTEX
  8
0
 10
321.81547381
 20
33.62971455
  0
VERTEX
  8
0
 10
321.51759678
 20
33.67517376
  0
VERTEX
  8
0
 10
321.23008995
 20
33.74909628
  0
VERTEX
  8
0
 10
320.95446108
 20
33.84997436
  0
VERTEX
  8
0
 10
320.69221791
 20
33.97630024
  0
VERTEX
  8
0
 10
320.44486822
 20
34.12656615
  0
VERTEX
  8
0
 10
320.21391977
 20
34.29926434
  0
VERTEX
  8
0
 10
320.00088031
 20
34.49288705
  0
VERTEX
  8
0
 10
319.80725760
 20
34.70592651
  0
VERTEX
  8
0
 10
319.63455941
 20
34.93687496
  0
VERTEX
  8
0
 10
319.48429350
 20
35.18422465
  0
VERTEX
  8
0
 10
319.35796762
 20
35.44646781
  0
VERTEX
  8
0
 10
319.25708954
 20
35.72209669
  0
VERTEX
  8
0
 10
319.18316702
 20
36.00960352
  0
VERTEX
  8
0
 10
319.13770782
 20
36.30748055
  0
VERTEX
  8
0
 10
319.12221969
 20
36.61422000
  0
VERTEX
  8
0
 10
319.13770782
 20
36.92095945
  0
VERTEX
  8
0
 10
319.18316702
 20
37.21883648
  0
VERTEX
  8
0
 10
319.25708954
 20
37.50634331
  0
VERTEX
  8
0
 10
319.35796762
 20
37.78197219
  0
VERTEX
  8
0
 10
319.48429350
 20
38.04421535
  0
VERTEX
  8
0
 10
319.63455941
 20
38.29156504
  0
VERTEX
  8
0
 10
319.80725760
 20
38.52251349
  0
VERTEX
  8
0
 10
320.00088031
 20
38.73555295
  0
VERTEX
  8
0
 10
320.21391977
 20
38.92917566
  0
VERTEX
  8
0
 10
320.44486822
 20
39.10187385
  0
VERTEX
  8
0
 10
320.69221791
 20
39.25213976
  0
VERTEX
  8
0
 10
320.95446108
 20
39.37846564
  0
VERTEX
  8
0
 10
321.23008995
 20
39.47934372
  0
VERTEX
  8
0
 10
321.51759678
 20
39.55326624
  0
VERTEX
  8
0
 10
321.81547381
 20
39.59872545
  0
VERTEX
  8
0
 10
322.12221326
 20
39.61421357
  0
SEQEND
  0
ENDSEC
  0
EOF
