  0
SECTION
  2
HEADER
  9
$ACADVER
  1
AC1009
  9
$EXTMIN
 10
-749.18329000
 20
-67.89134000
 30
0.0
  9
$EXTMAX
 10
750.81671000
 20
40.10866000
 30
0.0
  0
ENDSEC
  0
SECTION
  2
TABLES
  0
TABLE
  2
LAYER
 70
1
 0
LAYER
 2
layer_1
 70
0
 62
250
 6
CONTINUOUS
 0
ENDTAB
 0
ENDSEC
  0
SECTION
  2
ENTITIES
  0
POLYLINE
  8
layer_1
 62
256
 66
   1
 39
0.000000
 70
    1
  0
VERTEX
  8
0
 10
-743.11789000
 20
40.10866000
  0
VERTEX
  8
0
 10
744.75121000
 20
40.10866000
  0
VERTEX
  8
0
 10
745.06212715
 20
40.10072849
  0
VERTEX
  8
0
 10
745.36910075
 20
40.07719311
  0
VERTEX
  8
0
 10
745.67174210
 20
40.03844253
  0
VERTEX
  8
0
 10
745.96966254
 20
39.98486547
  0
VERTEX
  8
0
 10
746.26247338
 20
39.91685061
  0
VERTEX
  8
0
 10
746.54978595
 20
39.83478666
  0
VERTEX
  8
0
 10
747.10636156
 20
39.63006625
  0
VERTEX
  8
0
 10
747.63627995
 20
39.37381381
  0
VERTEX
  8
0
 10
748.13643168
 20
39.06913891
  0
VERTEX
  8
0
 10
748.60370734
 20
38.71915111
  0
VERTEX
  8
0
 10
749.03499750
 20
38.32696000
  0
VERTEX
  8
0
 10
749.42719274
 20
37.89567514
  0
VERTEX
  8
0
 10
749.77718363
 20
37.42840609
  0
VERTEX
  8
0
 10
750.08186076
 20
36.92826244
  0
VERTEX
  8
0
 10
750.33811469
 20
36.39835375
  0
VERTEX
  8
0
 10
750.54283600
 20
35.84178959
  0
VERTEX
  8
0
 10
750.62490023
 20
35.55448345
  0
VERTEX
  8
0
 10
750.69291527
 20
35.26167953
  0
VERTEX
  8
0
 10
750.74649245
 20
34.96376653
  0
VERTEX
  8
0
 10
750.78524308
 20
34.66113314
  0
VERTEX
  8
0
 10
750.80877849
 20
34.35416807
  0
VERTEX
  8
0
 10
750.81671000
 20
34.04326000
  0
VERTEX
  8
0
 10
750.81671000
 20
-61.82594000
  0
VERTEX
  8
0
 10
750.80877849
 20
-62.13684807
  0
VERTEX
  8
0
 10
750.78524308
 20
-62.44381314
  0
VERTEX
  8
0
 10
750.74649245
 20
-62.74644653
  0
VERTEX
  8
0
 10
750.69291527
 20
-63.04435953
  0
VERTEX
  8
0
 10
750.62490023
 20
-63.33716345
  0
VERTEX
  8
0
 10
750.54283600
 20
-63.62446959
  0
VERTEX
  8
0
 10
750.33811469
 20
-64.18103375
  0
VERTEX
  8
0
 10
750.08186076
 20
-64.71094244
  0
VERTEX
  8
0
 10
749.77718363
 20
-65.21108609
  0
VERTEX
  8
0
 10
749.42719274
 20
-65.67835514
  0
VERTEX
  8
0
 10
749.03499750
 20
-66.10964000
  0
VERTEX
  8
0
 10
748.60370734
 20
-66.50183111
  0
VERTEX
  8
0
 10
748.13643168
 20
-66.85181891
  0
VERTEX
  8
0
 10
747.63627995
 20
-67.15649381
  0
VERTEX
  8
0
 10
747.10636156
 20
-67.41274625
  0
VERTEX
  8
0
 10
746.54978595
 20
-67.61746666
  0
VERTEX
  8
0
 10
746.26247338
 20
-67.69953061
  0
VERTEX
  8
0
 10
745.96966254
 20
-67.76754547
  0
VERTEX
  8
0
 10
745.67174210
 20
-67.82112253
  0
VERTEX
  8
0
 10
745.36910075
 20
-67.85987311
  0
VERTEX
  8
0
 10
745.06212715
 20
-67.88340849
  0
VERTEX
  8
0
 10
744.75121000
 20
-67.89134000
  0
VERTEX
  8
0
 10
-743.11789000
 20
-67.89134000
  0
VERTEX
  8
0
 10
-743.42880687
 20
-67.88340849
  0
VERTEX
  8
0
 10
-743.73577962
 20
-67.85987311
  0
VERTEX
  8
0
 10
-744.03841963
 20
-67.82112253
  0
VERTEX
  8
0
 10
-744.33633824
 20
-67.76754547
  0
VERTEX
  8
0
 10
-744.62914682
 20
-67.69953061
  0
VERTEX
  8
0
 10
-744.91645672
 20
-67.61746666
  0
VERTEX
  8
0
 10
-745.47302594
 20
-67.41274625
  0
VERTEX
  8
0
 10
-746.00293675
 20
-67.15649381
  0
VERTEX
  8
0
 10
-746.50308004
 20
-66.85181891
  0
VERTEX
  8
0
 10
-746.97034667
 20
-66.50183111
  0
VERTEX
  8
0
 10
-747.40162750
 20
-66.10964000
  0
VERTEX
  8
0
 10
-747.79381341
 20
-65.67835514
  0
VERTEX
  8
0
 10
-748.14379527
 20
-65.21108609
  0
VERTEX
  8
0
 10
-748.44846395
 20
-64.71094244
  0
VERTEX
  8
0
 10
-748.70471031
 20
-64.18103375
  0
VERTEX
  8
0
 10
-748.90942523
 20
-63.62446959
  0
VERTEX
  8
0
 10
-748.99148679
 20
-63.33716345
  0
VERTEX
  8
0
 10
-749.05949957
 20
-63.04435953
  0
VERTEX
  8
0
 10
-749.11307492
 20
-62.74644653
  0
VERTEX
  8
0
 10
-749.15182420
 20
-62.44381314
  0
VERTEX
  8
0
 10
-749.17535878
 20
-62.13684807
  0
VERTEX
  8
0
 10
-749.18329000
 20
-61.82594000
  0
VERTEX
  8
0
 10
-749.18329000
 20
34.04326000
  0
VERTEX
  8
0
 10
-749.17535878
 20
34.35416807
  0
VERTEX
  8
0
 10
-749.15182420
 20
34.66113314
  0
VERTEX
  8
0
 10
-749.11307492
 20
34.96376653
  0
VERTEX
  8
0
 10
-749.05949957
 20
35.26167953
  0
VERTEX
  8
0
 10
-748.99148679
 20
35.55448345
  0
VERTEX
  8
0
 10
-748.90942523
 20
35.84178959
  0
VERTEX
  8
0
 10
-748.70471031
 20
36.39835375
  0
VERTEX
  8
0
 10
-748.44846395
 20
36.92826244
  0
VERTEX
  8
0
 10
-748.14379527
 20
37.42840609
  0
VERTEX
  8
0
 10
-747.79381341
 20
37.89567514
  0
VERTEX
  8
0
 10
-747.40162750
 20
38.32696000
  0
VERTEX
  8
0
 10
-746.97034667
 20
38.71915111
  0
VERTEX
  8
0
 10
-746.50308004
 20
39.06913891
  0
VERTEX
  8
0
 10
-746.00293675
 20
39.37381381
  0
VERTEX
  8
0
 10
-745.47302594
 20
39.63006625
  0
VERTEX
  8
0
 10
-744.91645672
 20
39.83478666
  0
VERTEX
  8
0
 10
-744.62914682
 20
39.91685061
  0
VERTEX
  8
0
 10
-744.33633824
 20
39.98486547
  0
VERTEX
  8
0
 10
-744.03841963
 20
40.03844253
  0
VERTEX
  8
0
 10
-743.73577962
 20
40.07719311
  0
VERTEX
  8
0
 10
-743.42880687
 20
40.10072849
  0
VERTEX
  8
0
 10
-743.11789000
 20
40.10866000
  0
SEQEND
  0
POLYLINE
  8
layer_1
 62
256
 66
   1
 39
0.000000
 70
    1
  0
VERTEX
  8
0
 10
-589.18339000
 20
-10.89134000
  0
VERTEX
  8
0
 10
-588.87664989
 20
-10.90682816
  0
VERTEX
  8
0
 10
-588.57877223
 20
-10.95228746
  0
VERTEX
  8
0
 10
-588.29126478
 20
-11.02621014
  0
VERTEX
  8
0
 10
-588.01563531
 20
-11.12708844
  0
VERTEX
  8
0
 10
-587.75339159
 20
-11.25341458
  0
VERTEX
  8
0
 10
-587.50604137
 20
-11.40368082
  0
VERTEX
  8
0
 10
-587.27509242
 20
-11.57637938
  0
VERTEX
  8
0
 10
-587.06205250
 20
-11.77000250
  0
VERTEX
  8
0
 10
-586.86842938
 20
-11.98304242
  0
VERTEX
  8
0
 10
-586.69573082
 20
-12.21399137
  0
VERTEX
  8
0
 10
-586.54546458
 20
-12.46134159
  0
VERTEX
  8
0
 10
-586.41913844
 20
-12.72358531
  0
VERTEX
  8
0
 10
-586.31826014
 20
-12.99921478
  0
VERTEX
  8
0
 10
-586.24433746
 20
-13.28672223
  0
VERTEX
  8
0
 10
-586.19887816
 20
-13.58459989
  0
VERTEX
  8
0
 10
-586.18339000
 20
-13.89134000
  0
VERTEX
  8
0
 10
-586.19887816
 20
-14.19808011
  0
VERTEX
  8
0
 10
-586.24433746
 20
-14.49595777
  0
VERTEX
  8
0
 10
-586.31826014
 20
-14.78346522
  0
VERTEX
  8
0
 10
-586.41913844
 20
-15.05909469
  0
VERTEX
  8
0
 10
-586.54546458
 20
-15.32133841
  0
VERTEX
  8
0
 10
-586.69573082
 20
-15.56868863
  0
VERTEX
  8
0
 10
-586.86842938
 20
-15.79963758
  0
VERTEX
  8
0
 10
-587.06205250
 20
-16.01267750
  0
VERTEX
  8
0
 10
-587.27509242
 20
-16.20630062
  0
VERTEX
  8
0
 10
-587.50604137
 20
-16.37899918
  0
VERTEX
  8
0
 10
-587.75339159
 20
-16.52926542
  0
VERTEX
  8
0
 10
-588.01563531
 20
-16.65559156
  0
VERTEX
  8
0
 10
-588.29126478
 20
-16.75646986
  0
VERTEX
  8
0
 10
-588.57877223
 20
-16.83039254
  0
VERTEX
  8
0
 10
-588.87664989
 20
-16.87585184
  0
VERTEX
  8
0
 10
-589.18339000
 20
-16.89134000
  0
VERTEX
  8
0
 10
-589.49013011
 20
-16.87585184
  0
VERTEX
  8
0
 10
-589.78800777
 20
-16.83039254
  0
VERTEX
  8
0
 10
-590.07551522
 20
-16.75646986
  0
VERTEX
  8
0
 10
-590.35114469
 20
-16.65559156
  0
VERTEX
  8
0
 10
-590.61338841
 20
-16.52926542
  0
VERTEX
  8
0
 10
-590.86073863
 20
-16.37899918
  0
VERTEX
  8
0
 10
-591.09168758
 20
-16.20630062
  0
VERTEX
  8
0
 10
-591.30472750
 20
-16.01267750
  0
VERTEX
  8
0
 10
-591.49835062
 20
-15.79963758
  0
VERTEX
  8
0
 10
-591.67104918
 20
-15.56868863
  0
VERTEX
  8
0
 10
-591.82131542
 20
-15.32133841
  0
VERTEX
  8
0
 10
-591.94764156
 20
-15.05909469
  0
VERTEX
  8
0
 10
-592.04851986
 20
-14.78346522
  0
VERTEX
  8
0
 10
-592.12244254
 20
-14.49595777
  0
VERTEX
  8
0
 10
-592.16790184
 20
-14.19808011
  0
VERTEX
  8
0
 10
-592.18339000
 20
-13.89134000
  0
VERTEX
  8
0
 10
-592.16790184
 20
-13.58459989
  0
VERTEX
  8
0
 10
-592.12244254
 20
-13.28672223
  0
VERTEX
  8
0
 10
-592.04851986
 20
-12.99921478
  0
VERTEX
  8
0
 10
-591.94764156
 20
-12.72358531
  0
VERTEX
  8
0
 10
-591.82131542
 20
-12.46134159
  0
VERTEX
  8
0
 10
-591.67104918
 20
-12.21399137
  0
VERTEX
  8
0
 10
-591.49835062
 20
-11.98304242
  0
VERTEX
  8
0
 10
-591.30472750
 20
-11.77000250
  0
VERTEX
  8
0
 10
-591.09168758
 20
-11.57637938
  0
VERTEX
  8
0
 10
-590.86073863
 20
-11.40368082
  0
VERTEX
  8
0
 10
-590.61338841
 20
-11.25341458
  0
VERTEX
  8
0
 10
-590.35114469
 20
-11.12708844
  0
VERTEX
  8
0
 10
-590.07551522
 20
-11.02621014
  0
VERTEX
  8
0
 10
-589.78800777
 20
-10.95228746
  0
VERTEX
  8
0
 10
-589.49013011
 20
-10.90682816
  0
VERTEX
  8
0
 10
-589.18339000
 20
-10.89134000
  0
SEQEND
  0
POLYLINE
  8
layer_1
 62
256
 66
   1
 39
0.000000
 70
    1
  0
VERTEX
  8
0
 10
-449.18339000
 20
-10.89134000
  0
VERTEX
  8
0
 10
-448.87664989
 20
-10.90682816
  0
VERTEX
  8
0
 10
-448.57877223
 20
-10.95228746
  0
VERTEX
  8
0
 10
-448.29126478
 20
-11.02621014
  0
VERTEX
  8
0
 10
-448.01563531
 20
-11.12708844
  0
VERTEX
  8
0
 10
-447.75339159
 20
-11.25341458
  0
VERTEX
  8
0
 10
-447.50604137
 20
-11.40368082
  0
VERTEX
  8
0
 10
-447.27509242
 20
-11.57637938
  0
VERTEX
  8
0
 10
-447.06205250
 20
-11.77000250
  0
VERTEX
  8
0
 10
-446.86842938
 20
-11.98304242
  0
VERTEX
  8
0
 10
-446.69573082
 20
-12.21399137
  0
VERTEX
  8
0
 10
-446.54546458
 20
-12.46134159
  0
VERTEX
  8
0
 10
-446.41913844
 20
-12.72358531
  0
VERTEX
  8
0
 10
-446.31826014
 20
-12.99921478
  0
VERTEX
  8
0
 10
-446.24433746
 20
-13.28672223
  0
VERTEX
  8
0
 10
-446.19887816
 20
-13.58459989
  0
VERTEX
  8
0
 10
-446.18339000
 20
-13.89134000
  0
VERTEX
  8
0
 10
-446.19887816
 20
-14.19808011
  0
VERTEX
  8
0
 10
-446.24433746
 20
-14.49595777
  0
VERTEX
  8
0
 10
-446.31826014
 20
-14.78346522
  0
VERTEX
  8
0
 10
-446.41913844
 20
-15.05909469
  0
VERTEX
  8
0
 10
-446.54546458
 20
-15.32133841
  0
VERTEX
  8
0
 10
-446.69573082
 20
-15.56868863
  0
VERTEX
  8
0
 10
-446.86842938
 20
-15.79963758
  0
VERTEX
  8
0
 10
-447.06205250
 20
-16.01267750
  0
VERTEX
  8
0
 10
-447.27509242
 20
-16.20630062
  0
VERTEX
  8
0
 10
-447.50604137
 20
-16.37899918
  0
VERTEX
  8
0
 10
-447.75339159
 20
-16.52926542
  0
VERTEX
  8
0
 10
-448.01563531
 20
-16.65559156
  0
VERTEX
  8
0
 10
-448.29126478
 20
-16.75646986
  0
VERTEX
  8
0
 10
-448.57877223
 20
-16.83039254
  0
VERTEX
  8
0
 10
-448.87664989
 20
-16.87585184
  0
VERTEX
  8
0
 10
-449.18339000
 20
-16.89134000
  0
VERTEX
  8
0
 10
-449.49013011
 20
-16.87585184
  0
VERTEX
  8
0
 10
-449.78800777
 20
-16.83039254
  0
VERTEX
  8
0
 10
-450.07551522
 20
-16.75646986
  0
VERTEX
  8
0
 10
-450.35114469
 20
-16.65559156
  0
VERTEX
  8
0
 10
-450.61338841
 20
-16.52926542
  0
VERTEX
  8
0
 10
-450.86073863
 20
-16.37899918
  0
VERTEX
  8
0
 10
-451.09168758
 20
-16.20630062
  0
VERTEX
  8
0
 10
-451.30472750
 20
-16.01267750
  0
VERTEX
  8
0
 10
-451.49835062
 20
-15.79963758
  0
VERTEX
  8
0
 10
-451.67104918
 20
-15.56868863
  0
VERTEX
  8
0
 10
-451.82131542
 20
-15.32133841
  0
VERTEX
  8
0
 10
-451.94764156
 20
-15.05909469
  0
VERTEX
  8
0
 10
-452.04851986
 20
-14.78346522
  0
VERTEX
  8
0
 10
-452.12244254
 20
-14.49595777
  0
VERTEX
  8
0
 10
-452.16790184
 20
-14.19808011
  0
VERTEX
  8
0
 10
-452.18339000
 20
-13.89134000
  0
VERTEX
  8
0
 10
-452.16790184
 20
-13.58459989
  0
VERTEX
  8
0
 10
-452.12244254
 20
-13.28672223
  0
VERTEX
  8
0
 10
-452.04851986
 20
-12.99921478
  0
VERTEX
  8
0
 10
-451.94764156
 20
-12.72358531
  0
VERTEX
  8
0
 10
-451.82131542
 20
-12.46134159
  0
VERTEX
  8
0
 10
-451.67104918
 20
-12.21399137
  0
VERTEX
  8
0
 10
-451.49835062
 20
-11.98304242
  0
VERTEX
  8
0
 10
-451.30472750
 20
-11.77000250
  0
VERTEX
  8
0
 10
-451.09168758
 20
-11.57637938
  0
VERTEX
  8
0
 10
-450.86073863
 20
-11.40368082
  0
VERTEX
  8
0
 10
-450.61338841
 20
-11.25341458
  0
VERTEX
  8
0
 10
-450.35114469
 20
-11.12708844
  0
VERTEX
  8
0
 10
-450.07551522
 20
-11.02621014
  0
VERTEX
  8
0
 10
-449.78800777
 20
-10.95228746
  0
VERTEX
  8
0
 10
-449.49013011
 20
-10.90682816
  0
VERTEX
  8
0
 10
-449.18339000
 20
-10.89134000
  0
SEQEND
  0
POLYLINE
  8
layer_1
 62
256
 66
   1
 39
0.000000
 70
    1
  0
VERTEX
  8
0
 10
-219.18339000
 20
-10.89134000
  0
VERTEX
  8
0
 10
-218.87664989
 20
-10.90682816
  0
VERTEX
  8
0
 10
-218.57877223
 20
-10.95228746
  0
VERTEX
  8
0
 10
-218.29126478
 20
-11.02621014
  0
VERTEX
  8
0
 10
-218.01563531
 20
-11.12708844
  0
VERTEX
  8
0
 10
-217.75339159
 20
-11.25341458
  0
VERTEX
  8
0
 10
-217.50604137
 20
-11.40368082
  0
VERTEX
  8
0
 10
-217.27509242
 20
-11.57637938
  0
VERTEX
  8
0
 10
-217.06205250
 20
-11.77000250
  0
VERTEX
  8
0
 10
-216.86842938
 20
-11.98304242
  0
VERTEX
  8
0
 10
-216.69573082
 20
-12.21399137
  0
VERTEX
  8
0
 10
-216.54546458
 20
-12.46134159
  0
VERTEX
  8
0
 10
-216.41913844
 20
-12.72358531
  0
VERTEX
  8
0
 10
-216.31826014
 20
-12.99921478
  0
VERTEX
  8
0
 10
-216.24433746
 20
-13.28672223
  0
VERTEX
  8
0
 10
-216.19887816
 20
-13.58459989
  0
VERTEX
  8
0
 10
-216.18339000
 20
-13.89134000
  0
VERTEX
  8
0
 10
-216.19887816
 20
-14.19808011
  0
VERTEX
  8
0
 10
-216.24433746
 20
-14.49595777
  0
VERTEX
  8
0
 10
-216.31826014
 20
-14.78346522
  0
VERTEX
  8
0
 10
-216.41913844
 20
-15.05909469
  0
VERTEX
  8
0
 10
-216.54546458
 20
-15.32133841
  0
VERTEX
  8
0
 10
-216.69573082
 20
-15.56868863
  0
VERTEX
  8
0
 10
-216.86842938
 20
-15.79963758
  0
VERTEX
  8
0
 10
-217.06205250
 20
-16.01267750
  0
VERTEX
  8
0
 10
-217.27509242
 20
-16.20630062
  0
VERTEX
  8
0
 10
-217.50604137
 20
-16.37899918
  0
VERTEX
  8
0
 10
-217.75339159
 20
-16.52926542
  0
VERTEX
  8
0
 10
-218.01563531
 20
-16.65559156
  0
VERTEX
  8
0
 10
-218.29126478
 20
-16.75646986
  0
VERTEX
  8
0
 10
-218.57877223
 20
-16.83039254
  0
VERTEX
  8
0
 10
-218.87664989
 20
-16.87585184
  0
VERTEX
  8
0
 10
-219.18339000
 20
-16.89134000
  0
VERTEX
  8
0
 10
-219.49013011
 20
-16.87585184
  0
VERTEX
  8
0
 10
-219.78800777
 20
-16.83039254
  0
VERTEX
  8
0
 10
-220.07551522
 20
-16.75646986
  0
VERTEX
  8
0
 10
-220.35114469
 20
-16.65559156
  0
VERTEX
  8
0
 10
-220.61338841
 20
-16.52926542
  0
VERTEX
  8
0
 10
-220.86073863
 20
-16.37899918
  0
VERTEX
  8
0
 10
-221.09168758
 20
-16.20630062
  0
VERTEX
  8
0
 10
-221.30472750
 20
-16.01267750
  0
VERTEX
  8
0
 10
-221.49835062
 20
-15.79963758
  0
VERTEX
  8
0
 10
-221.67104918
 20
-15.56868863
  0
VERTEX
  8
0
 10
-221.82131542
 20
-15.32133841
  0
VERTEX
  8
0
 10
-221.94764156
 20
-15.05909469
  0
VERTEX
  8
0
 10
-222.04851986
 20
-14.78346522
  0
VERTEX
  8
0
 10
-222.12244254
 20
-14.49595777
  0
VERTEX
  8
0
 10
-222.16790184
 20
-14.19808011
  0
VERTEX
  8
0
 10
-222.18339000
 20
-13.89134000
  0
VERTEX
  8
0
 10
-222.16790184
 20
-13.58459989
  0
VERTEX
  8
0
 10
-222.12244254
 20
-13.28672223
  0
VERTEX
  8
0
 10
-222.04851986
 20
-12.99921478
  0
VERTEX
  8
0
 10
-221.94764156
 20
-12.72358531
  0
VERTEX
  8
0
 10
-221.82131542
 20
-12.46134159
  0
VERTEX
  8
0
 10
-221.67104918
 20
-12.21399137
  0
VERTEX
  8
0
 10
-221.49835062
 20
-11.98304242
  0
VERTEX
  8
0
 10
-221.30472750
 20
-11.77000250
  0
VERTEX
  8
0
 10
-221.09168758
 20
-11.57637938
  0
VERTEX
  8
0
 10
-220.86073863
 20
-11.40368082
  0
VERTEX
  8
0
 10
-220.61338841
 20
-11.25341458
  0
VERTEX
  8
0
 10
-220.35114469
 20
-11.12708844
  0
VERTEX
  8
0
 10
-220.07551522
 20
-11.02621014
  0
VERTEX
  8
0
 10
-219.78800777
 20
-10.95228746
  0
VERTEX
  8
0
 10
-219.49013011
 20
-10.90682816
  0
VERTEX
  8
0
 10
-219.18339000
 20
-10.89134000
  0
SEQEND
  0
POLYLINE
  8
layer_1
 62
256
 66
   1
 39
0.000000
 70
    1
  0
VERTEX
  8
0
 10
-109.18339000
 20
-10.89134000
  0
VERTEX
  8
0
 10
-108.87664989
 20
-10.90682816
  0
VERTEX
  8
0
 10
-108.57877223
 20
-10.95228746
  0
VERTEX
  8
0
 10
-108.29126478
 20
-11.02621014
  0
VERTEX
  8
0
 10
-108.01563531
 20
-11.12708844
  0
VERTEX
  8
0
 10
-107.75339159
 20
-11.25341458
  0
VERTEX
  8
0
 10
-107.50604137
 20
-11.40368082
  0
VERTEX
  8
0
 10
-107.27509242
 20
-11.57637938
  0
VERTEX
  8
0
 10
-107.06205250
 20
-11.77000250
  0
VERTEX
  8
0
 10
-106.86842938
 20
-11.98304242
  0
VERTEX
  8
0
 10
-106.69573082
 20
-12.21399137
  0
VERTEX
  8
0
 10
-106.54546458
 20
-12.46134159
  0
VERTEX
  8
0
 10
-106.41913844
 20
-12.72358531
  0
VERTEX
  8
0
 10
-106.31826014
 20
-12.99921478
  0
VERTEX
  8
0
 10
-106.24433746
 20
-13.28672223
  0
VERTEX
  8
0
 10
-106.19887816
 20
-13.58459989
  0
VERTEX
  8
0
 10
-106.18339000
 20
-13.89134000
  0
VERTEX
  8
0
 10
-106.19887816
 20
-14.19808011
  0
VERTEX
  8
0
 10
-106.24433746
 20
-14.49595777
  0
VERTEX
  8
0
 10
-106.31826014
 20
-14.78346522
  0
VERTEX
  8
0
 10
-106.41913844
 20
-15.05909469
  0
VERTEX
  8
0
 10
-106.54546458
 20
-15.32133841
  0
VERTEX
  8
0
 10
-106.69573082
 20
-15.56868863
  0
VERTEX
  8
0
 10
-106.86842938
 20
-15.79963758
  0
VERTEX
  8
0
 10
-107.06205250
 20
-16.01267750
  0
VERTEX
  8
0
 10
-107.27509242
 20
-16.20630062
  0
VERTEX
  8
0
 10
-107.50604137
 20
-16.37899918
  0
VERTEX
  8
0
 10
-107.75339159
 20
-16.52926542
  0
VERTEX
  8
0
 10
-108.01563531
 20
-16.65559156
  0
VERTEX
  8
0
 10
-108.29126478
 20
-16.75646986
  0
VERTEX
  8
0
 10
-108.57877223
 20
-16.83039254
  0
VERTEX
  8
0
 10
-108.87664989
 20
-16.87585184
  0
VERTEX
  8
0
 10
-109.18339000
 20
-16.89134000
  0
VERTEX
  8
0
 10
-109.49013011
 20
-16.87585184
  0
VERTEX
  8
0
 10
-109.78800777
 20
-16.83039254
  0
VERTEX
  8
0
 10
-110.07551522
 20
-16.75646986
  0
VERTEX
  8
0
 10
-110.35114469
 20
-16.65559156
  0
VERTEX
  8
0
 10
-110.61338841
 20
-16.52926542
  0
VERTEX
  8
0
 10
-110.86073863
 20
-16.37899918
  0
VERTEX
  8
0
 10
-111.09168758
 20
-16.20630062
  0
VERTEX
  8
0
 10
-111.30472750
 20
-16.01267750
  0
VERTEX
  8
0
 10
-111.49835062
 20
-15.79963758
  0
VERTEX
  8
0
 10
-111.67104918
 20
-15.56868863
  0
VERTEX
  8
0
 10
-111.82131542
 20
-15.32133841
  0
VERTEX
  8
0
 10
-111.94764156
 20
-15.05909469
  0
VERTEX
  8
0
 10
-112.04851986
 20
-14.78346522
  0
VERTEX
  8
0
 10
-112.12244254
 20
-14.49595777
  0
VERTEX
  8
0
 10
-112.16790184
 20
-14.19808011
  0
VERTEX
  8
0
 10
-112.18339000
 20
-13.89134000
  0
VERTEX
  8
0
 10
-112.16790184
 20
-13.58459989
  0
VERTEX
  8
0
 10
-112.12244254
 20
-13.28672223
  0
VERTEX
  8
0
 10
-112.04851986
 20
-12.99921478
  0
VERTEX
  8
0
 10
-111.94764156
 20
-12.72358531
  0
VERTEX
  8
0
 10
-111.82131542
 20
-12.46134159
  0
VERTEX
  8
0
 10
-111.67104918
 20
-12.21399137
  0
VERTEX
  8
0
 10
-111.49835062
 20
-11.98304242
  0
VERTEX
  8
0
 10
-111.30472750
 20
-11.77000250
  0
VERTEX
  8
0
 10
-111.09168758
 20
-11.57637938
  0
VERTEX
  8
0
 10
-110.86073863
 20
-11.40368082
  0
VERTEX
  8
0
 10
-110.61338841
 20
-11.25341458
  0
VERTEX
  8
0
 10
-110.35114469
 20
-11.12708844
  0
VERTEX
  8
0
 10
-110.07551522
 20
-11.02621014
  0
VERTEX
  8
0
 10
-109.78800777
 20
-10.95228746
  0
VERTEX
  8
0
 10
-109.49013011
 20
-10.90682816
  0
VERTEX
  8
0
 10
-109.18339000
 20
-10.89134000
  0
SEQEND
  0
POLYLINE
  8
layer_1
 62
256
 66
   1
 39
0.000000
 70
    1
  0
VERTEX
  8
0
 10
-9.18339000
 20
-10.89134000
  0
VERTEX
  8
0
 10
-8.87664989
 20
-10.90682816
  0
VERTEX
  8
0
 10
-8.57877223
 20
-10.95228746
  0
VERTEX
  8
0
 10
-8.29126478
 20
-11.02621014
  0
VERTEX
  8
0
 10
-8.01563531
 20
-11.12708844
  0
VERTEX
  8
0
 10
-7.75339159
 20
-11.25341458
  0
VERTEX
  8
0
 10
-7.50604137
 20
-11.40368082
  0
VERTEX
  8
0
 10
-7.27509242
 20
-11.57637938
  0
VERTEX
  8
0
 10
-7.06205250
 20
-11.77000250
  0
VERTEX
  8
0
 10
-6.86842938
 20
-11.98304242
  0
VERTEX
  8
0
 10
-6.69573082
 20
-12.21399137
  0
VERTEX
  8
0
 10
-6.54546458
 20
-12.46134159
  0
VERTEX
  8
0
 10
-6.41913844
 20
-12.72358531
  0
VERTEX
  8
0
 10
-6.31826014
 20
-12.99921478
  0
VERTEX
  8
0
 10
-6.24433746
 20
-13.28672223
  0
VERTEX
  8
0
 10
-6.19887816
 20
-13.58459989
  0
VERTEX
  8
0
 10
-6.18339000
 20
-13.89134000
  0
VERTEX
  8
0
 10
-6.19887816
 20
-14.19808011
  0
VERTEX
  8
0
 10
-6.24433746
 20
-14.49595777
  0
VERTEX
  8
0
 10
-6.31826014
 20
-14.78346522
  0
VERTEX
  8
0
 10
-6.41913844
 20
-15.05909469
  0
VERTEX
  8
0
 10
-6.54546458
 20
-15.32133841
  0
VERTEX
  8
0
 10
-6.69573082
 20
-15.56868863
  0
VERTEX
  8
0
 10
-6.86842938
 20
-15.79963758
  0
VERTEX
  8
0
 10
-7.06205250
 20
-16.01267750
  0
VERTEX
  8
0
 10
-7.27509242
 20
-16.20630062
  0
VERTEX
  8
0
 10
-7.50604137
 20
-16.37899918
  0
VERTEX
  8
0
 10
-7.75339159
 20
-16.52926542
  0
VERTEX
  8
0
 10
-8.01563531
 20
-16.65559156
  0
VERTEX
  8
0
 10
-8.29126478
 20
-16.75646986
  0
VERTEX
  8
0
 10
-8.57877223
 20
-16.83039254
  0
VERTEX
  8
0
 10
-8.87664989
 20
-16.87585184
  0
VERTEX
  8
0
 10
-9.18339000
 20
-16.89134000
  0
VERTEX
  8
0
 10
-9.49013011
 20
-16.87585184
  0
VERTEX
  8
0
 10
-9.78800777
 20
-16.83039254
  0
VERTEX
  8
0
 10
-10.07551522
 20
-16.75646986
  0
VERTEX
  8
0
 10
-10.35114469
 20
-16.65559156
  0
VERTEX
  8
0
 10
-10.61338841
 20
-16.52926542
  0
VERTEX
  8
0
 10
-10.86073863
 20
-16.37899918
  0
VERTEX
  8
0
 10
-11.09168758
 20
-16.20630062
  0
VERTEX
  8
0
 10
-11.30472750
 20
-16.01267750
  0
VERTEX
  8
0
 10
-11.49835062
 20
-15.79963758
  0
VERTEX
  8
0
 10
-11.67104918
 20
-15.56868863
  0
VERTEX
  8
0
 10
-11.82131542
 20
-15.32133841
  0
VERTEX
  8
0
 10
-11.94764156
 20
-15.05909469
  0
VERTEX
  8
0
 10
-12.04851986
 20
-14.78346522
  0
VERTEX
  8
0
 10
-12.12244254
 20
-14.49595777
  0
VERTEX
  8
0
 10
-12.16790184
 20
-14.19808011
  0
VERTEX
  8
0
 10
-12.18339000
 20
-13.89134000
  0
VERTEX
  8
0
 10
-12.16790184
 20
-13.58459989
  0
VERTEX
  8
0
 10
-12.12244254
 20
-13.28672223
  0
VERTEX
  8
0
 10
-12.04851986
 20
-12.99921478
  0
VERTEX
  8
0
 10
-11.94764156
 20
-12.72358531
  0
VERTEX
  8
0
 10
-11.82131542
 20
-12.46134159
  0
VERTEX
  8
0
 10
-11.67104918
 20
-12.21399137
  0
VERTEX
  8
0
 10
-11.49835062
 20
-11.98304242
  0
VERTEX
  8
0
 10
-11.30472750
 20
-11.77000250
  0
VERTEX
  8
0
 10
-11.09168758
 20
-11.57637938
  0
VERTEX
  8
0
 10
-10.86073863
 20
-11.40368082
  0
VERTEX
  8
0
 10
-10.61338841
 20
-11.25341458
  0
VERTEX
  8
0
 10
-10.35114469
 20
-11.12708844
  0
VERTEX
  8
0
 10
-10.07551522
 20
-11.02621014
  0
VERTEX
  8
0
 10
-9.78800777
 20
-10.95228746
  0
VERTEX
  8
0
 10
-9.49013011
 20
-10.90682816
  0
VERTEX
  8
0
 10
-9.18339000
 20
-10.89134000
  0
SEQEND
  0
POLYLINE
  8
layer_1
 62
256
 66
   1
 39
0.000000
 70
    1
  0
VERTEX
  8
0
 10
240.81661000
 20
-10.89134000
  0
VERTEX
  8
0
 10
241.12335011
 20
-10.90682816
  0
VERTEX
  8
0
 10
241.42122777
 20
-10.95228746
  0
VERTEX
  8
0
 10
241.70873522
 20
-11.02621014
  0
VERTEX
  8
0
 10
241.98436469
 20
-11.12708844
  0
VERTEX
  8
0
 10
242.24660841
 20
-11.25341458
  0
VERTEX
  8
0
 10
242.49395863
 20
-11.40368082
  0
VERTEX
  8
0
 10
242.72490758
 20
-11.57637938
  0
VERTEX
  8
0
 10
242.93794750
 20
-11.77000250
  0
VERTEX
  8
0
 10
243.13157062
 20
-11.98304242
  0
VERTEX
  8
0
 10
243.30426918
 20
-12.21399137
  0
VERTEX
  8
0
 10
243.45453542
 20
-12.46134159
  0
VERTEX
  8
0
 10
243.58086156
 20
-12.72358531
  0
VERTEX
  8
0
 10
243.68173986
 20
-12.99921478
  0
VERTEX
  8
0
 10
243.75566254
 20
-13.28672223
  0
VERTEX
  8
0
 10
243.80112184
 20
-13.58459989
  0
VERTEX
  8
0
 10
243.81661000
 20
-13.89134000
  0
VERTEX
  8
0
 10
243.80112184
 20
-14.19808011
  0
VERTEX
  8
0
 10
243.75566254
 20
-14.49595777
  0
VERTEX
  8
0
 10
243.68173986
 20
-14.78346522
  0
VERTEX
  8
0
 10
243.58086156
 20
-15.05909469
  0
VERTEX
  8
0
 10
243.45453542
 20
-15.32133841
  0
VERTEX
  8
0
 10
243.30426918
 20
-15.56868863
  0
VERTEX
  8
0
 10
243.13157062
 20
-15.79963758
  0
VERTEX
  8
0
 10
242.93794750
 20
-16.01267750
  0
VERTEX
  8
0
 10
242.72490758
 20
-16.20630062
  0
VERTEX
  8
0
 10
242.49395863
 20
-16.37899918
  0
VERTEX
  8
0
 10
242.24660841
 20
-16.52926542
  0
VERTEX
  8
0
 10
241.98436469
 20
-16.65559156
  0
VERTEX
  8
0
 10
241.70873522
 20
-16.75646986
  0
VERTEX
  8
0
 10
241.42122777
 20
-16.83039254
  0
VERTEX
  8
0
 10
241.12335011
 20
-16.87585184
  0
VERTEX
  8
0
 10
240.81661000
 20
-16.89134000
  0
VERTEX
  8
0
 10
240.50986989
 20
-16.87585184
  0
VERTEX
  8
0
 10
240.21199223
 20
-16.83039254
  0
VERTEX
  8
0
 10
239.92448478
 20
-16.75646986
  0
VERTEX
  8
0
 10
239.64885531
 20
-16.65559156
  0
VERTEX
  8
0
 10
239.38661159
 20
-16.52926542
  0
VERTEX
  8
0
 10
239.13926137
 20
-16.37899918
  0
VERTEX
  8
0
 10
238.90831242
 20
-16.20630062
  0
VERTEX
  8
0
 10
238.69527250
 20
-16.01267750
  0
VERTEX
  8
0
 10
238.50164938
 20
-15.79963758
  0
VERTEX
  8
0
 10
238.32895082
 20
-15.56868863
  0
VERTEX
  8
0
 10
238.17868458
 20
-15.32133841
  0
VERTEX
  8
0
 10
238.05235844
 20
-15.05909469
  0
VERTEX
  8
0
 10
237.95148014
 20
-14.78346522
  0
VERTEX
  8
0
 10
237.87755746
 20
-14.49595777
  0
VERTEX
  8
0
 10
237.83209816
 20
-14.19808011
  0
VERTEX
  8
0
 10
237.81661000
 20
-13.89134000
  0
VERTEX
  8
0
 10
237.83209816
 20
-13.58459989
  0
VERTEX
  8
0
 10
237.87755746
 20
-13.28672223
  0
VERTEX
  8
0
 10
237.95148014
 20
-12.99921478
  0
VERTEX
  8
0
 10
238.05235844
 20
-12.72358531
  0
VERTEX
  8
0
 10
238.17868458
 20
-12.46134159
  0
VERTEX
  8
0
 10
238.32895082
 20
-12.21399137
  0
VERTEX
  8
0
 10
238.50164938
 20
-11.98304242
  0
VERTEX
  8
0
 10
238.69527250
 20
-11.77000250
  0
VERTEX
  8
0
 10
238.90831242
 20
-11.57637938
  0
VERTEX
  8
0
 10
239.13926137
 20
-11.40368082
  0
VERTEX
  8
0
 10
239.38661159
 20
-11.25341458
  0
VERTEX
  8
0
 10
239.64885531
 20
-11.12708844
  0
VERTEX
  8
0
 10
239.92448478
 20
-11.02621014
  0
VERTEX
  8
0
 10
240.21199223
 20
-10.95228746
  0
VERTEX
  8
0
 10
240.50986989
 20
-10.90682816
  0
VERTEX
  8
0
 10
240.81661000
 20
-10.89134000
  0
SEQEND
  0
POLYLINE
  8
layer_1
 62
256
 66
   1
 39
0.000000
 70
    1
  0
VERTEX
  8
0
 10
460.81661000
 20
-10.89134000
  0
VERTEX
  8
0
 10
461.12335011
 20
-10.90682816
  0
VERTEX
  8
0
 10
461.42122777
 20
-10.95228746
  0
VERTEX
  8
0
 10
461.70873522
 20
-11.02621014
  0
VERTEX
  8
0
 10
461.98436469
 20
-11.12708844
  0
VERTEX
  8
0
 10
462.24660841
 20
-11.25341458
  0
VERTEX
  8
0
 10
462.49395863
 20
-11.40368082
  0
VERTEX
  8
0
 10
462.72490758
 20
-11.57637938
  0
VERTEX
  8
0
 10
462.93794750
 20
-11.77000250
  0
VERTEX
  8
0
 10
463.13157062
 20
-11.98304242
  0
VERTEX
  8
0
 10
463.30426918
 20
-12.21399137
  0
VERTEX
  8
0
 10
463.45453542
 20
-12.46134159
  0
VERTEX
  8
0
 10
463.58086156
 20
-12.72358531
  0
VERTEX
  8
0
 10
463.68173986
 20
-12.99921478
  0
VERTEX
  8
0
 10
463.75566254
 20
-13.28672223
  0
VERTEX
  8
0
 10
463.80112184
 20
-13.58459989
  0
VERTEX
  8
0
 10
463.81661000
 20
-13.89134000
  0
VERTEX
  8
0
 10
463.80112184
 20
-14.19808011
  0
VERTEX
  8
0
 10
463.75566254
 20
-14.49595777
  0
VERTEX
  8
0
 10
463.68173986
 20
-14.78346522
  0
VERTEX
  8
0
 10
463.58086156
 20
-15.05909469
  0
VERTEX
  8
0
 10
463.45453542
 20
-15.32133841
  0
VERTEX
  8
0
 10
463.30426918
 20
-15.56868863
  0
VERTEX
  8
0
 10
463.13157062
 20
-15.79963758
  0
VERTEX
  8
0
 10
462.93794750
 20
-16.01267750
  0
VERTEX
  8
0
 10
462.72490758
 20
-16.20630062
  0
VERTEX
  8
0
 10
462.49395863
 20
-16.37899918
  0
VERTEX
  8
0
 10
462.24660841
 20
-16.52926542
  0
VERTEX
  8
0
 10
461.98436469
 20
-16.65559156
  0
VERTEX
  8
0
 10
461.70873522
 20
-16.75646986
  0
VERTEX
  8
0
 10
461.42122777
 20
-16.83039254
  0
VERTEX
  8
0
 10
461.12335011
 20
-16.87585184
  0
VERTEX
  8
0
 10
460.81661000
 20
-16.89134000
  0
VERTEX
  8
0
 10
460.50986989
 20
-16.87585184
  0
VERTEX
  8
0
 10
460.21199223
 20
-16.83039254
  0
VERTEX
  8
0
 10
459.92448478
 20
-16.75646986
  0
VERTEX
  8
0
 10
459.64885531
 20
-16.65559156
  0
VERTEX
  8
0
 10
459.38661159
 20
-16.52926542
  0
VERTEX
  8
0
 10
459.13926137
 20
-16.37899918
  0
VERTEX
  8
0
 10
458.90831242
 20
-16.20630062
  0
VERTEX
  8
0
 10
458.69527250
 20
-16.01267750
  0
VERTEX
  8
0
 10
458.50164938
 20
-15.79963758
  0
VERTEX
  8
0
 10
458.32895082
 20
-15.56868863
  0
VERTEX
  8
0
 10
458.17868458
 20
-15.32133841
  0
VERTEX
  8
0
 10
458.05235844
 20
-15.05909469
  0
VERTEX
  8
0
 10
457.95148014
 20
-14.78346522
  0
VERTEX
  8
0
 10
457.87755746
 20
-14.49595777
  0
VERTEX
  8
0
 10
457.83209816
 20
-14.19808011
  0
VERTEX
  8
0
 10
457.81661000
 20
-13.89134000
  0
VERTEX
  8
0
 10
457.83209816
 20
-13.58459989
  0
VERTEX
  8
0
 10
457.87755746
 20
-13.28672223
  0
VERTEX
  8
0
 10
457.95148014
 20
-12.99921478
  0
VERTEX
  8
0
 10
458.05235844
 20
-12.72358531
  0
VERTEX
  8
0
 10
458.17868458
 20
-12.46134159
  0
VERTEX
  8
0
 10
458.32895082
 20
-12.21399137
  0
VERTEX
  8
0
 10
458.50164938
 20
-11.98304242
  0
VERTEX
  8
0
 10
458.69527250
 20
-11.77000250
  0
VERTEX
  8
0
 10
458.90831242
 20
-11.57637938
  0
VERTEX
  8
0
 10
459.13926137
 20
-11.40368082
  0
VERTEX
  8
0
 10
459.38661159
 20
-11.25341458
  0
VERTEX
  8
0
 10
459.64885531
 20
-11.12708844
  0
VERTEX
  8
0
 10
459.92448478
 20
-11.02621014
  0
VERTEX
  8
0
 10
460.21199223
 20
-10.95228746
  0
VERTEX
  8
0
 10
460.50986989
 20
-10.90682816
  0
VERTEX
  8
0
 10
460.81661000
 20
-10.89134000
  0
SEQEND
  0
POLYLINE
  8
layer_1
 62
256
 66
   1
 39
0.000000
 70
    1
  0
VERTEX
  8
0
 10
640.81661000
 20
-10.89134000
  0
VERTEX
  8
0
 10
641.12335011
 20
-10.90682816
  0
VERTEX
  8
0
 10
641.42122777
 20
-10.95228746
  0
VERTEX
  8
0
 10
641.70873522
 20
-11.02621014
  0
VERTEX
  8
0
 10
641.98436469
 20
-11.12708844
  0
VERTEX
  8
0
 10
642.24660841
 20
-11.25341458
  0
VERTEX
  8
0
 10
642.49395863
 20
-11.40368082
  0
VERTEX
  8
0
 10
642.72490758
 20
-11.57637938
  0
VERTEX
  8
0
 10
642.93794750
 20
-11.77000250
  0
VERTEX
  8
0
 10
643.13157062
 20
-11.98304242
  0
VERTEX
  8
0
 10
643.30426918
 20
-12.21399137
  0
VERTEX
  8
0
 10
643.45453542
 20
-12.46134159
  0
VERTEX
  8
0
 10
643.58086156
 20
-12.72358531
  0
VERTEX
  8
0
 10
643.68173986
 20
-12.99921478
  0
VERTEX
  8
0
 10
643.75566254
 20
-13.28672223
  0
VERTEX
  8
0
 10
643.80112184
 20
-13.58459989
  0
VERTEX
  8
0
 10
643.81661000
 20
-13.89134000
  0
VERTEX
  8
0
 10
643.80112184
 20
-14.19808011
  0
VERTEX
  8
0
 10
643.75566254
 20
-14.49595777
  0
VERTEX
  8
0
 10
643.68173986
 20
-14.78346522
  0
VERTEX
  8
0
 10
643.58086156
 20
-15.05909469
  0
VERTEX
  8
0
 10
643.45453542
 20
-15.32133841
  0
VERTEX
  8
0
 10
643.30426918
 20
-15.56868863
  0
VERTEX
  8
0
 10
643.13157062
 20
-15.79963758
  0
VERTEX
  8
0
 10
642.93794750
 20
-16.01267750
  0
VERTEX
  8
0
 10
642.72490758
 20
-16.20630062
  0
VERTEX
  8
0
 10
642.49395863
 20
-16.37899918
  0
VERTEX
  8
0
 10
642.24660841
 20
-16.52926542
  0
VERTEX
  8
0
 10
641.98436469
 20
-16.65559156
  0
VERTEX
  8
0
 10
641.70873522
 20
-16.75646986
  0
VERTEX
  8
0
 10
641.42122777
 20
-16.83039254
  0
VERTEX
  8
0
 10
641.12335011
 20
-16.87585184
  0
VERTEX
  8
0
 10
640.81661000
 20
-16.89134000
  0
VERTEX
  8
0
 10
640.50986989
 20
-16.87585184
  0
VERTEX
  8
0
 10
640.21199223
 20
-16.83039254
  0
VERTEX
  8
0
 10
639.92448478
 20
-16.75646986
  0
VERTEX
  8
0
 10
639.64885531
 20
-16.65559156
  0
VERTEX
  8
0
 10
639.38661159
 20
-16.52926542
  0
VERTEX
  8
0
 10
639.13926137
 20
-16.37899918
  0
VERTEX
  8
0
 10
638.90831242
 20
-16.20630062
  0
VERTEX
  8
0
 10
638.69527250
 20
-16.01267750
  0
VERTEX
  8
0
 10
638.50164938
 20
-15.79963758
  0
VERTEX
  8
0
 10
638.32895082
 20
-15.56868863
  0
VERTEX
  8
0
 10
638.17868458
 20
-15.32133841
  0
VERTEX
  8
0
 10
638.05235844
 20
-15.05909469
  0
VERTEX
  8
0
 10
637.95148014
 20
-14.78346522
  0
VERTEX
  8
0
 10
637.87755746
 20
-14.49595777
  0
VERTEX
  8
0
 10
637.83209816
 20
-14.19808011
  0
VERTEX
  8
0
 10
637.81661000
 20
-13.89134000
  0
VERTEX
  8
0
 10
637.83209816
 20
-13.58459989
  0
VERTEX
  8
0
 10
637.87755746
 20
-13.28672223
  0
VERTEX
  8
0
 10
637.95148014
 20
-12.99921478
  0
VERTEX
  8
0
 10
638.05235844
 20
-12.72358531
  0
VERTEX
  8
0
 10
638.17868458
 20
-12.46134159
  0
VERTEX
  8
0
 10
638.32895082
 20
-12.21399137
  0
VERTEX
  8
0
 10
638.50164938
 20
-11.98304242
  0
VERTEX
  8
0
 10
638.69527250
 20
-11.77000250
  0
VERTEX
  8
0
 10
638.90831242
 20
-11.57637938
  0
VERTEX
  8
0
 10
639.13926137
 20
-11.40368082
  0
VERTEX
  8
0
 10
639.38661159
 20
-11.25341458
  0
VERTEX
  8
0
 10
639.64885531
 20
-11.12708844
  0
VERTEX
  8
0
 10
639.92448478
 20
-11.02621014
  0
VERTEX
  8
0
 10
640.21199223
 20
-10.95228746
  0
VERTEX
  8
0
 10
640.50986989
 20
-10.90682816
  0
VERTEX
  8
0
 10
640.81661000
 20
-10.89134000
  0
SEQEND
  0
POLYLINE
  8
layer_1
 62
256
 66
   1
 39
0.000000
 70
    1
  0
VERTEX
  8
0
 10
660.81661000
 20
-10.89134000
  0
VERTEX
  8
0
 10
661.12335011
 20
-10.90682816
  0
VERTEX
  8
0
 10
661.42122777
 20
-10.95228746
  0
VERTEX
  8
0
 10
661.70873522
 20
-11.02621014
  0
VERTEX
  8
0
 10
661.98436469
 20
-11.12708844
  0
VERTEX
  8
0
 10
662.24660841
 20
-11.25341458
  0
VERTEX
  8
0
 10
662.49395863
 20
-11.40368082
  0
VERTEX
  8
0
 10
662.72490758
 20
-11.57637938
  0
VERTEX
  8
0
 10
662.93794750
 20
-11.77000250
  0
VERTEX
  8
0
 10
663.13157062
 20
-11.98304242
  0
VERTEX
  8
0
 10
663.30426918
 20
-12.21399137
  0
VERTEX
  8
0
 10
663.45453542
 20
-12.46134159
  0
VERTEX
  8
0
 10
663.58086156
 20
-12.72358531
  0
VERTEX
  8
0
 10
663.68173986
 20
-12.99921478
  0
VERTEX
  8
0
 10
663.75566254
 20
-13.28672223
  0
VERTEX
  8
0
 10
663.80112184
 20
-13.58459989
  0
VERTEX
  8
0
 10
663.81661000
 20
-13.89134000
  0
VERTEX
  8
0
 10
663.80112184
 20
-14.19808011
  0
VERTEX
  8
0
 10
663.75566254
 20
-14.49595777
  0
VERTEX
  8
0
 10
663.68173986
 20
-14.78346522
  0
VERTEX
  8
0
 10
663.58086156
 20
-15.05909469
  0
VERTEX
  8
0
 10
663.45453542
 20
-15.32133841
  0
VERTEX
  8
0
 10
663.30426918
 20
-15.56868863
  0
VERTEX
  8
0
 10
663.13157062
 20
-15.79963758
  0
VERTEX
  8
0
 10
662.93794750
 20
-16.01267750
  0
VERTEX
  8
0
 10
662.72490758
 20
-16.20630062
  0
VERTEX
  8
0
 10
662.49395863
 20
-16.37899918
  0
VERTEX
  8
0
 10
662.24660841
 20
-16.52926542
  0
VERTEX
  8
0
 10
661.98436469
 20
-16.65559156
  0
VERTEX
  8
0
 10
661.70873522
 20
-16.75646986
  0
VERTEX
  8
0
 10
661.42122777
 20
-16.83039254
  0
VERTEX
  8
0
 10
661.12335011
 20
-16.87585184
  0
VERTEX
  8
0
 10
660.81661000
 20
-16.89134000
  0
VERTEX
  8
0
 10
660.50986989
 20
-16.87585184
  0
VERTEX
  8
0
 10
660.21199223
 20
-16.83039254
  0
VERTEX
  8
0
 10
659.92448478
 20
-16.75646986
  0
VERTEX
  8
0
 10
659.64885531
 20
-16.65559156
  0
VERTEX
  8
0
 10
659.38661159
 20
-16.52926542
  0
VERTEX
  8
0
 10
659.13926137
 20
-16.37899918
  0
VERTEX
  8
0
 10
658.90831242
 20
-16.20630062
  0
VERTEX
  8
0
 10
658.69527250
 20
-16.01267750
  0
VERTEX
  8
0
 10
658.50164938
 20
-15.79963758
  0
VERTEX
  8
0
 10
658.32895082
 20
-15.56868863
  0
VERTEX
  8
0
 10
658.17868458
 20
-15.32133841
  0
VERTEX
  8
0
 10
658.05235844
 20
-15.05909469
  0
VERTEX
  8
0
 10
657.95148014
 20
-14.78346522
  0
VERTEX
  8
0
 10
657.87755746
 20
-14.49595777
  0
VERTEX
  8
0
 10
657.83209816
 20
-14.19808011
  0
VERTEX
  8
0
 10
657.81661000
 20
-13.89134000
  0
VERTEX
  8
0
 10
657.83209816
 20
-13.58459989
  0
VERTEX
  8
0
 10
657.87755746
 20
-13.28672223
  0
VERTEX
  8
0
 10
657.95148014
 20
-12.99921478
  0
VERTEX
  8
0
 10
658.05235844
 20
-12.72358531
  0
VERTEX
  8
0
 10
658.17868458
 20
-12.46134159
  0
VERTEX
  8
0
 10
658.32895082
 20
-12.21399137
  0
VERTEX
  8
0
 10
658.50164938
 20
-11.98304242
  0
VERTEX
  8
0
 10
658.69527250
 20
-11.77000250
  0
VERTEX
  8
0
 10
658.90831242
 20
-11.57637938
  0
VERTEX
  8
0
 10
659.13926137
 20
-11.40368082
  0
VERTEX
  8
0
 10
659.38661159
 20
-11.25341458
  0
VERTEX
  8
0
 10
659.64885531
 20
-11.12708844
  0
VERTEX
  8
0
 10
659.92448478
 20
-11.02621014
  0
VERTEX
  8
0
 10
660.21199223
 20
-10.95228746
  0
VERTEX
  8
0
 10
660.50986989
 20
-10.90682816
  0
VERTEX
  8
0
 10
660.81661000
 20
-10.89134000
  0
SEQEND
  0
ENDSEC
  0
EOF
