  0
SECTION
  2
HEADER
  9
$ACADVER
  1
AC1009
  9
$EXTMIN
 10
-547.87863122
 20
-41.43201276
 30
0.0
  9
$EXTMAX
 10
542.12223226
 20
114.66045276
 30
0.0
  0
ENDSEC
  0
SECTION
  2
TABLES
  0
TABLE
  2
LAYER
 70
1
 0
LAYER
 2
layer_1
 70
0
 62
250
 6
CONTINUOUS
 0
ENDTAB
 0
ENDSEC
  0
SECTION
  2
ENTITIES
  0
POLYLINE
  8
layer_1
 62
256
 66
   1
 39
0.000000
 70
    1
  0
VERTEX
  8
0
 10
-523.68387428
 20
114.66045276
  0
VERTEX
  8
0
 10
535.51005600
 20
114.66045276
  0
VERTEX
  8
0
 10
536.75286449
 20
114.64337672
  0
VERTEX
  8
0
 10
537.82999028
 20
114.58908963
  0
VERTEX
  8
0
 10
538.75321904
 20
114.49300302
  0
VERTEX
  8
0
 10
539.16080505
 20
114.42785100
  0
VERTEX
  8
0
 10
539.53433643
 20
114.35052842
  0
VERTEX
  8
0
 10
539.87528639
 20
114.26046173
  0
VERTEX
  8
0
 10
540.18512813
 20
114.15707737
  0
VERTEX
  8
0
 10
540.46533486
 20
114.03980178
  0
VERTEX
  8
0
 10
540.71737980
 20
113.90806140
  0
VERTEX
  8
0
 10
540.94273614
 20
113.76128267
  0
VERTEX
  8
0
 10
541.14287710
 20
113.59889204
  0
VERTEX
  8
0
 10
541.31927589
 20
113.42031595
  0
VERTEX
  8
0
 10
541.47340572
 20
113.22498083
  0
VERTEX
  8
0
 10
541.60673978
 20
113.01231314
  0
VERTEX
  8
0
 10
541.72075130
 20
112.78173930
  0
VERTEX
  8
0
 10
541.81691349
 20
112.53268577
  0
VERTEX
  8
0
 10
541.89669954
 20
112.26457898
  0
VERTEX
  8
0
 10
541.96158266
 20
111.97684538
  0
VERTEX
  8
0
 10
542.01303608
 20
111.66891141
  0
VERTEX
  8
0
 10
542.08154660
 20
110.99014812
  0
VERTEX
  8
0
 10
542.11401677
 20
110.22370064
  0
VERTEX
  8
0
 10
542.12223226
 20
109.36498051
  0
VERTEX
  8
0
 10
542.11304185
 20
107.35236842
  0
VERTEX
  8
0
 10
542.11304185
 20
36.61422000
  0
VERTEX
  8
0
 10
542.11304185
 20
-34.12392842
  0
VERTEX
  8
0
 10
542.12223226
 20
-36.13654051
  0
VERTEX
  8
0
 10
542.11401677
 20
-36.99526064
  0
VERTEX
  8
0
 10
542.08154660
 20
-37.76170812
  0
VERTEX
  8
0
 10
542.01303608
 20
-38.44047141
  0
VERTEX
  8
0
 10
541.96158266
 20
-38.74840538
  0
VERTEX
  8
0
 10
541.89669954
 20
-39.03613898
  0
VERTEX
  8
0
 10
541.81691349
 20
-39.30424577
  0
VERTEX
  8
0
 10
541.72075130
 20
-39.55329930
  0
VERTEX
  8
0
 10
541.60673978
 20
-39.78387314
  0
VERTEX
  8
0
 10
541.47340572
 20
-39.99654083
  0
VERTEX
  8
0
 10
541.31927589
 20
-40.19187595
  0
VERTEX
  8
0
 10
541.14287710
 20
-40.37045204
  0
VERTEX
  8
0
 10
540.94273614
 20
-40.53284267
  0
VERTEX
  8
0
 10
540.71737980
 20
-40.67962140
  0
VERTEX
  8
0
 10
540.46533486
 20
-40.81136178
  0
VERTEX
  8
0
 10
540.18512813
 20
-40.92863737
  0
VERTEX
  8
0
 10
539.87528639
 20
-41.03202173
  0
VERTEX
  8
0
 10
539.53433643
 20
-41.12208842
  0
VERTEX
  8
0
 10
539.16080505
 20
-41.19941100
  0
VERTEX
  8
0
 10
538.75321904
 20
-41.26456302
  0
VERTEX
  8
0
 10
537.82999028
 20
-41.36064963
  0
VERTEX
  8
0
 10
536.75286449
 20
-41.41493672
  0
VERTEX
  8
0
 10
535.51005600
 20
-41.43201276
  0
VERTEX
  8
0
 10
-523.68387428
 20
-41.43201276
  0
VERTEX
  8
0
 10
-524.36978999
 20
-41.42120497
  0
VERTEX
  8
0
 10
-524.61998653
 20
-41.39488256
  0
VERTEX
  8
0
 10
-524.84175930
 20
-41.34322545
  0
VERTEX
  8
0
 10
-525.06017113
 20
-41.25769184
  0
VERTEX
  8
0
 10
-525.30028488
 20
-41.12973997
  0
VERTEX
  8
0
 10
-525.94586943
 20
-40.71241430
  0
VERTEX
  8
0
 10
-546.90592451
 20
-26.61434451
  0
VERTEX
  8
0
 10
-547.26165090
 20
-26.38823347
  0
VERTEX
  8
0
 10
-547.51889664
 20
-26.23195314
  0
VERTEX
  8
0
 10
-547.69339646
 20
-26.10148447
  0
VERTEX
  8
0
 10
-547.75453376
 20
-26.03217356
  0
VERTEX
  8
0
 10
-547.80088510
 20
-25.95280843
  0
VERTEX
  8
0
 10
-547.83441732
 20
-25.85788668
  0
VERTEX
  8
0
 10
-547.85709728
 20
-25.74190595
  0
VERTEX
  8
0
 10
-547.87776774
 20
-25.42475800
  0
VERTEX
  8
0
 10
-547.87542244
 20
-24.29564948
  0
VERTEX
  8
0
 10
-547.87542244
 20
12.11417250
  0
VERTEX
  8
0
 10
-397.87574387
 20
12.11417250
  0
VERTEX
  8
0
 10
-397.87574387
 20
61.11426750
  0
VERTEX
  8
0
 10
-547.87542244
 20
61.11426750
  0
VERTEX
  8
0
 10
-547.87542244
 20
97.52408948
  0
VERTEX
  8
0
 10
-547.87776774
 20
98.65319800
  0
VERTEX
  8
0
 10
-547.85709728
 20
98.97034595
  0
VERTEX
  8
0
 10
-547.83441732
 20
99.08632668
  0
VERTEX
  8
0
 10
-547.80088510
 20
99.18124843
  0
VERTEX
  8
0
 10
-547.75453376
 20
99.26061356
  0
VERTEX
  8
0
 10
-547.69339646
 20
99.32992447
  0
VERTEX
  8
0
 10
-547.51889664
 20
99.46039314
  0
VERTEX
  8
0
 10
-547.26165090
 20
99.61667347
  0
VERTEX
  8
0
 10
-546.90592451
 20
99.84278451
  0
VERTEX
  8
0
 10
-525.94586943
 20
113.94085430
  0
VERTEX
  8
0
 10
-525.30028488
 20
114.35817997
  0
VERTEX
  8
0
 10
-525.06017113
 20
114.48613184
  0
VERTEX
  8
0
 10
-524.84175930
 20
114.57166545
  0
VERTEX
  8
0
 10
-524.61998653
 20
114.62332256
  0
VERTEX
  8
0
 10
-524.36978999
 20
114.64964497
  0
VERTEX
  8
0
 10
-523.68387428
 20
114.66045276
  0
SEQEND
  0
POLYLINE
  8
layer_1
 62
256
 66
   1
 39
0.000000
 70
    1
  0
VERTEX
  8
0
 10
-367.87630815
 20
39.61421357
  0
VERTEX
  8
0
 10
-367.56956870
 20
39.59872545
  0
VERTEX
  8
0
 10
-367.27169168
 20
39.55326624
  0
VERTEX
  8
0
 10
-366.98418485
 20
39.47934372
  0
VERTEX
  8
0
 10
-366.70855597
 20
39.37846564
  0
VERTEX
  8
0
 10
-366.44631280
 20
39.25213976
  0
VERTEX
  8
0
 10
-366.19896312
 20
39.10187385
  0
VERTEX
  8
0
 10
-365.96801466
 20
38.92917566
  0
VERTEX
  8
0
 10
-365.75497520
 20
38.73555295
  0
VERTEX
  8
0
 10
-365.56135249
 20
38.52251349
  0
VERTEX
  8
0
 10
-365.38865430
 20
38.29156504
  0
VERTEX
  8
0
 10
-365.23838839
 20
38.04421535
  0
VERTEX
  8
0
 10
-365.11206251
 20
37.78197219
  0
VERTEX
  8
0
 10
-365.01118443
 20
37.50634331
  0
VERTEX
  8
0
 10
-364.93726191
 20
37.21883648
  0
VERTEX
  8
0
 10
-364.89180271
 20
36.92095945
  0
VERTEX
  8
0
 10
-364.87631458
 20
36.61422000
  0
VERTEX
  8
0
 10
-364.89180271
 20
36.30748055
  0
VERTEX
  8
0
 10
-364.93726191
 20
36.00960352
  0
VERTEX
  8
0
 10
-365.01118443
 20
35.72209669
  0
VERTEX
  8
0
 10
-365.11206251
 20
35.44646781
  0
VERTEX
  8
0
 10
-365.23838839
 20
35.18422465
  0
VERTEX
  8
0
 10
-365.38865430
 20
34.93687496
  0
VERTEX
  8
0
 10
-365.56135249
 20
34.70592651
  0
VERTEX
  8
0
 10
-365.75497520
 20
34.49288705
  0
VERTEX
  8
0
 10
-365.96801466
 20
34.29926434
  0
VERTEX
  8
0
 10
-366.19896312
 20
34.12656615
  0
VERTEX
  8
0
 10
-366.44631280
 20
33.97630024
  0
VERTEX
  8
0
 10
-366.70855597
 20
33.84997436
  0
VERTEX
  8
0
 10
-366.98418485
 20
33.74909628
  0
VERTEX
  8
0
 10
-367.27169168
 20
33.67517376
  0
VERTEX
  8
0
 10
-367.56956870
 20
33.62971455
  0
VERTEX
  8
0
 10
-367.87630815
 20
33.61422643
  0
VERTEX
  8
0
 10
-368.18304761
 20
33.62971455
  0
VERTEX
  8
0
 10
-368.48092463
 20
33.67517376
  0
VERTEX
  8
0
 10
-368.76843146
 20
33.74909628
  0
VERTEX
  8
0
 10
-369.04406034
 20
33.84997436
  0
VERTEX
  8
0
 10
-369.30630350
 20
33.97630024
  0
VERTEX
  8
0
 10
-369.55365319
 20
34.12656615
  0
VERTEX
  8
0
 10
-369.78460165
 20
34.29926434
  0
VERTEX
  8
0
 10
-369.99764111
 20
34.49288705
  0
VERTEX
  8
0
 10
-370.19126381
 20
34.70592651
  0
VERTEX
  8
0
 10
-370.36396200
 20
34.93687496
  0
VERTEX
  8
0
 10
-370.51422792
 20
35.18422465
  0
VERTEX
  8
0
 10
-370.64055379
 20
35.44646781
  0
VERTEX
  8
0
 10
-370.74143187
 20
35.72209669
  0
VERTEX
  8
0
 10
-370.81535439
 20
36.00960352
  0
VERTEX
  8
0
 10
-370.86081360
 20
36.30748055
  0
VERTEX
  8
0
 10
-370.87630173
 20
36.61422000
  0
VERTEX
  8
0
 10
-370.86081360
 20
36.92095945
  0
VERTEX
  8
0
 10
-370.81535439
 20
37.21883648
  0
VERTEX
  8
0
 10
-370.74143187
 20
37.50634331
  0
VERTEX
  8
0
 10
-370.64055379
 20
37.78197219
  0
VERTEX
  8
0
 10
-370.51422792
 20
38.04421535
  0
VERTEX
  8
0
 10
-370.36396200
 20
38.29156504
  0
VERTEX
  8
0
 10
-370.19126381
 20
38.52251349
  0
VERTEX
  8
0
 10
-369.99764111
 20
38.73555295
  0
VERTEX
  8
0
 10
-369.78460165
 20
38.92917566
  0
VERTEX
  8
0
 10
-369.55365319
 20
39.10187385
  0
VERTEX
  8
0
 10
-369.30630350
 20
39.25213976
  0
VERTEX
  8
0
 10
-369.04406034
 20
39.37846564
  0
VERTEX
  8
0
 10
-368.76843146
 20
39.47934372
  0
VERTEX
  8
0
 10
-368.48092463
 20
39.55326624
  0
VERTEX
  8
0
 10
-368.18304761
 20
39.59872545
  0
VERTEX
  8
0
 10
-367.87630815
 20
39.61421357
  0
SEQEND
  0
POLYLINE
  8
layer_1
 62
256
 66
   1
 39
0.000000
 70
    1
  0
VERTEX
  8
0
 10
-137.87680102
 20
39.61421357
  0
VERTEX
  8
0
 10
-137.57006156
 20
39.59872545
  0
VERTEX
  8
0
 10
-137.27218454
 20
39.55326624
  0
VERTEX
  8
0
 10
-136.98467771
 20
39.47934372
  0
VERTEX
  8
0
 10
-136.70904883
 20
39.37846564
  0
VERTEX
  8
0
 10
-136.44680567
 20
39.25213976
  0
VERTEX
  8
0
 10
-136.19945598
 20
39.10187385
  0
VERTEX
  8
0
 10
-135.96850752
 20
38.92917566
  0
VERTEX
  8
0
 10
-135.75546806
 20
38.73555295
  0
VERTEX
  8
0
 10
-135.56184536
 20
38.52251349
  0
VERTEX
  8
0
 10
-135.38914717
 20
38.29156504
  0
VERTEX
  8
0
 10
-135.23888125
 20
38.04421535
  0
VERTEX
  8
0
 10
-135.11255538
 20
37.78197219
  0
VERTEX
  8
0
 10
-135.01167730
 20
37.50634331
  0
VERTEX
  8
0
 10
-134.93775477
 20
37.21883648
  0
VERTEX
  8
0
 10
-134.89229557
 20
36.92095945
  0
VERTEX
  8
0
 10
-134.87680744
 20
36.61422000
  0
VERTEX
  8
0
 10
-134.89229557
 20
36.30748055
  0
VERTEX
  8
0
 10
-134.93775477
 20
36.00960352
  0
VERTEX
  8
0
 10
-135.01167730
 20
35.72209669
  0
VERTEX
  8
0
 10
-135.11255538
 20
35.44646781
  0
VERTEX
  8
0
 10
-135.23888125
 20
35.18422465
  0
VERTEX
  8
0
 10
-135.38914717
 20
34.93687496
  0
VERTEX
  8
0
 10
-135.56184536
 20
34.70592651
  0
VERTEX
  8
0
 10
-135.75546806
 20
34.49288705
  0
VERTEX
  8
0
 10
-135.96850752
 20
34.29926434
  0
VERTEX
  8
0
 10
-136.19945598
 20
34.12656615
  0
VERTEX
  8
0
 10
-136.44680567
 20
33.97630024
  0
VERTEX
  8
0
 10
-136.70904883
 20
33.84997436
  0
VERTEX
  8
0
 10
-136.98467771
 20
33.74909628
  0
VERTEX
  8
0
 10
-137.27218454
 20
33.67517376
  0
VERTEX
  8
0
 10
-137.57006156
 20
33.62971455
  0
VERTEX
  8
0
 10
-137.87680102
 20
33.61422643
  0
VERTEX
  8
0
 10
-138.18354047
 20
33.62971455
  0
VERTEX
  8
0
 10
-138.48141749
 20
33.67517376
  0
VERTEX
  8
0
 10
-138.76892432
 20
33.74909628
  0
VERTEX
  8
0
 10
-139.04455320
 20
33.84997436
  0
VERTEX
  8
0
 10
-139.30679636
 20
33.97630024
  0
VERTEX
  8
0
 10
-139.55414605
 20
34.12656615
  0
VERTEX
  8
0
 10
-139.78509451
 20
34.29926434
  0
VERTEX
  8
0
 10
-139.99813397
 20
34.49288705
  0
VERTEX
  8
0
 10
-140.19175668
 20
34.70592651
  0
VERTEX
  8
0
 10
-140.36445486
 20
34.93687496
  0
VERTEX
  8
0
 10
-140.51472078
 20
35.18422465
  0
VERTEX
  8
0
 10
-140.64104665
 20
35.44646781
  0
VERTEX
  8
0
 10
-140.74192473
 20
35.72209669
  0
VERTEX
  8
0
 10
-140.81584726
 20
36.00960352
  0
VERTEX
  8
0
 10
-140.86130646
 20
36.30748055
  0
VERTEX
  8
0
 10
-140.87679459
 20
36.61422000
  0
VERTEX
  8
0
 10
-140.86130646
 20
36.92095945
  0
VERTEX
  8
0
 10
-140.81584726
 20
37.21883648
  0
VERTEX
  8
0
 10
-140.74192473
 20
37.50634331
  0
VERTEX
  8
0
 10
-140.64104665
 20
37.78197219
  0
VERTEX
  8
0
 10
-140.51472078
 20
38.04421535
  0
VERTEX
  8
0
 10
-140.36445486
 20
38.29156504
  0
VERTEX
  8
0
 10
-140.19175668
 20
38.52251349
  0
VERTEX
  8
0
 10
-139.99813397
 20
38.73555295
  0
VERTEX
  8
0
 10
-139.78509451
 20
38.92917566
  0
VERTEX
  8
0
 10
-139.55414605
 20
39.10187385
  0
VERTEX
  8
0
 10
-139.30679636
 20
39.25213976
  0
VERTEX
  8
0
 10
-139.04455320
 20
39.37846564
  0
VERTEX
  8
0
 10
-138.76892432
 20
39.47934372
  0
VERTEX
  8
0
 10
-138.48141749
 20
39.55326624
  0
VERTEX
  8
0
 10
-138.18354047
 20
39.59872545
  0
VERTEX
  8
0
 10
-137.87680102
 20
39.61421357
  0
SEQEND
  0
POLYLINE
  8
layer_1
 62
256
 66
   1
 39
0.000000
 70
    1
  0
VERTEX
  8
0
 10
92.12270612
 20
39.61421357
  0
VERTEX
  8
0
 10
92.42944558
 20
39.59872545
  0
VERTEX
  8
0
 10
92.72732260
 20
39.55326624
  0
VERTEX
  8
0
 10
93.01482943
 20
39.47934372
  0
VERTEX
  8
0
 10
93.29045831
 20
39.37846564
  0
VERTEX
  8
0
 10
93.55270147
 20
39.25213976
  0
VERTEX
  8
0
 10
93.80005116
 20
39.10187385
  0
VERTEX
  8
0
 10
94.03099962
 20
38.92917566
  0
VERTEX
  8
0
 10
94.24403908
 20
38.73555295
  0
VERTEX
  8
0
 10
94.43766178
 20
38.52251349
  0
VERTEX
  8
0
 10
94.61035997
 20
38.29156504
  0
VERTEX
  8
0
 10
94.76062588
 20
38.04421535
  0
VERTEX
  8
0
 10
94.88695176
 20
37.78197219
  0
VERTEX
  8
0
 10
94.98782984
 20
37.50634331
  0
VERTEX
  8
0
 10
95.06175236
 20
37.21883648
  0
VERTEX
  8
0
 10
95.10721157
 20
36.92095945
  0
VERTEX
  8
0
 10
95.12269969
 20
36.61422000
  0
VERTEX
  8
0
 10
95.10721157
 20
36.30748055
  0
VERTEX
  8
0
 10
95.06175236
 20
36.00960352
  0
VERTEX
  8
0
 10
94.98782984
 20
35.72209669
  0
VERTEX
  8
0
 10
94.88695176
 20
35.44646781
  0
VERTEX
  8
0
 10
94.76062588
 20
35.18422465
  0
VERTEX
  8
0
 10
94.61035997
 20
34.93687496
  0
VERTEX
  8
0
 10
94.43766178
 20
34.70592651
  0
VERTEX
  8
0
 10
94.24403908
 20
34.49288705
  0
VERTEX
  8
0
 10
94.03099962
 20
34.29926434
  0
VERTEX
  8
0
 10
93.80005116
 20
34.12656615
  0
VERTEX
  8
0
 10
93.55270147
 20
33.97630024
  0
VERTEX
  8
0
 10
93.29045831
 20
33.84997436
  0
VERTEX
  8
0
 10
93.01482943
 20
33.74909628
  0
VERTEX
  8
0
 10
92.72732260
 20
33.67517376
  0
VERTEX
  8
0
 10
92.42944558
 20
33.62971455
  0
VERTEX
  8
0
 10
92.12270612
 20
33.61422643
  0
VERTEX
  8
0
 10
91.81596667
 20
33.62971455
  0
VERTEX
  8
0
 10
91.51808964
 20
33.67517376
  0
VERTEX
  8
0
 10
91.23058281
 20
33.74909628
  0
VERTEX
  8
0
 10
90.95495394
 20
33.84997436
  0
VERTEX
  8
0
 10
90.69271077
 20
33.97630024
  0
VERTEX
  8
0
 10
90.44536108
 20
34.12656615
  0
VERTEX
  8
0
 10
90.21441263
 20
34.29926434
  0
VERTEX
  8
0
 10
90.00137317
 20
34.49288705
  0
VERTEX
  8
0
 10
89.80775046
 20
34.70592651
  0
VERTEX
  8
0
 10
89.63505227
 20
34.93687496
  0
VERTEX
  8
0
 10
89.48478636
 20
35.18422465
  0
VERTEX
  8
0
 10
89.35846048
 20
35.44646781
  0
VERTEX
  8
0
 10
89.25758240
 20
35.72209669
  0
VERTEX
  8
0
 10
89.18365988
 20
36.00960352
  0
VERTEX
  8
0
 10
89.13820068
 20
36.30748055
  0
VERTEX
  8
0
 10
89.12271255
 20
36.61422000
  0
VERTEX
  8
0
 10
89.13820068
 20
36.92095945
  0
VERTEX
  8
0
 10
89.18365988
 20
37.21883648
  0
VERTEX
  8
0
 10
89.25758240
 20
37.50634331
  0
VERTEX
  8
0
 10
89.35846048
 20
37.78197219
  0
VERTEX
  8
0
 10
89.48478636
 20
38.04421535
  0
VERTEX
  8
0
 10
89.63505227
 20
38.29156504
  0
VERTEX
  8
0
 10
89.80775046
 20
38.52251349
  0
VERTEX
  8
0
 10
90.00137317
 20
38.73555295
  0
VERTEX
  8
0
 10
90.21441263
 20
38.92917566
  0
VERTEX
  8
0
 10
90.44536108
 20
39.10187385
  0
VERTEX
  8
0
 10
90.69271077
 20
39.25213976
  0
VERTEX
  8
0
 10
90.95495394
 20
39.37846564
  0
VERTEX
  8
0
 10
91.23058281
 20
39.47934372
  0
VERTEX
  8
0
 10
91.51808964
 20
39.55326624
  0
VERTEX
  8
0
 10
91.81596667
 20
39.59872545
  0
VERTEX
  8
0
 10
92.12270612
 20
39.61421357
  0
SEQEND
  0
POLYLINE
  8
layer_1
 62
256
 66
   1
 39
0.000000
 70
    1
  0
VERTEX
  8
0
 10
322.12221326
 20
39.61421357
  0
VERTEX
  8
0
 10
322.42895272
 20
39.59872545
  0
VERTEX
  8
0
 10
322.72682974
 20
39.55326624
  0
VERTEX
  8
0
 10
323.01433657
 20
39.47934372
  0
VERTEX
  8
0
 10
323.28996545
 20
39.37846564
  0
VERTEX
  8
0
 10
323.55220861
 20
39.25213976
  0
VERTEX
  8
0
 10
323.79955830
 20
39.10187385
  0
VERTEX
  8
0
 10
324.03050675
 20
38.92917566
  0
VERTEX
  8
0
 10
324.24354621
 20
38.73555295
  0
VERTEX
  8
0
 10
324.43716892
 20
38.52251349
  0
VERTEX
  8
0
 10
324.60986711
 20
38.29156504
  0
VERTEX
  8
0
 10
324.76013302
 20
38.04421535
  0
VERTEX
  8
0
 10
324.88645890
 20
37.78197219
  0
VERTEX
  8
0
 10
324.98733698
 20
37.50634331
  0
VERTEX
  8
0
 10
325.06125950
 20
37.21883648
  0
VERTEX
  8
0
 10
325.10671871
 20
36.92095945
  0
VERTEX
  8
0
 10
325.12220683
 20
36.61422000
  0
VERTEX
  8
0
 10
325.10671871
 20
36.30748055
  0
VERTEX
  8
0
 10
325.06125950
 20
36.00960352
  0
VERTEX
  8
0
 10
324.98733698
 20
35.72209669
  0
VERTEX
  8
0
 10
324.88645890
 20
35.44646781
  0
VERTEX
  8
0
 10
324.76013302
 20
35.18422465
  0
VERTEX
  8
0
 10
324.60986711
 20
34.93687496
  0
VERTEX
  8
0
 10
324.43716892
 20
34.70592651
  0
VERTEX
  8
0
 10
324.24354621
 20
34.49288705
  0
VERTEX
  8
0
 10
324.03050675
 20
34.29926434
  0
VERTEX
  8
0
 10
323.79955830
 20
34.12656615
  0
VERTEX
  8
0
 10
323.55220861
 20
33.97630024
  0
VERTEX
  8
0
 10
323.28996545
 20
33.84997436
  0
VERTEX
  8
0
 10
323.01433657
 20
33.74909628
  0
VERTEX
  8
0
 10
322.72682974
 20
33.67517376
  0
VERTEX
  8
0
 10
322.42895272
 20
33.62971455
  0
VERTEX
  8
0
 10
322.12221326
 20
33.61422643
  0
VERTEX
  8
0
 10
321.81547381
 20
33.62971455
  0
VERTEX
  8
0
 10
321.51759678
 20
33.67517376
  0
VERTEX
  8
0
 10
321.23008995
 20
33.74909628
  0
VERTEX
  8
0
 10
320.95446108
 20
33.84997436
  0
VERTEX
  8
0
 10
320.69221791
 20
33.97630024
  0
VERTEX
  8
0
 10
320.44486822
 20
34.12656615
  0
VERTEX
  8
0
 10
320.21391977
 20
34.29926434
  0
VERTEX
  8
0
 10
320.00088031
 20
34.49288705
  0
VERTEX
  8
0
 10
319.80725760
 20
34.70592651
  0
VERTEX
  8
0
 10
319.63455941
 20
34.93687496
  0
VERTEX
  8
0
 10
319.48429350
 20
35.18422465
  0
VERTEX
  8
0
 10
319.35796762
 20
35.44646781
  0
VERTEX
  8
0
 10
319.25708954
 20
35.72209669
  0
VERTEX
  8
0
 10
319.18316702
 20
36.00960352
  0
VERTEX
  8
0
 10
319.13770782
 20
36.30748055
  0
VERTEX
  8
0
 10
319.12221969
 20
36.61422000
  0
VERTEX
  8
0
 10
319.13770782
 20
36.92095945
  0
VERTEX
  8
0
 10
319.18316702
 20
37.21883648
  0
VERTEX
  8
0
 10
319.25708954
 20
37.50634331
  0
VERTEX
  8
0
 10
319.35796762
 20
37.78197219
  0
VERTEX
  8
0
 10
319.48429350
 20
38.04421535
  0
VERTEX
  8
0
 10
319.63455941
 20
38.29156504
  0
VERTEX
  8
0
 10
319.80725760
 20
38.52251349
  0
VERTEX
  8
0
 10
320.00088031
 20
38.73555295
  0
VERTEX
  8
0
 10
320.21391977
 20
38.92917566
  0
VERTEX
  8
0
 10
320.44486822
 20
39.10187385
  0
VERTEX
  8
0
 10
320.69221791
 20
39.25213976
  0
VERTEX
  8
0
 10
320.95446108
 20
39.37846564
  0
VERTEX
  8
0
 10
321.23008995
 20
39.47934372
  0
VERTEX
  8
0
 10
321.51759678
 20
39.55326624
  0
VERTEX
  8
0
 10
321.81547381
 20
39.59872545
  0
VERTEX
  8
0
 10
322.12221326
 20
39.61421357
  0
SEQEND
  0
POLYLINE
  8
layer_1
 62
256
 66
   1
 39
0.000000
 70
    1
  0
VERTEX
  8
0
 10
462.12191326
 20
39.61421357
  0
VERTEX
  8
0
 10
462.42865271
 20
39.59872545
  0
VERTEX
  8
0
 10
462.72652974
 20
39.55326624
  0
VERTEX
  8
0
 10
463.01403657
 20
39.47934372
  0
VERTEX
  8
0
 10
463.28966544
 20
39.37846564
  0
VERTEX
  8
0
 10
463.55190861
 20
39.25213976
  0
VERTEX
  8
0
 10
463.79925830
 20
39.10187385
  0
VERTEX
  8
0
 10
464.03020675
 20
38.92917566
  0
VERTEX
  8
0
 10
464.24324621
 20
38.73555295
  0
VERTEX
  8
0
 10
464.43686892
 20
38.52251349
  0
VERTEX
  8
0
 10
464.60956711
 20
38.29156504
  0
VERTEX
  8
0
 10
464.75983302
 20
38.04421535
  0
VERTEX
  8
0
 10
464.88615890
 20
37.78197219
  0
VERTEX
  8
0
 10
464.98703698
 20
37.50634331
  0
VERTEX
  8
0
 10
465.06095950
 20
37.21883648
  0
VERTEX
  8
0
 10
465.10641870
 20
36.92095945
  0
VERTEX
  8
0
 10
465.12190683
 20
36.61422000
  0
VERTEX
  8
0
 10
465.10641870
 20
36.30748055
  0
VERTEX
  8
0
 10
465.06095950
 20
36.00960352
  0
VERTEX
  8
0
 10
464.98703698
 20
35.72209669
  0
VERTEX
  8
0
 10
464.88615890
 20
35.44646781
  0
VERTEX
  8
0
 10
464.75983302
 20
35.18422465
  0
VERTEX
  8
0
 10
464.60956711
 20
34.93687496
  0
VERTEX
  8
0
 10
464.43686892
 20
34.70592651
  0
VERTEX
  8
0
 10
464.24324621
 20
34.49288705
  0
VERTEX
  8
0
 10
464.03020675
 20
34.29926434
  0
VERTEX
  8
0
 10
463.79925830
 20
34.12656615
  0
VERTEX
  8
0
 10
463.55190861
 20
33.97630024
  0
VERTEX
  8
0
 10
463.28966544
 20
33.84997436
  0
VERTEX
  8
0
 10
463.01403657
 20
33.74909628
  0
VERTEX
  8
0
 10
462.72652974
 20
33.67517376
  0
VERTEX
  8
0
 10
462.42865271
 20
33.62971455
  0
VERTEX
  8
0
 10
462.12191326
 20
33.61422643
  0
VERTEX
  8
0
 10
461.81517380
 20
33.62971455
  0
VERTEX
  8
0
 10
461.51729678
 20
33.67517376
  0
VERTEX
  8
0
 10
461.22978995
 20
33.74909628
  0
VERTEX
  8
0
 10
460.95416107
 20
33.84997436
  0
VERTEX
  8
0
 10
460.69191791
 20
33.97630024
  0
VERTEX
  8
0
 10
460.44456822
 20
34.12656615
  0
VERTEX
  8
0
 10
460.21361976
 20
34.29926434
  0
VERTEX
  8
0
 10
460.00058030
 20
34.49288705
  0
VERTEX
  8
0
 10
459.80695760
 20
34.70592651
  0
VERTEX
  8
0
 10
459.63425941
 20
34.93687496
  0
VERTEX
  8
0
 10
459.48399350
 20
35.18422465
  0
VERTEX
  8
0
 10
459.35766762
 20
35.44646781
  0
VERTEX
  8
0
 10
459.25678954
 20
35.72209669
  0
VERTEX
  8
0
 10
459.18286702
 20
36.00960352
  0
VERTEX
  8
0
 10
459.13740781
 20
36.30748055
  0
VERTEX
  8
0
 10
459.12191969
 20
36.61422000
  0
VERTEX
  8
0
 10
459.13740781
 20
36.92095945
  0
VERTEX
  8
0
 10
459.18286702
 20
37.21883648
  0
VERTEX
  8
0
 10
459.25678954
 20
37.50634331
  0
VERTEX
  8
0
 10
459.35766762
 20
37.78197219
  0
VERTEX
  8
0
 10
459.48399350
 20
38.04421535
  0
VERTEX
  8
0
 10
459.63425941
 20
38.29156504
  0
VERTEX
  8
0
 10
459.80695760
 20
38.52251349
  0
VERTEX
  8
0
 10
460.00058030
 20
38.73555295
  0
VERTEX
  8
0
 10
460.21361976
 20
38.92917566
  0
VERTEX
  8
0
 10
460.44456822
 20
39.10187385
  0
VERTEX
  8
0
 10
460.69191791
 20
39.25213976
  0
VERTEX
  8
0
 10
460.95416107
 20
39.37846564
  0
VERTEX
  8
0
 10
461.22978995
 20
39.47934372
  0
VERTEX
  8
0
 10
461.51729678
 20
39.55326624
  0
VERTEX
  8
0
 10
461.81517380
 20
39.59872545
  0
VERTEX
  8
0
 10
462.12191326
 20
39.61421357
  0
SEQEND
  0
ENDSEC
  0
EOF
