  0
SECTION
  2
HEADER
  9
$ACADVER
  1
AC1014
  9
$HANDSEED
  5
FFFF
  9
$MEASUREMENT
 70
     1
  0
ENDSEC
  0
SECTION
  2
TABLES
  0
TABLE
  2
VPORT
  5
8
330
0
100
AcDbSymbolTable
 70
     4
  0
VPORT
  5
2E
330
8
100
AcDbSymbolTableRecord
100
AcDbViewportTableRecord
  2
*ACTIVE
 70
     0
 10
0.0
 20
0.0
 11
1.0
 21
1.0
 12
210.0
 22
148.5
 13
0.0
 23
0.0
 14
10.0
 24
10.0
 15
10.0
 25
10.0
 16
0.0
 26
0.0
 36
1.0
 17
0.0
 27
0.0
 37
0.0
 40
341.0
 41
1.24
 42
50.0
 43
0.0
 44
0.0
 50
0.0
 51
0.0
 71
     0
 72
   100
 73
     1
 74
     3
 75
     0
 76
     0
 77
     0
 78
     0
  0
ENDTAB
  0
TABLE
  2
LTYPE
  5
5
330
0
100
AcDbSymbolTable
 70
     1
  0
LTYPE
  5
14
330
5
100
AcDbSymbolTableRecord
100
AcDbLinetypeTableRecord
  2
BYBLOCK
 70
     0
  3

 72
    65
 73
     0
 40
0.0
  0
LTYPE
  5
15
330
5
100
AcDbSymbolTableRecord
100
AcDbLinetypeTableRecord
  2
BYLAYER
 70
     0
  3

 72
    65
 73
     0
 40
0.0
  0
LTYPE
  5
16
330
5
100
AcDbSymbolTableRecord
100
AcDbLinetypeTableRecord
  2
CONTINUOUS
 70
     0
  3
Solid line
 72
    65
 73
     0
 40
0.0
  0
ENDTAB
  0
TABLE
  2
LAYER
  5
2
100
AcDbSymbolTable
 70
2
  0
LAYER
  5
50
100
AcDbSymbolTableRecord
100
AcDbLayerTableRecord
  2
0
 70
0
  6
CONTINUOUS
  0
LAYER
  5
51
100
AcDbSymbolTableRecord
100
AcDbLayerTableRecord
  2
Layer_1
 70
0
  6
CONTINUOUS
  0
ENDTAB
  0
TABLE
  2
STYLE
  5
3
330
0
100
AcDbSymbolTable
 70
     1
  0
STYLE
  5
11
330
3
100
AcDbSymbolTableRecord
100
AcDbTextStyleTableRecord
  2
STANDARD
 70
     0
 40
0.0
 41
1.0
 50
0.0
 71
     0
 42
2.5
  3
txt
  4

  0
ENDTAB
  0
TABLE
  2
VIEW
  5
6
330
0
100
AcDbSymbolTable
 70
     0
  0
ENDTAB
  0
TABLE
  2
UCS
  5
7
330
0
100
AcDbSymbolTable
 70
     0
  0
ENDTAB
  0
TABLE
  2
APPID
  5
9
330
0
100
AcDbSymbolTable
 70
     2
  0
APPID
  5
12
330
9
100
AcDbSymbolTableRecord
100
AcDbRegAppTableRecord
  2
ACAD
 70
     0
  0
ENDTAB
  0
TABLE
  2
DIMSTYLE
  5
A
330
0
100
AcDbSymbolTable
 70
     1
  0
DIMSTYLE
105
27
330
A
100
AcDbSymbolTableRecord
100
AcDbDimStyleTableRecord
  2
ISO-25
 70
     0
  3

  4

  5

  6

  7

 40
1.0
 41
2.5
 42
0.625
 43
3.75
 44
1.25
 45
0.0
 46
0.0
 47
0.0
 48
0.0
140
2.5
141
2.5
142
0.0
143
0.03937007874016
144
1.0
145
0.0
146
1.0
147
0.625
 71
     0
 72
     0
 73
     0
 74
     0
 75
     0
 76
     0
 77
     1
 78
     8
170
     0
171
     3
172
     1
173
     0
174
     0
175
     0
176
     0
177
     0
178
     0
270
     2
271
     2
272
     2
273
     2
274
     3
340
11
275
     0
280
     0
281
     0
282
     0
283
     0
284
     8
285
     0
286
     0
287
     3
288
     0
  0
ENDTAB
  0
TABLE
  2
BLOCK_RECORD
  5
1
330
0
100
AcDbSymbolTable
 70
     1
  0
BLOCK_RECORD
  5
1F
330
1
100
AcDbSymbolTableRecord
100
AcDbBlockTableRecord
  2
*MODEL_SPACE
  0
BLOCK_RECORD
  5
1B
330
1
100
AcDbSymbolTableRecord
100
AcDbBlockTableRecord
  2
*PAPER_SPACE
  0
ENDTAB
  0
ENDSEC
  0
SECTION
  2
BLOCKS
  0
BLOCK
  5
20
330
1F
100
AcDbEntity
  8
0
100
AcDbBlockBegin
  2
*MODEL_SPACE
 70
     0
 10
0.0
 20
0.0
 30
0.0
  3
*MODEL_SPACE
  1

  0
ENDBLK
  5
21
330
1F
100
AcDbEntity
  8
0
100
AcDbBlockEnd
  0
BLOCK
  5
1C
330
1B
100
AcDbEntity
 67
     1
  8
0
100
AcDbBlockBegin
  2
*PAPER_SPACE
  1

  0
ENDBLK
  5
1D
330
1B
100
AcDbEntity
 67
     1
  8
0
100
AcDbBlockEnd
  0
ENDSEC
  0
SECTION
  2
ENTITIES
  0
LWPOLYLINE
  5
100
100
AcDbEntity
  8
Layer_1
 62
7
100
AcDbPolyline
 90
4
 70
1
 10
0.000000
 20
270.000000
 30
0.0
 10
440.000000
 20
270.000000
 30
0.0
 10
440.000000
 20
0.000000
 30
0.0
 10
0.000000
 20
0.000000
 30
0.0
  0
SPLINE
  5
101
100
AcDbEntity
  8
Layer_1
 62
7
100
AcDbSpline
 70
8
 71
3
 72
8
 73
4
 74
0
 40
0
 40
0
 40
0
 40
0
 40
1
 40
1
 40
1
 40
1
 10
89.374995
 20
9.504690
 30
0.0
 10
89.374995
 20
8.611526
 30
0.0
 10
88.898498
 20
7.786208
 30
0.0
 10
88.124995
 20
7.339626
 30
0.0
  0
SPLINE
  5
102
100
AcDbEntity
  8
Layer_1
 62
7
100
AcDbSpline
 70
8
 71
3
 72
8
 73
4
 74
0
 40
0
 40
0
 40
0
 40
0
 40
1
 40
1
 40
1
 40
1
 10
88.124995
 20
7.339626
 30
0.0
 10
87.351492
 20
6.893045
 30
0.0
 10
86.398498
 20
6.893045
 30
0.0
 10
85.624995
 20
7.339626
 30
0.0
  0
SPLINE
  5
103
100
AcDbEntity
  8
Layer_1
 62
7
100
AcDbSpline
 70
8
 71
3
 72
8
 73
4
 74
0
 40
0
 40
0
 40
0
 40
0
 40
1
 40
1
 40
1
 40
1
 10
85.624995
 20
7.339626
 30
0.0
 10
84.851492
 20
7.786208
 30
0.0
 10
84.374995
 20
8.611526
 30
0.0
 10
84.374995
 20
9.504690
 30
0.0
  0
SPLINE
  5
104
100
AcDbEntity
  8
Layer_1
 62
7
100
AcDbSpline
 70
8
 71
3
 72
8
 73
4
 74
0
 40
0
 40
0
 40
0
 40
0
 40
1
 40
1
 40
1
 40
1
 10
84.374995
 20
9.504690
 30
0.0
 10
84.374995
 20
10.397854
 30
0.0
 10
84.851492
 20
11.223172
 30
0.0
 10
85.624995
 20
11.669754
 30
0.0
  0
SPLINE
  5
105
100
AcDbEntity
  8
Layer_1
 62
7
100
AcDbSpline
 70
8
 71
3
 72
8
 73
4
 74
0
 40
0
 40
0
 40
0
 40
0
 40
1
 40
1
 40
1
 40
1
 10
85.624995
 20
11.669754
 30
0.0
 10
86.398498
 20
12.116335
 30
0.0
 10
87.351492
 20
12.116335
 30
0.0
 10
88.124995
 20
11.669754
 30
0.0
  0
SPLINE
  5
106
100
AcDbEntity
  8
Layer_1
 62
7
100
AcDbSpline
 70
8
 71
3
 72
8
 73
4
 74
0
 40
0
 40
0
 40
0
 40
0
 40
1
 40
1
 40
1
 40
1
 10
88.124995
 20
11.669754
 30
0.0
 10
88.898498
 20
11.223172
 30
0.0
 10
89.374995
 20
10.397854
 30
0.0
 10
89.374995
 20
9.504690
 30
0.0
  0
LWPOLYLINE
  5
107
100
AcDbEntity
  8
Layer_1
 62
7
100
AcDbPolyline
 90
4
 70
1
 10
155.000003
 20
160.000005
 30
0.0
 10
285.000003
 20
160.000005
 30
0.0
 10
285.000003
 20
110.000005
 30
0.0
 10
155.000003
 20
110.000005
 30
0.0
  0
SPLINE
  5
108
100
AcDbEntity
  8
Layer_1
 62
7
100
AcDbSpline
 70
8
 71
3
 72
8
 73
4
 74
0
 40
0
 40
0
 40
0
 40
0
 40
1
 40
1
 40
1
 40
1
 10
89.374995
 20
31.200528
 30
0.0
 10
89.374995
 20
30.307364
 30
0.0
 10
88.898498
 20
29.482046
 30
0.0
 10
88.124995
 20
29.035464
 30
0.0
  0
SPLINE
  5
109
100
AcDbEntity
  8
Layer_1
 62
7
100
AcDbSpline
 70
8
 71
3
 72
8
 73
4
 74
0
 40
0
 40
0
 40
0
 40
0
 40
1
 40
1
 40
1
 40
1
 10
88.124995
 20
29.035464
 30
0.0
 10
87.351492
 20
28.588883
 30
0.0
 10
86.398498
 20
28.588883
 30
0.0
 10
85.624995
 20
29.035464
 30
0.0
  0
SPLINE
  5
10a
100
AcDbEntity
  8
Layer_1
 62
7
100
AcDbSpline
 70
8
 71
3
 72
8
 73
4
 74
0
 40
0
 40
0
 40
0
 40
0
 40
1
 40
1
 40
1
 40
1
 10
85.624995
 20
29.035464
 30
0.0
 10
84.851492
 20
29.482046
 30
0.0
 10
84.374995
 20
30.307364
 30
0.0
 10
84.374995
 20
31.200528
 30
0.0
  0
SPLINE
  5
10b
100
AcDbEntity
  8
Layer_1
 62
7
100
AcDbSpline
 70
8
 71
3
 72
8
 73
4
 74
0
 40
0
 40
0
 40
0
 40
0
 40
1
 40
1
 40
1
 40
1
 10
84.374995
 20
31.200528
 30
0.0
 10
84.374995
 20
32.093692
 30
0.0
 10
84.851492
 20
32.919010
 30
0.0
 10
85.624995
 20
33.365592
 30
0.0
  0
SPLINE
  5
10c
100
AcDbEntity
  8
Layer_1
 62
7
100
AcDbSpline
 70
8
 71
3
 72
8
 73
4
 74
0
 40
0
 40
0
 40
0
 40
0
 40
1
 40
1
 40
1
 40
1
 10
85.624995
 20
33.365592
 30
0.0
 10
86.398498
 20
33.812173
 30
0.0
 10
87.351492
 20
33.812173
 30
0.0
 10
88.124995
 20
33.365592
 30
0.0
  0
SPLINE
  5
10d
100
AcDbEntity
  8
Layer_1
 62
7
100
AcDbSpline
 70
8
 71
3
 72
8
 73
4
 74
0
 40
0
 40
0
 40
0
 40
0
 40
1
 40
1
 40
1
 40
1
 10
88.124995
 20
33.365592
 30
0.0
 10
88.898498
 20
32.919010
 30
0.0
 10
89.374995
 20
32.093692
 30
0.0
 10
89.374995
 20
31.200528
 30
0.0
  0
LWPOLYLINE
  5
10e
100
AcDbEntity
  8
Layer_1
 62
7
100
AcDbPolyline
 90
1
 70
1
 10
89.374995
 20
9.504690
 30
0.0
  0
SPLINE
  5
10f
100
AcDbEntity
  8
Layer_1
 62
7
100
AcDbSpline
 70
8
 71
3
 72
8
 73
4
 74
0
 40
0
 40
0
 40
0
 40
0
 40
1
 40
1
 40
1
 40
1
 10
357.132620
 20
9.504700
 30
0.0
 10
357.132620
 20
8.611536
 30
0.0
 10
356.656123
 20
7.786218
 30
0.0
 10
355.882620
 20
7.339636
 30
0.0
  0
SPLINE
  5
110
100
AcDbEntity
  8
Layer_1
 62
7
100
AcDbSpline
 70
8
 71
3
 72
8
 73
4
 74
0
 40
0
 40
0
 40
0
 40
0
 40
1
 40
1
 40
1
 40
1
 10
355.882620
 20
7.339636
 30
0.0
 10
355.109117
 20
6.893055
 30
0.0
 10
354.156123
 20
6.893055
 30
0.0
 10
353.382620
 20
7.339636
 30
0.0
  0
SPLINE
  5
111
100
AcDbEntity
  8
Layer_1
 62
7
100
AcDbSpline
 70
8
 71
3
 72
8
 73
4
 74
0
 40
0
 40
0
 40
0
 40
0
 40
1
 40
1
 40
1
 40
1
 10
353.382620
 20
7.339636
 30
0.0
 10
352.609117
 20
7.786218
 30
0.0
 10
352.132620
 20
8.611536
 30
0.0
 10
352.132620
 20
9.504700
 30
0.0
  0
SPLINE
  5
112
100
AcDbEntity
  8
Layer_1
 62
7
100
AcDbSpline
 70
8
 71
3
 72
8
 73
4
 74
0
 40
0
 40
0
 40
0
 40
0
 40
1
 40
1
 40
1
 40
1
 10
352.132620
 20
9.504700
 30
0.0
 10
352.132620
 20
10.397864
 30
0.0
 10
352.609117
 20
11.223182
 30
0.0
 10
353.382620
 20
11.669764
 30
0.0
  0
SPLINE
  5
113
100
AcDbEntity
  8
Layer_1
 62
7
100
AcDbSpline
 70
8
 71
3
 72
8
 73
4
 74
0
 40
0
 40
0
 40
0
 40
0
 40
1
 40
1
 40
1
 40
1
 10
353.382620
 20
11.669764
 30
0.0
 10
354.156123
 20
12.116345
 30
0.0
 10
355.109117
 20
12.116345
 30
0.0
 10
355.882620
 20
11.669764
 30
0.0
  0
SPLINE
  5
114
100
AcDbEntity
  8
Layer_1
 62
7
100
AcDbSpline
 70
8
 71
3
 72
8
 73
4
 74
0
 40
0
 40
0
 40
0
 40
0
 40
1
 40
1
 40
1
 40
1
 10
355.882620
 20
11.669764
 30
0.0
 10
356.656123
 20
11.223182
 30
0.0
 10
357.132620
 20
10.397864
 30
0.0
 10
357.132620
 20
9.504700
 30
0.0
  0
LWPOLYLINE
  5
115
100
AcDbEntity
  8
Layer_1
 62
7
100
AcDbPolyline
 90
1
 70
1
 10
89.374995
 20
31.200528
 30
0.0
  0
SPLINE
  5
116
100
AcDbEntity
  8
Layer_1
 62
7
100
AcDbSpline
 70
8
 71
3
 72
8
 73
4
 74
0
 40
0
 40
0
 40
0
 40
0
 40
1
 40
1
 40
1
 40
1
 10
357.132620
 20
31.200528
 30
0.0
 10
357.132620
 20
30.307364
 30
0.0
 10
356.656123
 20
29.482046
 30
0.0
 10
355.882620
 20
29.035464
 30
0.0
  0
SPLINE
  5
117
100
AcDbEntity
  8
Layer_1
 62
7
100
AcDbSpline
 70
8
 71
3
 72
8
 73
4
 74
0
 40
0
 40
0
 40
0
 40
0
 40
1
 40
1
 40
1
 40
1
 10
355.882620
 20
29.035464
 30
0.0
 10
355.109117
 20
28.588883
 30
0.0
 10
354.156123
 20
28.588883
 30
0.0
 10
353.382620
 20
29.035464
 30
0.0
  0
SPLINE
  5
118
100
AcDbEntity
  8
Layer_1
 62
7
100
AcDbSpline
 70
8
 71
3
 72
8
 73
4
 74
0
 40
0
 40
0
 40
0
 40
0
 40
1
 40
1
 40
1
 40
1
 10
353.382620
 20
29.035464
 30
0.0
 10
352.609117
 20
29.482046
 30
0.0
 10
352.132620
 20
30.307364
 30
0.0
 10
352.132620
 20
31.200528
 30
0.0
  0
SPLINE
  5
119
100
AcDbEntity
  8
Layer_1
 62
7
100
AcDbSpline
 70
8
 71
3
 72
8
 73
4
 74
0
 40
0
 40
0
 40
0
 40
0
 40
1
 40
1
 40
1
 40
1
 10
352.132620
 20
31.200528
 30
0.0
 10
352.132620
 20
32.093692
 30
0.0
 10
352.609117
 20
32.919010
 30
0.0
 10
353.382620
 20
33.365592
 30
0.0
  0
SPLINE
  5
11a
100
AcDbEntity
  8
Layer_1
 62
7
100
AcDbSpline
 70
8
 71
3
 72
8
 73
4
 74
0
 40
0
 40
0
 40
0
 40
0
 40
1
 40
1
 40
1
 40
1
 10
353.382620
 20
33.365592
 30
0.0
 10
354.156123
 20
33.812173
 30
0.0
 10
355.109117
 20
33.812173
 30
0.0
 10
355.882620
 20
33.365592
 30
0.0
  0
SPLINE
  5
11b
100
AcDbEntity
  8
Layer_1
 62
7
100
AcDbSpline
 70
8
 71
3
 72
8
 73
4
 74
0
 40
0
 40
0
 40
0
 40
0
 40
1
 40
1
 40
1
 40
1
 10
355.882620
 20
33.365592
 30
0.0
 10
356.656123
 20
32.919010
 30
0.0
 10
357.132620
 20
32.093692
 30
0.0
 10
357.132620
 20
31.200528
 30
0.0
  0
LWPOLYLINE
  5
11c
100
AcDbEntity
  8
Layer_1
 62
7
100
AcDbPolyline
 90
1
 70
1
 10
357.132620
 20
9.504700
 30
0.0
  0
SPLINE
  5
11d
100
AcDbEntity
  8
Layer_1
 62
7
100
AcDbSpline
 70
8
 71
3
 72
8
 73
4
 74
0
 40
0
 40
0
 40
0
 40
0
 40
1
 40
1
 40
1
 40
1
 10
89.374995
 20
234.400670
 30
0.0
 10
89.374995
 20
233.507506
 30
0.0
 10
88.898498
 20
232.682188
 30
0.0
 10
88.124995
 20
232.235606
 30
0.0
  0
SPLINE
  5
11e
100
AcDbEntity
  8
Layer_1
 62
7
100
AcDbSpline
 70
8
 71
3
 72
8
 73
4
 74
0
 40
0
 40
0
 40
0
 40
0
 40
1
 40
1
 40
1
 40
1
 10
88.124995
 20
232.235606
 30
0.0
 10
87.351492
 20
231.789025
 30
0.0
 10
86.398498
 20
231.789025
 30
0.0
 10
85.624995
 20
232.235606
 30
0.0
  0
SPLINE
  5
11f
100
AcDbEntity
  8
Layer_1
 62
7
100
AcDbSpline
 70
8
 71
3
 72
8
 73
4
 74
0
 40
0
 40
0
 40
0
 40
0
 40
1
 40
1
 40
1
 40
1
 10
85.624995
 20
232.235606
 30
0.0
 10
84.851492
 20
232.682188
 30
0.0
 10
84.374995
 20
233.507506
 30
0.0
 10
84.374995
 20
234.400670
 30
0.0
  0
SPLINE
  5
120
100
AcDbEntity
  8
Layer_1
 62
7
100
AcDbSpline
 70
8
 71
3
 72
8
 73
4
 74
0
 40
0
 40
0
 40
0
 40
0
 40
1
 40
1
 40
1
 40
1
 10
84.374995
 20
234.400670
 30
0.0
 10
84.374995
 20
235.293834
 30
0.0
 10
84.851492
 20
236.119152
 30
0.0
 10
85.624995
 20
236.565734
 30
0.0
  0
SPLINE
  5
121
100
AcDbEntity
  8
Layer_1
 62
7
100
AcDbSpline
 70
8
 71
3
 72
8
 73
4
 74
0
 40
0
 40
0
 40
0
 40
0
 40
1
 40
1
 40
1
 40
1
 10
85.624995
 20
236.565734
 30
0.0
 10
86.398498
 20
237.012316
 30
0.0
 10
87.351492
 20
237.012316
 30
0.0
 10
88.124995
 20
236.565734
 30
0.0
  0
SPLINE
  5
122
100
AcDbEntity
  8
Layer_1
 62
7
100
AcDbSpline
 70
8
 71
3
 72
8
 73
4
 74
0
 40
0
 40
0
 40
0
 40
0
 40
1
 40
1
 40
1
 40
1
 10
88.124995
 20
236.565734
 30
0.0
 10
88.898498
 20
236.119152
 30
0.0
 10
89.374995
 20
235.293834
 30
0.0
 10
89.374995
 20
234.400670
 30
0.0
  0
LWPOLYLINE
  5
123
100
AcDbEntity
  8
Layer_1
 62
7
100
AcDbPolyline
 90
1
 70
1
 10
357.132620
 20
31.200528
 30
0.0
  0
SPLINE
  5
124
100
AcDbEntity
  8
Layer_1
 62
7
100
AcDbSpline
 70
8
 71
3
 72
8
 73
4
 74
0
 40
0
 40
0
 40
0
 40
0
 40
1
 40
1
 40
1
 40
1
 10
89.374995
 20
256.096490
 30
0.0
 10
89.374995
 20
255.203326
 30
0.0
 10
88.898498
 20
254.378008
 30
0.0
 10
88.124995
 20
253.931426
 30
0.0
  0
SPLINE
  5
125
100
AcDbEntity
  8
Layer_1
 62
7
100
AcDbSpline
 70
8
 71
3
 72
8
 73
4
 74
0
 40
0
 40
0
 40
0
 40
0
 40
1
 40
1
 40
1
 40
1
 10
88.124995
 20
253.931426
 30
0.0
 10
87.351492
 20
253.484845
 30
0.0
 10
86.398498
 20
253.484845
 30
0.0
 10
85.624995
 20
253.931426
 30
0.0
  0
SPLINE
  5
126
100
AcDbEntity
  8
Layer_1
 62
7
100
AcDbSpline
 70
8
 71
3
 72
8
 73
4
 74
0
 40
0
 40
0
 40
0
 40
0
 40
1
 40
1
 40
1
 40
1
 10
85.624995
 20
253.931426
 30
0.0
 10
84.851492
 20
254.378008
 30
0.0
 10
84.374995
 20
255.203326
 30
0.0
 10
84.374995
 20
256.096490
 30
0.0
  0
SPLINE
  5
127
100
AcDbEntity
  8
Layer_1
 62
7
100
AcDbSpline
 70
8
 71
3
 72
8
 73
4
 74
0
 40
0
 40
0
 40
0
 40
0
 40
1
 40
1
 40
1
 40
1
 10
84.374995
 20
256.096490
 30
0.0
 10
84.374995
 20
256.989654
 30
0.0
 10
84.851492
 20
257.814972
 30
0.0
 10
85.624995
 20
258.261554
 30
0.0
  0
SPLINE
  5
128
100
AcDbEntity
  8
Layer_1
 62
7
100
AcDbSpline
 70
8
 71
3
 72
8
 73
4
 74
0
 40
0
 40
0
 40
0
 40
0
 40
1
 40
1
 40
1
 40
1
 10
85.624995
 20
258.261554
 30
0.0
 10
86.398498
 20
258.708136
 30
0.0
 10
87.351492
 20
258.708136
 30
0.0
 10
88.124995
 20
258.261554
 30
0.0
  0
SPLINE
  5
129
100
AcDbEntity
  8
Layer_1
 62
7
100
AcDbSpline
 70
8
 71
3
 72
8
 73
4
 74
0
 40
0
 40
0
 40
0
 40
0
 40
1
 40
1
 40
1
 40
1
 10
88.124995
 20
258.261554
 30
0.0
 10
88.898498
 20
257.814972
 30
0.0
 10
89.374995
 20
256.989654
 30
0.0
 10
89.374995
 20
256.096490
 30
0.0
  0
LWPOLYLINE
  5
12a
100
AcDbEntity
  8
Layer_1
 62
7
100
AcDbPolyline
 90
1
 70
1
 10
89.374995
 20
234.400670
 30
0.0
  0
SPLINE
  5
12b
100
AcDbEntity
  8
Layer_1
 62
7
100
AcDbSpline
 70
8
 71
3
 72
8
 73
4
 74
0
 40
0
 40
0
 40
0
 40
0
 40
1
 40
1
 40
1
 40
1
 10
357.132650
 20
234.400670
 30
0.0
 10
357.132650
 20
233.507506
 30
0.0
 10
356.656153
 20
232.682188
 30
0.0
 10
355.882650
 20
232.235606
 30
0.0
  0
SPLINE
  5
12c
100
AcDbEntity
  8
Layer_1
 62
7
100
AcDbSpline
 70
8
 71
3
 72
8
 73
4
 74
0
 40
0
 40
0
 40
0
 40
0
 40
1
 40
1
 40
1
 40
1
 10
355.882650
 20
232.235606
 30
0.0
 10
355.109147
 20
231.789025
 30
0.0
 10
354.156153
 20
231.789025
 30
0.0
 10
353.382650
 20
232.235606
 30
0.0
  0
SPLINE
  5
12d
100
AcDbEntity
  8
Layer_1
 62
7
100
AcDbSpline
 70
8
 71
3
 72
8
 73
4
 74
0
 40
0
 40
0
 40
0
 40
0
 40
1
 40
1
 40
1
 40
1
 10
353.382650
 20
232.235606
 30
0.0
 10
352.609147
 20
232.682188
 30
0.0
 10
352.132650
 20
233.507506
 30
0.0
 10
352.132650
 20
234.400670
 30
0.0
  0
SPLINE
  5
12e
100
AcDbEntity
  8
Layer_1
 62
7
100
AcDbSpline
 70
8
 71
3
 72
8
 73
4
 74
0
 40
0
 40
0
 40
0
 40
0
 40
1
 40
1
 40
1
 40
1
 10
352.132650
 20
234.400670
 30
0.0
 10
352.132650
 20
235.293834
 30
0.0
 10
352.609147
 20
236.119152
 30
0.0
 10
353.382650
 20
236.565734
 30
0.0
  0
SPLINE
  5
12f
100
AcDbEntity
  8
Layer_1
 62
7
100
AcDbSpline
 70
8
 71
3
 72
8
 73
4
 74
0
 40
0
 40
0
 40
0
 40
0
 40
1
 40
1
 40
1
 40
1
 10
353.382650
 20
236.565734
 30
0.0
 10
354.156153
 20
237.012316
 30
0.0
 10
355.109147
 20
237.012316
 30
0.0
 10
355.882650
 20
236.565734
 30
0.0
  0
SPLINE
  5
130
100
AcDbEntity
  8
Layer_1
 62
7
100
AcDbSpline
 70
8
 71
3
 72
8
 73
4
 74
0
 40
0
 40
0
 40
0
 40
0
 40
1
 40
1
 40
1
 40
1
 10
355.882650
 20
236.565734
 30
0.0
 10
356.656153
 20
236.119152
 30
0.0
 10
357.132650
 20
235.293834
 30
0.0
 10
357.132650
 20
234.400670
 30
0.0
  0
LWPOLYLINE
  5
131
100
AcDbEntity
  8
Layer_1
 62
7
100
AcDbPolyline
 90
1
 70
1
 10
89.374995
 20
256.096490
 30
0.0
  0
SPLINE
  5
132
100
AcDbEntity
  8
Layer_1
 62
7
100
AcDbSpline
 70
8
 71
3
 72
8
 73
4
 74
0
 40
0
 40
0
 40
0
 40
0
 40
1
 40
1
 40
1
 40
1
 10
357.132650
 20
256.096490
 30
0.0
 10
357.132650
 20
255.203326
 30
0.0
 10
356.656153
 20
254.378008
 30
0.0
 10
355.882650
 20
253.931426
 30
0.0
  0
SPLINE
  5
133
100
AcDbEntity
  8
Layer_1
 62
7
100
AcDbSpline
 70
8
 71
3
 72
8
 73
4
 74
0
 40
0
 40
0
 40
0
 40
0
 40
1
 40
1
 40
1
 40
1
 10
355.882650
 20
253.931426
 30
0.0
 10
355.109147
 20
253.484845
 30
0.0
 10
354.156153
 20
253.484845
 30
0.0
 10
353.382650
 20
253.931426
 30
0.0
  0
SPLINE
  5
134
100
AcDbEntity
  8
Layer_1
 62
7
100
AcDbSpline
 70
8
 71
3
 72
8
 73
4
 74
0
 40
0
 40
0
 40
0
 40
0
 40
1
 40
1
 40
1
 40
1
 10
353.382650
 20
253.931426
 30
0.0
 10
352.609147
 20
254.378008
 30
0.0
 10
352.132650
 20
255.203326
 30
0.0
 10
352.132650
 20
256.096490
 30
0.0
  0
SPLINE
  5
135
100
AcDbEntity
  8
Layer_1
 62
7
100
AcDbSpline
 70
8
 71
3
 72
8
 73
4
 74
0
 40
0
 40
0
 40
0
 40
0
 40
1
 40
1
 40
1
 40
1
 10
352.132650
 20
256.096490
 30
0.0
 10
352.132650
 20
256.989654
 30
0.0
 10
352.609147
 20
257.814972
 30
0.0
 10
353.382650
 20
258.261554
 30
0.0
  0
SPLINE
  5
136
100
AcDbEntity
  8
Layer_1
 62
7
100
AcDbSpline
 70
8
 71
3
 72
8
 73
4
 74
0
 40
0
 40
0
 40
0
 40
0
 40
1
 40
1
 40
1
 40
1
 10
353.382650
 20
258.261554
 30
0.0
 10
354.156153
 20
258.708136
 30
0.0
 10
355.109147
 20
258.708136
 30
0.0
 10
355.882650
 20
258.261554
 30
0.0
  0
SPLINE
  5
137
100
AcDbEntity
  8
Layer_1
 62
7
100
AcDbSpline
 70
8
 71
3
 72
8
 73
4
 74
0
 40
0
 40
0
 40
0
 40
0
 40
1
 40
1
 40
1
 40
1
 10
355.882650
 20
258.261554
 30
0.0
 10
356.656153
 20
257.814972
 30
0.0
 10
357.132650
 20
256.989654
 30
0.0
 10
357.132650
 20
256.096490
 30
0.0
  0
LWPOLYLINE
  5
138
100
AcDbEntity
  8
Layer_1
 62
7
100
AcDbPolyline
 90
1
 70
1
 10
357.132650
 20
234.400670
 30
0.0
  0
LWPOLYLINE
  5
139
100
AcDbEntity
  8
Layer_1
 62
7
100
AcDbPolyline
 90
1
 70
1
 10
357.132650
 20
256.096490
 30
0.0
  0
LWPOLYLINE
  5
13a
100
AcDbEntity
  8
Layer_1
 62
7
100
AcDbPolyline
 90
4
 70
1
 10
418.116430
 20
140.000005
 30
0.0
 10
428.116430
 20
140.000005
 30
0.0
 10
428.116430
 20
130.000005
 30
0.0
 10
418.116430
 20
130.000005
 30
0.0
  0
LWPOLYLINE
  5
13b
100
AcDbEntity
  8
Layer_1
 62
7
100
AcDbPolyline
 90
4
 70
1
 10
5.368430
 20
150.000005
 30
0.0
 10
9.368430
 20
150.000005
 30
0.0
 10
9.368430
 20
120.000005
 30
0.0
 10
5.368430
 20
120.000005
 30
0.0
  0
ENDSEC
  0
SECTION
  2
OBJECTS
  0
DICTIONARY
  5
C
330
0
100
AcDbDictionary
  3
ACAD_GROUP
350
D
  3
ACAD_MLINESTYLE
350
17
  0
DICTIONARY
  5
D
330
C
100
AcDbDictionary
  0
DICTIONARY
  5
1A
330
C
100
AcDbDictionary
  0
DICTIONARY
  5
17
330
C
100
AcDbDictionary
  3
STANDARD
350
18
  0
DICTIONARY
  5
19
330
C
100
AcDbDictionary
  0
ENDSEC
  0
EOF
