  0
SECTION
  2
HEADER
  9
$ACADVER
  1
AC1014
  9
$HANDSEED
  5
FFFF
  9
$MEASUREMENT
 70
     1
  0
ENDSEC
  0
SECTION
  2
TABLES
  0
TABLE
  2
VPORT
  5
8
330
0
100
AcDbSymbolTable
 70
     4
  0
VPORT
  5
2E
330
8
100
AcDbSymbolTableRecord
100
AcDbViewportTableRecord
  2
*ACTIVE
 70
     0
 10
0.0
 20
0.0
 11
1.0
 21
1.0
 12
210.0
 22
148.5
 13
0.0
 23
0.0
 14
10.0
 24
10.0
 15
10.0
 25
10.0
 16
0.0
 26
0.0
 36
1.0
 17
0.0
 27
0.0
 37
0.0
 40
341.0
 41
1.24
 42
50.0
 43
0.0
 44
0.0
 50
0.0
 51
0.0
 71
     0
 72
   100
 73
     1
 74
     3
 75
     0
 76
     0
 77
     0
 78
     0
  0
ENDTAB
  0
TABLE
  2
LTYPE
  5
5
330
0
100
AcDbSymbolTable
 70
     1
  0
LTYPE
  5
14
330
5
100
AcDbSymbolTableRecord
100
AcDbLinetypeTableRecord
  2
BYBLOCK
 70
     0
  3

 72
    65
 73
     0
 40
0.0
  0
LTYPE
  5
15
330
5
100
AcDbSymbolTableRecord
100
AcDbLinetypeTableRecord
  2
BYLAYER
 70
     0
  3

 72
    65
 73
     0
 40
0.0
  0
LTYPE
  5
16
330
5
100
AcDbSymbolTableRecord
100
AcDbLinetypeTableRecord
  2
CONTINUOUS
 70
     0
  3
Solid line
 72
    65
 73
     0
 40
0.0
  0
ENDTAB
  0
TABLE
  2
LAYER
  5
2
100
AcDbSymbolTable
 70
1
  0
LAYER
  5
50
100
AcDbSymbolTableRecord
100
AcDbLayerTableRecord
  2
0
 70
0
  6
CONTINUOUS
  0
ENDTAB
  0
TABLE
  2
STYLE
  5
3
330
0
100
AcDbSymbolTable
 70
     1
  0
STYLE
  5
11
330
3
100
AcDbSymbolTableRecord
100
AcDbTextStyleTableRecord
  2
STANDARD
 70
     0
 40
0.0
 41
1.0
 50
0.0
 71
     0
 42
2.5
  3
txt
  4

  0
ENDTAB
  0
TABLE
  2
VIEW
  5
6
330
0
100
AcDbSymbolTable
 70
     0
  0
ENDTAB
  0
TABLE
  2
UCS
  5
7
330
0
100
AcDbSymbolTable
 70
     0
  0
ENDTAB
  0
TABLE
  2
APPID
  5
9
330
0
100
AcDbSymbolTable
 70
     2
  0
APPID
  5
12
330
9
100
AcDbSymbolTableRecord
100
AcDbRegAppTableRecord
  2
ACAD
 70
     0
  0
ENDTAB
  0
TABLE
  2
DIMSTYLE
  5
A
330
0
100
AcDbSymbolTable
 70
     1
  0
DIMSTYLE
105
27
330
A
100
AcDbSymbolTableRecord
100
AcDbDimStyleTableRecord
  2
ISO-25
 70
     0
  3

  4

  5

  6

  7

 40
1.0
 41
2.5
 42
0.625
 43
3.75
 44
1.25
 45
0.0
 46
0.0
 47
0.0
 48
0.0
140
2.5
141
2.5
142
0.0
143
0.03937007874016
144
1.0
145
0.0
146
1.0
147
0.625
 71
     0
 72
     0
 73
     0
 74
     0
 75
     0
 76
     0
 77
     1
 78
     8
170
     0
171
     3
172
     1
173
     0
174
     0
175
     0
176
     0
177
     0
178
     0
270
     2
271
     2
272
     2
273
     2
274
     3
340
11
275
     0
280
     0
281
     0
282
     0
283
     0
284
     8
285
     0
286
     0
287
     3
288
     0
  0
ENDTAB
  0
TABLE
  2
BLOCK_RECORD
  5
1
330
0
100
AcDbSymbolTable
 70
     1
  0
BLOCK_RECORD
  5
1F
330
1
100
AcDbSymbolTableRecord
100
AcDbBlockTableRecord
  2
*MODEL_SPACE
  0
BLOCK_RECORD
  5
1B
330
1
100
AcDbSymbolTableRecord
100
AcDbBlockTableRecord
  2
*PAPER_SPACE
  0
ENDTAB
  0
ENDSEC
  0
SECTION
  2
BLOCKS
  0
BLOCK
  5
20
330
1F
100
AcDbEntity
  8
0
100
AcDbBlockBegin
  2
*MODEL_SPACE
 70
     0
 10
0.0
 20
0.0
 30
0.0
  3
*MODEL_SPACE
  1

  0
ENDBLK
  5
21
330
1F
100
AcDbEntity
  8
0
100
AcDbBlockEnd
  0
BLOCK
  5
1C
330
1B
100
AcDbEntity
 67
     1
  8
0
100
AcDbBlockBegin
  2
*PAPER_SPACE
  1

  0
ENDBLK
  5
1D
330
1B
100
AcDbEntity
 67
     1
  8
0
100
AcDbBlockEnd
  0
ENDSEC
  0
SECTION
  2
ENTITIES
  0
LINE
  5
100
100
AcDbEntity
  8
0
 62
7
100
AcDbLine
 10
30.612934
 20
0.953320
 30
0.0
 11
30.612934
 21
0.902673
 31
0.0
  0
SPLINE
  5
101
100
AcDbEntity
  8
0
 62
7
100
AcDbSpline
 70
8
 71
3
 72
8
 73
4
 74
0
 40
0
 40
0
 40
0
 40
0
 40
1
 40
1
 40
1
 40
1
 10
30.612934
 20
0.902673
 30
0.0
 10
30.612934
 20
0.634861
 30
0.0
 10
30.534858
 20
0.417555
 30
0.0
 10
30.377875
 20
0.252029
 30
0.0
  0
SPLINE
  5
102
100
AcDbEntity
  8
0
 62
7
100
AcDbSpline
 70
8
 71
3
 72
8
 73
4
 74
0
 40
0
 40
0
 40
0
 40
0
 40
1
 40
1
 40
1
 40
1
 10
30.377875
 20
0.252029
 30
0.0
 10
30.221302
 20
0.085748
 30
0.0
 10
30.012927
 20
0.002381
 30
0.0
 10
29.752728
 20
0.002381
 30
0.0
  0
SPLINE
  5
103
100
AcDbEntity
  8
0
 62
7
100
AcDbSpline
 70
8
 71
3
 72
8
 73
4
 74
0
 40
0
 40
0
 40
0
 40
0
 40
1
 40
1
 40
1
 40
1
 10
29.752728
 20
0.002381
 30
0.0
 10
29.518046
 20
0.002381
 30
0.0
 10
29.321474
 20
0.075273
 30
0.0
 10
29.162612
 20
0.219687
 30
0.0
  0
SPLINE
  5
104
100
AcDbEntity
  8
0
 62
7
100
AcDbSpline
 70
8
 71
3
 72
8
 73
4
 74
0
 40
0
 40
0
 40
0
 40
0
 40
1
 40
1
 40
1
 40
1
 10
29.162612
 20
0.219687
 30
0.0
 10
28.977843
 20
0.387437
 30
0.0
 10
28.886042
 20
0.607280
 30
0.0
 10
28.886042
 20
0.878559
 30
0.0
  0
SPLINE
  5
105
100
AcDbEntity
  8
0
 62
7
100
AcDbSpline
 70
8
 71
3
 72
8
 73
4
 74
0
 40
0
 40
0
 40
0
 40
0
 40
1
 40
1
 40
1
 40
1
 10
28.886042
 20
0.878559
 30
0.0
 10
28.886042
 20
1.146425
 30
0.0
 10
28.977832
 20
1.364401
 30
0.0
 10
29.162612
 20
1.532550
 30
0.0
  0
SPLINE
  5
106
100
AcDbEntity
  8
0
 62
7
100
AcDbSpline
 70
8
 71
3
 72
8
 73
4
 74
0
 40
0
 40
0
 40
0
 40
0
 40
1
 40
1
 40
1
 40
1
 10
29.162612
 20
1.532550
 30
0.0
 10
29.324141
 20
1.680614
 30
0.0
 10
29.525670
 20
1.754672
 30
0.0
 10
29.767587
 20
1.754672
 30
0.0
  0
SPLINE
  5
107
100
AcDbEntity
  8
0
 62
7
100
AcDbSpline
 70
8
 71
3
 72
8
 73
4
 74
0
 40
0
 40
0
 40
0
 40
0
 40
1
 40
1
 40
1
 40
1
 10
29.767587
 20
1.754672
 30
0.0
 10
30.059394
 20
1.754672
 30
0.0
 10
30.301311
 20
1.626705
 30
0.0
 10
30.492559
 20
1.371496
 30
0.0
  0
LINE
  5
108
100
AcDbEntity
  8
0
 62
7
100
AcDbLine
 10
30.492559
 20
1.371496
 30
0.0
 11
30.249887
 21
1.221488
 31
0.0
  0
SPLINE
  5
109
100
AcDbEntity
  8
0
 62
7
100
AcDbSpline
 70
8
 71
3
 72
8
 73
4
 74
0
 40
0
 40
0
 40
0
 40
0
 40
1
 40
1
 40
1
 40
1
 10
30.249887
 20
1.221488
 30
0.0
 10
30.115397
 20
1.381139
 30
0.0
 10
29.949300
 20
1.461094
 30
0.0
 10
29.751961
 20
1.461094
 30
0.0
  0
SPLINE
  5
10a
100
AcDbEntity
  8
0
 62
7
100
AcDbSpline
 70
8
 71
3
 72
8
 73
4
 74
0
 40
0
 40
0
 40
0
 40
0
 40
1
 40
1
 40
1
 40
1
 10
29.751961
 20
1.461094
 30
0.0
 10
29.577105
 20
1.461094
 30
0.0
 10
29.433102
 20
1.406020
 30
0.0
 10
29.319952
 20
1.295558
 30
0.0
  0
SPLINE
  5
10b
100
AcDbEntity
  8
0
 62
7
100
AcDbSpline
 70
8
 71
3
 72
8
 73
4
 74
0
 40
0
 40
0
 40
0
 40
0
 40
1
 40
1
 40
1
 40
1
 10
29.319952
 20
1.295558
 30
0.0
 10
29.206812
 20
1.185064
 30
0.0
 10
29.150420
 20
1.045574
 30
0.0
 10
29.150420
 20
0.877025
 30
0.0
  0
SPLINE
  5
10c
100
AcDbEntity
  8
0
 62
7
100
AcDbSpline
 70
8
 71
3
 72
8
 73
4
 74
0
 40
0
 40
0
 40
0
 40
0
 40
1
 40
1
 40
1
 40
1
 10
29.150420
 20
0.877025
 30
0.0
 10
29.150420
 20
0.704384
 30
0.0
 10
29.205710
 20
0.563016
 30
0.0
 10
29.315772
 20
0.454400
 30
0.0
  0
SPLINE
  5
10d
100
AcDbEntity
  8
0
 62
7
100
AcDbSpline
 70
8
 71
3
 72
8
 73
4
 74
0
 40
0
 40
0
 40
0
 40
0
 40
1
 40
1
 40
1
 40
1
 10
29.315772
 20
0.454400
 30
0.0
 10
29.426234
 20
0.345386
 30
0.0
 10
29.571393
 20
0.290333
 30
0.0
 10
29.751961
 20
0.290333
 30
0.0
  0
SPLINE
  5
10e
100
AcDbEntity
  8
0
 62
7
100
AcDbSpline
 70
8
 71
3
 72
8
 73
4
 74
0
 40
0
 40
0
 40
0
 40
0
 40
1
 40
1
 40
1
 40
1
 10
29.751961
 20
0.290333
 30
0.0
 10
30.022440
 20
0.290333
 30
0.0
 10
30.202253
 20
0.413483
 30
0.0
 10
30.291408
 20
0.659784
 30
0.0
  0
LINE
  5
10f
100
AcDbEntity
  8
0
 62
7
100
AcDbLine
 10
30.291408
 20
0.659784
 30
0.0
 11
29.696725
 21
0.659784
 31
0.0
  0
LINE
  5
110
100
AcDbEntity
  8
0
 62
7
100
AcDbLine
 10
29.696725
 20
0.659784
 30
0.0
 11
29.696725
 21
0.953298
 31
0.0
  0
LINE
  5
111
100
AcDbEntity
  8
0
 62
7
100
AcDbLine
 10
29.696725
 20
0.953298
 30
0.0
 11
30.612934
 21
0.953320
 31
0.0
  0
SPLINE
  5
112
100
AcDbEntity
  8
0
 62
7
100
AcDbSpline
 70
8
 71
3
 72
8
 73
4
 74
0
 40
0
 40
0
 40
0
 40
0
 40
1
 40
1
 40
1
 40
1
 10
32.009921
 20
0.947899
 30
0.0
 10
32.165727
 20
0.947899
 30
0.0
 10
32.243447
 20
1.022735
 30
0.0
 10
32.243447
 20
1.170777
 30
0.0
  0
SPLINE
  5
113
100
AcDbEntity
  8
0
 62
7
100
AcDbSpline
 70
8
 71
3
 72
8
 73
4
 74
0
 40
0
 40
0
 40
0
 40
0
 40
1
 40
1
 40
1
 40
1
 10
32.243447
 20
1.170777
 30
0.0
 10
32.243447
 20
1.327738
 30
0.0
 10
32.160835
 20
1.406225
 30
0.0
 10
31.995062
 20
1.406225
 30
0.0
  0
LINE
  5
114
100
AcDbEntity
  8
0
 62
7
100
AcDbLine
 10
31.995062
 20
1.406225
 30
0.0
 11
31.240382
 21
1.406225
 31
0.0
  0
LINE
  5
115
100
AcDbEntity
  8
0
 62
7
100
AcDbLine
 10
31.240382
 20
1.406225
 30
0.0
 11
31.240382
 21
0.947899
 31
0.0
  0
LINE
  5
116
100
AcDbEntity
  8
0
 62
7
100
AcDbLine
 10
31.240382
 20
0.947899
 30
0.0
 11
32.009921
 21
0.947899
 31
0.0
  0
LINE
  5
117
100
AcDbEntity
  8
0
 62
7
100
AcDbLine
 10
32.537165
 20
0.049831
 30
0.0
 11
32.241924
 21
0.049831
 31
0.0
  0
LINE
  5
118
100
AcDbEntity
  8
0
 62
7
100
AcDbLine
 10
32.241924
 20
0.049831
 30
0.0
 11
31.897148
 21
0.654730
 31
0.0
  0
LINE
  5
119
100
AcDbEntity
  8
0
 62
7
100
AcDbLine
 10
31.897148
 20
0.654730
 30
0.0
 11
31.240382
 21
0.654730
 31
0.0
  0
LINE
  5
11a
100
AcDbEntity
  8
0
 62
7
100
AcDbLine
 10
31.240382
 20
0.654730
 30
0.0
 11
31.240382
 21
0.049831
 31
0.0
  0
LINE
  5
11b
100
AcDbEntity
  8
0
 62
7
100
AcDbLine
 10
31.240382
 20
0.049831
 30
0.0
 11
30.983995
 21
0.049831
 31
0.0
  0
LINE
  5
11c
100
AcDbEntity
  8
0
 62
7
100
AcDbLine
 10
30.983995
 20
0.049831
 30
0.0
 11
30.983995
 21
1.699738
 31
0.0
  0
LINE
  5
11d
100
AcDbEntity
  8
0
 62
7
100
AcDbLine
 10
30.983995
 20
1.699738
 30
0.0
 11
32.049153
 21
1.699738
 31
0.0
  0
SPLINE
  5
11e
100
AcDbEntity
  8
0
 62
7
100
AcDbSpline
 70
8
 71
3
 72
8
 73
4
 74
0
 40
0
 40
0
 40
0
 40
0
 40
1
 40
1
 40
1
 40
1
 10
32.049153
 20
1.699738
 30
0.0
 10
32.189344
 20
1.699738
 30
0.0
 10
32.300962
 20
1.652547
 30
0.0
 10
32.383638
 20
1.557625
 30
0.0
  0
SPLINE
  5
11f
100
AcDbEntity
  8
0
 62
7
100
AcDbSpline
 70
8
 71
3
 72
8
 73
4
 74
0
 40
0
 40
0
 40
0
 40
0
 40
1
 40
1
 40
1
 40
1
 10
32.383638
 20
1.557625
 30
0.0
 10
32.466681
 20
1.462811
 30
0.0
 10
32.508214
 20
1.335578
 30
0.0
 10
32.508214
 20
1.176738
 30
0.0
  0
SPLINE
  5
120
100
AcDbEntity
  8
0
 62
7
100
AcDbSpline
 70
8
 71
3
 72
8
 73
4
 74
0
 40
0
 40
0
 40
0
 40
0
 40
1
 40
1
 40
1
 40
1
 10
32.508214
 20
1.176738
 30
0.0
 10
32.508214
 20
0.902846
 30
0.0
 10
32.398875
 20
0.735819
 30
0.0
 10
32.180964
 20
0.675227
 30
0.0
  0
LINE
  5
121
100
AcDbEntity
  8
0
 62
7
100
AcDbLine
 10
32.180964
 20
0.675227
 30
0.0
 11
32.537165
 21
0.049831
 31
0.0
  0
SPLINE
  5
122
100
AcDbEntity
  8
0
 62
7
100
AcDbSpline
 70
8
 71
3
 72
8
 73
4
 74
0
 40
0
 40
0
 40
0
 40
0
 40
1
 40
1
 40
1
 40
1
 10
34.289965
 20
0.877198
 30
0.0
 10
34.289965
 20
1.047626
 30
0.0
 10
34.233918
 20
1.187115
 30
0.0
 10
34.122333
 20
1.296864
 30
0.0
  0
SPLINE
  5
123
100
AcDbEntity
  8
0
 62
7
100
AcDbSpline
 70
8
 71
3
 72
8
 73
4
 74
0
 40
0
 40
0
 40
0
 40
0
 40
1
 40
1
 40
1
 40
1
 10
34.122333
 20
1.296864
 30
0.0
 10
34.010338
 20
1.406225
 30
0.0
 10
33.866335
 20
1.461267
 30
0.0
 10
33.689568
 20
1.461267
 30
0.0
  0
SPLINE
  5
124
100
AcDbEntity
  8
0
 62
7
100
AcDbSpline
 70
8
 71
3
 72
8
 73
4
 74
0
 40
0
 40
0
 40
0
 40
0
 40
1
 40
1
 40
1
 40
1
 10
33.689568
 20
1.461267
 30
0.0
 10
33.512045
 20
1.461267
 30
0.0
 10
33.366520
 20
1.406192
 30
0.0
 10
33.254514
 20
1.295720
 30
0.0
  0
SPLINE
  5
125
100
AcDbEntity
  8
0
 62
7
100
AcDbSpline
 70
8
 71
3
 72
8
 73
4
 74
0
 40
0
 40
0
 40
0
 40
0
 40
1
 40
1
 40
1
 40
1
 10
33.254514
 20
1.295720
 30
0.0
 10
33.141752
 20
1.184902
 30
0.0
 10
33.085371
 20
1.045736
 30
0.0
 10
33.085371
 20
0.877198
 30
0.0
  0
SPLINE
  5
126
100
AcDbEntity
  8
0
 62
7
100
AcDbSpline
 70
8
 71
3
 72
8
 73
4
 74
0
 40
0
 40
0
 40
0
 40
0
 40
1
 40
1
 40
1
 40
1
 10
33.085371
 20
0.877198
 30
0.0
 10
33.085371
 20
0.702753
 30
0.0
 10
33.140229
 20
0.560985
 30
0.0
 10
33.250712
 20
0.453105
 30
0.0
  0
SPLINE
  5
127
100
AcDbEntity
  8
0
 62
7
100
AcDbSpline
 70
8
 71
3
 72
8
 73
4
 74
0
 40
0
 40
0
 40
0
 40
0
 40
1
 40
1
 40
1
 40
1
 10
33.250712
 20
0.453105
 30
0.0
 10
33.361185
 20
0.344813
 30
0.0
 10
33.507467
 20
0.290905
 30
0.0
 10
33.689568
 20
0.290905
 30
0.0
  0
SPLINE
  5
128
100
AcDbEntity
  8
0
 62
7
100
AcDbSpline
 70
8
 71
3
 72
8
 73
4
 74
0
 40
0
 40
0
 40
0
 40
0
 40
1
 40
1
 40
1
 40
1
 10
33.689568
 20
0.290905
 30
0.0
 10
33.870147
 20
0.290905
 30
0.0
 10
34.015673
 20
0.344792
 30
0.0
 10
34.125390
 20
0.453105
 30
0.0
  0
SPLINE
  5
129
100
AcDbEntity
  8
0
 62
7
100
AcDbSpline
 70
8
 71
3
 72
8
 73
4
 74
0
 40
0
 40
0
 40
0
 40
0
 40
1
 40
1
 40
1
 40
1
 10
34.125390
 20
0.453105
 30
0.0
 10
34.235106
 20
0.560985
 30
0.0
 10
34.289965
 20
0.702753
 30
0.0
 10
34.289965
 20
0.877198
 30
0.0
  0
SPLINE
  5
12a
100
AcDbEntity
  8
0
 62
7
100
AcDbSpline
 70
8
 71
3
 72
8
 73
4
 74
0
 40
0
 40
0
 40
0
 40
0
 40
1
 40
1
 40
1
 40
1
 10
34.557021
 20
0.878278
 30
0.0
 10
34.557021
 20
0.608479
 30
0.0
 10
34.464798
 20
0.389035
 30
0.0
 10
34.280062
 20
0.219406
 30
0.0
  0
SPLINE
  5
12b
100
AcDbEntity
  8
0
 62
7
100
AcDbSpline
 70
8
 71
3
 72
8
 73
4
 74
0
 40
0
 40
0
 40
0
 40
0
 40
1
 40
1
 40
1
 40
1
 10
34.280062
 20
0.219406
 30
0.0
 10
34.123111
 20
0.074690
 30
0.0
 10
33.926150
 20
0.002100
 30
0.0
 10
33.689946
 20
0.002100
 30
0.0
  0
SPLINE
  5
12c
100
AcDbEntity
  8
0
 62
7
100
AcDbSpline
 70
8
 71
3
 72
8
 73
4
 74
0
 40
0
 40
0
 40
0
 40
0
 40
1
 40
1
 40
1
 40
1
 10
33.689946
 20
0.002100
 30
0.0
 10
33.453753
 20
0.002100
 30
0.0
 10
33.256414
 20
0.074668
 30
0.0
 10
33.097552
 20
0.219406
 30
0.0
  0
SPLINE
  5
12d
100
AcDbEntity
  8
0
 62
7
100
AcDbSpline
 70
8
 71
3
 72
8
 73
4
 74
0
 40
0
 40
0
 40
0
 40
0
 40
1
 40
1
 40
1
 40
1
 10
33.097552
 20
0.219406
 30
0.0
 10
32.913172
 20
0.387156
 30
0.0
 10
32.820604
 20
0.606999
 30
0.0
 10
32.820604
 20
0.878278
 30
0.0
  0
SPLINE
  5
12e
100
AcDbEntity
  8
0
 62
7
100
AcDbSpline
 70
8
 71
3
 72
8
 73
4
 74
0
 40
0
 40
0
 40
0
 40
0
 40
1
 40
1
 40
1
 40
1
 10
32.820604
 20
0.878278
 30
0.0
 10
32.820604
 20
1.146144
 30
0.0
 10
32.913582
 20
1.364120
 30
0.0
 10
33.099841
 20
1.532269
 30
0.0
  0
SPLINE
  5
12f
100
AcDbEntity
  8
0
 62
7
100
AcDbSpline
 70
8
 71
3
 72
8
 73
4
 74
0
 40
0
 40
0
 40
0
 40
0
 40
1
 40
1
 40
1
 40
1
 10
33.099841
 20
1.532269
 30
0.0
 10
33.262516
 20
1.680333
 30
0.0
 10
33.459844
 20
1.754391
 30
0.0
 10
33.689946
 20
1.754391
 30
0.0
  0
SPLINE
  5
130
100
AcDbEntity
  8
0
 62
7
100
AcDbSpline
 70
8
 71
3
 72
8
 73
4
 74
0
 40
0
 40
0
 40
0
 40
0
 40
1
 40
1
 40
1
 40
1
 10
33.689946
 20
1.754391
 30
0.0
 10
33.918904
 20
1.754391
 30
0.0
 10
34.115098
 20
1.680311
 30
0.0
 10
34.278151
 20
1.532269
 30
0.0
  0
SPLINE
  5
131
100
AcDbEntity
  8
0
 62
7
100
AcDbSpline
 70
8
 71
3
 72
8
 73
4
 74
0
 40
0
 40
0
 40
0
 40
0
 40
1
 40
1
 40
1
 40
1
 10
34.278151
 20
1.532269
 30
0.0
 10
34.464064
 20
1.362640
 30
0.0
 10
34.557021
 20
1.144600
 30
0.0
 10
34.557021
 20
0.878278
 30
0.0
  0
SPLINE
  5
132
100
AcDbEntity
  8
0
 62
7
100
AcDbSpline
 70
8
 71
3
 72
8
 73
4
 74
0
 40
0
 40
0
 40
0
 40
0
 40
1
 40
1
 40
1
 40
1
 10
36.448488
 20
0.592140
 30
0.0
 10
36.448488
 20
0.418429
 30
0.0
 10
36.379160
 20
0.277061
 30
0.0
 10
36.240102
 20
0.167301
 30
0.0
  0
SPLINE
  5
133
100
AcDbEntity
  8
0
 62
7
100
AcDbSpline
 70
8
 71
3
 72
8
 73
4
 74
0
 40
0
 40
0
 40
0
 40
0
 40
1
 40
1
 40
1
 40
1
 10
36.240102
 20
0.167301
 30
0.0
 10
36.101434
 20
0.057153
 30
0.0
 10
35.915132
 20
0.002100
 30
0.0
 10
35.682005
 20
0.002100
 30
0.0
  0
SPLINE
  5
134
100
AcDbEntity
  8
0
 62
7
100
AcDbSpline
 70
8
 71
3
 72
8
 73
4
 74
0
 40
0
 40
0
 40
0
 40
0
 40
1
 40
1
 40
1
 40
1
 10
35.682005
 20
0.002100
 30
0.0
 10
35.447324
 20
0.002100
 30
0.0
 10
35.260655
 20
0.057174
 30
0.0
 10
35.121608
 20
0.167301
 30
0.0
  0
SPLINE
  5
135
100
AcDbEntity
  8
0
 62
7
100
AcDbSpline
 70
8
 71
3
 72
8
 73
4
 74
0
 40
0
 40
0
 40
0
 40
0
 40
1
 40
1
 40
1
 40
1
 10
35.121608
 20
0.167301
 30
0.0
 10
34.982929
 20
0.277061
 30
0.0
 10
34.913600
 20
0.418429
 30
0.0
 10
34.913600
 20
0.592140
 30
0.0
  0
LINE
  5
136
100
AcDbEntity
  8
0
 62
7
100
AcDbLine
 10
34.913600
 20
0.592140
 30
0.0
 11
34.913600
 21
1.699285
 31
0.0
  0
LINE
  5
137
100
AcDbEntity
  8
0
 62
7
100
AcDbLine
 10
34.913600
 20
1.699285
 30
0.0
 11
35.170365
 21
1.699285
 31
0.0
  0
LINE
  5
138
100
AcDbEntity
  8
0
 62
7
100
AcDbLine
 10
35.170365
 20
1.699285
 30
0.0
 11
35.170365
 21
0.655422
 31
0.0
  0
SPLINE
  5
139
100
AcDbEntity
  8
0
 62
7
100
AcDbSpline
 70
8
 71
3
 72
8
 73
4
 74
0
 40
0
 40
0
 40
0
 40
0
 40
1
 40
1
 40
1
 40
1
 10
35.170365
 20
0.655422
 30
0.0
 10
35.170365
 20
0.412069
 30
0.0
 10
35.341031
 20
0.290452
 30
0.0
 10
35.682005
 20
0.290452
 30
0.0
  0
SPLINE
  5
13a
100
AcDbEntity
  8
0
 62
7
100
AcDbSpline
 70
8
 71
3
 72
8
 73
4
 74
0
 40
0
 40
0
 40
0
 40
0
 40
1
 40
1
 40
1
 40
1
 10
35.682005
 20
0.290452
 30
0.0
 10
36.021803
 20
0.290452
 30
0.0
 10
36.191723
 20
0.412069
 30
0.0
 10
36.191723
 20
0.655422
 30
0.0
  0
LINE
  5
13b
100
AcDbEntity
  8
0
 62
7
100
AcDbLine
 10
36.191723
 20
0.655422
 30
0.0
 11
36.191723
 21
1.699285
 31
0.0
  0
LINE
  5
13c
100
AcDbEntity
  8
0
 62
7
100
AcDbLine
 10
36.191723
 20
1.699285
 30
0.0
 11
36.448488
 21
1.699285
 31
0.0
  0
LINE
  5
13d
100
AcDbEntity
  8
0
 62
7
100
AcDbLine
 10
36.448488
 20
1.699285
 30
0.0
 11
36.448488
 21
0.592140
 31
0.0
  0
SPLINE
  5
13e
100
AcDbEntity
  8
0
 62
7
100
AcDbSpline
 70
8
 71
3
 72
8
 73
4
 74
0
 40
0
 40
0
 40
0
 40
0
 40
1
 40
1
 40
1
 40
1
 10
37.910236
 20
0.947456
 30
0.0
 10
38.065286
 20
0.947456
 30
0.0
 10
38.143773
 20
1.022292
 30
0.0
 10
38.143773
 20
1.170323
 30
0.0
  0
SPLINE
  5
13f
100
AcDbEntity
  8
0
 62
7
100
AcDbSpline
 70
8
 71
3
 72
8
 73
4
 74
0
 40
0
 40
0
 40
0
 40
0
 40
1
 40
1
 40
1
 40
1
 10
38.143773
 20
1.170323
 30
0.0
 10
38.143773
 20
1.327285
 30
0.0
 10
38.060729
 20
1.405771
 30
0.0
 10
37.894999
 20
1.405771
 30
0.0
  0
LINE
  5
140
100
AcDbEntity
  8
0
 62
7
100
AcDbLine
 10
37.894999
 20
1.405771
 30
0.0
 11
37.140308
 21
1.405771
 31
0.0
  0
LINE
  5
141
100
AcDbEntity
  8
0
 62
7
100
AcDbLine
 10
37.140308
 20
1.405771
 30
0.0
 11
37.140308
 21
0.947456
 31
0.0
  0
LINE
  5
142
100
AcDbEntity
  8
0
 62
7
100
AcDbLine
 10
37.140308
 20
0.947456
 30
0.0
 11
37.910236
 21
0.947456
 31
0.0
  0
SPLINE
  5
143
100
AcDbEntity
  8
0
 62
7
100
AcDbSpline
 70
8
 71
3
 72
8
 73
4
 74
0
 40
0
 40
0
 40
0
 40
0
 40
1
 40
1
 40
1
 40
1
 10
37.949436
 20
1.699285
 30
0.0
 10
38.089238
 20
1.699285
 30
0.0
 10
38.200478
 20
1.652094
 30
0.0
 10
38.283532
 20
1.557182
 30
0.0
  0
SPLINE
  5
144
100
AcDbEntity
  8
0
 62
7
100
AcDbSpline
 70
8
 71
3
 72
8
 73
4
 74
0
 40
0
 40
0
 40
0
 40
0
 40
1
 40
1
 40
1
 40
1
 10
38.283532
 20
1.557182
 30
0.0
 10
38.366143
 20
1.462368
 30
0.0
 10
38.408108
 20
1.335125
 30
0.0
 10
38.408108
 20
1.175474
 30
0.0
  0
SPLINE
  5
145
100
AcDbEntity
  8
0
 62
7
100
AcDbSpline
 70
8
 71
3
 72
8
 73
4
 74
0
 40
0
 40
0
 40
0
 40
0
 40
1
 40
1
 40
1
 40
1
 10
38.408108
 20
1.175474
 30
0.0
 10
38.408108
 20
1.009193
 30
0.0
 10
38.365020
 20
0.880827
 30
0.0
 10
38.278197
 20
0.790418
 30
0.0
  0
SPLINE
  5
146
100
AcDbEntity
  8
0
 62
7
100
AcDbSpline
 70
8
 71
3
 72
8
 73
4
 74
0
 40
0
 40
0
 40
0
 40
0
 40
1
 40
1
 40
1
 40
1
 10
38.278197
 20
0.790418
 30
0.0
 10
38.191374
 20
0.699276
 30
0.0
 10
38.067911
 20
0.654277
 30
0.0
 10
37.906003
 20
0.654277
 30
0.0
  0
LINE
  5
147
100
AcDbEntity
  8
0
 62
7
100
AcDbLine
 10
37.906003
 20
0.654277
 30
0.0
 11
37.140265
 21
0.654277
 31
0.0
  0
LINE
  5
148
100
AcDbEntity
  8
0
 62
7
100
AcDbLine
 10
37.140265
 20
0.654277
 30
0.0
 11
37.140265
 21
0.049367
 31
0.0
  0
LINE
  5
149
100
AcDbEntity
  8
0
 62
7
100
AcDbLine
 10
37.140265
 20
0.049367
 30
0.0
 11
36.883500
 21
0.049367
 31
0.0
  0
LINE
  5
14a
100
AcDbEntity
  8
0
 62
7
100
AcDbLine
 10
36.883500
 20
0.049367
 30
0.0
 11
36.883500
 21
1.699274
 31
0.0
  0
LINE
  5
14b
100
AcDbEntity
  8
0
 62
7
100
AcDbLine
 10
36.883500
 20
1.699274
 30
0.0
 11
37.949436
 21
1.699285
 31
0.0
  0
SPLINE
  5
14c
100
AcDbEntity
  8
0
 62
7
100
AcDbSpline
 70
8
 71
3
 72
8
 73
4
 74
0
 40
0
 40
0
 40
0
 40
0
 40
1
 40
1
 40
1
 40
1
 10
2.600470
 20
1.291195
 30
0.0
 10
2.428671
 20
1.402823
 30
0.0
 10
2.241235
 20
1.458275
 30
0.0
 10
2.039706
 20
1.458275
 30
0.0
  0
SPLINE
  5
14d
100
AcDbEntity
  8
0
 62
7
100
AcDbSpline
 70
8
 71
3
 72
8
 73
4
 74
0
 40
0
 40
0
 40
0
 40
0
 40
1
 40
1
 40
1
 40
1
 10
2.039706
 20
1.458275
 30
0.0
 10
1.745987
 20
1.458275
 30
0.0
 10
1.598928
 20
1.393482
 30
0.0
 10
1.598928
 20
1.263334
 30
0.0
  0
SPLINE
  5
14e
100
AcDbEntity
  8
0
 62
7
100
AcDbSpline
 70
8
 71
3
 72
8
 73
4
 74
0
 40
0
 40
0
 40
0
 40
0
 40
1
 40
1
 40
1
 40
1
 10
1.598928
 20
1.263334
 30
0.0
 10
1.598928
 20
1.186662
 30
0.0
 10
1.654218
 20
1.136037
 30
0.0
 10
1.764269
 20
1.113327
 30
0.0
  0
SPLINE
  5
14f
100
AcDbEntity
  8
0
 62
7
100
AcDbSpline
 70
8
 71
3
 72
8
 73
4
 74
0
 40
0
 40
0
 40
0
 40
0
 40
1
 40
1
 40
1
 40
1
 10
1.764269
 20
1.113327
 30
0.0
 10
1.914752
 20
1.097020
 30
0.0
 10
2.065224
 20
1.079850
 30
0.0
 10
2.215328
 20
1.062032
 30
0.0
  0
SPLINE
  5
150
100
AcDbEntity
  8
0
 62
7
100
AcDbSpline
 70
8
 71
3
 72
8
 73
4
 74
0
 40
0
 40
0
 40
0
 40
0
 40
1
 40
1
 40
1
 40
1
 10
2.215328
 20
1.062032
 30
0.0
 10
2.431716
 20
1.035251
 30
0.0
 10
2.586000
 20
0.987628
 30
0.0
 10
2.677434
 20
0.917316
 30
0.0
  0
SPLINE
  5
151
100
AcDbEntity
  8
0
 62
7
100
AcDbSpline
 70
8
 71
3
 72
8
 73
4
 74
0
 40
0
 40
0
 40
0
 40
0
 40
1
 40
1
 40
1
 40
1
 10
2.677434
 20
0.917316
 30
0.0
 10
2.778727
 20
0.841076
 30
0.0
 10
2.830195
 20
0.724254
 30
0.0
 10
2.830195
 20
0.567216
 30
0.0
  0
SPLINE
  5
152
100
AcDbEntity
  8
0
 62
7
100
AcDbSpline
 70
8
 71
3
 72
8
 73
4
 74
0
 40
0
 40
0
 40
0
 40
0
 40
1
 40
1
 40
1
 40
1
 10
2.830195
 20
0.567216
 30
0.0
 10
2.830195
 20
0.390493
 30
0.0
 10
2.766589
 20
0.253617
 30
0.0
 10
2.640091
 20
0.157248
 30
0.0
  0
SPLINE
  5
153
100
AcDbEntity
  8
0
 62
7
100
AcDbSpline
 70
8
 71
3
 72
8
 73
4
 74
0
 40
0
 40
0
 40
0
 40
0
 40
1
 40
1
 40
1
 40
1
 10
2.640091
 20
0.157248
 30
0.0
 10
2.513615
 20
0.061245
 30
0.0
 10
2.330001
 20
0.012542
 30
0.0
 10
2.089985
 20
0.012542
 30
0.0
  0
SPLINE
  5
154
100
AcDbEntity
  8
0
 62
7
100
AcDbSpline
 70
8
 71
3
 72
8
 73
4
 74
0
 40
0
 40
0
 40
0
 40
0
 40
1
 40
1
 40
1
 40
1
 10
2.089985
 20
0.012542
 30
0.0
 10
1.750933
 20
0.012542
 30
0.0
 10
1.479686
 20
0.109624
 30
0.0
 10
1.277013
 20
0.301963
 30
0.0
  0
LINE
  5
155
100
AcDbEntity
  8
0
 62
7
100
AcDbLine
 10
1.277013
 20
0.301963
 30
0.0
 11
1.416448
 21
0.530047
 31
0.0
  0
SPLINE
  5
156
100
AcDbEntity
  8
0
 62
7
100
AcDbSpline
 70
8
 71
3
 72
8
 73
4
 74
0
 40
0
 40
0
 40
0
 40
0
 40
1
 40
1
 40
1
 40
1
 10
1.416448
 20
0.530047
 30
0.0
 10
1.597794
 20
0.372275
 30
0.0
 10
1.820650
 20
0.292989
 30
0.0
 10
2.085039
 20
0.292989
 30
0.0
  0
SPLINE
  5
157
100
AcDbEntity
  8
0
 62
7
100
AcDbSpline
 70
8
 71
3
 72
8
 73
4
 74
0
 40
0
 40
0
 40
0
 40
0
 40
1
 40
1
 40
1
 40
1
 10
2.085039
 20
0.292989
 30
0.0
 10
2.233610
 20
0.292989
 30
0.0
 10
2.349051
 20
0.316423
 30
0.0
 10
2.430193
 20
0.364046
 30
0.0
  0
SPLINE
  5
158
100
AcDbEntity
  8
0
 62
7
100
AcDbSpline
 70
8
 71
3
 72
8
 73
4
 74
0
 40
0
 40
0
 40
0
 40
0
 40
1
 40
1
 40
1
 40
1
 10
2.430193
 20
0.364046
 30
0.0
 10
2.511725
 20
0.411345
 30
0.0
 10
2.552480
 20
0.474216
 30
0.0
 10
2.552480
 20
0.552767
 30
0.0
  0
SPLINE
  5
159
100
AcDbEntity
  8
0
 62
7
100
AcDbSpline
 70
8
 71
3
 72
8
 73
4
 74
0
 40
0
 40
0
 40
0
 40
0
 40
1
 40
1
 40
1
 40
1
 10
2.552480
 20
0.552767
 30
0.0
 10
2.552480
 20
0.639806
 30
0.0
 10
2.502157
 20
0.701900
 30
0.0
 10
2.402375
 20
0.737256
 30
0.0
  0
SPLINE
  5
15a
100
AcDbEntity
  8
0
 62
7
100
AcDbSpline
 70
8
 71
3
 72
8
 73
4
 74
0
 40
0
 40
0
 40
0
 40
0
 40
1
 40
1
 40
1
 40
1
 10
2.402375
 20
0.737256
 30
0.0
 10
2.346329
 20
0.756909
 30
0.0
 10
2.259895
 20
0.769976
 30
0.0
 10
2.142565
 20
0.777427
 30
0.0
  0
SPLINE
  5
15b
100
AcDbEntity
  8
0
 62
7
100
AcDbSpline
 70
8
 71
3
 72
8
 73
4
 74
0
 40
0
 40
0
 40
0
 40
0
 40
1
 40
1
 40
1
 40
1
 10
2.142565
 20
0.777427
 30
0.0
 10
1.959697
 20
0.788658
 30
0.0
 10
1.847324
 20
0.796325
 30
0.0
 10
1.805791
 20
0.801617
 30
0.0
  0
SPLINE
  5
15c
100
AcDbEntity
  8
0
 62
7
100
AcDbSpline
 70
8
 71
3
 72
8
 73
4
 74
0
 40
0
 40
0
 40
0
 40
0
 40
1
 40
1
 40
1
 40
1
 10
1.805791
 20
0.801617
 30
0.0
 10
1.642739
 20
0.821271
 30
0.0
 10
1.522742
 20
0.865222
 30
0.0
 10
1.445022
 20
0.933342
 30
0.0
  0
SPLINE
  5
15d
100
AcDbEntity
  8
0
 62
7
100
AcDbSpline
 70
8
 71
3
 72
8
 73
4
 74
0
 40
0
 40
0
 40
0
 40
0
 40
1
 40
1
 40
1
 40
1
 10
1.445022
 20
0.933342
 30
0.0
 10
1.368026
 20
1.000619
 30
0.0
 10
1.329215
 20
1.099612
 30
0.0
 10
1.329215
 20
1.229793
 30
0.0
  0
SPLINE
  5
15e
100
AcDbEntity
  8
0
 62
7
100
AcDbSpline
 70
8
 71
3
 72
8
 73
4
 74
0
 40
0
 40
0
 40
0
 40
0
 40
1
 40
1
 40
1
 40
1
 10
1.329215
 20
1.229793
 30
0.0
 10
1.329215
 20
1.386830
 30
0.0
 10
1.391308
 20
1.511449
 30
0.0
 10
1.515506
 20
1.603736
 30
0.0
  0
SPLINE
  5
15f
100
AcDbEntity
  8
0
 62
7
100
AcDbSpline
 70
8
 71
3
 72
8
 73
4
 74
0
 40
0
 40
0
 40
0
 40
0
 40
1
 40
1
 40
1
 40
1
 10
1.515506
 20
1.603736
 30
0.0
 10
1.638927
 20
1.695311
 30
0.0
 10
1.812648
 20
1.741012
 30
0.0
 10
2.035894
 20
1.741012
 30
0.0
  0
SPLINE
  5
160
100
AcDbEntity
  8
0
 62
7
100
AcDbSpline
 70
8
 71
3
 72
8
 73
4
 74
0
 40
0
 40
0
 40
0
 40
0
 40
1
 40
1
 40
1
 40
1
 10
2.035894
 20
1.741012
 30
0.0
 10
2.333803
 20
1.741012
 30
0.0
 10
2.574574
 20
1.661424
 30
0.0
 10
2.759343
 20
1.500337
 30
0.0
  0
LINE
  5
161
100
AcDbEntity
  8
0
 62
7
100
AcDbLine
 10
2.759343
 20
1.500337
 30
0.0
 11
2.600470
 21
1.291195
 31
0.0
  0
SPLINE
  5
162
100
AcDbEntity
  8
0
 62
7
100
AcDbSpline
 70
8
 71
3
 72
8
 73
4
 74
0
 40
0
 40
0
 40
0
 40
0
 40
1
 40
1
 40
1
 40
1
 10
4.539572
 20
0.876766
 30
0.0
 10
4.539572
 20
1.047194
 30
0.0
 10
4.483957
 20
1.186683
 30
0.0
 10
4.371940
 20
1.296432
 30
0.0
  0
SPLINE
  5
163
100
AcDbEntity
  8
0
 62
7
100
AcDbSpline
 70
8
 71
3
 72
8
 73
4
 74
0
 40
0
 40
0
 40
0
 40
0
 40
1
 40
1
 40
1
 40
1
 10
4.371940
 20
1.296432
 30
0.0
 10
4.259945
 20
1.405793
 30
0.0
 10
4.115942
 20
1.460835
 30
0.0
 10
3.939553
 20
1.460835
 30
0.0
  0
SPLINE
  5
164
100
AcDbEntity
  8
0
 62
7
100
AcDbSpline
 70
8
 71
3
 72
8
 73
4
 74
0
 40
0
 40
0
 40
0
 40
0
 40
1
 40
1
 40
1
 40
1
 10
3.939553
 20
1.460835
 30
0.0
 10
3.761642
 20
1.460835
 30
0.0
 10
3.616505
 20
1.405760
 30
0.0
 10
3.503732
 20
1.295288
 30
0.0
  0
SPLINE
  5
165
100
AcDbEntity
  8
0
 62
7
100
AcDbSpline
 70
8
 71
3
 72
8
 73
4
 74
0
 40
0
 40
0
 40
0
 40
0
 40
1
 40
1
 40
1
 40
1
 10
3.503732
 20
1.295288
 30
0.0
 10
3.390970
 20
1.184470
 30
0.0
 10
3.334589
 20
1.045304
 30
0.0
 10
3.334589
 20
0.876766
 30
0.0
  0
SPLINE
  5
166
100
AcDbEntity
  8
0
 62
7
100
AcDbSpline
 70
8
 71
3
 72
8
 73
4
 74
0
 40
0
 40
0
 40
0
 40
0
 40
1
 40
1
 40
1
 40
1
 10
3.334589
 20
0.876766
 30
0.0
 10
3.334589
 20
0.702321
 30
0.0
 10
3.390203
 20
0.560543
 30
0.0
 10
3.500309
 20
0.452673
 30
0.0
  0
SPLINE
  5
167
100
AcDbEntity
  8
0
 62
7
100
AcDbSpline
 70
8
 71
3
 72
8
 73
4
 74
0
 40
0
 40
0
 40
0
 40
0
 40
1
 40
1
 40
1
 40
1
 10
3.500309
 20
0.452673
 30
0.0
 10
3.611159
 20
0.344381
 30
0.0
 10
3.757074
 20
0.290473
 30
0.0
 10
3.939553
 20
0.290473
 30
0.0
  0
SPLINE
  5
168
100
AcDbEntity
  8
0
 62
7
100
AcDbSpline
 70
8
 71
3
 72
8
 73
4
 74
0
 40
0
 40
0
 40
0
 40
0
 40
1
 40
1
 40
1
 40
1
 10
3.939553
 20
0.290473
 30
0.0
 10
4.120121
 20
0.290473
 30
0.0
 10
4.265280
 20
0.344360
 30
0.0
 10
4.374986
 20
0.452673
 30
0.0
  0
SPLINE
  5
169
100
AcDbEntity
  8
0
 62
7
100
AcDbSpline
 70
8
 71
3
 72
8
 73
4
 74
0
 40
0
 40
0
 40
0
 40
0
 40
1
 40
1
 40
1
 40
1
 10
4.374986
 20
0.452673
 30
0.0
 10
4.484702
 20
0.560553
 30
0.0
 10
4.539572
 20
0.702321
 30
0.0
 10
4.539572
 20
0.876766
 30
0.0
  0
SPLINE
  5
16a
100
AcDbEntity
  8
0
 62
7
100
AcDbSpline
 70
8
 71
3
 72
8
 73
4
 74
0
 40
0
 40
0
 40
0
 40
0
 40
1
 40
1
 40
1
 40
1
 10
4.806617
 20
0.877846
 30
0.0
 10
4.806617
 20
0.608047
 30
0.0
 10
4.714395
 20
0.388603
 30
0.0
 10
4.530036
 20
0.218974
 30
0.0
  0
SPLINE
  5
16b
100
AcDbEntity
  8
0
 62
7
100
AcDbSpline
 70
8
 71
3
 72
8
 73
4
 74
0
 40
0
 40
0
 40
0
 40
0
 40
1
 40
1
 40
1
 40
1
 10
4.530036
 20
0.218974
 30
0.0
 10
4.372707
 20
0.074258
 30
0.0
 10
4.175746
 20
0.001668
 30
0.0
 10
3.939931
 20
0.001668
 30
0.0
  0
SPLINE
  5
16c
100
AcDbEntity
  8
0
 62
7
100
AcDbSpline
 70
8
 71
3
 72
8
 73
4
 74
0
 40
0
 40
0
 40
0
 40
0
 40
1
 40
1
 40
1
 40
1
 10
3.939931
 20
0.001668
 30
0.0
 10
3.703360
 20
0.001668
 30
0.0
 10
3.506399
 20
0.074237
 30
0.0
 10
3.347159
 20
0.218974
 30
0.0
  0
SPLINE
  5
16d
100
AcDbEntity
  8
0
 62
7
100
AcDbSpline
 70
8
 71
3
 72
8
 73
4
 74
0
 40
0
 40
0
 40
0
 40
0
 40
1
 40
1
 40
1
 40
1
 10
3.347159
 20
0.218974
 30
0.0
 10
3.162390
 20
0.386724
 30
0.0
 10
3.070589
 20
0.606567
 30
0.0
 10
3.070589
 20
0.877846
 30
0.0
  0
SPLINE
  5
16e
100
AcDbEntity
  8
0
 62
7
100
AcDbSpline
 70
8
 71
3
 72
8
 73
4
 74
0
 40
0
 40
0
 40
0
 40
0
 40
1
 40
1
 40
1
 40
1
 10
3.070589
 20
0.877846
 30
0.0
 10
3.070589
 20
1.145712
 30
0.0
 10
3.163135
 20
1.363688
 30
0.0
 10
3.349448
 20
1.531837
 30
0.0
  0
SPLINE
  5
16f
100
AcDbEntity
  8
0
 62
7
100
AcDbSpline
 70
8
 71
3
 72
8
 73
4
 74
0
 40
0
 40
0
 40
0
 40
0
 40
1
 40
1
 40
1
 40
1
 10
3.349448
 20
1.531837
 30
0.0
 10
3.512501
 20
1.679901
 30
0.0
 10
3.709073
 20
1.753960
 30
0.0
 10
3.939931
 20
1.753960
 30
0.0
  0
SPLINE
  5
170
100
AcDbEntity
  8
0
 62
7
100
AcDbSpline
 70
8
 71
3
 72
8
 73
4
 74
0
 40
0
 40
0
 40
0
 40
0
 40
1
 40
1
 40
1
 40
1
 10
3.939931
 20
1.753960
 30
0.0
 10
4.168511
 20
1.753960
 30
0.0
 10
4.364705
 20
1.679879
 30
0.0
 10
4.527758
 20
1.531837
 30
0.0
  0
SPLINE
  5
171
100
AcDbEntity
  8
0
 62
7
100
AcDbSpline
 70
8
 71
3
 72
8
 73
4
 74
0
 40
0
 40
0
 40
0
 40
0
 40
1
 40
1
 40
1
 40
1
 10
4.527758
 20
1.531837
 30
0.0
 10
4.713671
 20
1.362208
 30
0.0
 10
4.806617
 20
1.144168
 30
0.0
 10
4.806617
 20
0.877846
 30
0.0
  0
LINE
  5
172
100
AcDbEntity
  8
0
 62
7
100
AcDbLine
 10
6.756377
 20
1.301605
 30
0.0
 11
6.520184
 21
1.199988
 31
0.0
  0
SPLINE
  5
173
100
AcDbEntity
  8
0
 62
7
100
AcDbSpline
 70
8
 71
3
 72
8
 73
4
 74
0
 40
0
 40
0
 40
0
 40
0
 40
1
 40
1
 40
1
 40
1
 10
6.520184
 20
1.199988
 30
0.0
 10
6.378837
 20
1.375167
 30
0.0
 10
6.199025
 20
1.462962
 30
0.0
 10
5.981503
 20
1.462962
 30
0.0
  0
SPLINE
  5
174
100
AcDbEntity
  8
0
 62
7
100
AcDbSpline
 70
8
 71
3
 72
8
 73
4
 74
0
 40
0
 40
0
 40
0
 40
0
 40
1
 40
1
 40
1
 40
1
 10
5.981503
 20
1.462962
 30
0.0
 10
5.793689
 20
1.462962
 30
0.0
 10
5.643973
 20
1.409400
 30
0.0
 10
5.532734
 20
1.301573
 30
0.0
  0
SPLINE
  5
175
100
AcDbEntity
  8
0
 62
7
100
AcDbSpline
 70
8
 71
3
 72
8
 73
4
 74
0
 40
0
 40
0
 40
0
 40
0
 40
1
 40
1
 40
1
 40
1
 10
5.532734
 20
1.301573
 30
0.0
 10
5.420728
 20
1.193292
 30
0.0
 10
5.365103
 20
1.053404
 30
0.0
 10
5.365103
 20
0.881907
 30
0.0
  0
SPLINE
  5
176
100
AcDbEntity
  8
0
 62
7
100
AcDbSpline
 70
8
 71
3
 72
8
 73
4
 74
0
 40
0
 40
0
 40
0
 40
0
 40
1
 40
1
 40
1
 40
1
 10
5.365103
 20
0.881907
 30
0.0
 10
5.365103
 20
0.704772
 30
0.0
 10
5.420717
 20
0.562681
 30
0.0
 10
5.532734
 20
0.456269
 30
0.0
  0
SPLINE
  5
177
100
AcDbEntity
  8
0
 62
7
100
AcDbSpline
 70
8
 71
3
 72
8
 73
4
 74
0
 40
0
 40
0
 40
0
 40
0
 40
1
 40
1
 40
1
 40
1
 10
5.532734
 20
0.456269
 30
0.0
 10
5.643973
 20
0.348820
 30
0.0
 10
5.795212
 20
0.295214
 30
0.0
 10
5.985693
 20
0.295214
 30
0.0
  0
SPLINE
  5
178
100
AcDbEntity
  8
0
 62
7
100
AcDbSpline
 70
8
 71
3
 72
8
 73
4
 74
0
 40
0
 40
0
 40
0
 40
0
 40
1
 40
1
 40
1
 40
1
 10
5.985693
 20
0.295214
 30
0.0
 10
6.205882
 20
0.295214
 30
0.0
 10
6.386083
 20
0.384845
 30
0.0
 10
6.524752
 20
0.564149
 30
0.0
  0
LINE
  5
179
100
AcDbEntity
  8
0
 62
7
100
AcDbLine
 10
6.524752
 20
0.564149
 30
0.0
 11
6.745708
 21
0.416820
 31
0.0
  0
SPLINE
  5
17a
100
AcDbEntity
  8
0
 62
7
100
AcDbSpline
 70
8
 71
3
 72
8
 73
4
 74
0
 40
0
 40
0
 40
0
 40
0
 40
1
 40
1
 40
1
 40
1
 10
6.745708
 20
0.416820
 30
0.0
 10
6.551414
 20
0.143738
 30
0.0
 10
6.295794
 20
0.006862
 30
0.0
 10
5.979981
 20
0.006862
 30
0.0
  0
SPLINE
  5
17b
100
AcDbEntity
  8
0
 62
7
100
AcDbSpline
 70
8
 71
3
 72
8
 73
4
 74
0
 40
0
 40
0
 40
0
 40
0
 40
1
 40
1
 40
1
 40
1
 10
5.979981
 20
0.006862
 30
0.0
 10
5.716736
 20
0.006862
 30
0.0
 10
5.503771
 20
0.088718
 30
0.0
 10
5.341486
 20
0.252353
 30
0.0
  0
SPLINE
  5
17c
100
AcDbEntity
  8
0
 62
7
100
AcDbSpline
 70
8
 71
3
 72
8
 73
4
 74
0
 40
0
 40
0
 40
0
 40
0
 40
1
 40
1
 40
1
 40
1
 10
5.341486
 20
0.252353
 30
0.0
 10
5.179200
 20
0.415352
 30
0.0
 10
5.098057
 20
0.624818
 30
0.0
 10
5.098057
 20
0.880362
 30
0.0
  0
SPLINE
  5
17d
100
AcDbEntity
  8
0
 62
7
100
AcDbSpline
 70
8
 71
3
 72
8
 73
4
 74
0
 40
0
 40
0
 40
0
 40
0
 40
1
 40
1
 40
1
 40
1
 10
5.098057
 20
0.880362
 30
0.0
 10
5.098057
 20
1.146749
 30
0.0
 10
5.190604
 20
1.363656
 30
0.0
 10
5.375016
 20
1.531805
 30
0.0
  0
SPLINE
  5
17e
100
AcDbEntity
  8
0
 62
7
100
AcDbSpline
 70
8
 71
3
 72
8
 73
4
 74
0
 40
0
 40
0
 40
0
 40
0
 40
1
 40
1
 40
1
 40
1
 10
5.375016
 20
1.531805
 30
0.0
 10
5.535013
 20
1.677655
 30
0.0
 10
5.731973
 20
1.751314
 30
0.0
 10
5.964743
 20
1.751314
 30
0.0
  0
SPLINE
  5
17f
100
AcDbEntity
  8
0
 62
7
100
AcDbSpline
 70
8
 71
3
 72
8
 73
4
 74
0
 40
0
 40
0
 40
0
 40
0
 40
1
 40
1
 40
1
 40
1
 10
5.964743
 20
1.751314
 30
0.0
 10
6.292371
 20
1.751314
 30
0.0
 10
6.555993
 20
1.601382
 30
0.0
 10
6.756377
 20
1.301573
 30
0.0
  0
LINE
  5
180
100
AcDbEntity
  8
0
 62
7
100
AcDbLine
 10
7.118669
 20
0.048913
 30
0.0
 11
7.375056
 21
0.048913
 31
0.0
  0
LINE
  5
181
100
AcDbEntity
  8
0
 62
7
100
AcDbLine
 10
7.375056
 20
0.048913
 30
0.0
 11
7.375056
 21
1.698820
 31
0.0
  0
LINE
  5
182
100
AcDbEntity
  8
0
 62
7
100
AcDbLine
 10
7.375056
 20
1.698820
 30
0.0
 11
7.118669
 21
1.698820
 31
0.0
  0
LINE
  5
183
100
AcDbEntity
  8
0
 62
7
100
AcDbLine
 10
7.118669
 20
1.698820
 30
0.0
 11
7.118669
 21
0.048913
 31
0.0
  0
LINE
  5
184
100
AcDbEntity
  8
0
 62
7
100
AcDbLine
 10
9.247096
 20
0.048913
 30
0.0
 11
7.826492
 21
0.048913
 31
0.0
  0
LINE
  5
185
100
AcDbEntity
  8
0
 62
7
100
AcDbLine
 10
7.826492
 20
0.048913
 30
0.0
 11
7.826492
 21
1.698820
 31
0.0
  0
LINE
  5
186
100
AcDbEntity
  8
0
 62
7
100
AcDbLine
 10
7.826492
 20
1.698820
 30
0.0
 11
9.197950
 21
1.698820
 31
0.0
  0
LINE
  5
187
100
AcDbEntity
  8
0
 62
7
100
AcDbLine
 10
9.197950
 20
1.698820
 30
0.0
 11
9.197950
 21
1.405706
 31
0.0
  0
LINE
  5
188
100
AcDbEntity
  8
0
 62
7
100
AcDbLine
 10
9.197950
 20
1.405706
 30
0.0
 11
8.083257
 21
1.405706
 31
0.0
  0
LINE
  5
189
100
AcDbEntity
  8
0
 62
7
100
AcDbLine
 10
8.083257
 20
1.405706
 30
0.0
 11
8.083257
 21
1.051924
 31
0.0
  0
LINE
  5
18a
100
AcDbEntity
  8
0
 62
7
100
AcDbLine
 10
8.083257
 20
1.051924
 30
0.0
 11
8.858520
 21
1.051924
 31
0.0
  0
LINE
  5
18b
100
AcDbEntity
  8
0
 62
7
100
AcDbLine
 10
8.858520
 20
1.051924
 30
0.0
 11
8.858520
 21
0.758756
 31
0.0
  0
LINE
  5
18c
100
AcDbEntity
  8
0
 62
7
100
AcDbLine
 10
8.858520
 20
0.758756
 30
0.0
 11
8.083257
 21
0.758756
 31
0.0
  0
LINE
  5
18d
100
AcDbEntity
  8
0
 62
7
100
AcDbLine
 10
8.083257
 20
0.758756
 30
0.0
 11
8.083257
 21
0.342027
 31
0.0
  0
LINE
  5
18e
100
AcDbEntity
  8
0
 62
7
100
AcDbLine
 10
8.083257
 20
0.342027
 30
0.0
 11
9.247096
 21
0.342027
 31
0.0
  0
LINE
  5
18f
100
AcDbEntity
  8
0
 62
7
100
AcDbLine
 10
9.247096
 20
0.342027
 30
0.0
 11
9.247096
 21
0.048913
 31
0.0
  0
LINE
  5
190
100
AcDbEntity
  8
0
 62
7
100
AcDbLine
 10
10.925610
 20
1.405307
 30
0.0
 11
10.294350
 21
1.405307
 31
0.0
  0
LINE
  5
191
100
AcDbEntity
  8
0
 62
7
100
AcDbLine
 10
10.294350
 20
1.405307
 30
0.0
 11
10.294350
 21
0.048902
 31
0.0
  0
LINE
  5
192
100
AcDbEntity
  8
0
 62
7
100
AcDbLine
 10
10.294350
 20
0.048902
 30
0.0
 11
10.037974
 21
0.048902
 31
0.0
  0
LINE
  5
193
100
AcDbEntity
  8
0
 62
7
100
AcDbLine
 10
10.037974
 20
0.048902
 30
0.0
 11
10.037974
 21
1.405307
 31
0.0
  0
LINE
  5
194
100
AcDbEntity
  8
0
 62
7
100
AcDbLine
 10
10.037974
 20
1.405307
 30
0.0
 11
9.406725
 21
1.405307
 31
0.0
  0
LINE
  5
195
100
AcDbEntity
  8
0
 62
7
100
AcDbLine
 10
9.406725
 20
1.405307
 30
0.0
 11
9.406725
 21
1.698810
 31
0.0
  0
LINE
  5
196
100
AcDbEntity
  8
0
 62
7
100
AcDbLine
 10
9.406725
 20
1.698810
 30
0.0
 11
10.925610
 21
1.698810
 31
0.0
  0
LINE
  5
197
100
AcDbEntity
  8
0
 62
7
100
AcDbLine
 10
10.925610
 20
1.698810
 30
0.0
 11
10.925610
 21
1.405307
 31
0.0
  0
LINE
  5
198
100
AcDbEntity
  8
0
 62
7
100
AcDbLine
 10
12.625840
 20
0.048913
 30
0.0
 11
11.205614
 21
0.048913
 31
0.0
  0
LINE
  5
199
100
AcDbEntity
  8
0
 62
7
100
AcDbLine
 10
11.205614
 20
0.048913
 30
0.0
 11
11.205614
 21
1.698820
 31
0.0
  0
LINE
  5
19a
100
AcDbEntity
  8
0
 62
7
100
AcDbLine
 10
11.205614
 20
1.698820
 30
0.0
 11
12.576694
 21
1.698820
 31
0.0
  0
LINE
  5
19b
100
AcDbEntity
  8
0
 62
7
100
AcDbLine
 10
12.576694
 20
1.698820
 30
0.0
 11
12.576694
 21
1.405706
 31
0.0
  0
LINE
  5
19c
100
AcDbEntity
  8
0
 62
7
100
AcDbLine
 10
12.576694
 20
1.405706
 30
0.0
 11
11.462001
 21
1.405706
 31
0.0
  0
LINE
  5
19d
100
AcDbEntity
  8
0
 62
7
100
AcDbLine
 10
11.462001
 20
1.405706
 30
0.0
 11
11.462001
 21
1.051924
 31
0.0
  0
LINE
  5
19e
100
AcDbEntity
  8
0
 62
7
100
AcDbLine
 10
11.462001
 20
1.051924
 30
0.0
 11
12.237642
 21
1.051924
 31
0.0
  0
LINE
  5
19f
100
AcDbEntity
  8
0
 62
7
100
AcDbLine
 10
12.237642
 20
1.051924
 30
0.0
 11
12.237642
 21
0.758756
 31
0.0
  0
LINE
  5
1a0
100
AcDbEntity
  8
0
 62
7
100
AcDbLine
 10
12.237642
 20
0.758756
 30
0.0
 11
11.462001
 21
0.758756
 31
0.0
  0
LINE
  5
1a1
100
AcDbEntity
  8
0
 62
7
100
AcDbLine
 10
11.462001
 20
0.758756
 30
0.0
 11
11.462001
 21
0.342027
 31
0.0
  0
LINE
  5
1a2
100
AcDbEntity
  8
0
 62
7
100
AcDbLine
 10
11.462001
 20
0.342027
 30
0.0
 11
12.625840
 21
0.342027
 31
0.0
  0
LINE
  5
1a3
100
AcDbEntity
  8
0
 62
7
100
AcDbLine
 10
12.625840
 20
0.342027
 30
0.0
 11
12.625840
 21
0.048913
 31
0.0
  0
LINE
  5
1a4
100
AcDbEntity
  8
0
 62
7
100
AcDbLine
 10
15.249893
 20
0.952542
 30
0.0
 11
15.249893
 21
0.901895
 31
0.0
  0
SPLINE
  5
1a5
100
AcDbEntity
  8
0
 62
7
100
AcDbSpline
 70
8
 71
3
 72
8
 73
4
 74
0
 40
0
 40
0
 40
0
 40
0
 40
1
 40
1
 40
1
 40
1
 10
15.249893
 20
0.901895
 30
0.0
 10
15.249893
 20
0.634083
 30
0.0
 10
15.171817
 20
0.416777
 30
0.0
 10
15.015222
 20
0.251252
 30
0.0
  0
SPLINE
  5
1a6
100
AcDbEntity
  8
0
 62
7
100
AcDbSpline
 70
8
 71
3
 72
8
 73
4
 74
0
 40
0
 40
0
 40
0
 40
0
 40
1
 40
1
 40
1
 40
1
 10
15.015222
 20
0.251252
 30
0.0
 10
14.858271
 20
0.084971
 30
0.0
 10
14.650263
 20
0.001603
 30
0.0
 10
14.389308
 20
0.001603
 30
0.0
  0
SPLINE
  5
1a7
100
AcDbEntity
  8
0
 62
7
100
AcDbSpline
 70
8
 71
3
 72
8
 73
4
 74
0
 40
0
 40
0
 40
0
 40
0
 40
1
 40
1
 40
1
 40
1
 10
14.389308
 20
0.001603
 30
0.0
 10
14.155005
 20
0.001603
 30
0.0
 10
13.958433
 20
0.074496
 30
0.0
 10
13.799570
 20
0.218909
 30
0.0
  0
SPLINE
  5
1a8
100
AcDbEntity
  8
0
 62
7
100
AcDbSpline
 70
8
 71
3
 72
8
 73
4
 74
0
 40
0
 40
0
 40
0
 40
0
 40
1
 40
1
 40
1
 40
1
 10
13.799570
 20
0.218909
 30
0.0
 10
13.614812
 20
0.386659
 30
0.0
 10
13.523000
 20
0.606503
 30
0.0
 10
13.523000
 20
0.877781
 30
0.0
  0
SPLINE
  5
1a9
100
AcDbEntity
  8
0
 62
7
100
AcDbSpline
 70
8
 71
3
 72
8
 73
4
 74
0
 40
0
 40
0
 40
0
 40
0
 40
1
 40
1
 40
1
 40
1
 10
13.523000
 20
0.877781
 30
0.0
 10
13.523000
 20
1.145648
 30
0.0
 10
13.614791
 20
1.363623
 30
0.0
 10
13.799570
 20
1.531773
 30
0.0
  0
SPLINE
  5
1aa
100
AcDbEntity
  8
0
 62
7
100
AcDbSpline
 70
8
 71
3
 72
8
 73
4
 74
0
 40
0
 40
0
 40
0
 40
0
 40
1
 40
1
 40
1
 40
1
 10
13.799570
 20
1.531773
 30
0.0
 10
13.961100
 20
1.679836
 30
0.0
 10
14.163007
 20
1.753895
 30
0.0
 10
14.404535
 20
1.753895
 30
0.0
  0
SPLINE
  5
1ab
100
AcDbEntity
  8
0
 62
7
100
AcDbSpline
 70
8
 71
3
 72
8
 73
4
 74
0
 40
0
 40
0
 40
0
 40
0
 40
1
 40
1
 40
1
 40
1
 10
14.404535
 20
1.753895
 30
0.0
 10
14.696731
 20
1.753895
 30
0.0
 10
14.938269
 20
1.625928
 30
0.0
 10
15.129896
 20
1.370718
 30
0.0
  0
LINE
  5
1ac
100
AcDbEntity
  8
0
 62
7
100
AcDbLine
 10
15.129896
 20
1.370718
 30
0.0
 11
14.887212
 21
1.220711
 31
0.0
  0
SPLINE
  5
1ad
100
AcDbEntity
  8
0
 62
7
100
AcDbSpline
 70
8
 71
3
 72
8
 73
4
 74
0
 40
0
 40
0
 40
0
 40
0
 40
1
 40
1
 40
1
 40
1
 10
14.887212
 20
1.220711
 30
0.0
 10
14.752734
 20
1.380361
 30
0.0
 10
14.586647
 20
1.460316
 30
0.0
 10
14.388919
 20
1.460316
 30
0.0
  0
SPLINE
  5
1ae
100
AcDbEntity
  8
0
 62
7
100
AcDbSpline
 70
8
 71
3
 72
8
 73
4
 74
0
 40
0
 40
0
 40
0
 40
0
 40
1
 40
1
 40
1
 40
1
 10
14.388919
 20
1.460316
 30
0.0
 10
14.214064
 20
1.460316
 30
0.0
 10
14.070061
 20
1.405242
 30
0.0
 10
13.956910
 20
1.294780
 30
0.0
  0
SPLINE
  5
1af
100
AcDbEntity
  8
0
 62
7
100
AcDbSpline
 70
8
 71
3
 72
8
 73
4
 74
0
 40
0
 40
0
 40
0
 40
0
 40
1
 40
1
 40
1
 40
1
 10
13.956910
 20
1.294780
 30
0.0
 10
13.844148
 20
1.184286
 30
0.0
 10
13.787389
 20
1.044797
 30
0.0
 10
13.787389
 20
0.876248
 30
0.0
  0
SPLINE
  5
1b0
100
AcDbEntity
  8
0
 62
7
100
AcDbSpline
 70
8
 71
3
 72
8
 73
4
 74
0
 40
0
 40
0
 40
0
 40
0
 40
1
 40
1
 40
1
 40
1
 10
13.787389
 20
0.876248
 30
0.0
 10
13.787389
 20
0.703606
 30
0.0
 10
13.842248
 20
0.562238
 30
0.0
 10
13.952720
 20
0.453623
 30
0.0
  0
SPLINE
  5
1b1
100
AcDbEntity
  8
0
 62
7
100
AcDbSpline
 70
8
 71
3
 72
8
 73
4
 74
0
 40
0
 40
0
 40
0
 40
0
 40
1
 40
1
 40
1
 40
1
 10
13.952720
 20
0.453623
 30
0.0
 10
14.063203
 20
0.344608
 30
0.0
 10
14.208340
 20
0.289555
 30
0.0
 10
14.388919
 20
0.289555
 30
0.0
  0
SPLINE
  5
1b2
100
AcDbEntity
  8
0
 62
7
100
AcDbSpline
 70
8
 71
3
 72
8
 73
4
 74
0
 40
0
 40
0
 40
0
 40
0
 40
1
 40
1
 40
1
 40
1
 10
14.388919
 20
0.289555
 30
0.0
 10
14.659399
 20
0.289555
 30
0.0
 10
14.839222
 20
0.412706
 30
0.0
 10
14.928356
 20
0.659007
 30
0.0
  0
LINE
  5
1b3
100
AcDbEntity
  8
0
 62
7
100
AcDbLine
 10
14.928356
 20
0.659007
 30
0.0
 11
14.333683
 21
0.659007
 31
0.0
  0
LINE
  5
1b4
100
AcDbEntity
  8
0
 62
7
100
AcDbLine
 10
14.333683
 20
0.659007
 30
0.0
 11
14.333683
 21
0.952520
 31
0.0
  0
LINE
  5
1b5
100
AcDbEntity
  8
0
 62
7
100
AcDbLine
 10
14.333683
 20
0.952520
 30
0.0
 11
15.249893
 21
0.952542
 31
0.0
  0
LINE
  5
1b6
100
AcDbEntity
  8
0
 62
7
100
AcDbLine
 10
17.041179
 20
0.048892
 30
0.0
 11
15.620953
 21
0.048892
 31
0.0
  0
LINE
  5
1b7
100
AcDbEntity
  8
0
 62
7
100
AcDbLine
 10
15.620953
 20
0.048892
 30
0.0
 11
15.620953
 21
1.698799
 31
0.0
  0
LINE
  5
1b8
100
AcDbEntity
  8
0
 62
7
100
AcDbLine
 10
15.620953
 20
1.698799
 30
0.0
 11
16.992022
 21
1.698799
 31
0.0
  0
LINE
  5
1b9
100
AcDbEntity
  8
0
 62
7
100
AcDbLine
 10
16.992022
 20
1.698799
 30
0.0
 11
16.992022
 21
1.405685
 31
0.0
  0
LINE
  5
1ba
100
AcDbEntity
  8
0
 62
7
100
AcDbLine
 10
16.992022
 20
1.405685
 30
0.0
 11
15.877718
 21
1.405685
 31
0.0
  0
LINE
  5
1bb
100
AcDbEntity
  8
0
 62
7
100
AcDbLine
 10
15.877718
 20
1.405685
 30
0.0
 11
15.877718
 21
1.051903
 31
0.0
  0
LINE
  5
1bc
100
AcDbEntity
  8
0
 62
7
100
AcDbLine
 10
15.877718
 20
1.051903
 30
0.0
 11
16.652970
 21
1.051903
 31
0.0
  0
LINE
  5
1bd
100
AcDbEntity
  8
0
 62
7
100
AcDbLine
 10
16.652970
 20
1.051903
 30
0.0
 11
16.652970
 21
0.758734
 31
0.0
  0
LINE
  5
1be
100
AcDbEntity
  8
0
 62
7
100
AcDbLine
 10
16.652970
 20
0.758734
 30
0.0
 11
15.877718
 21
0.758734
 31
0.0
  0
LINE
  5
1bf
100
AcDbEntity
  8
0
 62
7
100
AcDbLine
 10
15.877718
 20
0.758734
 30
0.0
 11
15.877718
 21
0.342006
 31
0.0
  0
LINE
  5
1c0
100
AcDbEntity
  8
0
 62
7
100
AcDbLine
 10
15.877718
 20
0.342006
 30
0.0
 11
17.041179
 21
0.342006
 31
0.0
  0
LINE
  5
1c1
100
AcDbEntity
  8
0
 62
7
100
AcDbLine
 10
17.041179
 20
0.342006
 30
0.0
 11
17.041179
 21
0.048892
 31
0.0
  0
LINE
  5
1c2
100
AcDbEntity
  8
0
 62
7
100
AcDbLine
 10
18.911297
 20
0.048892
 30
0.0
 11
18.528056
 21
0.048892
 31
0.0
  0
LINE
  5
1c3
100
AcDbEntity
  8
0
 62
7
100
AcDbLine
 10
18.528056
 20
0.048892
 30
0.0
 11
17.630517
 21
1.424237
 31
0.0
  0
LINE
  5
1c4
100
AcDbEntity
  8
0
 62
7
100
AcDbLine
 10
17.630517
 20
1.424237
 30
0.0
 11
17.630517
 21
0.048892
 31
0.0
  0
LINE
  5
1c5
100
AcDbEntity
  8
0
 62
7
100
AcDbLine
 10
17.630517
 20
0.048892
 30
0.0
 11
17.373752
 21
0.048892
 31
0.0
  0
LINE
  5
1c6
100
AcDbEntity
  8
0
 62
7
100
AcDbLine
 10
17.373752
 20
0.048892
 30
0.0
 11
17.373752
 21
1.698799
 31
0.0
  0
LINE
  5
1c7
100
AcDbEntity
  8
0
 62
7
100
AcDbLine
 10
17.373752
 20
1.698799
 30
0.0
 11
17.758149
 21
1.698799
 31
0.0
  0
LINE
  5
1c8
100
AcDbEntity
  8
0
 62
7
100
AcDbLine
 10
17.758149
 20
1.698799
 30
0.0
 11
18.654532
 21
0.324922
 31
0.0
  0
LINE
  5
1c9
100
AcDbEntity
  8
0
 62
7
100
AcDbLine
 10
18.654532
 20
0.324922
 30
0.0
 11
18.654532
 21
1.698799
 31
0.0
  0
LINE
  5
1ca
100
AcDbEntity
  8
0
 62
7
100
AcDbLine
 10
18.654532
 20
1.698799
 30
0.0
 11
18.911297
 21
1.698799
 31
0.0
  0
LINE
  5
1cb
100
AcDbEntity
  8
0
 62
7
100
AcDbLine
 10
18.911297
 20
1.698799
 30
0.0
 11
18.911297
 21
0.048892
 31
0.0
  0
LINE
  5
1cc
100
AcDbEntity
  8
0
 62
7
100
AcDbLine
 10
20.782970
 20
0.048892
 30
0.0
 11
19.362744
 21
0.048892
 31
0.0
  0
LINE
  5
1cd
100
AcDbEntity
  8
0
 62
7
100
AcDbLine
 10
19.362744
 20
0.048892
 30
0.0
 11
19.362744
 21
1.698799
 31
0.0
  0
LINE
  5
1ce
100
AcDbEntity
  8
0
 62
7
100
AcDbLine
 10
19.362744
 20
1.698799
 30
0.0
 11
20.733436
 21
1.698799
 31
0.0
  0
LINE
  5
1cf
100
AcDbEntity
  8
0
 62
7
100
AcDbLine
 10
20.733436
 20
1.698799
 30
0.0
 11
20.733436
 21
1.405685
 31
0.0
  0
LINE
  5
1d0
100
AcDbEntity
  8
0
 62
7
100
AcDbLine
 10
20.733436
 20
1.405685
 30
0.0
 11
19.619131
 21
1.405685
 31
0.0
  0
LINE
  5
1d1
100
AcDbEntity
  8
0
 62
7
100
AcDbLine
 10
19.619131
 20
1.405685
 30
0.0
 11
19.619131
 21
1.051903
 31
0.0
  0
LINE
  5
1d2
100
AcDbEntity
  8
0
 62
7
100
AcDbLine
 10
19.619131
 20
1.051903
 30
0.0
 11
20.394383
 21
1.051903
 31
0.0
  0
LINE
  5
1d3
100
AcDbEntity
  8
0
 62
7
100
AcDbLine
 10
20.394383
 20
1.051903
 30
0.0
 11
20.394383
 21
0.758734
 31
0.0
  0
LINE
  5
1d4
100
AcDbEntity
  8
0
 62
7
100
AcDbLine
 10
20.394383
 20
0.758734
 30
0.0
 11
19.619131
 21
0.758734
 31
0.0
  0
LINE
  5
1d5
100
AcDbEntity
  8
0
 62
7
100
AcDbLine
 10
19.619131
 20
0.758734
 30
0.0
 11
19.619131
 21
0.342006
 31
0.0
  0
LINE
  5
1d6
100
AcDbEntity
  8
0
 62
7
100
AcDbLine
 10
19.619131
 20
0.342006
 30
0.0
 11
20.782970
 21
0.342006
 31
0.0
  0
LINE
  5
1d7
100
AcDbEntity
  8
0
 62
7
100
AcDbLine
 10
20.782970
 20
0.342006
 30
0.0
 11
20.782970
 21
0.048892
 31
0.0
  0
SPLINE
  5
1d8
100
AcDbEntity
  8
0
 62
7
100
AcDbSpline
 70
8
 71
3
 72
8
 73
4
 74
0
 40
0
 40
0
 40
0
 40
0
 40
1
 40
1
 40
1
 40
1
 10
22.141470
 20
0.946970
 30
0.0
 10
22.297276
 20
0.946970
 30
0.0
 10
22.374996
 20
1.021806
 30
0.0
 10
22.374996
 20
1.169837
 30
0.0
  0
SPLINE
  5
1d9
100
AcDbEntity
  8
0
 62
7
100
AcDbSpline
 70
8
 71
3
 72
8
 73
4
 74
0
 40
0
 40
0
 40
0
 40
0
 40
1
 40
1
 40
1
 40
1
 10
22.374996
 20
1.169837
 30
0.0
 10
22.374996
 20
1.326799
 30
0.0
 10
22.292276
 20
1.405285
 30
0.0
 10
22.126222
 20
1.405285
 30
0.0
  0
LINE
  5
1da
100
AcDbEntity
  8
0
 62
7
100
AcDbLine
 10
22.126222
 20
1.405285
 30
0.0
 11
21.371931
 21
1.405285
 31
0.0
  0
LINE
  5
1db
100
AcDbEntity
  8
0
 62
7
100
AcDbLine
 10
21.371931
 20
1.405285
 30
0.0
 11
21.371931
 21
0.946970
 31
0.0
  0
LINE
  5
1dc
100
AcDbEntity
  8
0
 62
7
100
AcDbLine
 10
21.371931
 20
0.946970
 30
0.0
 11
22.141470
 21
0.946970
 31
0.0
  0
LINE
  5
1dd
100
AcDbEntity
  8
0
 62
7
100
AcDbLine
 10
22.668725
 20
0.048892
 30
0.0
 11
22.373095
 21
0.048892
 31
0.0
  0
LINE
  5
1de
100
AcDbEntity
  8
0
 62
7
100
AcDbLine
 10
22.373095
 20
0.048892
 30
0.0
 11
22.028330
 21
0.653791
 31
0.0
  0
LINE
  5
1df
100
AcDbEntity
  8
0
 62
7
100
AcDbLine
 10
22.028330
 20
0.653791
 30
0.0
 11
21.371931
 21
0.653791
 31
0.0
  0
LINE
  5
1e0
100
AcDbEntity
  8
0
 62
7
100
AcDbLine
 10
21.371931
 20
0.653791
 30
0.0
 11
21.371931
 21
0.048892
 31
0.0
  0
LINE
  5
1e1
100
AcDbEntity
  8
0
 62
7
100
AcDbLine
 10
21.371931
 20
0.048892
 30
0.0
 11
21.115166
 21
0.048892
 31
0.0
  0
LINE
  5
1e2
100
AcDbEntity
  8
0
 62
7
100
AcDbLine
 10
21.115166
 20
0.048892
 30
0.0
 11
21.115166
 21
1.698799
 31
0.0
  0
LINE
  5
1e3
100
AcDbEntity
  8
0
 62
7
100
AcDbLine
 10
21.115166
 20
1.698799
 30
0.0
 11
22.181102
 21
1.698799
 31
0.0
  0
SPLINE
  5
1e4
100
AcDbEntity
  8
0
 62
7
100
AcDbSpline
 70
8
 71
3
 72
8
 73
4
 74
0
 40
0
 40
0
 40
0
 40
0
 40
1
 40
1
 40
1
 40
1
 10
22.181102
 20
1.698799
 30
0.0
 10
22.320526
 20
1.698799
 30
0.0
 10
22.432510
 20
1.651608
 30
0.0
 10
22.515197
 20
1.556696
 30
0.0
  0
SPLINE
  5
1e5
100
AcDbEntity
  8
0
 62
7
100
AcDbSpline
 70
8
 71
3
 72
8
 73
4
 74
0
 40
0
 40
0
 40
0
 40
0
 40
1
 40
1
 40
1
 40
1
 10
22.515197
 20
1.556696
 30
0.0
 10
22.597809
 20
1.461882
 30
0.0
 10
22.639385
 20
1.334639
 30
0.0
 10
22.639385
 20
1.175798
 30
0.0
  0
SPLINE
  5
1e6
100
AcDbEntity
  8
0
 62
7
100
AcDbSpline
 70
8
 71
3
 72
8
 73
4
 74
0
 40
0
 40
0
 40
0
 40
0
 40
1
 40
1
 40
1
 40
1
 10
22.639385
 20
1.175798
 30
0.0
 10
22.639385
 20
0.901906
 30
0.0
 10
22.530813
 20
0.734891
 30
0.0
 10
22.312524
 20
0.674287
 30
0.0
  0
LINE
  5
1e7
100
AcDbEntity
  8
0
 62
7
100
AcDbLine
 10
22.312524
 20
0.674287
 30
0.0
 11
22.668725
 21
0.048892
 31
0.0
  0
LINE
  5
1e8
100
AcDbEntity
  8
0
 62
7
100
AcDbLine
 10
24.026847
 20
0.695853
 30
0.0
 11
23.714457
 21
1.426505
 31
0.0
  0
LINE
  5
1e9
100
AcDbEntity
  8
0
 62
7
100
AcDbLine
 10
23.714457
 20
1.426505
 30
0.0
 11
23.399021
 21
0.695853
 31
0.0
  0
LINE
  5
1ea
100
AcDbEntity
  8
0
 62
7
100
AcDbLine
 10
23.399021
 20
0.695853
 30
0.0
 11
24.026847
 21
0.695853
 31
0.0
  0
LINE
  5
1eb
100
AcDbEntity
  8
0
 62
7
100
AcDbLine
 10
24.591423
 20
0.048892
 30
0.0
 11
24.308752
 21
0.048892
 31
0.0
  0
LINE
  5
1ec
100
AcDbEntity
  8
0
 62
7
100
AcDbLine
 10
24.308752
 20
0.048892
 30
0.0
 11
24.157902
 21
0.402274
 31
0.0
  0
LINE
  5
1ed
100
AcDbEntity
  8
0
 62
7
100
AcDbLine
 10
24.157902
 20
0.402274
 30
0.0
 11
23.267977
 21
0.402274
 31
0.0
  0
LINE
  5
1ee
100
AcDbEntity
  8
0
 62
7
100
AcDbLine
 10
23.267977
 20
0.402274
 30
0.0
 11
23.117106
 21
0.048892
 31
0.0
  0
LINE
  5
1ef
100
AcDbEntity
  8
0
 62
7
100
AcDbLine
 10
23.117106
 20
0.048892
 30
0.0
 11
22.834056
 21
0.048892
 31
0.0
  0
LINE
  5
1f0
100
AcDbEntity
  8
0
 62
7
100
AcDbLine
 10
22.834056
 20
0.048892
 30
0.0
 11
23.552927
 21
1.698799
 31
0.0
  0
LINE
  5
1f1
100
AcDbEntity
  8
0
 62
7
100
AcDbLine
 10
23.552927
 20
1.698799
 30
0.0
 11
23.872930
 21
1.698799
 31
0.0
  0
LINE
  5
1f2
100
AcDbEntity
  8
0
 62
7
100
AcDbLine
 10
23.872930
 20
1.698799
 30
0.0
 11
24.591423
 21
0.048892
 31
0.0
  0
LINE
  5
1f3
100
AcDbEntity
  8
0
 62
7
100
AcDbLine
 10
26.122888
 20
0.048892
 30
0.0
 11
24.846288
 21
0.048892
 31
0.0
  0
LINE
  5
1f4
100
AcDbEntity
  8
0
 62
7
100
AcDbLine
 10
24.846288
 20
0.048892
 30
0.0
 11
24.846288
 21
1.698799
 31
0.0
  0
LINE
  5
1f5
100
AcDbEntity
  8
0
 62
7
100
AcDbLine
 10
24.846288
 20
1.698799
 30
0.0
 11
25.103053
 21
1.698799
 31
0.0
  0
LINE
  5
1f6
100
AcDbEntity
  8
0
 62
7
100
AcDbLine
 10
25.103053
 20
1.698799
 30
0.0
 11
25.103053
 21
0.342006
 31
0.0
  0
LINE
  5
1f7
100
AcDbEntity
  8
0
 62
7
100
AcDbLine
 10
25.103053
 20
0.342006
 30
0.0
 11
26.122888
 21
0.342006
 31
0.0
  0
LINE
  5
1f8
100
AcDbEntity
  8
0
 62
7
100
AcDbLine
 10
26.122888
 20
0.342006
 30
0.0
 11
26.122888
 21
0.048892
 31
0.0
  0
LINE
  5
1f9
100
AcDbEntity
  8
0
 62
7
100
AcDbLine
 10
27.821596
 20
0.048892
 30
0.0
 11
26.401748
 21
0.048892
 31
0.0
  0
LINE
  5
1fa
100
AcDbEntity
  8
0
 62
7
100
AcDbLine
 10
26.401748
 20
0.048892
 30
0.0
 11
26.401748
 21
1.698799
 31
0.0
  0
LINE
  5
1fb
100
AcDbEntity
  8
0
 62
7
100
AcDbLine
 10
26.401748
 20
1.698799
 30
0.0
 11
27.772817
 21
1.698799
 31
0.0
  0
LINE
  5
1fc
100
AcDbEntity
  8
0
 62
7
100
AcDbLine
 10
27.772817
 20
1.698799
 30
0.0
 11
27.772817
 21
1.405685
 31
0.0
  0
LINE
  5
1fd
100
AcDbEntity
  8
0
 62
7
100
AcDbLine
 10
27.772817
 20
1.405685
 30
0.0
 11
26.658513
 21
1.405685
 31
0.0
  0
LINE
  5
1fe
100
AcDbEntity
  8
0
 62
7
100
AcDbLine
 10
26.658513
 20
1.405685
 30
0.0
 11
26.658513
 21
1.051903
 31
0.0
  0
LINE
  5
1ff
100
AcDbEntity
  8
0
 62
7
100
AcDbLine
 10
26.658513
 20
1.051903
 30
0.0
 11
27.433775
 21
1.051903
 31
0.0
  0
LINE
  5
200
100
AcDbEntity
  8
0
 62
7
100
AcDbLine
 10
27.433775
 20
1.051903
 30
0.0
 11
27.433775
 21
0.758734
 31
0.0
  0
LINE
  5
201
100
AcDbEntity
  8
0
 62
7
100
AcDbLine
 10
27.433775
 20
0.758734
 30
0.0
 11
26.658513
 21
0.758734
 31
0.0
  0
LINE
  5
202
100
AcDbEntity
  8
0
 62
7
100
AcDbLine
 10
26.658513
 20
0.758734
 30
0.0
 11
26.658513
 21
0.342006
 31
0.0
  0
LINE
  5
203
100
AcDbEntity
  8
0
 62
7
100
AcDbLine
 10
26.658513
 20
0.342006
 30
0.0
 11
27.821596
 21
0.342006
 31
0.0
  0
LINE
  5
204
100
AcDbEntity
  8
0
 62
7
100
AcDbLine
 10
27.821596
 20
0.342006
 30
0.0
 11
27.821596
 21
0.048892
 31
0.0
  0
SPLINE
  5
205
100
AcDbEntity
  8
0
 62
7
100
AcDbSpline
 70
8
 71
3
 72
8
 73
4
 74
0
 40
0
 40
0
 40
0
 40
0
 40
1
 40
1
 40
1
 40
1
 10
3.008128
 20
5.543288
 30
0.0
 10
3.465655
 20
5.543288
 30
0.0
 10
3.752527
 20
5.860699
 30
0.0
 10
3.752527
 20
6.287406
 30
0.0
  0
SPLINE
  5
206
100
AcDbEntity
  8
0
 62
7
100
AcDbSpline
 70
8
 71
3
 72
8
 73
4
 74
0
 40
0
 40
0
 40
0
 40
0
 40
1
 40
1
 40
1
 40
1
 10
3.752527
 20
6.287406
 30
0.0
 10
3.752527
 20
6.757643
 30
0.0
 10
3.465655
 20
7.133725
 30
0.0
 10
2.957092
 20
7.133725
 30
0.0
  0
LINE
  5
207
100
AcDbEntity
  8
0
 62
7
100
AcDbLine
 10
2.957092
 20
7.133725
 30
0.0
 11
0.882757
 21
7.133725
 31
0.0
  0
LINE
  5
208
100
AcDbEntity
  8
0
 62
7
100
AcDbLine
 10
0.882757
 20
7.133725
 30
0.0
 11
0.882757
 21
5.543288
 31
0.0
  0
LINE
  5
209
100
AcDbEntity
  8
0
 62
7
100
AcDbLine
 10
0.882757
 20
5.543288
 30
0.0
 11
3.008128
 21
5.543288
 31
0.0
  0
SPLINE
  5
20a
100
AcDbEntity
  8
0
 62
7
100
AcDbSpline
 70
8
 71
3
 72
8
 73
4
 74
0
 40
0
 40
0
 40
0
 40
0
 40
1
 40
1
 40
1
 40
1
 10
2.957060
 20
7.923178
 30
0.0
 10
4.000135
 20
7.923178
 30
0.0
 10
4.655001
 20
7.241671
 30
0.0
 10
4.655001
 20
6.300062
 30
0.0
  0
SPLINE
  5
20b
100
AcDbEntity
  8
0
 62
7
100
AcDbSpline
 70
8
 71
3
 72
8
 73
4
 74
0
 40
0
 40
0
 40
0
 40
0
 40
1
 40
1
 40
1
 40
1
 10
4.655001
 20
6.300062
 30
0.0
 10
4.655001
 20
5.319351
 30
0.0
 10
4.000124
 20
4.754634
 30
0.0
 10
2.957060
 20
4.754634
 30
0.0
  0
LINE
  5
20c
100
AcDbEntity
  8
0
 62
7
100
AcDbLine
 10
2.957060
 20
4.754634
 30
0.0
 11
0.882724
 21
4.754634
 31
0.0
  0
LINE
  5
20d
100
AcDbEntity
  8
0
 62
7
100
AcDbLine
 10
0.882724
 20
4.754634
 30
0.0
 11
0.882724
 21
3.151540
 31
0.0
  0
LINE
  5
20e
100
AcDbEntity
  8
0
 62
7
100
AcDbLine
 10
0.882724
 20
3.151540
 30
0.0
 11
-0.001100
 21
3.151540
 31
0.0
  0
LINE
  5
20f
100
AcDbEntity
  8
0
 62
7
100
AcDbLine
 10
-0.001100
 20
3.151540
 30
0.0
 11
-0.001100
 21
7.923178
 31
0.0
  0
LINE
  5
210
100
AcDbEntity
  8
0
 62
7
100
AcDbLine
 10
-0.001100
 20
7.923178
 30
0.0
 11
2.957060
 21
7.923178
 31
0.0
  0
SPLINE
  5
211
100
AcDbEntity
  8
0
 62
7
100
AcDbSpline
 70
8
 71
3
 72
8
 73
4
 74
0
 40
0
 40
0
 40
0
 40
0
 40
1
 40
1
 40
1
 40
1
 10
7.931252
 20
7.254327
 30
0.0
 10
6.824194
 20
7.254327
 30
0.0
 10
6.066836
 20
6.504248
 30
0.0
 10
6.066836
 20
5.543288
 30
0.0
  0
SPLINE
  5
212
100
AcDbEntity
  8
0
 62
7
100
AcDbSpline
 70
8
 71
3
 72
8
 73
4
 74
0
 40
0
 40
0
 40
0
 40
0
 40
1
 40
1
 40
1
 40
1
 10
6.066836
 20
5.543288
 30
0.0
 10
6.066836
 20
4.557479
 30
0.0
 10
6.792197
 20
3.826416
 30
0.0
 10
7.931252
 20
3.826416
 30
0.0
  0
SPLINE
  5
213
100
AcDbEntity
  8
0
 62
7
100
AcDbSpline
 70
8
 71
3
 72
8
 73
4
 74
0
 40
0
 40
0
 40
0
 40
0
 40
1
 40
1
 40
1
 40
1
 10
7.931252
 20
3.826416
 30
0.0
 10
9.063850
 20
3.826416
 30
0.0
 10
9.781587
 20
4.563375
 30
0.0
 10
9.781587
 20
5.543288
 30
0.0
  0
SPLINE
  5
214
100
AcDbEntity
  8
0
 62
7
100
AcDbSpline
 70
8
 71
3
 72
8
 73
4
 74
0
 40
0
 40
0
 40
0
 40
0
 40
1
 40
1
 40
1
 40
1
 10
9.781587
 20
5.543288
 30
0.0
 10
9.781587
 20
6.504248
 30
0.0
 10
9.063850
 20
7.254327
 30
0.0
 10
7.931252
 20
7.254327
 30
0.0
  0
SPLINE
  5
215
100
AcDbEntity
  8
0
 62
7
100
AcDbSpline
 70
8
 71
3
 72
8
 73
4
 74
0
 40
0
 40
0
 40
0
 40
0
 40
1
 40
1
 40
1
 40
1
 10
7.931252
 20
3.017936
 30
0.0
 10
6.411601
 20
3.017936
 30
0.0
 10
5.151771
 20
4.029122
 30
0.0
 10
5.151771
 20
5.543288
 30
0.0
  0
SPLINE
  5
216
100
AcDbEntity
  8
0
 62
7
100
AcDbSpline
 70
8
 71
3
 72
8
 73
4
 74
0
 40
0
 40
0
 40
0
 40
0
 40
1
 40
1
 40
1
 40
1
 10
5.151771
 20
5.543288
 30
0.0
 10
5.151771
 20
7.038501
 30
0.0
 10
6.411612
 20
8.069027
 30
0.0
 10
7.931252
 20
8.069027
 30
0.0
  0
SPLINE
  5
217
100
AcDbEntity
  8
0
 62
7
100
AcDbSpline
 70
8
 71
3
 72
8
 73
4
 74
0
 40
0
 40
0
 40
0
 40
0
 40
1
 40
1
 40
1
 40
1
 10
7.931252
 20
8.069027
 30
0.0
 10
9.458538
 20
8.069027
 30
0.0
 10
10.698174
 20
7.038501
 30
0.0
 10
10.698174
 20
5.543288
 30
0.0
  0
SPLINE
  5
218
100
AcDbEntity
  8
0
 62
7
100
AcDbSpline
 70
8
 71
3
 72
8
 73
4
 74
0
 40
0
 40
0
 40
0
 40
0
 40
1
 40
1
 40
1
 40
1
 10
10.698174
 20
5.543288
 30
0.0
 10
10.698174
 20
4.029122
 30
0.0
 10
9.458538
 20
3.017936
 30
0.0
 10
7.931252
 20
3.017936
 30
0.0
  0
SPLINE
  5
219
100
AcDbEntity
  8
0
 62
7
100
AcDbSpline
 70
8
 71
3
 72
8
 73
4
 74
0
 40
0
 40
0
 40
0
 40
0
 40
1
 40
1
 40
1
 40
1
 10
14.362635
 20
3.024416
 30
0.0
 10
12.765653
 20
3.024416
 30
0.0
 10
11.563338
 20
4.036001
 30
0.0
 10
11.563338
 20
5.550166
 30
0.0
  0
SPLINE
  5
21a
100
AcDbEntity
  8
0
 62
7
100
AcDbSpline
 70
8
 71
3
 72
8
 73
4
 74
0
 40
0
 40
0
 40
0
 40
0
 40
1
 40
1
 40
1
 40
1
 10
11.563338
 20
5.550166
 30
0.0
 10
11.563338
 20
7.038684
 30
0.0
 10
12.783547
 20
8.069546
 30
0.0
 10
14.362635
 20
8.069546
 30
0.0
  0
SPLINE
  5
21b
100
AcDbEntity
  8
0
 62
7
100
AcDbSpline
 70
8
 71
3
 72
8
 73
4
 74
0
 40
0
 40
0
 40
0
 40
0
 40
1
 40
1
 40
1
 40
1
 10
14.362635
 20
8.069546
 30
0.0
 10
15.304373
 20
8.069546
 30
0.0
 10
15.978288
 20
7.801690
 30
0.0
 10
16.582874
 20
7.357899
 30
0.0
  0
LINE
  5
21c
100
AcDbEntity
  8
0
 62
7
100
AcDbLine
 10
16.582874
 20
7.357899
 30
0.0
 11
16.110866
 21
6.656976
 31
0.0
  0
SPLINE
  5
21d
100
AcDbEntity
  8
0
 62
7
100
AcDbSpline
 70
8
 71
3
 72
8
 73
4
 74
0
 40
0
 40
0
 40
0
 40
0
 40
1
 40
1
 40
1
 40
1
 10
16.110866
 20
6.656976
 30
0.0
 10
15.672766
 20
6.995154
 30
0.0
 10
15.119604
 20
7.242189
 30
0.0
 10
14.388541
 20
7.242189
 30
0.0
  0
SPLINE
  5
21e
100
AcDbEntity
  8
0
 62
7
100
AcDbSpline
 70
8
 71
3
 72
8
 73
4
 74
0
 40
0
 40
0
 40
0
 40
0
 40
1
 40
1
 40
1
 40
1
 10
14.388541
 20
7.242189
 30
0.0
 10
13.223191
 20
7.242189
 30
0.0
 10
12.498219
 20
6.504766
 30
0.0
 10
12.498219
 20
5.550166
 30
0.0
  0
SPLINE
  5
21f
100
AcDbEntity
  8
0
 62
7
100
AcDbSpline
 70
8
 71
3
 72
8
 73
4
 74
0
 40
0
 40
0
 40
0
 40
0
 40
1
 40
1
 40
1
 40
1
 10
12.498219
 20
5.550166
 30
0.0
 10
12.498219
 20
4.563894
 30
0.0
 10
13.230037
 20
3.852582
 30
0.0
 10
14.400345
 20
3.852582
 30
0.0
  0
SPLINE
  5
220
100
AcDbEntity
  8
0
 62
7
100
AcDbSpline
 70
8
 71
3
 72
8
 73
4
 74
0
 40
0
 40
0
 40
0
 40
0
 40
1
 40
1
 40
1
 40
1
 10
14.400345
 20
3.852582
 30
0.0
 10
15.131418
 20
3.852582
 30
0.0
 10
15.710476
 20
4.087695
 30
0.0
 10
16.149332
 20
4.423670
 30
0.0
  0
LINE
  5
221
100
AcDbEntity
  8
0
 62
7
100
AcDbLine
 10
16.149332
 20
4.423670
 30
0.0
 11
16.620595
 21
3.724615
 31
0.0
  0
SPLINE
  5
222
100
AcDbEntity
  8
0
 62
7
100
AcDbSpline
 70
8
 71
3
 72
8
 73
4
 74
0
 40
0
 40
0
 40
0
 40
0
 40
1
 40
1
 40
1
 40
1
 10
16.620595
 20
3.724615
 30
0.0
 10
16.016765
 20
3.279291
 30
0.0
 10
15.304373
 20
3.024416
 30
0.0
 10
14.362635
 20
3.024416
 30
0.0
  0
LINE
  5
223
100
AcDbEntity
  8
0
 62
7
100
AcDbLine
 10
24.630277
 20
5.086225
 30
0.0
 11
26.469187
 21
5.086225
 31
0.0
  0
LINE
  5
224
100
AcDbEntity
  8
0
 62
7
100
AcDbLine
 10
26.469187
 20
5.086225
 30
0.0
 11
25.552210
 21
7.020402
 31
0.0
  0
LINE
  5
225
100
AcDbEntity
  8
0
 62
7
100
AcDbLine
 10
25.552210
 20
7.020402
 30
0.0
 11
24.630277
 21
5.086225
 31
0.0
  0
LINE
  5
226
100
AcDbEntity
  8
0
 62
7
100
AcDbLine
 10
24.261128
 20
4.310163
 30
0.0
 11
23.714467
 21
3.152058
 31
0.0
  0
LINE
  5
227
100
AcDbEntity
  8
0
 62
7
100
AcDbLine
 10
23.714467
 20
3.152058
 30
0.0
 11
22.760170
 21
3.152058
 31
0.0
  0
LINE
  5
228
100
AcDbEntity
  8
0
 62
7
100
AcDbLine
 10
22.760170
 20
3.152058
 30
0.0
 11
25.082114
 21
7.923696
 31
0.0
  0
LINE
  5
229
100
AcDbEntity
  8
0
 62
7
100
AcDbLine
 10
25.082114
 20
7.923696
 30
0.0
 11
26.010515
 21
7.923696
 31
0.0
  0
LINE
  5
22a
100
AcDbEntity
  8
0
 62
7
100
AcDbLine
 10
26.010515
 20
7.923696
 30
0.0
 11
28.338949
 21
3.152058
 31
0.0
  0
LINE
  5
22b
100
AcDbEntity
  8
0
 62
7
100
AcDbLine
 10
28.338949
 20
3.152058
 30
0.0
 11
27.384252
 21
3.152058
 31
0.0
  0
LINE
  5
22c
100
AcDbEntity
  8
0
 62
7
100
AcDbLine
 10
27.384252
 20
3.152058
 30
0.0
 11
26.837958
 21
4.310163
 31
0.0
  0
LINE
  5
22d
100
AcDbEntity
  8
0
 62
7
100
AcDbLine
 10
26.837958
 20
4.310163
 30
0.0
 11
24.261128
 21
4.310163
 31
0.0
  0
LINE
  5
22e
100
AcDbEntity
  8
0
 62
7
100
AcDbLine
 10
33.019800
 20
3.152058
 30
0.0
 11
33.019800
 21
5.193371
 31
0.0
  0
LINE
  5
22f
100
AcDbEntity
  8
0
 62
7
100
AcDbLine
 10
33.019800
 20
5.193371
 30
0.0
 11
29.897076
 21
5.193371
 31
0.0
  0
LINE
  5
230
100
AcDbEntity
  8
0
 62
7
100
AcDbLine
 10
29.897076
 20
5.193371
 30
0.0
 11
29.897076
 21
3.152058
 31
0.0
  0
LINE
  5
231
100
AcDbEntity
  8
0
 62
7
100
AcDbLine
 10
29.897076
 20
3.152058
 30
0.0
 11
29.012475
 21
3.152058
 31
0.0
  0
LINE
  5
232
100
AcDbEntity
  8
0
 62
7
100
AcDbLine
 10
29.012475
 20
3.152058
 30
0.0
 11
29.012475
 21
7.923696
 31
0.0
  0
LINE
  5
233
100
AcDbEntity
  8
0
 62
7
100
AcDbLine
 10
29.012475
 20
7.923696
 30
0.0
 11
29.897076
 21
7.923696
 31
0.0
  0
LINE
  5
234
100
AcDbEntity
  8
0
 62
7
100
AcDbLine
 10
29.897076
 20
7.923696
 30
0.0
 11
29.897076
 21
5.976539
 31
0.0
  0
LINE
  5
235
100
AcDbEntity
  8
0
 62
7
100
AcDbLine
 10
29.897076
 20
5.976539
 30
0.0
 11
33.019800
 21
5.976539
 31
0.0
  0
LINE
  5
236
100
AcDbEntity
  8
0
 62
7
100
AcDbLine
 10
33.019800
 20
5.976539
 30
0.0
 11
33.019800
 21
7.923696
 31
0.0
  0
LINE
  5
237
100
AcDbEntity
  8
0
 62
7
100
AcDbLine
 10
33.019800
 20
7.923696
 30
0.0
 11
33.904790
 21
7.923696
 31
0.0
  0
LINE
  5
238
100
AcDbEntity
  8
0
 62
7
100
AcDbLine
 10
33.904790
 20
7.923696
 30
0.0
 11
33.904790
 21
3.152058
 31
0.0
  0
LINE
  5
239
100
AcDbEntity
  8
0
 62
7
100
AcDbLine
 10
33.904790
 20
3.152058
 30
0.0
 11
33.019800
 21
3.152058
 31
0.0
  0
LINE
  5
23a
100
AcDbEntity
  8
0
 62
7
100
AcDbLine
 10
35.214133
 20
3.152058
 30
0.0
 11
35.214133
 21
7.923696
 31
0.0
  0
LINE
  5
23b
100
AcDbEntity
  8
0
 62
7
100
AcDbLine
 10
35.214133
 20
7.923696
 30
0.0
 11
36.099479
 21
7.923696
 31
0.0
  0
LINE
  5
23c
100
AcDbEntity
  8
0
 62
7
100
AcDbLine
 10
36.099479
 20
7.923696
 30
0.0
 11
36.099479
 21
5.697085
 31
0.0
  0
LINE
  5
23d
100
AcDbEntity
  8
0
 62
7
100
AcDbLine
 10
36.099479
 20
5.697085
 30
0.0
 11
38.496486
 21
7.923696
 31
0.0
  0
LINE
  5
23e
100
AcDbEntity
  8
0
 62
7
100
AcDbLine
 10
38.496486
 20
7.923696
 30
0.0
 11
39.584128
 21
7.923696
 31
0.0
  0
LINE
  5
23f
100
AcDbEntity
  8
0
 62
7
100
AcDbLine
 10
39.584128
 20
7.923696
 30
0.0
 11
37.116648
 21
5.626439
 31
0.0
  0
LINE
  5
240
100
AcDbEntity
  8
0
 62
7
100
AcDbLine
 10
37.116648
 20
5.626439
 30
0.0
 11
39.686231
 21
3.152058
 31
0.0
  0
LINE
  5
241
100
AcDbEntity
  8
0
 62
7
100
AcDbLine
 10
39.686231
 20
3.152058
 30
0.0
 11
38.496486
 21
3.152058
 31
0.0
  0
LINE
  5
242
100
AcDbEntity
  8
0
 62
7
100
AcDbLine
 10
38.496486
 20
3.152058
 30
0.0
 11
36.099479
 21
5.467933
 31
0.0
  0
LINE
  5
243
100
AcDbEntity
  8
0
 62
7
100
AcDbLine
 10
36.099479
 20
5.467933
 30
0.0
 11
36.099479
 21
3.152058
 31
0.0
  0
LINE
  5
244
100
AcDbEntity
  8
0
 62
7
100
AcDbLine
 10
36.099479
 20
3.152058
 30
0.0
 11
35.214133
 21
3.152058
 31
0.0
  0
LINE
  5
245
100
AcDbEntity
  8
0
 62
7
100
AcDbLine
 10
20.625631
 20
3.948541
 30
0.0
 11
18.502916
 21
3.948541
 31
0.0
  0
LINE
  5
246
100
AcDbEntity
  8
0
 62
7
100
AcDbLine
 10
18.502916
 20
3.948541
 30
0.0
 11
18.502916
 21
5.385365
 31
0.0
  0
LINE
  5
247
100
AcDbEntity
  8
0
 62
7
100
AcDbLine
 10
18.502916
 20
5.385365
 30
0.0
 11
20.625631
 21
5.385365
 31
0.0
  0
SPLINE
  5
248
100
AcDbEntity
  8
0
 62
7
100
AcDbSpline
 70
8
 71
3
 72
8
 73
4
 74
0
 40
0
 40
0
 40
0
 40
0
 40
1
 40
1
 40
1
 40
1
 10
20.625631
 20
5.385365
 30
0.0
 10
21.180304
 20
5.385365
 30
0.0
 10
21.495362
 20
5.092920
 30
0.0
 10
21.495362
 20
4.666958
 30
0.0
  0
SPLINE
  5
249
100
AcDbEntity
  8
0
 62
7
100
AcDbSpline
 70
8
 71
3
 72
8
 73
4
 74
0
 40
0
 40
0
 40
0
 40
0
 40
1
 40
1
 40
1
 40
1
 10
21.495362
 20
4.666958
 30
0.0
 10
21.495362
 20
4.197056
 30
0.0
 10
21.245443
 20
3.948541
 30
0.0
 10
20.625631
 20
3.948541
 30
0.0
  0
LINE
  5
24a
100
AcDbEntity
  8
0
 62
7
100
AcDbLine
 10
20.574984
 20
6.174417
 30
0.0
 11
18.502937
 21
6.174417
 31
0.0
  0
LINE
  5
24b
100
AcDbEntity
  8
0
 62
7
100
AcDbLine
 10
18.502937
 20
6.174417
 30
0.0
 11
18.502937
 21
7.180377
 31
0.0
  0
LINE
  5
24c
100
AcDbEntity
  8
0
 62
7
100
AcDbLine
 10
18.502937
 20
7.180377
 30
0.0
 11
21.916723
 21
7.180377
 31
0.0
  0
LINE
  5
24d
100
AcDbEntity
  8
0
 62
7
100
AcDbLine
 10
21.916723
 20
7.180377
 30
0.0
 11
21.916723
 21
7.927854
 31
0.0
  0
LINE
  5
24e
100
AcDbEntity
  8
0
 62
7
100
AcDbLine
 10
21.916723
 20
7.927854
 30
0.0
 11
18.502937
 21
7.927854
 31
0.0
  0
LINE
  5
24f
100
AcDbEntity
  8
0
 62
7
100
AcDbLine
 10
18.502937
 20
7.927854
 30
0.0
 11
17.618714
 21
7.927854
 31
0.0
  0
LINE
  5
250
100
AcDbEntity
  8
0
 62
7
100
AcDbLine
 10
17.618714
 20
7.927854
 30
0.0
 11
17.618714
 21
3.160222
 31
0.0
  0
LINE
  5
251
100
AcDbEntity
  8
0
 62
7
100
AcDbLine
 10
17.618714
 20
3.160222
 30
0.0
 11
20.574984
 21
3.160222
 31
0.0
  0
SPLINE
  5
252
100
AcDbEntity
  8
0
 62
7
100
AcDbSpline
 70
8
 71
3
 72
8
 73
4
 74
0
 40
0
 40
0
 40
0
 40
0
 40
1
 40
1
 40
1
 40
1
 10
20.574984
 20
3.160222
 30
0.0
 10
21.616914
 20
3.160222
 30
0.0
 10
22.334273
 20
3.726818
 30
0.0
 10
22.334273
 20
4.666958
 30
0.0
  0
SPLINE
  5
253
100
AcDbEntity
  8
0
 62
7
100
AcDbSpline
 70
8
 71
3
 72
8
 73
4
 74
0
 40
0
 40
0
 40
0
 40
0
 40
1
 40
1
 40
1
 40
1
 10
22.334273
 20
4.666958
 30
0.0
 10
22.334273
 20
5.646125
 30
0.0
 10
21.616925
 20
6.174417
 30
0.0
 10
20.574984
 20
6.174417
 30
0.0
  0
LINE
  5
254
100
AcDbEntity
  8
0
 62
7
100
AcDbLine
 10
14.699614
 20
20.109914
 30
0.0
 11
24.985549
 21
20.109914
 31
0.0
  0
LINE
  5
255
100
AcDbEntity
  8
0
 62
7
100
AcDbLine
 10
24.985549
 20
20.109914
 30
0.0
 11
24.985549
 21
9.823979
 31
0.0
  0
LINE
  5
256
100
AcDbEntity
  8
0
 62
7
100
AcDbLine
 10
24.985549
 20
9.823979
 30
0.0
 11
14.699614
 21
9.823979
 31
0.0
  0
LINE
  5
257
100
AcDbEntity
  8
0
 62
7
100
AcDbLine
 10
14.699614
 20
9.823979
 30
0.0
 11
14.699614
 21
20.109914
 31
0.0
  0
LINE
  5
258
100
AcDbEntity
  8
0
 62
7
100
AcDbLine
 10
15.054832
 20
10.179262
 30
0.0
 11
24.630288
 21
10.179262
 31
0.0
  0
LINE
  5
259
100
AcDbEntity
  8
0
 62
7
100
AcDbLine
 10
24.630288
 20
10.179262
 30
0.0
 11
24.630288
 21
14.966579
 31
0.0
  0
LINE
  5
25a
100
AcDbEntity
  8
0
 62
7
100
AcDbLine
 10
24.630288
 20
14.966579
 30
0.0
 11
15.054832
 21
14.966579
 31
0.0
  0
LINE
  5
25b
100
AcDbEntity
  8
0
 62
7
100
AcDbLine
 10
15.054832
 20
14.966579
 30
0.0
 11
15.054832
 21
10.179262
 31
0.0
  0
LINE
  5
25c
100
AcDbEntity
  8
0
 62
7
100
AcDbLine
 10
15.054832
 20
14.871020
 30
0.0
 11
24.630288
 21
14.871020
 31
0.0
  0
LINE
  5
25d
100
AcDbEntity
  8
0
 62
7
100
AcDbLine
 10
24.630288
 20
14.871020
 30
0.0
 11
24.630288
 21
19.754631
 31
0.0
  0
LINE
  5
25e
100
AcDbEntity
  8
0
 62
7
100
AcDbLine
 10
24.630288
 20
19.754631
 30
0.0
 11
15.054832
 21
19.754631
 31
0.0
  0
LINE
  5
25f
100
AcDbEntity
  8
0
 62
7
100
AcDbLine
 10
15.054832
 20
19.754631
 30
0.0
 11
15.054832
 21
14.871020
 31
0.0
  0
LINE
  5
260
100
AcDbEntity
  8
0
 62
7
100
AcDbLine
 10
16.728011
 20
15.258278
 30
0.0
 11
22.957487
 21
15.258278
 31
0.0
  0
LINE
  5
261
100
AcDbEntity
  8
0
 62
7
100
AcDbLine
 10
22.957487
 20
15.258278
 30
0.0
 11
22.957487
 21
14.675279
 31
0.0
  0
LINE
  5
262
100
AcDbEntity
  8
0
 62
7
100
AcDbLine
 10
22.957487
 20
14.675279
 30
0.0
 11
16.728011
 21
14.675279
 31
0.0
  0
LINE
  5
263
100
AcDbEntity
  8
0
 62
7
100
AcDbLine
 10
16.728011
 20
14.675279
 30
0.0
 11
16.728011
 21
15.258278
 31
0.0
  0
ENDSEC
  0
SECTION
  2
OBJECTS
  0
DICTIONARY
  5
C
330
0
100
AcDbDictionary
  3
ACAD_GROUP
350
D
  3
ACAD_MLINESTYLE
350
17
  0
DICTIONARY
  5
D
330
C
100
AcDbDictionary
  0
DICTIONARY
  5
1A
330
C
100
AcDbDictionary
  0
DICTIONARY
  5
17
330
C
100
AcDbDictionary
  3
STANDARD
350
18
  0
DICTIONARY
  5
19
330
C
100
AcDbDictionary
  0
ENDSEC
  0
EOF
