<?xml version="1.0" encoding="UTF-8" standalone="no"?>
<svg
   xmlns:dc="http://purl.org/dc/elements/1.1/"
   xmlns:cc="http://creativecommons.org/ns#"
   xmlns:rdf="http://www.w3.org/1999/02/22-rdf-syntax-ns#"
   xmlns:svg="http://www.w3.org/2000/svg"
   xmlns="http://www.w3.org/2000/svg"
   xmlns:sodipodi="http://sodipodi.sourceforge.net/DTD/sodipodi-0.dtd"
   xmlns:inkscape="http://www.inkscape.org/namespaces/inkscape"
   inkscape:version="1.0 (4035a4fb49, 2020-05-01)"
   sodipodi:docname="RB_Brand_Block_2_L_montserrat.svg"
   id="svg845"
   version="1.1"
   viewBox="0 0 39.6875 20.108368"
   width="39.6875mm"
   height="20.108368mm">
  <metadata
     id="metadata851">
    <rdf:RDF>
      <cc:Work
         rdf:about="">
        <dc:format>image/svg+xml</dc:format>
        <dc:type
           rdf:resource="http://purl.org/dc/dcmitype/StillImage" />
        <dc:title></dc:title>
      </cc:Work>
    </rdf:RDF>
  </metadata>
  <defs
     id="defs849" />
  <sodipodi:namedview
     showborder="false"
     fit-margin-bottom="0"
     fit-margin-right="0"
     fit-margin-left="0"
     fit-margin-top="0"
     inkscape:current-layer="svg845"
     inkscape:window-maximized="1"
     inkscape:window-y="32"
     inkscape:window-x="-8"
     inkscape:cy="12.860064"
     inkscape:cx="42.285204"
     inkscape:zoom="3.5983333"
     showgrid="false"
     id="namedview847"
     inkscape:window-height="1017"
     inkscape:window-width="1920"
     inkscape:pageshadow="2"
     inkscape:pageopacity="0"
     guidetolerance="10"
     gridtolerance="10"
     objecttolerance="10"
     borderopacity="1"
     bordercolor="#666666"
     pagecolor="#ffffff" />
  <g
     transform="translate(-531.93743,-471.83781)"
     inkscape:export-ydpi="300"
     inkscape:export-xdpi="300"
     id="g1699">
    <g
       id="g1645"
       transform="matrix(1.0798929,0,0,1.0798929,-42.498014,-37.716012)">
      <path
         d="m 560.28668,489.59528 v 0.0469 c 0,0.248 -0.0723,0.44923 -0.21767,0.60251 -0.14499,0.15398 -0.33795,0.23118 -0.5789,0.23118 -0.21732,0 -0.39935,-0.0675 -0.54646,-0.20123 -0.1711,-0.15534 -0.25611,-0.35892 -0.25611,-0.61013 0,-0.24805 0.085,-0.4499 0.25611,-0.60561 0.14958,-0.13711 0.3362,-0.20569 0.56022,-0.20569 0.27022,0 0.49424,0.1185 0.67134,0.35483 l -0.22472,0.13891 c -0.12454,-0.14784 -0.27835,-0.22188 -0.46109,-0.22188 -0.16192,0 -0.29527,0.051 -0.40005,0.15329 -0.10477,0.10232 -0.15699,0.23149 -0.15699,0.38757 0,0.15987 0.0512,0.29078 0.15312,0.39136 0.10229,0.10095 0.23671,0.15193 0.40392,0.15193 0.25047,0 0.41698,-0.11404 0.49954,-0.34212 h -0.55069 v -0.2718 h 0.84843 m 1.29364,0.005 c 0.14428,0 0.21625,-0.0693 0.21625,-0.20639 0,-0.14535 -0.0765,-0.21803 -0.23001,-0.21803 h -0.69885 v 0.42442 h 0.71261 m 0.48824,0.83163 h -0.2734 l -0.31927,-0.56015 h -0.60818 v 0.56015 h -0.23742 v -1.52785 h 0.98636 c 0.12982,0 0.23318,0.0437 0.30974,0.1316 0.0769,0.0878 0.11536,0.20562 0.11536,0.35271 0,0.25363 -0.10125,0.4083 -0.30304,0.46441 l 0.32985,0.57913 m 1.62313,-0.76616 c 0,-0.15782 -0.0519,-0.28699 -0.15523,-0.38862 -0.10371,-0.10127 -0.23706,-0.15224 -0.40075,-0.15224 -0.16439,0 -0.29915,0.051 -0.40287,0.1533 -0.10442,0.10262 -0.15663,0.23149 -0.15663,0.38756 0,0.16154 0.0508,0.29282 0.15311,0.39272 0.1023,0.10028 0.23776,0.1502 0.40639,0.1502 0.16722,0 0.30198,-0.0499 0.40358,-0.1502 0.1016,-0.0999 0.1524,-0.23118 0.1524,-0.39272 m 0.2473,-0.001 c 0,0.24984 -0.0854,0.45305 -0.25647,0.61013 -0.14534,0.13401 -0.32773,0.20123 -0.54646,0.20123 -0.21872,0 -0.40146,-0.0672 -0.54857,-0.20123 -0.17074,-0.15534 -0.25646,-0.35892 -0.25646,-0.61013 0,-0.24805 0.0861,-0.4499 0.25858,-0.60561 0.15064,-0.13711 0.33337,-0.20569 0.54645,-0.20569 0.21202,0 0.3937,0.0686 0.54469,0.20569 0.17216,0.15708 0.25824,0.35899 0.25824,0.60561 m 1.75154,0.26497 c 0,0.16086 -0.0642,0.29177 -0.19297,0.39341 -0.12841,0.102 -0.30093,0.15298 -0.51681,0.15298 -0.21732,0 -0.39018,-0.051 -0.51894,-0.15298 -0.12842,-0.10164 -0.19262,-0.23255 -0.19262,-0.39341 v -1.02524 h 0.23777 v 0.96664 c 0,0.22535 0.15804,0.33797 0.47379,0.33797 0.31466,0 0.47201,-0.11262 0.47201,-0.33797 v -0.96664 h 0.23777 v 1.02524 m 1.35361,-0.32903 c 0.14358,0 0.21626,-0.0693 0.21626,-0.20638 0,-0.14535 -0.0769,-0.21803 -0.23037,-0.21803 h -0.69886 v 0.42441 h 0.71297 m 0.0363,-0.69621 c 0.12946,0 0.23247,0.0437 0.30938,0.13159 0.0765,0.0878 0.11536,0.20563 0.11536,0.35347 0,0.15398 -0.0399,0.27285 -0.1203,0.35657 -0.0804,0.0844 -0.19473,0.12607 -0.34466,0.12607 h -0.70909 v 0.56016 h -0.23777 v -1.52785 h 0.98708 m -32.73391,0.37789 c -0.15909,-0.10337 -0.33266,-0.15472 -0.51928,-0.15472 -0.27199,0 -0.40817,0.06 -0.40817,0.18052 0,0.071 0.0512,0.11788 0.15311,0.13891 0.13935,0.0151 0.27869,0.031 0.41769,0.0475 0.20038,0.0248 0.34325,0.0689 0.42792,0.13401 0.0938,0.0706 0.14146,0.17878 0.14146,0.3242 0,0.16365 -0.0589,0.2904 -0.17604,0.37964 -0.11712,0.0889 -0.28715,0.134 -0.50941,0.134 -0.31397,0 -0.56515,-0.0899 -0.75283,-0.26801 l 0.12912,-0.21121 c 0.16793,0.1461 0.3743,0.21952 0.61913,0.21952 0.13758,0 0.24448,-0.0217 0.31962,-0.0658 0.0755,-0.0438 0.11324,-0.10202 0.11324,-0.17476 0,-0.0806 -0.0466,-0.1381 -0.139,-0.17084 -0.0519,-0.0182 -0.13194,-0.0303 -0.24059,-0.0372 -0.16934,-0.0104 -0.2734,-0.0175 -0.31186,-0.0224 -0.15099,-0.0182 -0.26211,-0.0589 -0.33408,-0.12198 -0.0713,-0.0623 -0.10724,-0.15397 -0.10724,-0.27452 0,-0.14542 0.0575,-0.26082 0.17251,-0.34628 0.11429,-0.0848 0.27516,-0.12712 0.48189,-0.12712 0.27587,0 0.49883,0.0737 0.66993,0.22287 l -0.14712,0.19366 m 1.79565,0.38378 c 0,-0.15782 -0.0515,-0.28699 -0.15523,-0.38862 -0.10371,-0.10127 -0.23706,-0.15224 -0.4004,-0.15224 -0.16475,0 -0.29915,0.051 -0.40358,0.1533 -0.10442,0.10262 -0.15663,0.23149 -0.15663,0.38756 0,0.16154 0.0515,0.29283 0.15346,0.39272 0.10265,0.10028 0.23777,0.1502 0.40675,0.1502 0.16721,0 0.30163,-0.0499 0.40322,-0.1502 0.1016,-0.0999 0.15241,-0.23118 0.15241,-0.39272 m 0.24729,-0.001 c 0,0.24984 -0.0854,0.45305 -0.25612,0.61013 -0.14569,0.13401 -0.32808,0.20123 -0.54645,0.20123 -0.21907,0 -0.40146,-0.0672 -0.54892,-0.20123 -0.1711,-0.15534 -0.25611,-0.35892 -0.25611,-0.61013 0,-0.24805 0.0857,-0.4499 0.25823,-0.60561 0.15099,-0.13711 0.33302,-0.20569 0.5468,-0.20569 0.21167,0 0.39335,0.0686 0.54434,0.20569 0.17216,0.15708 0.25823,0.35899 0.25823,0.60561 m 1.80552,-0.39241 -0.21872,0.0941 c -0.13089,-0.16222 -0.2974,-0.24352 -0.49883,-0.24352 -0.17392,0 -0.31256,0.0496 -0.41557,0.14945 -0.10372,0.10027 -0.15523,0.22981 -0.15523,0.38862 0,0.16403 0.0515,0.29561 0.15523,0.39415 0.10301,0.0995 0.24306,0.14914 0.41945,0.14914 0.2039,0 0.37077,-0.083 0.49918,-0.24904 l 0.20461,0.13643 c -0.17992,0.25288 -0.41663,0.37963 -0.70908,0.37963 -0.24377,0 -0.44098,-0.0758 -0.59126,-0.22733 -0.15028,-0.15094 -0.22542,-0.34491 -0.22542,-0.58155 0,-0.24668 0.0857,-0.44754 0.25647,-0.60325 0.14816,-0.13506 0.33055,-0.20327 0.5461,-0.20327 0.30339,0 0.54751,0.13884 0.73307,0.41647 m 0.33549,1.15999 h 0.23742 v -1.52785 h -0.23742 v 1.52785 m 1.97097,0 h -1.31551 v -1.52785 h 1.27 v 0.27143 h -1.03223 v 0.32761 h 0.71791 v 0.27148 h -0.71791 v 0.3859 h 1.07774 v 0.27143 m 1.55434,-1.25605 h -0.58456 v 1.25606 h -0.23741 v -1.25606 h -0.58455 v -0.27179 h 1.40652 v 0.27179 m 1.57445,1.25605 h -1.31516 v -1.52785 h 1.26965 v 0.27143 h -1.03223 v 0.32761 h 0.71826 v 0.27148 h -0.71826 v 0.3859 h 1.07774 v 0.27143 m 2.42993,-0.83678 v 0.0469 c 0,0.248 -0.0723,0.44923 -0.21731,0.60251 -0.14534,0.15398 -0.33796,0.23118 -0.57961,0.23118 -0.21697,0 -0.399,-0.0675 -0.54611,-0.20123 -0.17109,-0.15534 -0.25611,-0.35892 -0.25611,-0.61013 0,-0.24805 0.085,-0.4499 0.25611,-0.60561 0.14958,-0.13711 0.33655,-0.20569 0.56021,-0.20569 0.27058,0 0.49425,0.1185 0.6717,0.35483 l -0.22473,0.13891 c -0.12453,-0.14784 -0.27833,-0.22188 -0.46143,-0.22188 -0.16192,0 -0.29527,0.051 -0.40005,0.15329 -0.10442,0.10232 -0.15698,0.23149 -0.15698,0.38757 0,0.15987 0.0508,0.29078 0.1531,0.39136 0.10231,0.10095 0.23671,0.15193 0.40393,0.15193 0.25047,0 0.41699,-0.11404 0.49953,-0.34212 h -0.55068 v -0.2718 h 0.84843 m 1.65877,0.83678 h -1.31516 v -1.52785 h 1.26964 v 0.27143 h -1.03187 v 0.32761 h 0.7179 v 0.27148 h -0.7179 v 0.3859 h 1.07739 v 0.27143 m 1.73177,0 h -0.35489 l -0.83114,-1.2736 v 1.2736 h -0.23777 v -1.52785 h 0.35596 l 0.83007,1.27224 v -1.27224 h 0.23777 v 1.52785 m 1.73321,0 h -1.31516 v -1.52785 h 1.26929 v 0.27143 h -1.03187 v 0.32761 h 0.7179 v 0.27148 h -0.7179 v 0.3859 h 1.07774 v 0.27143 m 1.258,-0.83164 c 0.14428,0 0.21625,-0.0693 0.21625,-0.20638 0,-0.14535 -0.0766,-0.21803 -0.23037,-0.21803 h -0.69849 v 0.42441 h 0.71261 m 0.48825,0.83164 h -0.27376 l -0.31926,-0.56015 h -0.60784 v 0.56015 h -0.23777 v -1.52785 h 0.98708 c 0.12911,0 0.23281,0.0437 0.30938,0.13159 0.0765,0.0878 0.115,0.20563 0.115,0.35272 0,0.25363 -0.10054,0.40829 -0.30268,0.46441 l 0.32985,0.57913 m 1.25765,-0.5991 -0.28928,-0.6766 -0.2921,0.6766 h 0.58138 m 0.52281,0.5991 h -0.26176 l -0.13969,-0.32724 h -0.82409 l -0.13971,0.32724 h -0.26211 l 0.66569,-1.52785 h 0.29633 l 0.66534,1.52785 m 1.41817,0 h -1.18216 v -1.52785 h 0.23777 v 1.25642 h 0.94439 v 0.27143 m 1.57304,0 h -1.31481 v -1.52785 h 1.26964 v 0.27143 h -1.03187 v 0.32761 h 0.71791 v 0.27148 h -0.71791 v 0.3859 h 1.07704 v 0.27143"
         style="fill:#ffffff;stroke:none;stroke-width:1"
         id="path1478" />
    </g>
    <g
       id="g1648"
       transform="matrix(1.0798929,0,0,1.0798929,-42.498014,-37.716012)">
      <path
         d="m 534.72403,485.34487 c 0.42368,0 0.68933,-0.29393 0.68933,-0.68907 0,-0.43545 -0.26565,-0.78371 -0.73659,-0.78371 h -1.92088 v 1.47278 h 1.96815 m -0.0473,-2.20383 c 0.96591,0 1.57233,0.63109 1.57233,1.50304 0,0.90816 -0.60643,1.4311 -1.57233,1.4311 h -1.92088 v 1.4845 h -0.81844 v -4.41864 h 2.73932 m 4.60621,0.61937 c -1.02516,0 -1.72649,0.69459 -1.72649,1.58446 0,0.91288 0.6717,1.58986 1.72649,1.58986 1.04881,0 1.71345,-0.68244 1.71345,-1.58986 0,-0.88987 -0.66464,-1.58446 -1.71345,-1.58446 m 0,3.92299 c -1.40723,0 -2.57386,-0.93638 -2.57386,-2.33853 0,-1.3846 1.16664,-2.33889 2.57386,-2.33889 1.4143,0 2.56223,0.95429 2.56223,2.33889 0,1.40215 -1.14793,2.33853 -2.56223,2.33853 m 5.9556,-0.006 c -1.47884,0 -2.59221,-0.93675 -2.59221,-2.3389 0,-1.3784 1.12994,-2.333 2.59221,-2.333 0.87207,0 1.49613,0.24804 2.05599,0.659 l -0.43709,0.64907 c -0.40569,-0.31316 -0.91793,-0.54192 -1.59491,-0.54192 -1.07914,0 -1.75048,0.68287 -1.75048,1.56685 0,0.91331 0.67768,1.572 1.76141,1.572 0.67699,0 1.21321,-0.21772 1.6196,-0.52884 l 0.4364,0.64734 c -0.55916,0.41238 -1.21885,0.6484 -2.09092,0.6484 m 9.50806,-1.90928 h 1.70287 l -0.84914,-1.79109 -0.85373,1.79109 m -0.34184,0.71865 -0.50622,1.07243 h -0.8837 l 2.15017,-4.41864 h 0.85972 l 2.15618,4.41864 h -0.88407 l -0.50588,-1.07243 h -2.3862 m 8.11072,1.07243 v -1.8903 h -2.89171 v 1.8903 h -0.81916 v -4.41864 h 0.81916 v 1.80311 h 2.89171 v -1.80311 h 0.81952 v 4.41864 h -0.81952 m 2.032,0 v -4.41864 h 0.81985 v 2.06189 l 2.21968,-2.06189 h 1.00718 l -2.28494,2.12731 2.37949,2.29133 h -1.10173 l -2.21968,-2.14455 v 2.14455 h -0.81985 m -13.50927,-0.73756 h -1.96568 v -1.33053 h 1.96568 c 0.51364,0 0.80539,0.27081 0.80539,0.66526 0,0.43514 -0.23143,0.66527 -0.80539,0.66527 m -0.0469,-2.06121 h -1.91876 v -0.93154 h 3.16124 v -0.69218 h -3.16124 -0.81881 v 4.41493 h 2.73757 c 0.96485,0 1.62914,-0.52468 1.62914,-1.39527 0,-0.90673 -0.66428,-1.39594 -1.62914,-1.39594"
         style="fill:#ffffff;stroke:none;stroke-width:1"
         id="path1456" />
    </g>
    <g
       id="g1668"
       transform="matrix(1.0798929,0,0,1.0798929,-42.498014,-37.696482)">
      <rect
         y="471.8378"
         x="545.5506"
         height="9.5249996"
         width="9.5249996"
         id="rect1577"
         style="opacity:1;fill:#ffffff;stroke:none;stroke-width:1.5156" />
      <path
         id="path1532"
         d="m 545.87954,481.0338 h 8.86708 v -4.43316 h -8.86708 v 4.43316"
         style="fill:#000000;stroke:none;stroke-width:1" />
      <path
         id="path1530"
         d="m 545.87954,476.68913 h 8.86708 v -4.52233 h -8.86708 v 4.52233"
         style="fill:#ff0000;stroke:none;stroke-width:1" />
      <path
         id="path1534"
         d="m 547.42894,476.33052 h 5.76863 v 0.53987 h -5.76863 v -0.54023"
         style="fill:#ffffff;stroke:none;stroke-width:1" />
    </g>
  </g>
</svg>
