  0
SECTION
  2
HEADER
  9
$ACADVER
  1
AC1014
  9
$HANDSEED
  5
FFFF
  9
$MEASUREMENT
 70
     1
  0
ENDSEC
  0
SECTION
  2
TABLES
  0
TABLE
  2
VPORT
  5
8
330
0
100
AcDbSymbolTable
 70
     4
  0
VPORT
  5
2E
330
8
100
AcDbSymbolTableRecord
100
AcDbViewportTableRecord
  2
*ACTIVE
 70
     0
 10
0.0
 20
0.0
 11
1.0
 21
1.0
 12
210.0
 22
148.5
 13
0.0
 23
0.0
 14
10.0
 24
10.0
 15
10.0
 25
10.0
 16
0.0
 26
0.0
 36
1.0
 17
0.0
 27
0.0
 37
0.0
 40
341.0
 41
1.24
 42
50.0
 43
0.0
 44
0.0
 50
0.0
 51
0.0
 71
     0
 72
   100
 73
     1
 74
     3
 75
     0
 76
     0
 77
     0
 78
     0
  0
ENDTAB
  0
TABLE
  2
LTYPE
  5
5
330
0
100
AcDbSymbolTable
 70
     1
  0
LTYPE
  5
14
330
5
100
AcDbSymbolTableRecord
100
AcDbLinetypeTableRecord
  2
BYBLOCK
 70
     0
  3

 72
    65
 73
     0
 40
0.0
  0
LTYPE
  5
15
330
5
100
AcDbSymbolTableRecord
100
AcDbLinetypeTableRecord
  2
BYLAYER
 70
     0
  3

 72
    65
 73
     0
 40
0.0
  0
LTYPE
  5
16
330
5
100
AcDbSymbolTableRecord
100
AcDbLinetypeTableRecord
  2
CONTINUOUS
 70
     0
  3
Solid line
 72
    65
 73
     0
 40
0.0
  0
ENDTAB
  0
TABLE
  2
LAYER
  5
2
100
AcDbSymbolTable
 70
2
  0
LAYER
  5
50
100
AcDbSymbolTableRecord
100
AcDbLayerTableRecord
  2
0
 70
0
  6
CONTINUOUS
  0
LAYER
  5
51
100
AcDbSymbolTableRecord
100
AcDbLayerTableRecord
  2
Layer_1
 70
0
  6
CONTINUOUS
  0
ENDTAB
  0
TABLE
  2
STYLE
  5
3
330
0
100
AcDbSymbolTable
 70
     1
  0
STYLE
  5
11
330
3
100
AcDbSymbolTableRecord
100
AcDbTextStyleTableRecord
  2
STANDARD
 70
     0
 40
0.0
 41
1.0
 50
0.0
 71
     0
 42
2.5
  3
txt
  4

  0
ENDTAB
  0
TABLE
  2
VIEW
  5
6
330
0
100
AcDbSymbolTable
 70
     0
  0
ENDTAB
  0
TABLE
  2
UCS
  5
7
330
0
100
AcDbSymbolTable
 70
     0
  0
ENDTAB
  0
TABLE
  2
APPID
  5
9
330
0
100
AcDbSymbolTable
 70
     2
  0
APPID
  5
12
330
9
100
AcDbSymbolTableRecord
100
AcDbRegAppTableRecord
  2
ACAD
 70
     0
  0
ENDTAB
  0
TABLE
  2
DIMSTYLE
  5
A
330
0
100
AcDbSymbolTable
 70
     1
  0
DIMSTYLE
105
27
330
A
100
AcDbSymbolTableRecord
100
AcDbDimStyleTableRecord
  2
ISO-25
 70
     0
  3

  4

  5

  6

  7

 40
1.0
 41
2.5
 42
0.625
 43
3.75
 44
1.25
 45
0.0
 46
0.0
 47
0.0
 48
0.0
140
2.5
141
2.5
142
0.0
143
0.03937007874016
144
1.0
145
0.0
146
1.0
147
0.625
 71
     0
 72
     0
 73
     0
 74
     0
 75
     0
 76
     0
 77
     1
 78
     8
170
     0
171
     3
172
     1
173
     0
174
     0
175
     0
176
     0
177
     0
178
     0
270
     2
271
     2
272
     2
273
     2
274
     3
340
11
275
     0
280
     0
281
     0
282
     0
283
     0
284
     8
285
     0
286
     0
287
     3
288
     0
  0
ENDTAB
  0
TABLE
  2
BLOCK_RECORD
  5
1
330
0
100
AcDbSymbolTable
 70
     1
  0
BLOCK_RECORD
  5
1F
330
1
100
AcDbSymbolTableRecord
100
AcDbBlockTableRecord
  2
*MODEL_SPACE
  0
BLOCK_RECORD
  5
1B
330
1
100
AcDbSymbolTableRecord
100
AcDbBlockTableRecord
  2
*PAPER_SPACE
  0
ENDTAB
  0
ENDSEC
  0
SECTION
  2
BLOCKS
  0
BLOCK
  5
20
330
1F
100
AcDbEntity
  8
0
100
AcDbBlockBegin
  2
*MODEL_SPACE
 70
     0
 10
0.0
 20
0.0
 30
0.0
  3
*MODEL_SPACE
  1

  0
ENDBLK
  5
21
330
1F
100
AcDbEntity
  8
0
100
AcDbBlockEnd
  0
BLOCK
  5
1C
330
1B
100
AcDbEntity
 67
     1
  8
0
100
AcDbBlockBegin
  2
*PAPER_SPACE
  1

  0
ENDBLK
  5
1D
330
1B
100
AcDbEntity
 67
     1
  8
0
100
AcDbBlockEnd
  0
ENDSEC
  0
SECTION
  2
ENTITIES
  0
LWPOLYLINE
  5
100
100
AcDbEntity
  8
Layer_1
 62
7
100
AcDbPolyline
 90
2
 70
0
 10
-32.712582
 20
189.834760
 30
0.0
 10
-29.149527
 20
193.997538
 30
0.0
  0
LWPOLYLINE
  5
101
100
AcDbEntity
  8
Layer_1
 62
7
100
AcDbPolyline
 90
2
 70
0
 10
-30.031471
 20
187.576982
 30
0.0
 10
-32.712582
 20
189.834760
 30
0.0
  0
LWPOLYLINE
  5
102
100
AcDbEntity
  8
Layer_1
 62
7
100
AcDbPolyline
 90
2
 70
0
 10
-26.503693
 20
191.704482
 30
0.0
 10
-30.031471
 20
187.576982
 30
0.0
  0
LWPOLYLINE
  5
103
100
AcDbEntity
  8
Layer_1
 62
7
100
AcDbPolyline
 90
2
 70
0
 10
-26.538971
 20
141.398372
 30
0.0
 10
-22.411471
 20
137.835317
 30
0.0
  0
LWPOLYLINE
  5
104
100
AcDbEntity
  8
Layer_1
 62
7
100
AcDbPolyline
 90
2
 70
0
 10
-28.832027
 20
138.717261
 30
0.0
 10
-26.538971
 20
141.398372
 30
0.0
  0
LWPOLYLINE
  5
105
100
AcDbEntity
  8
Layer_1
 62
7
100
AcDbPolyline
 90
2
 70
0
 10
-24.669249
 20
135.154206
 30
0.0
 10
-28.832027
 20
138.717261
 30
0.0
  0
LWPOLYLINE
  5
106
100
AcDbEntity
  8
Layer_1
 62
7
100
AcDbPolyline
 90
28
 70
0
 10
-24.669249
 20
135.154206
 30
0.0
 10
-26.221471
 20
133.601983
 30
0.0
 10
-27.844249
 20
132.120317
 30
0.0
 10
-29.572860
 20
130.744484
 30
0.0
 10
-31.336749
 20
129.474484
 30
0.0
 10
-33.206471
 20
128.275039
 30
0.0
 10
-35.111471
 20
127.216706
 30
0.0
 10
-37.087026
 20
126.228928
 30
0.0
 10
-39.097860
 20
125.346984
 30
0.0
 10
-41.143971
 20
124.606150
 30
0.0
 10
-43.260637
 20
123.971150
 30
0.0
 10
-45.412582
 20
123.441984
 30
0.0
 10
-47.564526
 20
123.018650
 30
0.0
 10
-49.716471
 20
122.736428
 30
0.0
 10
-51.938970
 20
122.595317
 30
0.0
 10
-54.126193
 20
122.524761
 30
0.0
 10
-56.313415
 20
122.595317
 30
0.0
 10
-58.500637
 20
122.806984
 30
0.0
 10
-60.687859
 20
123.124484
 30
0.0
 10
-62.839804
 20
123.547817
 30
0.0
 10
-64.956470
 20
124.112261
 30
0.0
 10
-67.037859
 20
124.782539
 30
0.0
 10
-69.119248
 20
125.558650
 30
0.0
 10
-71.130081
 20
126.440595
 30
0.0
 10
-73.070359
 20
127.463650
 30
0.0
 10
-74.975359
 20
128.557261
 30
0.0
 10
-76.809803
 20
129.756706
 30
0.0
 10
-78.573692
 20
131.097261
 30
0.0
  0
LWPOLYLINE
  5
107
100
AcDbEntity
  8
Layer_1
 62
7
100
AcDbPolyline
 90
2
 70
0
 10
-75.010637
 20
135.224761
 30
0.0
 10
-78.573692
 20
131.097261
 30
0.0
  0
LWPOLYLINE
  5
108
100
AcDbEntity
  8
Layer_1
 62
7
100
AcDbPolyline
 90
2
 70
0
 10
-77.656470
 20
137.517817
 30
0.0
 10
-75.010637
 20
135.224761
 30
0.0
  0
LWPOLYLINE
  5
109
100
AcDbEntity
  8
Layer_1
 62
7
100
AcDbPolyline
 90
28
 70
0
 10
-81.219525
 20
133.355039
 30
0.0
 10
-82.771748
 20
134.907261
 30
0.0
 10
-84.253414
 20
136.530039
 30
0.0
 10
-85.629248
 20
138.258650
 30
0.0
 10
-86.934525
 20
140.022539
 30
0.0
 10
-88.098692
 20
141.892261
 30
0.0
 10
-89.192303
 20
143.797261
 30
0.0
 10
-90.180081
 20
145.772817
 30
0.0
 10
-91.026747
 20
147.783650
 30
0.0
 10
-91.802858
 20
149.829761
 30
0.0
 10
-92.437858
 20
151.946428
 30
0.0
 10
-92.967025
 20
154.063094
 30
0.0
 10
-93.355081
 20
156.250316
 30
0.0
 10
-93.637303
 20
158.402261
 30
0.0
 10
-93.813692
 20
160.589483
 30
0.0
 10
-93.848970
 20
162.811983
 30
0.0
 10
-93.778414
 20
164.999205
 30
0.0
 10
-93.566747
 20
167.186427
 30
0.0
 10
-93.284525
 20
169.373649
 30
0.0
 10
-92.825914
 20
171.525594
 30
0.0
 10
-92.296747
 20
173.642260
 30
0.0
 10
-91.626470
 20
175.723649
 30
0.0
 10
-90.815081
 20
177.805038
 30
0.0
 10
-89.933136
 20
179.780594
 30
0.0
 10
-88.945359
 20
181.756149
 30
0.0
 10
-87.816470
 20
183.661149
 30
0.0
 10
-86.617025
 20
185.495593
 30
0.0
 10
-85.311748
 20
187.259482
 30
0.0
  0
LWPOLYLINE
  5
10a
100
AcDbEntity
  8
Layer_1
 62
7
100
AcDbPolyline
 90
2
 70
0
 10
-81.148970
 20
183.696427
 30
0.0
 10
-85.311748
 20
187.259482
 30
0.0
  0
LWPOLYLINE
  5
10b
100
AcDbEntity
  8
Layer_1
 62
7
100
AcDbPolyline
 90
2
 70
0
 10
-78.891192
 20
186.342260
 30
0.0
 10
-81.148970
 20
183.696427
 30
0.0
  0
LWPOLYLINE
  5
10c
100
AcDbEntity
  8
Layer_1
 62
7
100
AcDbPolyline
 90
2
 70
0
 10
-83.018692
 20
189.905316
 30
0.0
 10
-78.891192
 20
186.342260
 30
0.0
  0
LWPOLYLINE
  5
10d
100
AcDbEntity
  8
Layer_1
 62
7
100
AcDbPolyline
 90
42
 70
1
 10
-53.843970
 20
127.534206
 30
0.0
 10
-54.620082
 20
127.604761
 30
0.0
 10
-55.360915
 20
127.781150
 30
0.0
 10
-56.066470
 20
128.063372
 30
0.0
 10
-56.736748
 20
128.451428
 30
0.0
 10
-57.336470
 20
128.945317
 30
0.0
 10
-57.830359
 20
129.509761
 30
0.0
 10
-58.253693
 20
130.144761
 30
0.0
 10
-58.571193
 20
130.850317
 30
0.0
 10
-58.747581
 20
131.591150
 30
0.0
 10
-58.853415
 20
132.331983
 30
0.0
 10
-58.818137
 20
133.108095
 30
0.0
 10
-58.677026
 20
133.848928
 30
0.0
 10
-58.430081
 20
134.589761
 30
0.0
 10
-58.042026
 20
135.260039
 30
0.0
 10
-57.583415
 20
135.859761
 30
0.0
 10
-57.018970
 20
136.388928
 30
0.0
 10
-56.419248
 20
136.847539
 30
0.0
 10
-55.713693
 20
137.165039
 30
0.0
 10
-55.008137
 20
137.411983
 30
0.0
 10
-54.232026
 20
137.517817
 30
0.0
 10
-53.455915
 20
137.517817
 30
0.0
 10
-52.715082
 20
137.411983
 30
0.0
 10
-51.974248
 20
137.165039
 30
0.0
 10
-51.303970
 20
136.847539
 30
0.0
 10
-50.668970
 20
136.388928
 30
0.0
 10
-50.104526
 20
135.859761
 30
0.0
 10
-49.645915
 20
135.260039
 30
0.0
 10
-49.293137
 20
134.589761
 30
0.0
 10
-49.046193
 20
133.848928
 30
0.0
 10
-48.869804
 20
133.108095
 30
0.0
 10
-48.869804
 20
132.331983
 30
0.0
 10
-48.940359
 20
131.591150
 30
0.0
 10
-49.152026
 20
130.850317
 30
0.0
 10
-49.469526
 20
130.144761
 30
0.0
 10
-49.892859
 20
129.509761
 30
0.0
 10
-50.386748
 20
128.945317
 30
0.0
 10
-50.986470
 20
128.451428
 30
0.0
 10
-51.621470
 20
128.063372
 30
0.0
 10
-52.362304
 20
127.781150
 30
0.0
 10
-53.103137
 20
127.604761
 30
0.0
 10
-53.843970
 20
127.534206
 30
0.0
  0
LWPOLYLINE
  5
10e
100
AcDbEntity
  8
Layer_1
 62
7
100
AcDbPolyline
 90
42
 70
1
 10
-18.848416
 20
162.529761
 30
0.0
 10
-18.918971
 20
161.788927
 30
0.0
 10
-19.095360
 20
161.012816
 30
0.0
 10
-19.377582
 20
160.307261
 30
0.0
 10
-19.765638
 20
159.672261
 30
0.0
 10
-20.259527
 20
159.072538
 30
0.0
 10
-20.823971
 20
158.543372
 30
0.0
 10
-21.458971
 20
158.155316
 30
0.0
 10
-22.164527
 20
157.837816
 30
0.0
 10
-22.905360
 20
157.626150
 30
0.0
 10
-23.646193
 20
157.555594
 30
0.0
 10
-24.422304
 20
157.555594
 30
0.0
 10
-25.163138
 20
157.696705
 30
0.0
 10
-25.903971
 20
157.978927
 30
0.0
 10
-26.574249
 20
158.331705
 30
0.0
 10
-27.173971
 20
158.790316
 30
0.0
 10
-27.703138
 20
159.354761
 30
0.0
 10
-28.161749
 20
159.989761
 30
0.0
 10
-28.479249
 20
160.660038
 30
0.0
 10
-28.726193
 20
161.400872
 30
0.0
 10
-28.832027
 20
162.141705
 30
0.0
 10
-28.832027
 20
162.917816
 30
0.0
 10
-28.726193
 20
163.658649
 30
0.0
 10
-28.479249
 20
164.399483
 30
0.0
 10
-28.161749
 20
165.105038
 30
0.0
 10
-27.703138
 20
165.704761
 30
0.0
 10
-27.173971
 20
166.269205
 30
0.0
 10
-26.574249
 20
166.727816
 30
0.0
 10
-25.903971
 20
167.080594
 30
0.0
 10
-25.163138
 20
167.362816
 30
0.0
 10
-24.422304
 20
167.503927
 30
0.0
 10
-23.646193
 20
167.539205
 30
0.0
 10
-22.905360
 20
167.433372
 30
0.0
 10
-22.164527
 20
167.256983
 30
0.0
 10
-21.458971
 20
166.939483
 30
0.0
 10
-20.823971
 20
166.516149
 30
0.0
 10
-20.259527
 20
165.986983
 30
0.0
 10
-19.765638
 20
165.422538
 30
0.0
 10
-19.377582
 20
164.752261
 30
0.0
 10
-19.095360
 20
164.046705
 30
0.0
 10
-18.918971
 20
163.305872
 30
0.0
 10
-18.848416
 20
162.529761
 30
0.0
  0
LWPOLYLINE
  5
10f
100
AcDbEntity
  8
Layer_1
 62
7
100
AcDbPolyline
 90
70
 70
1
 10
-53.843970
 20
176.288094
 30
0.0
 10
-52.609248
 20
176.217538
 30
0.0
 10
-51.374526
 20
176.041149
 30
0.0
 10
-50.139804
 20
175.758927
 30
0.0
 10
-48.940359
 20
175.370871
 30
0.0
 10
-47.811471
 20
174.876983
 30
0.0
 10
-46.717859
 20
174.277260
 30
0.0
 10
-45.659526
 20
173.571705
 30
0.0
 10
-44.707026
 20
172.795594
 30
0.0
 10
-43.789804
 20
171.913649
 30
0.0
 10
-42.978415
 20
170.961149
 30
0.0
 10
-42.272860
 20
169.938094
 30
0.0
 10
-41.637860
 20
168.844483
 30
0.0
 10
-41.108693
 20
167.715594
 30
0.0
 10
-40.685360
 20
166.551427
 30
0.0
 10
-40.403137
 20
165.316705
 30
0.0
 10
-40.191471
 20
164.081983
 30
0.0
 10
-40.120915
 20
162.847261
 30
0.0
 10
-40.120915
 20
161.612538
 30
0.0
 10
-40.262026
 20
160.342538
 30
0.0
 10
-40.544248
 20
159.143094
 30
0.0
 10
-40.897026
 20
157.943650
 30
0.0
 10
-41.355637
 20
156.779483
 30
0.0
 10
-41.955360
 20
155.650594
 30
0.0
 10
-42.625637
 20
154.592261
 30
0.0
 10
-43.401748
 20
153.604483
 30
0.0
 10
-44.248415
 20
152.687261
 30
0.0
 10
-45.165637
 20
151.875872
 30
0.0
 10
-46.188693
 20
151.135039
 30
0.0
 10
-47.247026
 20
150.464761
 30
0.0
 10
-48.375915
 20
149.935594
 30
0.0
 10
-49.540082
 20
149.476983
 30
0.0
 10
-50.739526
 20
149.124205
 30
0.0
 10
-51.974248
 20
148.912539
 30
0.0
 10
-53.244248
 20
148.806705
 30
0.0
 10
-54.478970
 20
148.806705
 30
0.0
 10
-55.713693
 20
148.912539
 30
0.0
 10
-56.948415
 20
149.124205
 30
0.0
 10
-58.147859
 20
149.476983
 30
0.0
 10
-59.347304
 20
149.935594
 30
0.0
 10
-60.440915
 20
150.464761
 30
0.0
 10
-61.534526
 20
151.135039
 30
0.0
 10
-62.522304
 20
151.875872
 30
0.0
 10
-63.474804
 20
152.687261
 30
0.0
 10
-64.321470
 20
153.604483
 30
0.0
 10
-65.097581
 20
154.592261
 30
0.0
 10
-65.767859
 20
155.650594
 30
0.0
 10
-66.332303
 20
156.779483
 30
0.0
 10
-66.826192
 20
157.943650
 30
0.0
 10
-67.178970
 20
159.143094
 30
0.0
 10
-67.425915
 20
160.342538
 30
0.0
 10
-67.567026
 20
161.612538
 30
0.0
 10
-67.602303
 20
162.847261
 30
0.0
 10
-67.531748
 20
164.081983
 30
0.0
 10
-67.320081
 20
165.316705
 30
0.0
 10
-67.002581
 20
166.551427
 30
0.0
 10
-66.579248
 20
167.715594
 30
0.0
 10
-66.050081
 20
168.844483
 30
0.0
 10
-65.450359
 20
169.938094
 30
0.0
 10
-64.709526
 20
170.961149
 30
0.0
 10
-63.898137
 20
171.913649
 30
0.0
 10
-63.016192
 20
172.795594
 30
0.0
 10
-62.028415
 20
173.571705
 30
0.0
 10
-61.005359
 20
174.277260
 30
0.0
 10
-59.911748
 20
174.876983
 30
0.0
 10
-58.747581
 20
175.370871
 30
0.0
 10
-57.548137
 20
175.758927
 30
0.0
 10
-56.348693
 20
176.041149
 30
0.0
 10
-55.113970
 20
176.217538
 30
0.0
 10
-53.843970
 20
176.288094
 30
0.0
  0
LWPOLYLINE
  5
110
100
AcDbEntity
  8
Layer_1
 62
7
100
AcDbPolyline
 90
42
 70
1
 10
-53.843970
 20
197.525315
 30
0.0
 10
-53.103137
 20
197.490038
 30
0.0
 10
-52.362304
 20
197.313649
 30
0.0
 10
-51.621470
 20
197.031427
 30
0.0
 10
-50.986470
 20
196.608093
 30
0.0
 10
-50.386748
 20
196.149482
 30
0.0
 10
-49.892859
 20
195.549760
 30
0.0
 10
-49.469526
 20
194.914760
 30
0.0
 10
-49.152026
 20
194.209204
 30
0.0
 10
-48.940359
 20
193.503649
 30
0.0
 10
-48.869804
 20
192.727538
 30
0.0
 10
-48.869804
 20
191.951427
 30
0.0
 10
-49.046193
 20
191.210593
 30
0.0
 10
-49.293137
 20
190.505038
 30
0.0
 10
-49.645915
 20
189.799482
 30
0.0
 10
-50.104526
 20
189.199760
 30
0.0
 10
-50.668970
 20
188.670593
 30
0.0
 10
-51.303970
 20
188.247260
 30
0.0
 10
-51.974248
 20
187.894482
 30
0.0
 10
-52.715082
 20
187.682816
 30
0.0
 10
-53.455915
 20
187.541704
 30
0.0
 10
-54.232026
 20
187.541704
 30
0.0
 10
-55.008137
 20
187.682816
 30
0.0
 10
-55.713693
 20
187.894482
 30
0.0
 10
-56.419248
 20
188.247260
 30
0.0
 10
-57.018970
 20
188.670593
 30
0.0
 10
-57.583415
 20
189.199760
 30
0.0
 10
-58.042026
 20
189.799482
 30
0.0
 10
-58.430081
 20
190.505038
 30
0.0
 10
-58.677026
 20
191.210593
 30
0.0
 10
-58.818137
 20
191.951427
 30
0.0
 10
-58.853415
 20
192.727538
 30
0.0
 10
-58.747581
 20
193.503649
 30
0.0
 10
-58.571193
 20
194.209204
 30
0.0
 10
-58.253693
 20
194.914760
 30
0.0
 10
-57.830359
 20
195.549760
 30
0.0
 10
-57.336470
 20
196.149482
 30
0.0
 10
-56.736748
 20
196.608093
 30
0.0
 10
-56.066470
 20
197.031427
 30
0.0
 10
-55.360915
 20
197.313649
 30
0.0
 10
-54.620082
 20
197.490038
 30
0.0
 10
-53.843970
 20
197.525315
 30
0.0
  0
LWPOLYLINE
  5
111
100
AcDbEntity
  8
Layer_1
 62
7
100
AcDbPolyline
 90
28
 70
0
 10
-26.503693
 20
191.704482
 30
0.0
 10
-24.916193
 20
190.152260
 30
0.0
 10
-23.469804
 20
188.529482
 30
0.0
 10
-22.058693
 20
186.836149
 30
0.0
 10
-20.788693
 20
185.036982
 30
0.0
 10
-19.589249
 20
183.202538
 30
0.0
 10
-18.530916
 20
181.297538
 30
0.0
 10
-17.543138
 20
179.321982
 30
0.0
 10
-16.661193
 20
177.275871
 30
0.0
 10
-15.920360
 20
175.229760
 30
0.0
 10
-15.285360
 20
173.113094
 30
0.0
 10
-14.756194
 20
170.996427
 30
0.0
 10
-14.368138
 20
168.844483
 30
0.0
 10
-14.050638
 20
166.657261
 30
0.0
 10
-13.909527
 20
164.470038
 30
0.0
 10
-13.838971
 20
162.282816
 30
0.0
 10
-13.944805
 20
160.060316
 30
0.0
 10
-14.121194
 20
157.873094
 30
0.0
 10
-14.438694
 20
155.721150
 30
0.0
 10
-14.862027
 20
153.569205
 30
0.0
 10
-15.426471
 20
151.417261
 30
0.0
 10
-16.096749
 20
149.335872
 30
0.0
 10
-16.872860
 20
147.289761
 30
0.0
 10
-17.754805
 20
145.278928
 30
0.0
 10
-18.777860
 20
143.303372
 30
0.0
 10
-19.871471
 20
141.433650
 30
0.0
 10
-21.106193
 20
139.599206
 30
0.0
 10
-22.411471
 20
137.835317
 30
0.0
  0
LWPOLYLINE
  5
112
100
AcDbEntity
  8
Layer_1
 62
7
100
AcDbPolyline
 90
42
 70
1
 10
-88.839525
 20
162.529761
 30
0.0
 10
-88.804247
 20
163.305872
 30
0.0
 10
-88.627859
 20
164.046705
 30
0.0
 10
-88.345636
 20
164.752261
 30
0.0
 10
-87.957581
 20
165.422538
 30
0.0
 10
-87.463692
 20
165.986983
 30
0.0
 10
-86.899247
 20
166.516149
 30
0.0
 10
-86.228970
 20
166.939483
 30
0.0
 10
-85.558692
 20
167.256983
 30
0.0
 10
-84.817859
 20
167.433372
 30
0.0
 10
-84.041748
 20
167.539205
 30
0.0
 10
-83.265636
 20
167.503927
 30
0.0
 10
-82.524803
 20
167.362816
 30
0.0
 10
-81.819248
 20
167.080594
 30
0.0
 10
-81.148970
 20
166.727816
 30
0.0
 10
-80.513970
 20
166.269205
 30
0.0
 10
-79.984803
 20
165.704761
 30
0.0
 10
-79.561470
 20
165.105038
 30
0.0
 10
-79.208692
 20
164.399483
 30
0.0
 10
-78.997025
 20
163.658649
 30
0.0
 10
-78.855914
 20
162.917816
 30
0.0
 10
-78.855914
 20
162.141705
 30
0.0
 10
-78.997025
 20
161.400872
 30
0.0
 10
-79.208692
 20
160.660038
 30
0.0
 10
-79.561470
 20
159.989761
 30
0.0
 10
-79.984803
 20
159.354761
 30
0.0
 10
-80.513970
 20
158.790316
 30
0.0
 10
-81.148970
 20
158.331705
 30
0.0
 10
-81.819248
 20
157.978927
 30
0.0
 10
-82.524803
 20
157.696705
 30
0.0
 10
-83.265636
 20
157.555594
 30
0.0
 10
-84.041748
 20
157.555594
 30
0.0
 10
-84.817859
 20
157.626150
 30
0.0
 10
-85.558692
 20
157.837816
 30
0.0
 10
-86.228970
 20
158.155316
 30
0.0
 10
-86.899247
 20
158.543372
 30
0.0
 10
-87.463692
 20
159.072538
 30
0.0
 10
-87.957581
 20
159.672261
 30
0.0
 10
-88.345636
 20
160.307261
 30
0.0
 10
-88.627859
 20
161.012816
 30
0.0
 10
-88.804247
 20
161.788927
 30
0.0
 10
-88.839525
 20
162.529761
 30
0.0
  0
LWPOLYLINE
  5
113
100
AcDbEntity
  8
Layer_1
 62
7
100
AcDbPolyline
 90
2
 70
0
 10
-81.219525
 20
133.355039
 30
0.0
 10
-77.656470
 20
137.517817
 30
0.0
  0
LWPOLYLINE
  5
114
100
AcDbEntity
  8
Layer_1
 62
7
100
AcDbPolyline
 90
28
 70
0
 10
-83.018692
 20
189.905316
 30
0.0
 10
-81.466470
 20
191.457538
 30
0.0
 10
-79.843692
 20
192.939204
 30
0.0
 10
-78.150359
 20
194.315038
 30
0.0
 10
-76.351192
 20
195.585038
 30
0.0
 10
-74.516748
 20
196.784482
 30
0.0
 10
-72.611748
 20
197.878093
 30
0.0
 10
-70.636192
 20
198.830593
 30
0.0
 10
-68.625359
 20
199.712538
 30
0.0
 10
-66.543970
 20
200.453371
 30
0.0
 10
-64.462581
 20
201.123649
 30
0.0
 10
-62.310637
 20
201.617538
 30
0.0
 10
-60.158693
 20
202.040871
 30
0.0
 10
-57.971470
 20
202.323093
 30
0.0
 10
-55.784248
 20
202.499482
 30
0.0
 10
-53.597026
 20
202.534760
 30
0.0
 10
-51.374526
 20
202.464204
 30
0.0
 10
-49.187304
 20
202.252538
 30
0.0
 10
-47.035359
 20
201.935038
 30
0.0
 10
-44.883415
 20
201.511704
 30
0.0
 10
-42.731471
 20
200.947260
 30
0.0
 10
-40.650082
 20
200.276982
 30
0.0
 10
-38.603971
 20
199.500871
 30
0.0
 10
-36.593137
 20
198.618926
 30
0.0
 10
-34.652860
 20
197.631149
 30
0.0
 10
-32.747860
 20
196.502260
 30
0.0
 10
-30.913415
 20
195.302815
 30
0.0
 10
-29.149527
 20
193.997538
 30
0.0
  0
ENDSEC
  0
SECTION
  2
OBJECTS
  0
DICTIONARY
  5
C
330
0
100
AcDbDictionary
  3
ACAD_GROUP
350
D
  3
ACAD_MLINESTYLE
350
17
  0
DICTIONARY
  5
D
330
C
100
AcDbDictionary
  0
DICTIONARY
  5
1A
330
C
100
AcDbDictionary
  0
DICTIONARY
  5
17
330
C
100
AcDbDictionary
  3
STANDARD
350
18
  0
DICTIONARY
  5
19
330
C
100
AcDbDictionary
  0
ENDSEC
  0
EOF
