  0
SECTION
  2
HEADER
  9
$ACADVER
  1
AC1014
  9
$HANDSEED
  5
FFFF
  9
$MEASUREMENT
 70
     1
  0
ENDSEC
  0
SECTION
  2
TABLES
  0
TABLE
  2
VPORT
  5
8
330
0
100
AcDbSymbolTable
 70
     4
  0
VPORT
  5
2E
330
8
100
AcDbSymbolTableRecord
100
AcDbViewportTableRecord
  2
*ACTIVE
 70
     0
 10
0.0
 20
0.0
 11
1.0
 21
1.0
 12
210.0
 22
148.5
 13
0.0
 23
0.0
 14
10.0
 24
10.0
 15
10.0
 25
10.0
 16
0.0
 26
0.0
 36
1.0
 17
0.0
 27
0.0
 37
0.0
 40
341.0
 41
1.24
 42
50.0
 43
0.0
 44
0.0
 50
0.0
 51
0.0
 71
     0
 72
   100
 73
     1
 74
     3
 75
     0
 76
     0
 77
     0
 78
     0
  0
ENDTAB
  0
TABLE
  2
LTYPE
  5
5
330
0
100
AcDbSymbolTable
 70
     1
  0
LTYPE
  5
14
330
5
100
AcDbSymbolTableRecord
100
AcDbLinetypeTableRecord
  2
BYBLOCK
 70
     0
  3

 72
    65
 73
     0
 40
0.0
  0
LTYPE
  5
15
330
5
100
AcDbSymbolTableRecord
100
AcDbLinetypeTableRecord
  2
BYLAYER
 70
     0
  3

 72
    65
 73
     0
 40
0.0
  0
LTYPE
  5
16
330
5
100
AcDbSymbolTableRecord
100
AcDbLinetypeTableRecord
  2
CONTINUOUS
 70
     0
  3
Solid line
 72
    65
 73
     0
 40
0.0
  0
ENDTAB
  0
TABLE
  2
LAYER
  5
2
100
AcDbSymbolTable
 70
2
  0
LAYER
  5
50
100
AcDbSymbolTableRecord
100
AcDbLayerTableRecord
  2
0
 70
0
  6
CONTINUOUS
  0
LAYER
  5
51
100
AcDbSymbolTableRecord
100
AcDbLayerTableRecord
  2
Layer_1
 70
0
  6
CONTINUOUS
  0
ENDTAB
  0
TABLE
  2
STYLE
  5
3
330
0
100
AcDbSymbolTable
 70
     1
  0
STYLE
  5
11
330
3
100
AcDbSymbolTableRecord
100
AcDbTextStyleTableRecord
  2
STANDARD
 70
     0
 40
0.0
 41
1.0
 50
0.0
 71
     0
 42
2.5
  3
txt
  4

  0
ENDTAB
  0
TABLE
  2
VIEW
  5
6
330
0
100
AcDbSymbolTable
 70
     0
  0
ENDTAB
  0
TABLE
  2
UCS
  5
7
330
0
100
AcDbSymbolTable
 70
     0
  0
ENDTAB
  0
TABLE
  2
APPID
  5
9
330
0
100
AcDbSymbolTable
 70
     2
  0
APPID
  5
12
330
9
100
AcDbSymbolTableRecord
100
AcDbRegAppTableRecord
  2
ACAD
 70
     0
  0
ENDTAB
  0
TABLE
  2
DIMSTYLE
  5
A
330
0
100
AcDbSymbolTable
 70
     1
  0
DIMSTYLE
105
27
330
A
100
AcDbSymbolTableRecord
100
AcDbDimStyleTableRecord
  2
ISO-25
 70
     0
  3

  4

  5

  6

  7

 40
1.0
 41
2.5
 42
0.625
 43
3.75
 44
1.25
 45
0.0
 46
0.0
 47
0.0
 48
0.0
140
2.5
141
2.5
142
0.0
143
0.03937007874016
144
1.0
145
0.0
146
1.0
147
0.625
 71
     0
 72
     0
 73
     0
 74
     0
 75
     0
 76
     0
 77
     1
 78
     8
170
     0
171
     3
172
     1
173
     0
174
     0
175
     0
176
     0
177
     0
178
     0
270
     2
271
     2
272
     2
273
     2
274
     3
340
11
275
     0
280
     0
281
     0
282
     0
283
     0
284
     8
285
     0
286
     0
287
     3
288
     0
  0
ENDTAB
  0
TABLE
  2
BLOCK_RECORD
  5
1
330
0
100
AcDbSymbolTable
 70
     1
  0
BLOCK_RECORD
  5
1F
330
1
100
AcDbSymbolTableRecord
100
AcDbBlockTableRecord
  2
*MODEL_SPACE
  0
BLOCK_RECORD
  5
1B
330
1
100
AcDbSymbolTableRecord
100
AcDbBlockTableRecord
  2
*PAPER_SPACE
  0
ENDTAB
  0
ENDSEC
  0
SECTION
  2
BLOCKS
  0
BLOCK
  5
20
330
1F
100
AcDbEntity
  8
0
100
AcDbBlockBegin
  2
*MODEL_SPACE
 70
     0
 10
0.0
 20
0.0
 30
0.0
  3
*MODEL_SPACE
  1

  0
ENDBLK
  5
21
330
1F
100
AcDbEntity
  8
0
100
AcDbBlockEnd
  0
BLOCK
  5
1C
330
1B
100
AcDbEntity
 67
     1
  8
0
100
AcDbBlockBegin
  2
*PAPER_SPACE
  1

  0
ENDBLK
  5
1D
330
1B
100
AcDbEntity
 67
     1
  8
0
100
AcDbBlockEnd
  0
ENDSEC
  0
SECTION
  2
ENTITIES
  0
LWPOLYLINE
  5
100
100
AcDbEntity
  8
Layer_1
 62
7
100
AcDbPolyline
 90
9
 70
0
 10
-364.699860
 20
233.282825
 30
0.0
 10
-365.334860
 20
232.965325
 30
0.0
 10
-365.899304
 20
232.541992
 30
0.0
 10
-366.393193
 20
232.012825
 30
0.0
 10
-366.816527
 20
231.448381
 30
0.0
 10
-367.169304
 20
230.813381
 30
0.0
 10
-367.416249
 20
230.143103
 30
0.0
 10
-367.557360
 20
229.472825
 30
0.0
 10
-367.627915
 20
228.767270
 30
0.0
  0
LWPOLYLINE
  5
101
100
AcDbEntity
  8
Layer_1
 62
7
100
AcDbPolyline
 90
15
 70
0
 10
-314.534861
 20
239.703380
 30
0.0
 10
-315.205139
 20
239.950325
 30
0.0
 10
-315.910694
 20
240.126714
 30
0.0
 10
-316.616250
 20
240.161992
 30
0.0
 10
-317.321805
 20
240.126714
 30
0.0
 10
-318.027361
 20
239.985603
 30
0.0
 10
-318.697639
 20
239.703380
 30
0.0
 10
-319.332639
 20
239.385880
 30
0.0
 10
-319.897083
 20
238.962547
 30
0.0
 10
-320.390972
 20
238.433380
 30
0.0
 10
-320.814305
 20
237.868936
 30
0.0
 10
-321.167083
 20
237.233936
 30
0.0
 10
-321.414028
 20
236.563658
 30
0.0
 10
-321.590417
 20
235.893381
 30
0.0
 10
-321.625694
 20
235.152547
 30
0.0
  0
LWPOLYLINE
  5
102
100
AcDbEntity
  8
Layer_1
 62
7
100
AcDbPolyline
 90
9
 70
0
 10
-297.636806
 20
228.767270
 30
0.0
 10
-297.672084
 20
229.472825
 30
0.0
 10
-297.813195
 20
230.143103
 30
0.0
 10
-298.060139
 20
230.813381
 30
0.0
 10
-298.412917
 20
231.448381
 30
0.0
 10
-298.836250
 20
232.012825
 30
0.0
 10
-299.330139
 20
232.541992
 30
0.0
 10
-299.929861
 20
232.965325
 30
0.0
 10
-300.529584
 20
233.282825
 30
0.0
  0
LWPOLYLINE
  5
103
100
AcDbEntity
  8
Layer_1
 62
7
100
AcDbPolyline
 90
12
 70
0
 10
-302.610972
 20
181.953659
 30
0.0
 10
-301.905417
 20
182.024215
 30
0.0
 10
-301.199861
 20
182.165326
 30
0.0
 10
-300.564861
 20
182.412271
 30
0.0
 10
-299.929861
 20
182.765048
 30
0.0
 10
-299.365417
 20
183.188382
 30
0.0
 10
-298.836250
 20
183.682271
 30
0.0
 10
-298.412917
 20
184.246715
 30
0.0
 10
-298.060139
 20
184.881715
 30
0.0
 10
-297.813195
 20
185.551993
 30
0.0
 10
-297.672084
 20
186.257548
 30
0.0
 10
-297.636806
 20
186.963104
 30
0.0
  0
LWPOLYLINE
  5
104
100
AcDbEntity
  8
Layer_1
 62
7
100
AcDbPolyline
 90
12
 70
0
 10
-367.627915
 20
186.963104
 30
0.0
 10
-367.557360
 20
186.257548
 30
0.0
 10
-367.416249
 20
185.551993
 30
0.0
 10
-367.169304
 20
184.881715
 30
0.0
 10
-366.816527
 20
184.246715
 30
0.0
 10
-366.393193
 20
183.682271
 30
0.0
 10
-365.899304
 20
183.188382
 30
0.0
 10
-365.334860
 20
182.765048
 30
0.0
 10
-364.699860
 20
182.412271
 30
0.0
 10
-364.029582
 20
182.165326
 30
0.0
 10
-363.324027
 20
182.024215
 30
0.0
 10
-362.618471
 20
181.953659
 30
0.0
  0
LWPOLYLINE
  5
105
100
AcDbEntity
  8
Layer_1
 62
7
100
AcDbPolyline
 90
15
 70
0
 10
-343.639027
 20
235.152547
 30
0.0
 10
-343.674305
 20
235.893381
 30
0.0
 10
-343.815416
 20
236.563658
 30
0.0
 10
-344.062360
 20
237.233936
 30
0.0
 10
-344.415138
 20
237.868936
 30
0.0
 10
-344.838472
 20
238.433380
 30
0.0
 10
-345.367638
 20
238.962547
 30
0.0
 10
-345.932083
 20
239.385880
 30
0.0
 10
-346.567083
 20
239.703380
 30
0.0
 10
-347.237360
 20
239.985603
 30
0.0
 10
-347.907638
 20
240.126714
 30
0.0
 10
-348.613194
 20
240.161992
 30
0.0
 10
-349.354027
 20
240.126714
 30
0.0
 10
-350.024305
 20
239.950325
 30
0.0
 10
-350.694583
 20
239.703380
 30
0.0
  0
LWPOLYLINE
  5
106
100
AcDbEntity
  8
Layer_1
 62
7
100
AcDbPolyline
 90
2
 70
0
 10
-297.636806
 20
186.963104
 30
0.0
 10
-297.636806
 20
228.767270
 30
0.0
  0
LWPOLYLINE
  5
107
100
AcDbEntity
  8
Layer_1
 62
7
100
AcDbPolyline
 90
2
 70
0
 10
-300.529584
 20
233.282825
 30
0.0
 10
-314.534861
 20
239.703380
 30
0.0
  0
LWPOLYLINE
  5
108
100
AcDbEntity
  8
Layer_1
 62
7
100
AcDbPolyline
 90
37
 70
0
 10
-321.625694
 20
235.152547
 30
0.0
 10
-321.625694
 20
231.977547
 30
0.0
 10
-321.660972
 20
230.954492
 30
0.0
 10
-321.802083
 20
229.931436
 30
0.0
 10
-322.049028
 20
228.943658
 30
0.0
 10
-322.366528
 20
227.991158
 30
0.0
 10
-322.789861
 20
227.073936
 30
0.0
 10
-323.283750
 20
226.156714
 30
0.0
 10
-323.848194
 20
225.345325
 30
0.0
 10
-324.483194
 20
224.533936
 30
0.0
 10
-325.224028
 20
223.828381
 30
0.0
 10
-326.000139
 20
223.193381
 30
0.0
 10
-326.846805
 20
222.593659
 30
0.0
 10
-327.728750
 20
222.099770
 30
0.0
 10
-328.645972
 20
221.711714
 30
0.0
 10
-329.598472
 20
221.394214
 30
0.0
 10
-330.586250
 20
221.147270
 30
0.0
 10
-331.609305
 20
221.006159
 30
0.0
 10
-332.632361
 20
220.970881
 30
0.0
 10
-333.655416
 20
221.006159
 30
0.0
 10
-334.643194
 20
221.147270
 30
0.0
 10
-335.630972
 20
221.394214
 30
0.0
 10
-336.583472
 20
221.711714
 30
0.0
 10
-337.535972
 20
222.099770
 30
0.0
 10
-338.417916
 20
222.593659
 30
0.0
 10
-339.264583
 20
223.193381
 30
0.0
 10
-340.040694
 20
223.828381
 30
0.0
 10
-340.746249
 20
224.533936
 30
0.0
 10
-341.416527
 20
225.345325
 30
0.0
 10
-341.980972
 20
226.156714
 30
0.0
 10
-342.474860
 20
227.073936
 30
0.0
 10
-342.898194
 20
227.991158
 30
0.0
 10
-343.215694
 20
228.943658
 30
0.0
 10
-343.427360
 20
229.931436
 30
0.0
 10
-343.568472
 20
230.954492
 30
0.0
 10
-343.639027
 20
231.977547
 30
0.0
 10
-343.639027
 20
235.152547
 30
0.0
  0
LWPOLYLINE
  5
109
100
AcDbEntity
  8
Layer_1
 62
7
100
AcDbPolyline
 90
2
 70
0
 10
-350.694583
 20
239.703380
 30
0.0
 10
-364.699860
 20
233.282825
 30
0.0
  0
LWPOLYLINE
  5
10a
100
AcDbEntity
  8
Layer_1
 62
7
100
AcDbPolyline
 90
2
 70
0
 10
-367.627915
 20
228.767270
 30
0.0
 10
-367.627915
 20
186.963104
 30
0.0
  0
LWPOLYLINE
  5
10b
100
AcDbEntity
  8
Layer_1
 62
7
100
AcDbPolyline
 90
2
 70
0
 10
-362.618471
 20
181.953659
 30
0.0
 10
-302.610972
 20
181.953659
 30
0.0
  0
ENDSEC
  0
SECTION
  2
OBJECTS
  0
DICTIONARY
  5
C
330
0
100
AcDbDictionary
  3
ACAD_GROUP
350
D
  3
ACAD_MLINESTYLE
350
17
  0
DICTIONARY
  5
D
330
C
100
AcDbDictionary
  0
DICTIONARY
  5
1A
330
C
100
AcDbDictionary
  0
DICTIONARY
  5
17
330
C
100
AcDbDictionary
  3
STANDARD
350
18
  0
DICTIONARY
  5
19
330
C
100
AcDbDictionary
  0
ENDSEC
  0
EOF
