  0
SECTION
  2
HEADER
  9
$ACADVER
  1
AC1014
  9
$HANDSEED
  5
FFFF
  9
$MEASUREMENT
 70
     1
  0
ENDSEC
  0
SECTION
  2
TABLES
  0
TABLE
  2
VPORT
  5
8
330
0
100
AcDbSymbolTable
 70
     4
  0
VPORT
  5
2E
330
8
100
AcDbSymbolTableRecord
100
AcDbViewportTableRecord
  2
*ACTIVE
 70
     0
 10
0.0
 20
0.0
 11
1.0
 21
1.0
 12
210.0
 22
148.5
 13
0.0
 23
0.0
 14
10.0
 24
10.0
 15
10.0
 25
10.0
 16
0.0
 26
0.0
 36
1.0
 17
0.0
 27
0.0
 37
0.0
 40
341.0
 41
1.24
 42
50.0
 43
0.0
 44
0.0
 50
0.0
 51
0.0
 71
     0
 72
   100
 73
     1
 74
     3
 75
     0
 76
     0
 77
     0
 78
     0
  0
ENDTAB
  0
TABLE
  2
LTYPE
  5
5
330
0
100
AcDbSymbolTable
 70
     1
  0
LTYPE
  5
14
330
5
100
AcDbSymbolTableRecord
100
AcDbLinetypeTableRecord
  2
BYBLOCK
 70
     0
  3

 72
    65
 73
     0
 40
0.0
  0
LTYPE
  5
15
330
5
100
AcDbSymbolTableRecord
100
AcDbLinetypeTableRecord
  2
BYLAYER
 70
     0
  3

 72
    65
 73
     0
 40
0.0
  0
LTYPE
  5
16
330
5
100
AcDbSymbolTableRecord
100
AcDbLinetypeTableRecord
  2
CONTINUOUS
 70
     0
  3
Solid line
 72
    65
 73
     0
 40
0.0
  0
ENDTAB
  0
TABLE
  2
LAYER
  5
2
100
AcDbSymbolTable
 70
2
  0
LAYER
  5
50
100
AcDbSymbolTableRecord
100
AcDbLayerTableRecord
  2
0
 70
0
  6
CONTINUOUS
  0
LAYER
  5
51
100
AcDbSymbolTableRecord
100
AcDbLayerTableRecord
  2
Layer_1
 70
0
  6
CONTINUOUS
  0
ENDTAB
  0
TABLE
  2
STYLE
  5
3
330
0
100
AcDbSymbolTable
 70
     1
  0
STYLE
  5
11
330
3
100
AcDbSymbolTableRecord
100
AcDbTextStyleTableRecord
  2
STANDARD
 70
     0
 40
0.0
 41
1.0
 50
0.0
 71
     0
 42
2.5
  3
txt
  4

  0
ENDTAB
  0
TABLE
  2
VIEW
  5
6
330
0
100
AcDbSymbolTable
 70
     0
  0
ENDTAB
  0
TABLE
  2
UCS
  5
7
330
0
100
AcDbSymbolTable
 70
     0
  0
ENDTAB
  0
TABLE
  2
APPID
  5
9
330
0
100
AcDbSymbolTable
 70
     2
  0
APPID
  5
12
330
9
100
AcDbSymbolTableRecord
100
AcDbRegAppTableRecord
  2
ACAD
 70
     0
  0
ENDTAB
  0
TABLE
  2
DIMSTYLE
  5
A
330
0
100
AcDbSymbolTable
 70
     1
  0
DIMSTYLE
105
27
330
A
100
AcDbSymbolTableRecord
100
AcDbDimStyleTableRecord
  2
ISO-25
 70
     0
  3

  4

  5

  6

  7

 40
1.0
 41
2.5
 42
0.625
 43
3.75
 44
1.25
 45
0.0
 46
0.0
 47
0.0
 48
0.0
140
2.5
141
2.5
142
0.0
143
0.03937007874016
144
1.0
145
0.0
146
1.0
147
0.625
 71
     0
 72
     0
 73
     0
 74
     0
 75
     0
 76
     0
 77
     1
 78
     8
170
     0
171
     3
172
     1
173
     0
174
     0
175
     0
176
     0
177
     0
178
     0
270
     2
271
     2
272
     2
273
     2
274
     3
340
11
275
     0
280
     0
281
     0
282
     0
283
     0
284
     8
285
     0
286
     0
287
     3
288
     0
  0
ENDTAB
  0
TABLE
  2
BLOCK_RECORD
  5
1
330
0
100
AcDbSymbolTable
 70
     1
  0
BLOCK_RECORD
  5
1F
330
1
100
AcDbSymbolTableRecord
100
AcDbBlockTableRecord
  2
*MODEL_SPACE
  0
BLOCK_RECORD
  5
1B
330
1
100
AcDbSymbolTableRecord
100
AcDbBlockTableRecord
  2
*PAPER_SPACE
  0
ENDTAB
  0
ENDSEC
  0
SECTION
  2
BLOCKS
  0
BLOCK
  5
20
330
1F
100
AcDbEntity
  8
0
100
AcDbBlockBegin
  2
*MODEL_SPACE
 70
     0
 10
0.0
 20
0.0
 30
0.0
  3
*MODEL_SPACE
  1

  0
ENDBLK
  5
21
330
1F
100
AcDbEntity
  8
0
100
AcDbBlockEnd
  0
BLOCK
  5
1C
330
1B
100
AcDbEntity
 67
     1
  8
0
100
AcDbBlockBegin
  2
*PAPER_SPACE
  1

  0
ENDBLK
  5
1D
330
1B
100
AcDbEntity
 67
     1
  8
0
100
AcDbBlockEnd
  0
ENDSEC
  0
SECTION
  2
ENTITIES
  0
LWPOLYLINE
  5
100
100
AcDbEntity
  8
Layer_1
 62
7
100
AcDbPolyline
 90
23
 70
1
 10
124.964709
 20
145.033858
 30
0.0
 10
123.624044
 20
144.822239
 30
0.0
 10
122.353927
 20
144.257899
 30
0.0
 10
121.295504
 20
143.411396
 30
0.0
 10
120.519328
 20
142.282737
 30
0.0
 10
120.095963
 20
141.012980
 30
0.0
 10
120.025403
 20
139.672680
 30
0.0
 10
120.237086
 20
138.332397
 30
0.0
 10
120.872136
 20
137.133178
 30
0.0
 10
121.860003
 20
136.145599
 30
0.0
 10
122.988988
 20
135.440178
 30
0.0
 10
124.329664
 20
135.016940
 30
0.0
 10
125.670334
 20
135.016940
 30
0.0
 10
127.011012
 20
135.440178
 30
0.0
 10
128.139989
 20
136.145599
 30
0.0
 10
129.057299
 20
137.133178
 30
0.0
 10
129.692350
 20
138.332397
 30
0.0
 10
129.974599
 20
139.672680
 30
0.0
 10
129.904038
 20
141.012980
 30
0.0
 10
129.410111
 20
142.282737
 30
0.0
 10
128.633934
 20
143.411396
 30
0.0
 10
127.575511
 20
144.257899
 30
0.0
 10
126.305395
 20
144.822239
 30
0.0
  0
LWPOLYLINE
  5
101
100
AcDbEntity
  8
Layer_1
 62
7
100
AcDbPolyline
 90
23
 70
1
 10
150.014115
 20
170.005641
 30
0.0
 10
150.155235
 20
168.665341
 30
0.0
 10
150.719727
 20
167.395600
 30
0.0
 10
151.566465
 20
166.337479
 30
0.0
 10
152.695450
 20
165.561498
 30
0.0
 10
153.965561
 20
165.138260
 30
0.0
 10
155.306231
 20
164.997258
 30
0.0
 10
156.646906
 20
165.279421
 30
0.0
 10
157.846451
 20
165.914299
 30
0.0
 10
158.834317
 20
166.831339
 30
0.0
 10
159.539929
 20
168.030558
 30
0.0
 10
159.963302
 20
169.300320
 30
0.0
 10
159.963302
 20
170.711137
 30
0.0
 10
159.539929
 20
171.980898
 30
0.0
 10
158.834317
 20
173.180096
 30
0.0
 10
157.846451
 20
174.097136
 30
0.0
 10
156.646906
 20
174.732020
 30
0.0
 10
155.306231
 20
175.014177
 30
0.0
 10
153.965561
 20
174.873181
 30
0.0
 10
152.695450
 20
174.449937
 30
0.0
 10
151.566465
 20
173.673978
 30
0.0
 10
150.719727
 20
172.615861
 30
0.0
 10
150.155235
 20
171.346099
 30
0.0
  0
LWPOLYLINE
  5
102
100
AcDbEntity
  8
Layer_1
 62
7
100
AcDbPolyline
 90
23
 70
1
 10
99.985899
 20
170.005800
 30
0.0
 10
99.774211
 20
171.346099
 30
0.0
 10
99.280276
 20
172.615861
 30
0.0
 10
98.362979
 20
173.673978
 30
0.0
 10
97.304553
 20
174.449937
 30
0.0
 10
95.963878
 20
174.873181
 30
0.0
 10
94.623207
 20
175.014177
 30
0.0
 10
93.282532
 20
174.732020
 30
0.0
 10
92.082985
 20
174.097136
 30
0.0
 10
91.095124
 20
173.180096
 30
0.0
 10
90.389512
 20
171.980898
 30
0.0
 10
90.036698
 20
170.711137
 30
0.0
 10
90.036698
 20
169.300320
 30
0.0
 10
90.389512
 20
168.030558
 30
0.0
 10
91.095124
 20
166.831339
 30
0.0
 10
92.082985
 20
165.914299
 30
0.0
 10
93.282532
 20
165.279421
 30
0.0
 10
94.623207
 20
164.997258
 30
0.0
 10
95.963878
 20
165.138260
 30
0.0
 10
97.304553
 20
165.561498
 30
0.0
 10
98.362979
 20
166.337479
 30
0.0
 10
99.280276
 20
167.395600
 30
0.0
 10
99.774211
 20
168.665341
 30
0.0
  0
LWPOLYLINE
  5
103
100
AcDbEntity
  8
Layer_1
 62
7
100
AcDbPolyline
 90
23
 70
1
 10
124.964719
 20
194.977418
 30
0.0
 10
126.305395
 20
195.189058
 30
0.0
 10
127.575511
 20
195.753378
 30
0.0
 10
128.633934
 20
196.599880
 30
0.0
 10
129.410111
 20
197.658018
 30
0.0
 10
129.904038
 20
198.998296
 30
0.0
 10
129.974599
 20
200.338601
 30
0.0
 10
129.692350
 20
201.678896
 30
0.0
 10
129.057299
 20
202.878099
 30
0.0
 10
128.139989
 20
203.865677
 30
0.0
 10
127.011012
 20
204.571099
 30
0.0
 10
125.670334
 20
204.923820
 30
0.0
 10
124.329664
 20
204.923820
 30
0.0
 10
122.988988
 20
204.571099
 30
0.0
 10
121.860003
 20
203.865677
 30
0.0
 10
120.872136
 20
202.878099
 30
0.0
 10
120.237086
 20
201.678896
 30
0.0
 10
120.025403
 20
200.338601
 30
0.0
 10
120.095962
 20
198.998296
 30
0.0
 10
120.519328
 20
197.658018
 30
0.0
 10
121.295504
 20
196.599880
 30
0.0
 10
122.353927
 20
195.753378
 30
0.0
 10
123.624044
 20
195.189058
 30
0.0
  0
SPLINE
  5
104
100
AcDbEntity
  8
Layer_1
 62
7
100
AcDbSpline
 70
8
 71
3
 72
8
 73
4
 74
0
 40
0
 40
0
 40
0
 40
0
 40
1
 40
1
 40
1
 40
1
 10
239.980240
 20
-0.000004
 30
0.0
 10
245.821160
 20
0.302732
 30
0.0
 10
249.379100
 20
4.430550
 30
0.0
 10
250.000000
 20
10.016962
 30
0.0
  0
LWPOLYLINE
  5
105
100
AcDbEntity
  8
Layer_1
 62
7
100
AcDbPolyline
 90
41
 70
1
 10
124.964709
 20
154.980239
 30
0.0
 10
127.293248
 20
155.191879
 30
0.0
 10
129.480659
 20
155.685661
 30
0.0
 10
131.668076
 20
156.532158
 30
0.0
 10
133.643799
 20
157.731377
 30
0.0
 10
135.407845
 20
159.212758
 30
0.0
 10
136.889638
 20
160.905758
 30
0.0
 10
138.159749
 20
162.810377
 30
0.0
 10
139.077049
 20
164.926641
 30
0.0
 10
139.712107
 20
167.113417
 30
0.0
 10
139.994349
 20
169.441301
 30
0.0
 10
139.853228
 20
171.698641
 30
0.0
 10
139.429858
 20
173.955976
 30
0.0
 10
138.653681
 20
176.142778
 30
0.0
 10
137.595258
 20
178.117941
 30
0.0
 10
136.184018
 20
179.952038
 30
0.0
 10
134.561104
 20
181.574500
 30
0.0
 10
132.655940
 20
182.914778
 30
0.0
 10
130.609650
 20
183.902378
 30
0.0
 10
128.422241
 20
184.607799
 30
0.0
 10
126.164266
 20
184.960499
 30
0.0
 10
123.835734
 20
184.960499
 30
0.0
 10
121.577761
 20
184.607799
 30
0.0
 10
119.390345
 20
183.902378
 30
0.0
 10
117.344058
 20
182.914778
 30
0.0
 10
115.438888
 20
181.574500
 30
0.0
 10
113.815971
 20
179.952038
 30
0.0
 10
112.404742
 20
178.117941
 30
0.0
 10
111.275754
 20
176.142778
 30
0.0
 10
110.499578
 20
173.955976
 30
0.0
 10
110.076208
 20
171.698641
 30
0.0
 10
110.005648
 20
169.441301
 30
0.0
 10
110.287890
 20
167.113417
 30
0.0
 10
110.852384
 20
164.926641
 30
0.0
 10
111.840248
 20
162.810377
 30
0.0
 10
113.039792
 20
160.905758
 30
0.0
 10
114.592150
 20
159.212758
 30
0.0
 10
116.356196
 20
157.731377
 30
0.0
 10
118.331922
 20
156.532158
 30
0.0
 10
120.448774
 20
155.685661
 30
0.0
 10
122.706749
 20
155.191879
 30
0.0
  0
SPLINE
  5
106
100
AcDbEntity
  8
Layer_1
 62
7
100
AcDbSpline
 70
8
 71
3
 72
8
 73
4
 74
0
 40
0
 40
0
 40
0
 40
0
 40
1
 40
1
 40
1
 40
1
 10
250.000000
 20
239.983056
 30
0.0
 10
249.696719
 20
245.811573
 30
0.0
 10
245.565041
 20
249.401794
 30
0.0
 10
239.980240
 20
249.999996
 30
0.0
  0
LWPOLYLINE
  5
107
100
AcDbEntity
  8
Layer_1
 62
7
100
AcDbPolyline
 90
2
 70
0
 10
9.949193
 20
-0.000004
 30
0.0
 10
239.980240
 20
-0.000004
 30
0.0
  0
SPLINE
  5
108
100
AcDbEntity
  8
Layer_1
 62
7
100
AcDbSpline
 70
8
 71
3
 72
8
 73
4
 74
0
 40
0
 40
0
 40
0
 40
0
 40
1
 40
1
 40
1
 40
1
 10
9.949193
 20
249.999996
 30
0.0
 10
4.236162
 20
249.668838
 30
0.0
 10
0.399344
 20
245.572236
 30
0.0
 10
0.000000
 20
239.983056
 30
0.0
  0
LWPOLYLINE
  5
109
100
AcDbEntity
  8
Layer_1
 62
7
100
AcDbPolyline
 90
2
 70
0
 10
250.000000
 20
10.016962
 30
0.0
 10
250.000000
 20
239.983056
 30
0.0
  0
SPLINE
  5
10a
100
AcDbEntity
  8
Layer_1
 62
7
100
AcDbSpline
 70
8
 71
3
 72
8
 73
4
 74
0
 40
0
 40
0
 40
0
 40
0
 40
1
 40
1
 40
1
 40
1
 10
0.000000
 20
10.016962
 30
0.0
 10
0.148414
 20
4.199727
 30
0.0
 10
4.449176
 20
0.610919
 30
0.0
 10
9.949193
 20
-0.000004
 30
0.0
  0
LWPOLYLINE
  5
10b
100
AcDbEntity
  8
Layer_1
 62
7
100
AcDbPolyline
 90
2
 70
0
 10
239.980240
 20
249.999996
 30
0.0
 10
9.949193
 20
249.999996
 30
0.0
  0
LWPOLYLINE
  5
10c
100
AcDbEntity
  8
Layer_1
 62
7
100
AcDbPolyline
 90
2
 70
0
 10
0.000000
 20
239.983056
 30
0.0
 10
0.000000
 20
10.016962
 30
0.0
  0
ENDSEC
  0
SECTION
  2
OBJECTS
  0
DICTIONARY
  5
C
330
0
100
AcDbDictionary
  3
ACAD_GROUP
350
D
  3
ACAD_MLINESTYLE
350
17
  0
DICTIONARY
  5
D
330
C
100
AcDbDictionary
  0
DICTIONARY
  5
1A
330
C
100
AcDbDictionary
  0
DICTIONARY
  5
17
330
C
100
AcDbDictionary
  3
STANDARD
350
18
  0
DICTIONARY
  5
19
330
C
100
AcDbDictionary
  0
ENDSEC
  0
EOF
