  0
SECTION
  2
HEADER
  9
$ACADVER
  1
AC1009
  9
$EXTMIN
 10
-104.99276191
 20
-15.65095328
 30
0.0
  9
$EXTMAX
 10
105.00786191
 20
16.35175297
 30
0.0
  0
ENDSEC
  0
SECTION
  2
TABLES
  0
TABLE
  2
LAYER
 70
1
 0
LAYER
 2
layer_1
 70
0
 62
250
 6
CONTINUOUS
 0
ENDTAB
 0
ENDSEC
  0
SECTION
  2
ENTITIES
  0
POLYLINE
  8
layer_1
 62
256
 66
   1
 39
0.000000
 70
    1
  0
VERTEX
  8
0
 10
-100.21075000
 20
16.35175297
  0
VERTEX
  8
0
 10
100.22585000
 20
16.35175297
  0
VERTEX
  8
0
 10
100.65669434
 20
16.34719281
  0
VERTEX
  8
0
 10
100.98145469
 20
16.33225922
  0
VERTEX
  8
0
 10
101.22109707
 20
16.29393500
  0
VERTEX
  8
0
 10
101.31555090
 20
16.26193354
  0
VERTEX
  8
0
 10
101.39658750
 20
16.21920297
  0
VERTEX
  8
0
 10
101.46682761
 20
16.16411615
  0
VERTEX
  8
0
 10
101.52889199
 20
16.09504594
  0
VERTEX
  8
0
 10
101.63897656
 20
15.90844672
  0
VERTEX
  8
0
 10
101.74780723
 20
15.64638813
  0
VERTEX
  8
0
 10
101.87635000
 20
15.29585297
  0
VERTEX
  8
0
 10
104.53305000
 20
7.70835297
  0
VERTEX
  8
0
 10
104.82011094
 20
6.82881078
  0
VERTEX
  8
0
 10
104.90497676
 20
6.49302777
  0
VERTEX
  8
0
 10
104.95956250
 20
6.18466547
  0
VERTEX
  8
0
 10
104.99049043
 20
5.87229535
  0
VERTEX
  8
0
 10
105.00438281
 20
5.52448891
  0
VERTEX
  8
0
 10
105.00755000
 20
4.59685297
  0
VERTEX
  8
0
 10
105.00755000
 20
-14.50654703
  0
VERTEX
  8
0
 10
105.00496172
 20
-14.87651891
  0
VERTEX
  8
0
 10
104.98905625
 20
-15.15808453
  0
VERTEX
  8
0
 10
104.94762266
 20
-15.36298141
  0
VERTEX
  8
0
 10
104.91351689
 20
-15.44034703
  0
VERTEX
  8
0
 10
104.86845000
 20
-15.50294703
  0
VERTEX
  8
0
 10
104.81089561
 20
-15.55224859
  0
VERTEX
  8
0
 10
104.73932734
 20
-15.58971891
  0
VERTEX
  8
0
 10
104.54804375
 20
-15.63503453
  0
VERTEX
  8
0
 10
104.28238828
 20
-15.65063141
  0
VERTEX
  8
0
 10
103.93015000
 20
-15.64824703
  0
VERTEX
  8
0
 10
95.95245000
 20
-15.64824703
  0
VERTEX
  8
0
 10
95.15086406
 20
-15.64559293
  0
VERTEX
  8
0
 10
94.54695000
 20
-15.61891422
  0
VERTEX
  8
0
 10
94.31037480
 20
-15.58779232
  0
VERTEX
  8
0
 10
94.11272344
 20
-15.54013629
  0
VERTEX
  8
0
 10
93.95049785
 20
-15.47243680
  0
VERTEX
  8
0
 10
93.82020000
 20
-15.38118453
  0
VERTEX
  8
0
 10
93.71833184
 20
-15.26287015
  0
VERTEX
  8
0
 10
93.64139531
 20
-15.11398434
  0
VERTEX
  8
0
 10
93.58589238
 20
-14.93101776
  0
VERTEX
  8
0
 10
93.54832500
 20
-14.71046109
  0
VERTEX
  8
0
 10
93.51300469
 20
-14.14254020
  0
VERTEX
  8
0
 10
93.50745000
 20
-13.38214703
  0
VERTEX
  8
0
 10
93.50745000
 20
1.35175297
  0
VERTEX
  8
0
 10
93.48936343
 20
1.70962467
  0
VERTEX
  8
0
 10
93.43631367
 20
2.05715473
  0
VERTEX
  8
0
 10
93.35005942
 20
2.39258429
  0
VERTEX
  8
0
 10
93.23235938
 20
2.71415453
  0
VERTEX
  8
0
 10
93.08497222
 20
3.02010661
  0
VERTEX
  8
0
 10
92.90965664
 20
3.30868168
  0
VERTEX
  8
0
 10
92.70817134
 20
3.57812091
  0
VERTEX
  8
0
 10
92.48227500
 20
3.82666547
  0
VERTEX
  8
0
 10
92.23372632
 20
4.05255651
  0
VERTEX
  8
0
 10
91.96428398
 20
4.25403520
  0
VERTEX
  8
0
 10
91.67570669
 20
4.42934269
  0
VERTEX
  8
0
 10
91.36975313
 20
4.57672016
  0
VERTEX
  8
0
 10
91.04818198
 20
4.69440875
  0
VERTEX
  8
0
 10
90.71275195
 20
4.78064965
  0
VERTEX
  8
0
 10
90.36522173
 20
4.83368400
  0
VERTEX
  8
0
 10
90.00735000
 20
4.85175297
  0
VERTEX
  8
0
 10
89.64947830
 20
4.83368400
  0
VERTEX
  8
0
 10
89.30194824
 20
4.78064965
  0
VERTEX
  8
0
 10
88.96651868
 20
4.69440875
  0
VERTEX
  8
0
 10
88.64494844
 20
4.57672016
  0
VERTEX
  8
0
 10
88.33899636
 20
4.42934269
  0
VERTEX
  8
0
 10
88.05042129
 20
4.25403520
  0
VERTEX
  8
0
 10
87.78098206
 20
4.05255651
  0
VERTEX
  8
0
 10
87.53243750
 20
3.82666547
  0
VERTEX
  8
0
 10
87.30654646
 20
3.57812091
  0
VERTEX
  8
0
 10
87.10506777
 20
3.30868168
  0
VERTEX
  8
0
 10
86.92976028
 20
3.02010661
  0
VERTEX
  8
0
 10
86.78238281
 20
2.71415453
  0
VERTEX
  8
0
 10
86.66469421
 20
2.39258429
  0
VERTEX
  8
0
 10
86.57845332
 20
2.05715473
  0
VERTEX
  8
0
 10
86.52541897
 20
1.70962467
  0
VERTEX
  8
0
 10
86.50735000
 20
1.35175297
  0
VERTEX
  8
0
 10
86.50745000
 20
1.34355297
  0
VERTEX
  8
0
 10
86.50745000
 20
-13.47474703
  0
VERTEX
  8
0
 10
86.50300215
 20
-14.18918590
  0
VERTEX
  8
0
 10
86.47422969
 20
-14.72691422
  0
VERTEX
  8
0
 10
86.44348943
 20
-14.93735726
  0
VERTEX
  8
0
 10
86.39798926
 20
-15.11303707
  0
VERTEX
  8
0
 10
86.33483625
 20
-15.25709178
  0
VERTEX
  8
0
 10
86.25113750
 20
-15.37265953
  0
VERTEX
  8
0
 10
86.14400007
 20
-15.46287845
  0
VERTEX
  8
0
 10
86.01053105
 20
-15.53088668
  0
VERTEX
  8
0
 10
85.84783752
 20
-15.57982235
  0
VERTEX
  8
0
 10
85.65302656
 20
-15.61282359
  0
VERTEX
  8
0
 10
85.15548066
 20
-15.64357535
  0
VERTEX
  8
0
 10
84.49475000
 20
-15.64824703
  0
VERTEX
  8
0
 10
36.96225000
 20
-15.64824703
  0
VERTEX
  8
0
 10
35.80472695
 20
-15.64254918
  0
VERTEX
  8
0
 10
35.33831909
 20
-15.62739784
  0
VERTEX
  8
0
 10
34.93971563
 20
-15.59690797
  0
VERTEX
  8
0
 10
34.60359302
 20
-15.54572689
  0
VERTEX
  8
0
 10
34.32462773
 20
-15.46850191
  0
VERTEX
  8
0
 10
34.09749624
 20
-15.35988036
  0
VERTEX
  8
0
 10
33.91687500
 20
-15.21450953
  0
VERTEX
  8
0
 10
33.77744048
 20
-15.02703675
  0
VERTEX
  8
0
 10
33.67386914
 20
-14.79210934
  0
VERTEX
  8
0
 10
33.60083745
 20
-14.50437459
  0
VERTEX
  8
0
 10
33.55302188
 20
-14.15847984
  0
VERTEX
  8
0
 10
33.52509888
 20
-13.74907240
  0
VERTEX
  8
0
 10
33.51174492
 20
-13.27079957
  0
VERTEX
  8
0
 10
33.50745000
 20
-12.08624703
  0
VERTEX
  8
0
 10
33.50745000
 20
1.35175297
  0
VERTEX
  8
0
 10
33.50735000
 20
1.35175297
  0
VERTEX
  8
0
 10
33.48928103
 20
1.70962467
  0
VERTEX
  8
0
 10
33.43624668
 20
2.05715473
  0
VERTEX
  8
0
 10
33.35000579
 20
2.39258429
  0
VERTEX
  8
0
 10
33.23231719
 20
2.71415453
  0
VERTEX
  8
0
 10
33.08493972
 20
3.02010661
  0
VERTEX
  8
0
 10
32.90963223
 20
3.30868168
  0
VERTEX
  8
0
 10
32.70815354
 20
3.57812091
  0
VERTEX
  8
0
 10
32.48226250
 20
3.82666547
  0
VERTEX
  8
0
 10
32.23371794
 20
4.05255651
  0
VERTEX
  8
0
 10
31.96427871
 20
4.25403520
  0
VERTEX
  8
0
 10
31.67570364
 20
4.42934269
  0
VERTEX
  8
0
 10
31.36975156
 20
4.57672016
  0
VERTEX
  8
0
 10
31.04818132
 20
4.69440875
  0
VERTEX
  8
0
 10
30.71275176
 20
4.78064965
  0
VERTEX
  8
0
 10
30.36522170
 20
4.83368400
  0
VERTEX
  8
0
 10
30.00735000
 20
4.85175297
  0
VERTEX
  8
0
 10
29.64947830
 20
4.83368400
  0
VERTEX
  8
0
 10
29.30194824
 20
4.78064965
  0
VERTEX
  8
0
 10
28.96651868
 20
4.69440875
  0
VERTEX
  8
0
 10
28.64494844
 20
4.57672016
  0
VERTEX
  8
0
 10
28.33899636
 20
4.42934269
  0
VERTEX
  8
0
 10
28.05042129
 20
4.25403520
  0
VERTEX
  8
0
 10
27.78098206
 20
4.05255651
  0
VERTEX
  8
0
 10
27.53243750
 20
3.82666547
  0
VERTEX
  8
0
 10
27.30654646
 20
3.57812091
  0
VERTEX
  8
0
 10
27.10506777
 20
3.30868168
  0
VERTEX
  8
0
 10
26.92976028
 20
3.02010661
  0
VERTEX
  8
0
 10
26.78238281
 20
2.71415453
  0
VERTEX
  8
0
 10
26.66469421
 20
2.39258429
  0
VERTEX
  8
0
 10
26.57845332
 20
2.05715473
  0
VERTEX
  8
0
 10
26.52541897
 20
1.70962467
  0
VERTEX
  8
0
 10
26.50735000
 20
1.35175297
  0
VERTEX
  8
0
 10
26.50745000
 20
1.34355297
  0
VERTEX
  8
0
 10
26.50745000
 20
-12.15234703
  0
VERTEX
  8
0
 10
26.49919043
 20
-13.32047906
  0
VERTEX
  8
0
 10
26.48216321
 20
-13.79150807
  0
VERTEX
  8
0
 10
26.45057969
 20
-14.19429703
  0
VERTEX
  8
0
 10
26.39997136
 20
-14.53418443
  0
VERTEX
  8
0
 10
26.32586973
 20
-14.81650875
  0
VERTEX
  8
0
 10
26.22380627
 20
-15.04660846
  0
VERTEX
  8
0
 10
26.08931250
 20
-15.22982203
  0
VERTEX
  8
0
 10
25.91791990
 20
-15.37148795
  0
VERTEX
  8
0
 10
25.70515996
 20
-15.47694469
  0
VERTEX
  8
0
 10
25.44656418
 20
-15.55153072
  0
VERTEX
  8
0
 10
25.13766406
 20
-15.60058453
  0
VERTEX
  8
0
 10
24.77399109
 20
-15.62944459
  0
VERTEX
  8
0
 10
24.35107676
 20
-15.64344937
  0
VERTEX
  8
0
 10
23.30965000
 20
-15.64824703
  0
VERTEX
  8
0
 10
-23.29455000
 20
-15.64824703
  0
VERTEX
  8
0
 10
-24.33597676
 20
-15.64344937
  0
VERTEX
  8
0
 10
-24.75889109
 20
-15.62944459
  0
VERTEX
  8
0
 10
-25.12256406
 20
-15.60058453
  0
VERTEX
  8
0
 10
-25.43146418
 20
-15.55153072
  0
VERTEX
  8
0
 10
-25.69005996
 20
-15.47694469
  0
VERTEX
  8
0
 10
-25.90281990
 20
-15.37148795
  0
VERTEX
  8
0
 10
-26.07421250
 20
-15.22982203
  0
VERTEX
  8
0
 10
-26.20870627
 20
-15.04660846
  0
VERTEX
  8
0
 10
-26.31076973
 20
-14.81650875
  0
VERTEX
  8
0
 10
-26.38487136
 20
-14.53418443
  0
VERTEX
  8
0
 10
-26.43547969
 20
-14.19429703
  0
VERTEX
  8
0
 10
-26.46706321
 20
-13.79150807
  0
VERTEX
  8
0
 10
-26.48409043
 20
-13.32047906
  0
VERTEX
  8
0
 10
-26.49235000
 20
-12.15234703
  0
VERTEX
  8
0
 10
-26.49235000
 20
1.34355297
  0
VERTEX
  8
0
 10
-26.49225000
 20
1.35175297
  0
VERTEX
  8
0
 10
-26.51031897
 20
1.70962467
  0
VERTEX
  8
0
 10
-26.56335332
 20
2.05715473
  0
VERTEX
  8
0
 10
-26.64959421
 20
2.39258429
  0
VERTEX
  8
0
 10
-26.76728281
 20
2.71415453
  0
VERTEX
  8
0
 10
-26.91466028
 20
3.02010661
  0
VERTEX
  8
0
 10
-27.08996777
 20
3.30868168
  0
VERTEX
  8
0
 10
-27.29144646
 20
3.57812091
  0
VERTEX
  8
0
 10
-27.51733750
 20
3.82666547
  0
VERTEX
  8
0
 10
-27.76588206
 20
4.05255651
  0
VERTEX
  8
0
 10
-28.03532129
 20
4.25403520
  0
VERTEX
  8
0
 10
-28.32389636
 20
4.42934269
  0
VERTEX
  8
0
 10
-28.62984844
 20
4.57672016
  0
VERTEX
  8
0
 10
-28.95141868
 20
4.69440875
  0
VERTEX
  8
0
 10
-29.28684824
 20
4.78064965
  0
VERTEX
  8
0
 10
-29.63437830
 20
4.83368400
  0
VERTEX
  8
0
 10
-29.99225000
 20
4.85175297
  0
VERTEX
  8
0
 10
-30.35012170
 20
4.83368400
  0
VERTEX
  8
0
 10
-30.69765176
 20
4.78064965
  0
VERTEX
  8
0
 10
-31.03308132
 20
4.69440875
  0
VERTEX
  8
0
 10
-31.35465156
 20
4.57672016
  0
VERTEX
  8
0
 10
-31.66060364
 20
4.42934269
  0
VERTEX
  8
0
 10
-31.94917871
 20
4.25403520
  0
VERTEX
  8
0
 10
-32.21861794
 20
4.05255651
  0
VERTEX
  8
0
 10
-32.46716250
 20
3.82666547
  0
VERTEX
  8
0
 10
-32.69305354
 20
3.57812091
  0
VERTEX
  8
0
 10
-32.89453223
 20
3.30868168
  0
VERTEX
  8
0
 10
-33.06983972
 20
3.02010661
  0
VERTEX
  8
0
 10
-33.21721719
 20
2.71415453
  0
VERTEX
  8
0
 10
-33.33490579
 20
2.39258429
  0
VERTEX
  8
0
 10
-33.42114668
 20
2.05715473
  0
VERTEX
  8
0
 10
-33.47418103
 20
1.70962467
  0
VERTEX
  8
0
 10
-33.49225000
 20
1.35175297
  0
VERTEX
  8
0
 10
-33.49235000
 20
1.35175297
  0
VERTEX
  8
0
 10
-33.49235000
 20
-12.08624703
  0
VERTEX
  8
0
 10
-33.49664492
 20
-13.27079957
  0
VERTEX
  8
0
 10
-33.50999888
 20
-13.74907240
  0
VERTEX
  8
0
 10
-33.53792187
 20
-14.15847984
  0
VERTEX
  8
0
 10
-33.58573745
 20
-14.50437459
  0
VERTEX
  8
0
 10
-33.65876914
 20
-14.79210934
  0
VERTEX
  8
0
 10
-33.76234048
 20
-15.02703675
  0
VERTEX
  8
0
 10
-33.90177500
 20
-15.21450953
  0
VERTEX
  8
0
 10
-34.08239624
 20
-15.35988036
  0
VERTEX
  8
0
 10
-34.30952773
 20
-15.46850191
  0
VERTEX
  8
0
 10
-34.58849302
 20
-15.54572689
  0
VERTEX
  8
0
 10
-34.92461562
 20
-15.59690797
  0
VERTEX
  8
0
 10
-35.32321909
 20
-15.62739784
  0
VERTEX
  8
0
 10
-35.78962695
 20
-15.64254918
  0
VERTEX
  8
0
 10
-36.94715000
 20
-15.64824703
  0
VERTEX
  8
0
 10
-84.47965000
 20
-15.64824703
  0
VERTEX
  8
0
 10
-85.14038066
 20
-15.64357535
  0
VERTEX
  8
0
 10
-85.63792656
 20
-15.61282359
  0
VERTEX
  8
0
 10
-85.83273752
 20
-15.57982235
  0
VERTEX
  8
0
 10
-85.99543105
 20
-15.53088668
  0
VERTEX
  8
0
 10
-86.12890007
 20
-15.46287845
  0
VERTEX
  8
0
 10
-86.23603750
 20
-15.37265953
  0
VERTEX
  8
0
 10
-86.31973625
 20
-15.25709178
  0
VERTEX
  8
0
 10
-86.38288926
 20
-15.11303707
  0
VERTEX
  8
0
 10
-86.42838943
 20
-14.93735726
  0
VERTEX
  8
0
 10
-86.45912969
 20
-14.72691422
  0
VERTEX
  8
0
 10
-86.48790215
 20
-14.18918590
  0
VERTEX
  8
0
 10
-86.49235000
 20
-13.47474703
  0
VERTEX
  8
0
 10
-86.49235000
 20
1.34355297
  0
VERTEX
  8
0
 10
-86.49225000
 20
1.35175297
  0
VERTEX
  8
0
 10
-86.51031897
 20
1.70962467
  0
VERTEX
  8
0
 10
-86.56335332
 20
2.05715473
  0
VERTEX
  8
0
 10
-86.64959421
 20
2.39258429
  0
VERTEX
  8
0
 10
-86.76728281
 20
2.71415453
  0
VERTEX
  8
0
 10
-86.91466028
 20
3.02010661
  0
VERTEX
  8
0
 10
-87.08996777
 20
3.30868168
  0
VERTEX
  8
0
 10
-87.29144646
 20
3.57812091
  0
VERTEX
  8
0
 10
-87.51733750
 20
3.82666547
  0
VERTEX
  8
0
 10
-87.76588206
 20
4.05255651
  0
VERTEX
  8
0
 10
-88.03532129
 20
4.25403520
  0
VERTEX
  8
0
 10
-88.32389636
 20
4.42934269
  0
VERTEX
  8
0
 10
-88.62984844
 20
4.57672016
  0
VERTEX
  8
0
 10
-88.95141868
 20
4.69440875
  0
VERTEX
  8
0
 10
-89.28684824
 20
4.78064965
  0
VERTEX
  8
0
 10
-89.63437830
 20
4.83368400
  0
VERTEX
  8
0
 10
-89.99225000
 20
4.85175297
  0
VERTEX
  8
0
 10
-90.35012170
 20
4.83368400
  0
VERTEX
  8
0
 10
-90.69765176
 20
4.78064965
  0
VERTEX
  8
0
 10
-91.03308132
 20
4.69440875
  0
VERTEX
  8
0
 10
-91.35465156
 20
4.57672016
  0
VERTEX
  8
0
 10
-91.66060364
 20
4.42934269
  0
VERTEX
  8
0
 10
-91.94917871
 20
4.25403520
  0
VERTEX
  8
0
 10
-92.21861794
 20
4.05255651
  0
VERTEX
  8
0
 10
-92.46716250
 20
3.82666547
  0
VERTEX
  8
0
 10
-92.69305354
 20
3.57812091
  0
VERTEX
  8
0
 10
-92.89453223
 20
3.30868168
  0
VERTEX
  8
0
 10
-93.06983972
 20
3.02010661
  0
VERTEX
  8
0
 10
-93.21721719
 20
2.71415453
  0
VERTEX
  8
0
 10
-93.33490579
 20
2.39258429
  0
VERTEX
  8
0
 10
-93.42114668
 20
2.05715473
  0
VERTEX
  8
0
 10
-93.47418103
 20
1.70962467
  0
VERTEX
  8
0
 10
-93.49225000
 20
1.35175297
  0
VERTEX
  8
0
 10
-93.49235000
 20
-13.38214703
  0
VERTEX
  8
0
 10
-93.49790469
 20
-14.14254020
  0
VERTEX
  8
0
 10
-93.53322500
 20
-14.71046109
  0
VERTEX
  8
0
 10
-93.57079238
 20
-14.93101776
  0
VERTEX
  8
0
 10
-93.62629531
 20
-15.11398434
  0
VERTEX
  8
0
 10
-93.70323184
 20
-15.26287015
  0
VERTEX
  8
0
 10
-93.80510000
 20
-15.38118453
  0
VERTEX
  8
0
 10
-93.93539785
 20
-15.47243680
  0
VERTEX
  8
0
 10
-94.09762344
 20
-15.54013629
  0
VERTEX
  8
0
 10
-94.29527480
 20
-15.58779232
  0
VERTEX
  8
0
 10
-94.53185000
 20
-15.61891422
  0
VERTEX
  8
0
 10
-95.13576406
 20
-15.64559293
  0
VERTEX
  8
0
 10
-95.93735000
 20
-15.64824703
  0
VERTEX
  8
0
 10
-103.91505000
 20
-15.64824703
  0
VERTEX
  8
0
 10
-104.26728828
 20
-15.65063141
  0
VERTEX
  8
0
 10
-104.53294375
 20
-15.63503453
  0
VERTEX
  8
0
 10
-104.72422734
 20
-15.58971891
  0
VERTEX
  8
0
 10
-104.79579561
 20
-15.55224859
  0
VERTEX
  8
0
 10
-104.85335000
 20
-15.50294703
  0
VERTEX
  8
0
 10
-104.89841689
 20
-15.44034703
  0
VERTEX
  8
0
 10
-104.93252266
 20
-15.36298141
  0
VERTEX
  8
0
 10
-104.97395625
 20
-15.15808453
  0
VERTEX
  8
0
 10
-104.98986172
 20
-14.87651891
  0
VERTEX
  8
0
 10
-104.99245000
 20
-14.50654703
  0
VERTEX
  8
0
 10
-104.99245000
 20
4.59685297
  0
VERTEX
  8
0
 10
-104.98928281
 20
5.52448891
  0
VERTEX
  8
0
 10
-104.97539043
 20
5.87229535
  0
VERTEX
  8
0
 10
-104.94446250
 20
6.18466547
  0
VERTEX
  8
0
 10
-104.88987676
 20
6.49302777
  0
VERTEX
  8
0
 10
-104.80501094
 20
6.82881078
  0
VERTEX
  8
0
 10
-104.51795000
 20
7.70835297
  0
VERTEX
  8
0
 10
-101.86125000
 20
15.29585297
  0
VERTEX
  8
0
 10
-101.73270723
 20
15.64638813
  0
VERTEX
  8
0
 10
-101.62387656
 20
15.90844672
  0
VERTEX
  8
0
 10
-101.51379199
 20
16.09504594
  0
VERTEX
  8
0
 10
-101.45172761
 20
16.16411615
  0
VERTEX
  8
0
 10
-101.38148750
 20
16.21920297
  0
VERTEX
  8
0
 10
-101.30045090
 20
16.26193354
  0
VERTEX
  8
0
 10
-101.20599707
 20
16.29393500
  0
VERTEX
  8
0
 10
-100.96635469
 20
16.33225922
  0
VERTEX
  8
0
 10
-100.64159434
 20
16.34719281
  0
VERTEX
  8
0
 10
-100.21075000
 20
16.35175297
  0
SEQEND
  0
ENDSEC
  0
EOF
