  0
SECTION
  2
HEADER
  9
$ACADVER
  1
AC1009
  9
$EXTMIN
 10
-180.21213000
 20
-14.84848000
 30
0.0
  9
$EXTMAX
 10
179.78787000
 20
15.15152000
 30
0.0
  0
ENDSEC
  0
SECTION
  2
TABLES
  0
TABLE
  2
LAYER
 70
1
 0
LAYER
 2
layer_1
 70
0
 62
250
 6
CONTINUOUS
 0
ENDTAB
 0
ENDSEC
  0
SECTION
  2
ENTITIES
  0
POLYLINE
  8
layer_1
 62
256
 66
   1
 39
0.000000
 70
    1
  0
VERTEX
  8
0
 10
-165.21213000
 20
15.15152000
  0
VERTEX
  8
0
 10
164.78787000
 20
15.15152000
  0
VERTEX
  8
0
 10
164.78787000
 20
3.15152000
  0
VERTEX
  8
0
 10
179.78787000
 20
3.15152000
  0
VERTEX
  8
0
 10
179.78787000
 20
-14.84848000
  0
VERTEX
  8
0
 10
175.38827000
 20
-14.84848000
  0
VERTEX
  8
0
 10
174.68058973
 20
-14.84297297
  0
VERTEX
  8
0
 10
174.15284031
 20
-14.80869875
  0
VERTEX
  8
0
 10
173.94819737
 20
-14.77245217
  0
VERTEX
  8
0
 10
173.77864637
 20
-14.71902766
  0
VERTEX
  8
0
 10
173.64089039
 20
-14.64509650
  0
VERTEX
  8
0
 10
173.53163250
 20
-14.54733000
  0
VERTEX
  8
0
 10
173.44757579
 20
-14.42239943
  0
VERTEX
  8
0
 10
173.38542332
 20
-14.26697609
  0
VERTEX
  8
0
 10
173.34187818
 20
-14.07773127
  0
VERTEX
  8
0
 10
173.31364344
 20
-13.85133625
  0
VERTEX
  8
0
 10
173.28991746
 20
-13.27378078
  0
VERTEX
  8
0
 10
173.28787000
 20
-12.50768000
  0
VERTEX
  8
0
 10
173.28787000
 20
-3.64848000
  0
VERTEX
  8
0
 10
173.26979993
 20
-3.29062478
  0
VERTEX
  8
0
 10
173.21676258
 20
-2.94310695
  0
VERTEX
  8
0
 10
173.13051722
 20
-2.60768581
  0
VERTEX
  8
0
 10
173.01282312
 20
-2.28612062
  0
VERTEX
  8
0
 10
172.86543958
 20
-1.98017067
  0
VERTEX
  8
0
 10
172.69012586
 20
-1.69159523
  0
VERTEX
  8
0
 10
172.48864124
 20
-1.42215358
  0
VERTEX
  8
0
 10
172.26274500
 20
-1.17360500
  0
VERTEX
  8
0
 10
172.01419642
 20
-0.94770876
  0
VERTEX
  8
0
 10
171.74475477
 20
-0.74622414
  0
VERTEX
  8
0
 10
171.45617933
 20
-0.57091042
  0
VERTEX
  8
0
 10
171.15022937
 20
-0.42352687
  0
VERTEX
  8
0
 10
170.82866419
 20
-0.30583278
  0
VERTEX
  8
0
 10
170.49324305
 20
-0.21958742
  0
VERTEX
  8
0
 10
170.14572522
 20
-0.16655007
  0
VERTEX
  8
0
 10
169.78787000
 20
-0.14848000
  0
VERTEX
  8
0
 10
169.43001478
 20
-0.16655007
  0
VERTEX
  8
0
 10
169.08249695
 20
-0.21958742
  0
VERTEX
  8
0
 10
168.74707581
 20
-0.30583278
  0
VERTEX
  8
0
 10
168.42551063
 20
-0.42352687
  0
VERTEX
  8
0
 10
168.11956067
 20
-0.57091042
  0
VERTEX
  8
0
 10
167.83098523
 20
-0.74622414
  0
VERTEX
  8
0
 10
167.56154358
 20
-0.94770876
  0
VERTEX
  8
0
 10
167.31299500
 20
-1.17360500
  0
VERTEX
  8
0
 10
167.08709876
 20
-1.42215358
  0
VERTEX
  8
0
 10
166.88561414
 20
-1.69159523
  0
VERTEX
  8
0
 10
166.71030042
 20
-1.98017067
  0
VERTEX
  8
0
 10
166.56291688
 20
-2.28612062
  0
VERTEX
  8
0
 10
166.44522278
 20
-2.60768581
  0
VERTEX
  8
0
 10
166.35897742
 20
-2.94310695
  0
VERTEX
  8
0
 10
166.30594007
 20
-3.29062478
  0
VERTEX
  8
0
 10
166.28787000
 20
-3.64848000
  0
VERTEX
  8
0
 10
166.28787000
 20
-12.45808000
  0
VERTEX
  8
0
 10
166.28325203
 20
-13.26952199
  0
VERTEX
  8
0
 10
166.25141375
 20
-13.87297844
  0
VERTEX
  8
0
 10
166.21685682
 20
-14.10632402
  0
VERTEX
  8
0
 10
166.16537859
 20
-14.29920754
  0
VERTEX
  8
0
 10
166.09360701
 20
-14.45547377
  0
VERTEX
  8
0
 10
165.99817000
 20
-14.57896750
  0
VERTEX
  8
0
 10
165.87569549
 20
-14.67353349
  0
VERTEX
  8
0
 10
165.72281141
 20
-14.74301652
  0
VERTEX
  8
0
 10
165.53614568
 20
-14.79126137
  0
VERTEX
  8
0
 10
165.31232625
 20
-14.82211281
  0
VERTEX
  8
0
 10
164.73973797
 20
-14.84701457
  0
VERTEX
  8
0
 10
163.97807000
 20
-14.84848000
  0
VERTEX
  8
0
 10
107.15847000
 20
-14.84848000
  0
VERTEX
  8
0
 10
106.55394578
 20
-14.84497082
  0
VERTEX
  8
0
 10
106.09601375
 20
-14.81761281
  0
VERTEX
  8
0
 10
105.91566385
 20
-14.78710122
  0
VERTEX
  8
0
 10
105.76433484
 20
-14.74116027
  0
VERTEX
  8
0
 10
105.63948436
 20
-14.67663427
  0
VERTEX
  8
0
 10
105.53857000
 20
-14.59036750
  0
VERTEX
  8
0
 10
105.45904939
 20
-14.47920424
  0
VERTEX
  8
0
 10
105.39838016
 20
-14.33998879
  0
VERTEX
  8
0
 10
105.35401990
 20
-14.16956542
  0
VERTEX
  8
0
 10
105.32342625
 20
-13.96477844
  0
VERTEX
  8
0
 10
105.29336922
 20
-13.43949074
  0
VERTEX
  8
0
 10
105.28787000
 20
-12.73888000
  0
VERTEX
  8
0
 10
105.28787000
 20
-3.64848000
  0
VERTEX
  8
0
 10
105.26979993
 20
-3.29062478
  0
VERTEX
  8
0
 10
105.21676258
 20
-2.94310695
  0
VERTEX
  8
0
 10
105.13051722
 20
-2.60768581
  0
VERTEX
  8
0
 10
105.01282313
 20
-2.28612062
  0
VERTEX
  8
0
 10
104.86543958
 20
-1.98017067
  0
VERTEX
  8
0
 10
104.69012586
 20
-1.69159523
  0
VERTEX
  8
0
 10
104.48864124
 20
-1.42215358
  0
VERTEX
  8
0
 10
104.26274500
 20
-1.17360500
  0
VERTEX
  8
0
 10
104.01419642
 20
-0.94770876
  0
VERTEX
  8
0
 10
103.74475477
 20
-0.74622414
  0
VERTEX
  8
0
 10
103.45617933
 20
-0.57091042
  0
VERTEX
  8
0
 10
103.15022937
 20
-0.42352687
  0
VERTEX
  8
0
 10
102.82866419
 20
-0.30583278
  0
VERTEX
  8
0
 10
102.49324305
 20
-0.21958742
  0
VERTEX
  8
0
 10
102.14572522
 20
-0.16655007
  0
VERTEX
  8
0
 10
101.78787000
 20
-0.14848000
  0
VERTEX
  8
0
 10
101.43001478
 20
-0.16655007
  0
VERTEX
  8
0
 10
101.08249695
 20
-0.21958742
  0
VERTEX
  8
0
 10
100.74707581
 20
-0.30583278
  0
VERTEX
  8
0
 10
100.42551063
 20
-0.42352687
  0
VERTEX
  8
0
 10
100.11956067
 20
-0.57091042
  0
VERTEX
  8
0
 10
99.83098523
 20
-0.74622414
  0
VERTEX
  8
0
 10
99.56154358
 20
-0.94770876
  0
VERTEX
  8
0
 10
99.31299500
 20
-1.17360500
  0
VERTEX
  8
0
 10
99.08709876
 20
-1.42215358
  0
VERTEX
  8
0
 10
98.88561414
 20
-1.69159523
  0
VERTEX
  8
0
 10
98.71030042
 20
-1.98017067
  0
VERTEX
  8
0
 10
98.56291687
 20
-2.28612062
  0
VERTEX
  8
0
 10
98.44522278
 20
-2.60768581
  0
VERTEX
  8
0
 10
98.35897742
 20
-2.94310695
  0
VERTEX
  8
0
 10
98.30594007
 20
-3.29062478
  0
VERTEX
  8
0
 10
98.28787000
 20
-3.64848000
  0
VERTEX
  8
0
 10
98.28787000
 20
-12.85458000
  0
VERTEX
  8
0
 10
98.28227098
 20
-13.52713566
  0
VERTEX
  8
0
 10
98.25160906
 20
-14.02848156
  0
VERTEX
  8
0
 10
98.22038038
 20
-14.22280424
  0
VERTEX
  8
0
 10
98.17508699
 20
-14.38374855
  0
VERTEX
  8
0
 10
98.11312925
 20
-14.51445585
  0
VERTEX
  8
0
 10
98.03190750
 20
-14.61806750
  0
VERTEX
  8
0
 10
97.92882208
 20
-14.69772485
  0
VERTEX
  8
0
 10
97.80127332
 20
-14.75656926
  0
VERTEX
  8
0
 10
97.64666158
 20
-14.79774208
  0
VERTEX
  8
0
 10
97.46238719
 20
-14.82438469
  0
VERTEX
  8
0
 10
96.99445184
 20
-14.84664465
  0
VERTEX
  8
0
 10
96.37667000
 20
-14.84848000
  0
VERTEX
  8
0
 10
41.40937000
 20
-14.84848000
  0
VERTEX
  8
0
 10
40.04542156
 20
-14.84033586
  0
VERTEX
  8
0
 10
39.49398016
 20
-14.81923220
  0
VERTEX
  8
0
 10
39.02143875
 20
-14.77706438
  0
VERTEX
  8
0
 10
38.62170594
 20
-14.70655007
  0
VERTEX
  8
0
 10
38.28869031
 20
-14.60040695
  0
VERTEX
  8
0
 10
38.14529788
 20
-14.53169887
  0
VERTEX
  8
0
 10
38.01630047
 20
-14.45135271
  0
VERTEX
  8
0
 10
37.90093665
 20
-14.35845818
  0
VERTEX
  8
0
 10
37.79844500
 20
-14.25210500
  0
VERTEX
  8
0
 10
37.70806409
 20
-14.13138287
  0
VERTEX
  8
0
 10
37.62903250
 20
-13.99538151
  0
VERTEX
  8
0
 10
37.56058880
 20
-13.84319063
  0
VERTEX
  8
0
 10
37.50197156
 20
-13.67389992
  0
VERTEX
  8
0
 10
37.41117078
 20
-13.28037790
  0
VERTEX
  8
0
 10
37.35053875
 20
-12.80753313
  0
VERTEX
  8
0
 10
37.31398406
 20
-12.24808327
  0
VERTEX
  8
0
 10
37.29541531
 20
-11.59474602
  0
VERTEX
  8
0
 10
37.28787000
 20
-9.97728000
  0
VERTEX
  8
0
 10
37.28787000
 20
-3.64848000
  0
VERTEX
  8
0
 10
37.26979993
 20
-3.29062478
  0
VERTEX
  8
0
 10
37.21676258
 20
-2.94310695
  0
VERTEX
  8
0
 10
37.13051722
 20
-2.60768581
  0
VERTEX
  8
0
 10
37.01282313
 20
-2.28612062
  0
VERTEX
  8
0
 10
36.86543958
 20
-1.98017067
  0
VERTEX
  8
0
 10
36.69012586
 20
-1.69159523
  0
VERTEX
  8
0
 10
36.48864124
 20
-1.42215358
  0
VERTEX
  8
0
 10
36.26274500
 20
-1.17360500
  0
VERTEX
  8
0
 10
36.01419642
 20
-0.94770876
  0
VERTEX
  8
0
 10
35.74475477
 20
-0.74622414
  0
VERTEX
  8
0
 10
35.45617933
 20
-0.57091042
  0
VERTEX
  8
0
 10
35.15022937
 20
-0.42352687
  0
VERTEX
  8
0
 10
34.82866419
 20
-0.30583278
  0
VERTEX
  8
0
 10
34.49324305
 20
-0.21958742
  0
VERTEX
  8
0
 10
34.14572522
 20
-0.16655007
  0
VERTEX
  8
0
 10
33.78787000
 20
-0.14848000
  0
VERTEX
  8
0
 10
33.43001478
 20
-0.16655007
  0
VERTEX
  8
0
 10
33.08249695
 20
-0.21958742
  0
VERTEX
  8
0
 10
32.74707581
 20
-0.30583278
  0
VERTEX
  8
0
 10
32.42551063
 20
-0.42352687
  0
VERTEX
  8
0
 10
32.11956067
 20
-0.57091042
  0
VERTEX
  8
0
 10
31.83098523
 20
-0.74622414
  0
VERTEX
  8
0
 10
31.56154358
 20
-0.94770876
  0
VERTEX
  8
0
 10
31.31299500
 20
-1.17360500
  0
VERTEX
  8
0
 10
31.08709876
 20
-1.42215358
  0
VERTEX
  8
0
 10
30.88561414
 20
-1.69159523
  0
VERTEX
  8
0
 10
30.71030042
 20
-1.98017067
  0
VERTEX
  8
0
 10
30.56291687
 20
-2.28612062
  0
VERTEX
  8
0
 10
30.44522278
 20
-2.60768581
  0
VERTEX
  8
0
 10
30.35897742
 20
-2.94310695
  0
VERTEX
  8
0
 10
30.30594007
 20
-3.29062478
  0
VERTEX
  8
0
 10
30.28787000
 20
-3.64848000
  0
VERTEX
  8
0
 10
30.28787000
 20
-10.02688000
  0
VERTEX
  8
0
 10
30.27943777
 20
-11.64201379
  0
VERTEX
  8
0
 10
30.26005987
 20
-12.29284599
  0
VERTEX
  8
0
 10
30.22271844
 20
-12.84908781
  0
VERTEX
  8
0
 10
30.16152173
 20
-13.31816381
  0
VERTEX
  8
0
 10
30.07057801
 20
-13.70749855
  0
VERTEX
  8
0
 10
30.01210984
 20
-13.87458313
  0
VERTEX
  8
0
 10
29.94399551
 20
-14.02451660
  0
VERTEX
  8
0
 10
29.86549856
 20
-14.15822703
  0
VERTEX
  8
0
 10
29.77588250
 20
-14.27664250
  0
VERTEX
  8
0
 10
29.67441088
 20
-14.38069107
  0
VERTEX
  8
0
 10
29.56034722
 20
-14.47130083
  0
VERTEX
  8
0
 10
29.43295506
 20
-14.54939982
  0
VERTEX
  8
0
 10
29.29149793
 20
-14.61591613
  0
VERTEX
  8
0
 10
28.96344288
 20
-14.71791298
  0
VERTEX
  8
0
 10
28.57029031
 20
-14.78471594
  0
VERTEX
  8
0
 10
28.10614849
 20
-14.82374956
  0
VERTEX
  8
0
 10
27.56512566
 20
-14.84243840
  0
VERTEX
  8
0
 10
26.22887000
 20
-14.84848000
  0
VERTEX
  8
0
 10
-26.65313000
 20
-14.84848000
  0
VERTEX
  8
0
 10
-27.98938566
 20
-14.84243840
  0
VERTEX
  8
0
 10
-28.53040849
 20
-14.82374956
  0
VERTEX
  8
0
 10
-28.99455031
 20
-14.78471594
  0
VERTEX
  8
0
 10
-29.38770288
 20
-14.71791298
  0
VERTEX
  8
0
 10
-29.71575793
 20
-14.61591613
  0
VERTEX
  8
0
 10
-29.85721506
 20
-14.54939982
  0
VERTEX
  8
0
 10
-29.98460722
 20
-14.47130083
  0
VERTEX
  8
0
 10
-30.09867088
 20
-14.38069107
  0
VERTEX
  8
0
 10
-30.20014250
 20
-14.27664250
  0
VERTEX
  8
0
 10
-30.28975856
 20
-14.15822703
  0
VERTEX
  8
0
 10
-30.36825551
 20
-14.02451660
  0
VERTEX
  8
0
 10
-30.43636984
 20
-13.87458313
  0
VERTEX
  8
0
 10
-30.49483801
 20
-13.70749855
  0
VERTEX
  8
0
 10
-30.58578173
 20
-13.31816381
  0
VERTEX
  8
0
 10
-30.64697844
 20
-12.84908781
  0
VERTEX
  8
0
 10
-30.68431987
 20
-12.29284599
  0
VERTEX
  8
0
 10
-30.70369777
 20
-11.64201379
  0
VERTEX
  8
0
 10
-30.71213000
 20
-10.02688000
  0
VERTEX
  8
0
 10
-30.71213000
 20
-3.64848000
  0
VERTEX
  8
0
 10
-30.73020007
 20
-3.29062478
  0
VERTEX
  8
0
 10
-30.78323742
 20
-2.94310695
  0
VERTEX
  8
0
 10
-30.86948278
 20
-2.60768581
  0
VERTEX
  8
0
 10
-30.98717688
 20
-2.28612062
  0
VERTEX
  8
0
 10
-31.13456042
 20
-1.98017067
  0
VERTEX
  8
0
 10
-31.30987414
 20
-1.69159523
  0
VERTEX
  8
0
 10
-31.51135876
 20
-1.42215358
  0
VERTEX
  8
0
 10
-31.73725500
 20
-1.17360500
  0
VERTEX
  8
0
 10
-31.98580358
 20
-0.94770876
  0
VERTEX
  8
0
 10
-32.25524523
 20
-0.74622414
  0
VERTEX
  8
0
 10
-32.54382067
 20
-0.57091042
  0
VERTEX
  8
0
 10
-32.84977062
 20
-0.42352687
  0
VERTEX
  8
0
 10
-33.17133581
 20
-0.30583278
  0
VERTEX
  8
0
 10
-33.50675695
 20
-0.21958742
  0
VERTEX
  8
0
 10
-33.85427478
 20
-0.16655007
  0
VERTEX
  8
0
 10
-34.21213000
 20
-0.14848000
  0
VERTEX
  8
0
 10
-34.56998522
 20
-0.16655007
  0
VERTEX
  8
0
 10
-34.91750305
 20
-0.21958742
  0
VERTEX
  8
0
 10
-35.25292419
 20
-0.30583278
  0
VERTEX
  8
0
 10
-35.57448937
 20
-0.42352687
  0
VERTEX
  8
0
 10
-35.88043933
 20
-0.57091042
  0
VERTEX
  8
0
 10
-36.16901477
 20
-0.74622414
  0
VERTEX
  8
0
 10
-36.43845642
 20
-0.94770876
  0
VERTEX
  8
0
 10
-36.68700500
 20
-1.17360500
  0
VERTEX
  8
0
 10
-36.91290124
 20
-1.42215358
  0
VERTEX
  8
0
 10
-37.11438586
 20
-1.69159523
  0
VERTEX
  8
0
 10
-37.28969958
 20
-1.98017067
  0
VERTEX
  8
0
 10
-37.43708313
 20
-2.28612062
  0
VERTEX
  8
0
 10
-37.55477722
 20
-2.60768581
  0
VERTEX
  8
0
 10
-37.64102258
 20
-2.94310695
  0
VERTEX
  8
0
 10
-37.69405993
 20
-3.29062478
  0
VERTEX
  8
0
 10
-37.71213000
 20
-3.64848000
  0
VERTEX
  8
0
 10
-37.71213000
 20
-9.97728000
  0
VERTEX
  8
0
 10
-37.71967531
 20
-11.59474602
  0
VERTEX
  8
0
 10
-37.73824406
 20
-12.24808327
  0
VERTEX
  8
0
 10
-37.77479875
 20
-12.80753313
  0
VERTEX
  8
0
 10
-37.83543078
 20
-13.28037790
  0
VERTEX
  8
0
 10
-37.92623156
 20
-13.67389992
  0
VERTEX
  8
0
 10
-37.98484880
 20
-13.84319063
  0
VERTEX
  8
0
 10
-38.05329250
 20
-13.99538151
  0
VERTEX
  8
0
 10
-38.13232409
 20
-14.13138287
  0
VERTEX
  8
0
 10
-38.22270500
 20
-14.25210500
  0
VERTEX
  8
0
 10
-38.32519665
 20
-14.35845818
  0
VERTEX
  8
0
 10
-38.44056047
 20
-14.45135271
  0
VERTEX
  8
0
 10
-38.56955788
 20
-14.53169887
  0
VERTEX
  8
0
 10
-38.71295031
 20
-14.60040695
  0
VERTEX
  8
0
 10
-39.04596594
 20
-14.70655007
  0
VERTEX
  8
0
 10
-39.44569875
 20
-14.77706438
  0
VERTEX
  8
0
 10
-39.91824016
 20
-14.81923220
  0
VERTEX
  8
0
 10
-40.46968156
 20
-14.84033586
  0
VERTEX
  8
0
 10
-41.83363000
 20
-14.84848000
  0
VERTEX
  8
0
 10
-96.80093000
 20
-14.84848000
  0
VERTEX
  8
0
 10
-97.41871184
 20
-14.84664465
  0
VERTEX
  8
0
 10
-97.88664719
 20
-14.82438469
  0
VERTEX
  8
0
 10
-98.07092158
 20
-14.79774208
  0
VERTEX
  8
0
 10
-98.22553332
 20
-14.75656926
  0
VERTEX
  8
0
 10
-98.35308208
 20
-14.69772485
  0
VERTEX
  8
0
 10
-98.45616750
 20
-14.61806750
  0
VERTEX
  8
0
 10
-98.53738925
 20
-14.51445585
  0
VERTEX
  8
0
 10
-98.59934699
 20
-14.38374855
  0
VERTEX
  8
0
 10
-98.64464038
 20
-14.22280424
  0
VERTEX
  8
0
 10
-98.67586906
 20
-14.02848156
  0
VERTEX
  8
0
 10
-98.70653098
 20
-13.52713566
  0
VERTEX
  8
0
 10
-98.71213000
 20
-12.85458000
  0
VERTEX
  8
0
 10
-98.71213000
 20
-3.64848000
  0
VERTEX
  8
0
 10
-98.73020007
 20
-3.29062478
  0
VERTEX
  8
0
 10
-98.78323742
 20
-2.94310695
  0
VERTEX
  8
0
 10
-98.86948278
 20
-2.60768581
  0
VERTEX
  8
0
 10
-98.98717688
 20
-2.28612062
  0
VERTEX
  8
0
 10
-99.13456042
 20
-1.98017067
  0
VERTEX
  8
0
 10
-99.30987414
 20
-1.69159523
  0
VERTEX
  8
0
 10
-99.51135876
 20
-1.42215358
  0
VERTEX
  8
0
 10
-99.73725500
 20
-1.17360500
  0
VERTEX
  8
0
 10
-99.98580358
 20
-0.94770876
  0
VERTEX
  8
0
 10
-100.25524523
 20
-0.74622414
  0
VERTEX
  8
0
 10
-100.54382067
 20
-0.57091042
  0
VERTEX
  8
0
 10
-100.84977063
 20
-0.42352687
  0
VERTEX
  8
0
 10
-101.17133581
 20
-0.30583278
  0
VERTEX
  8
0
 10
-101.50675695
 20
-0.21958742
  0
VERTEX
  8
0
 10
-101.85427478
 20
-0.16655007
  0
VERTEX
  8
0
 10
-102.21213000
 20
-0.14848000
  0
VERTEX
  8
0
 10
-102.56998522
 20
-0.16655007
  0
VERTEX
  8
0
 10
-102.91750305
 20
-0.21958742
  0
VERTEX
  8
0
 10
-103.25292419
 20
-0.30583278
  0
VERTEX
  8
0
 10
-103.57448938
 20
-0.42352687
  0
VERTEX
  8
0
 10
-103.88043933
 20
-0.57091042
  0
VERTEX
  8
0
 10
-104.16901477
 20
-0.74622414
  0
VERTEX
  8
0
 10
-104.43845642
 20
-0.94770876
  0
VERTEX
  8
0
 10
-104.68700500
 20
-1.17360500
  0
VERTEX
  8
0
 10
-104.91290124
 20
-1.42215358
  0
VERTEX
  8
0
 10
-105.11438586
 20
-1.69159523
  0
VERTEX
  8
0
 10
-105.28969958
 20
-1.98017067
  0
VERTEX
  8
0
 10
-105.43708313
 20
-2.28612062
  0
VERTEX
  8
0
 10
-105.55477722
 20
-2.60768581
  0
VERTEX
  8
0
 10
-105.64102258
 20
-2.94310695
  0
VERTEX
  8
0
 10
-105.69405993
 20
-3.29062478
  0
VERTEX
  8
0
 10
-105.71213000
 20
-3.64848000
  0
VERTEX
  8
0
 10
-105.71213000
 20
-12.73888000
  0
VERTEX
  8
0
 10
-105.71762922
 20
-13.43949074
  0
VERTEX
  8
0
 10
-105.74768625
 20
-13.96477844
  0
VERTEX
  8
0
 10
-105.77827990
 20
-14.16956542
  0
VERTEX
  8
0
 10
-105.82264016
 20
-14.33998879
  0
VERTEX
  8
0
 10
-105.88330939
 20
-14.47920424
  0
VERTEX
  8
0
 10
-105.96283000
 20
-14.59036750
  0
VERTEX
  8
0
 10
-106.06374436
 20
-14.67663427
  0
VERTEX
  8
0
 10
-106.18859484
 20
-14.74116027
  0
VERTEX
  8
0
 10
-106.33992385
 20
-14.78710122
  0
VERTEX
  8
0
 10
-106.52027375
 20
-14.81761281
  0
VERTEX
  8
0
 10
-106.97820578
 20
-14.84497082
  0
VERTEX
  8
0
 10
-107.58273000
 20
-14.84848000
  0
VERTEX
  8
0
 10
-164.40233000
 20
-14.84848000
  0
VERTEX
  8
0
 10
-165.16399797
 20
-14.84701457
  0
VERTEX
  8
0
 10
-165.73658625
 20
-14.82211281
  0
VERTEX
  8
0
 10
-165.96040568
 20
-14.79126137
  0
VERTEX
  8
0
 10
-166.14707141
 20
-14.74301652
  0
VERTEX
  8
0
 10
-166.29995549
 20
-14.67353349
  0
VERTEX
  8
0
 10
-166.42243000
 20
-14.57896750
  0
VERTEX
  8
0
 10
-166.51786701
 20
-14.45547377
  0
VERTEX
  8
0
 10
-166.58963859
 20
-14.29920754
  0
VERTEX
  8
0
 10
-166.64111682
 20
-14.10632402
  0
VERTEX
  8
0
 10
-166.67567375
 20
-13.87297844
  0
VERTEX
  8
0
 10
-166.70751203
 20
-13.26952199
  0
VERTEX
  8
0
 10
-166.71213000
 20
-12.45808000
  0
VERTEX
  8
0
 10
-166.71213000
 20
-3.64848000
  0
VERTEX
  8
0
 10
-166.73020007
 20
-3.29062478
  0
VERTEX
  8
0
 10
-166.78323742
 20
-2.94310695
  0
VERTEX
  8
0
 10
-166.86948278
 20
-2.60768581
  0
VERTEX
  8
0
 10
-166.98717687
 20
-2.28612062
  0
VERTEX
  8
0
 10
-167.13456042
 20
-1.98017067
  0
VERTEX
  8
0
 10
-167.30987414
 20
-1.69159523
  0
VERTEX
  8
0
 10
-167.51135876
 20
-1.42215358
  0
VERTEX
  8
0
 10
-167.73725500
 20
-1.17360500
  0
VERTEX
  8
0
 10
-167.98580358
 20
-0.94770876
  0
VERTEX
  8
0
 10
-168.25524523
 20
-0.74622414
  0
VERTEX
  8
0
 10
-168.54382067
 20
-0.57091042
  0
VERTEX
  8
0
 10
-168.84977063
 20
-0.42352687
  0
VERTEX
  8
0
 10
-169.17133581
 20
-0.30583278
  0
VERTEX
  8
0
 10
-169.50675695
 20
-0.21958742
  0
VERTEX
  8
0
 10
-169.85427478
 20
-0.16655007
  0
VERTEX
  8
0
 10
-170.21213000
 20
-0.14848000
  0
VERTEX
  8
0
 10
-170.56998522
 20
-0.16655007
  0
VERTEX
  8
0
 10
-170.91750305
 20
-0.21958742
  0
VERTEX
  8
0
 10
-171.25292419
 20
-0.30583278
  0
VERTEX
  8
0
 10
-171.57448937
 20
-0.42352687
  0
VERTEX
  8
0
 10
-171.88043933
 20
-0.57091042
  0
VERTEX
  8
0
 10
-172.16901477
 20
-0.74622414
  0
VERTEX
  8
0
 10
-172.43845642
 20
-0.94770876
  0
VERTEX
  8
0
 10
-172.68700500
 20
-1.17360500
  0
VERTEX
  8
0
 10
-172.91290124
 20
-1.42215358
  0
VERTEX
  8
0
 10
-173.11438586
 20
-1.69159523
  0
VERTEX
  8
0
 10
-173.28969958
 20
-1.98017067
  0
VERTEX
  8
0
 10
-173.43708313
 20
-2.28612062
  0
VERTEX
  8
0
 10
-173.55477722
 20
-2.60768581
  0
VERTEX
  8
0
 10
-173.64102258
 20
-2.94310695
  0
VERTEX
  8
0
 10
-173.69405993
 20
-3.29062478
  0
VERTEX
  8
0
 10
-173.71213000
 20
-3.64848000
  0
VERTEX
  8
0
 10
-173.71213000
 20
-12.50768000
  0
VERTEX
  8
0
 10
-173.71417746
 20
-13.27378078
  0
VERTEX
  8
0
 10
-173.73790344
 20
-13.85133625
  0
VERTEX
  8
0
 10
-173.76613818
 20
-14.07773127
  0
VERTEX
  8
0
 10
-173.80968332
 20
-14.26697609
  0
VERTEX
  8
0
 10
-173.87183579
 20
-14.42239943
  0
VERTEX
  8
0
 10
-173.95589250
 20
-14.54733000
  0
VERTEX
  8
0
 10
-174.06515039
 20
-14.64509650
  0
VERTEX
  8
0
 10
-174.20290637
 20
-14.71902766
  0
VERTEX
  8
0
 10
-174.37245737
 20
-14.77245217
  0
VERTEX
  8
0
 10
-174.57710031
 20
-14.80869875
  0
VERTEX
  8
0
 10
-175.10484973
 20
-14.84297297
  0
VERTEX
  8
0
 10
-175.81253000
 20
-14.84848000
  0
VERTEX
  8
0
 10
-180.21213000
 20
-14.84848000
  0
VERTEX
  8
0
 10
-180.21213000
 20
3.15152000
  0
VERTEX
  8
0
 10
-165.21213000
 20
3.15152000
  0
VERTEX
  8
0
 10
-165.21213000
 20
15.15152000
  0
SEQEND
  0
ENDSEC
  0
EOF
