  0
SECTION
  2
HEADER
  9
$ACADVER
  1
AC1014
  9
$HANDSEED
  5
FFFF
  9
$MEASUREMENT
 70
     1
  0
ENDSEC
  0
SECTION
  2
TABLES
  0
TABLE
  2
VPORT
  5
8
330
0
100
AcDbSymbolTable
 70
     4
  0
VPORT
  5
2E
330
8
100
AcDbSymbolTableRecord
100
AcDbViewportTableRecord
  2
*ACTIVE
 70
     0
 10
0.0
 20
0.0
 11
1.0
 21
1.0
 12
210.0
 22
148.5
 13
0.0
 23
0.0
 14
10.0
 24
10.0
 15
10.0
 25
10.0
 16
0.0
 26
0.0
 36
1.0
 17
0.0
 27
0.0
 37
0.0
 40
341.0
 41
1.24
 42
50.0
 43
0.0
 44
0.0
 50
0.0
 51
0.0
 71
     0
 72
   100
 73
     1
 74
     3
 75
     0
 76
     0
 77
     0
 78
     0
  0
ENDTAB
  0
TABLE
  2
LTYPE
  5
5
330
0
100
AcDbSymbolTable
 70
     1
  0
LTYPE
  5
14
330
5
100
AcDbSymbolTableRecord
100
AcDbLinetypeTableRecord
  2
BYBLOCK
 70
     0
  3

 72
    65
 73
     0
 40
0.0
  0
LTYPE
  5
15
330
5
100
AcDbSymbolTableRecord
100
AcDbLinetypeTableRecord
  2
BYLAYER
 70
     0
  3

 72
    65
 73
     0
 40
0.0
  0
LTYPE
  5
16
330
5
100
AcDbSymbolTableRecord
100
AcDbLinetypeTableRecord
  2
CONTINUOUS
 70
     0
  3
Solid line
 72
    65
 73
     0
 40
0.0
  0
ENDTAB
  0
TABLE
  2
LAYER
  5
2
100
AcDbSymbolTable
 70
1
  0
LAYER
  5
50
100
AcDbSymbolTableRecord
100
AcDbLayerTableRecord
  2
0
 70
0
  6
CONTINUOUS
  0
ENDTAB
  0
TABLE
  2
STYLE
  5
3
330
0
100
AcDbSymbolTable
 70
     1
  0
STYLE
  5
11
330
3
100
AcDbSymbolTableRecord
100
AcDbTextStyleTableRecord
  2
STANDARD
 70
     0
 40
0.0
 41
1.0
 50
0.0
 71
     0
 42
2.5
  3
txt
  4

  0
ENDTAB
  0
TABLE
  2
VIEW
  5
6
330
0
100
AcDbSymbolTable
 70
     0
  0
ENDTAB
  0
TABLE
  2
UCS
  5
7
330
0
100
AcDbSymbolTable
 70
     0
  0
ENDTAB
  0
TABLE
  2
APPID
  5
9
330
0
100
AcDbSymbolTable
 70
     2
  0
APPID
  5
12
330
9
100
AcDbSymbolTableRecord
100
AcDbRegAppTableRecord
  2
ACAD
 70
     0
  0
ENDTAB
  0
TABLE
  2
DIMSTYLE
  5
A
330
0
100
AcDbSymbolTable
 70
     1
  0
DIMSTYLE
105
27
330
A
100
AcDbSymbolTableRecord
100
AcDbDimStyleTableRecord
  2
ISO-25
 70
     0
  3

  4

  5

  6

  7

 40
1.0
 41
2.5
 42
0.625
 43
3.75
 44
1.25
 45
0.0
 46
0.0
 47
0.0
 48
0.0
140
2.5
141
2.5
142
0.0
143
0.03937007874016
144
1.0
145
0.0
146
1.0
147
0.625
 71
     0
 72
     0
 73
     0
 74
     0
 75
     0
 76
     0
 77
     1
 78
     8
170
     0
171
     3
172
     1
173
     0
174
     0
175
     0
176
     0
177
     0
178
     0
270
     2
271
     2
272
     2
273
     2
274
     3
340
11
275
     0
280
     0
281
     0
282
     0
283
     0
284
     8
285
     0
286
     0
287
     3
288
     0
  0
ENDTAB
  0
TABLE
  2
BLOCK_RECORD
  5
1
330
0
100
AcDbSymbolTable
 70
     1
  0
BLOCK_RECORD
  5
1F
330
1
100
AcDbSymbolTableRecord
100
AcDbBlockTableRecord
  2
*MODEL_SPACE
  0
BLOCK_RECORD
  5
1B
330
1
100
AcDbSymbolTableRecord
100
AcDbBlockTableRecord
  2
*PAPER_SPACE
  0
ENDTAB
  0
ENDSEC
  0
SECTION
  2
BLOCKS
  0
BLOCK
  5
20
330
1F
100
AcDbEntity
  8
0
100
AcDbBlockBegin
  2
*MODEL_SPACE
 70
     0
 10
0.0
 20
0.0
 30
0.0
  3
*MODEL_SPACE
  1

  0
ENDBLK
  5
21
330
1F
100
AcDbEntity
  8
0
100
AcDbBlockEnd
  0
BLOCK
  5
1C
330
1B
100
AcDbEntity
 67
     1
  8
0
100
AcDbBlockBegin
  2
*PAPER_SPACE
  1

  0
ENDBLK
  5
1D
330
1B
100
AcDbEntity
 67
     1
  8
0
100
AcDbBlockEnd
  0
ENDSEC
  0
SECTION
  2
ENTITIES
  0
SPLINE
  5
100
100
AcDbEntity
  8
0
 62
7
100
AcDbSpline
 70
8
 71
3
 72
8
 73
4
 74
0
 40
0
 40
0
 40
0
 40
0
 40
1
 40
1
 40
1
 40
1
 10
27.336578
 20
1162.494077
 30
0.0
 10
27.336578
 20
1163.405104
 30
0.0
 10
27.822605
 20
1164.246928
 30
0.0
 10
28.611578
 20
1164.702441
 30
0.0
  0
SPLINE
  5
101
100
AcDbEntity
  8
0
 62
7
100
AcDbSpline
 70
8
 71
3
 72
8
 73
4
 74
0
 40
0
 40
0
 40
0
 40
0
 40
1
 40
1
 40
1
 40
1
 10
28.611578
 20
1164.702441
 30
0.0
 10
29.400551
 20
1165.157955
 30
0.0
 10
30.372605
 20
1165.157955
 30
0.0
 10
31.161578
 20
1164.702441
 30
0.0
  0
SPLINE
  5
102
100
AcDbEntity
  8
0
 62
7
100
AcDbSpline
 70
8
 71
3
 72
8
 73
4
 74
0
 40
0
 40
0
 40
0
 40
0
 40
1
 40
1
 40
1
 40
1
 10
31.161578
 20
1164.702441
 30
0.0
 10
31.950551
 20
1164.246928
 30
0.0
 10
32.436578
 20
1163.405104
 30
0.0
 10
32.436578
 20
1162.494077
 30
0.0
  0
SPLINE
  5
103
100
AcDbEntity
  8
0
 62
7
100
AcDbSpline
 70
8
 71
3
 72
8
 73
4
 74
0
 40
0
 40
0
 40
0
 40
0
 40
1
 40
1
 40
1
 40
1
 10
32.436578
 20
1162.494077
 30
0.0
 10
32.436578
 20
1161.583049
 30
0.0
 10
31.950551
 20
1160.741226
 30
0.0
 10
31.161578
 20
1160.285712
 30
0.0
  0
SPLINE
  5
104
100
AcDbEntity
  8
0
 62
7
100
AcDbSpline
 70
8
 71
3
 72
8
 73
4
 74
0
 40
0
 40
0
 40
0
 40
0
 40
1
 40
1
 40
1
 40
1
 10
31.161578
 20
1160.285712
 30
0.0
 10
30.372605
 20
1159.830198
 30
0.0
 10
29.400551
 20
1159.830198
 30
0.0
 10
28.611578
 20
1160.285712
 30
0.0
  0
SPLINE
  5
105
100
AcDbEntity
  8
0
 62
7
100
AcDbSpline
 70
8
 71
3
 72
8
 73
4
 74
0
 40
0
 40
0
 40
0
 40
0
 40
1
 40
1
 40
1
 40
1
 10
28.611578
 20
1160.285712
 30
0.0
 10
27.822605
 20
1160.741226
 30
0.0
 10
27.336578
 20
1161.583049
 30
0.0
 10
27.336578
 20
1162.494077
 30
0.0
  0
SPLINE
  5
106
100
AcDbEntity
  8
0
 62
7
100
AcDbSpline
 70
8
 71
3
 72
8
 73
4
 74
0
 40
0
 40
0
 40
0
 40
0
 40
1
 40
1
 40
1
 40
1
 10
27.336578
 20
39.720734
 30
0.0
 10
27.336578
 20
40.631762
 30
0.0
 10
27.822605
 20
41.473585
 30
0.0
 10
28.611578
 20
41.929099
 30
0.0
  0
SPLINE
  5
107
100
AcDbEntity
  8
0
 62
7
100
AcDbSpline
 70
8
 71
3
 72
8
 73
4
 74
0
 40
0
 40
0
 40
0
 40
0
 40
1
 40
1
 40
1
 40
1
 10
28.611578
 20
41.929099
 30
0.0
 10
29.400551
 20
42.384613
 30
0.0
 10
30.372605
 20
42.384613
 30
0.0
 10
31.161578
 20
41.929099
 30
0.0
  0
SPLINE
  5
108
100
AcDbEntity
  8
0
 62
7
100
AcDbSpline
 70
8
 71
3
 72
8
 73
4
 74
0
 40
0
 40
0
 40
0
 40
0
 40
1
 40
1
 40
1
 40
1
 10
31.161578
 20
41.929099
 30
0.0
 10
31.950551
 20
41.473585
 30
0.0
 10
32.436578
 20
40.631762
 30
0.0
 10
32.436578
 20
39.720734
 30
0.0
  0
SPLINE
  5
109
100
AcDbEntity
  8
0
 62
7
100
AcDbSpline
 70
8
 71
3
 72
8
 73
4
 74
0
 40
0
 40
0
 40
0
 40
0
 40
1
 40
1
 40
1
 40
1
 10
32.436578
 20
39.720734
 30
0.0
 10
32.436578
 20
38.809707
 30
0.0
 10
31.950551
 20
37.967883
 30
0.0
 10
31.161578
 20
37.512370
 30
0.0
  0
SPLINE
  5
10a
100
AcDbEntity
  8
0
 62
7
100
AcDbSpline
 70
8
 71
3
 72
8
 73
4
 74
0
 40
0
 40
0
 40
0
 40
0
 40
1
 40
1
 40
1
 40
1
 10
31.161578
 20
37.512370
 30
0.0
 10
30.372605
 20
37.056856
 30
0.0
 10
29.400551
 20
37.056856
 30
0.0
 10
28.611578
 20
37.512370
 30
0.0
  0
SPLINE
  5
10b
100
AcDbEntity
  8
0
 62
7
100
AcDbSpline
 70
8
 71
3
 72
8
 73
4
 74
0
 40
0
 40
0
 40
0
 40
0
 40
1
 40
1
 40
1
 40
1
 10
28.611578
 20
37.512370
 30
0.0
 10
27.822605
 20
37.967883
 30
0.0
 10
27.336578
 20
38.809707
 30
0.0
 10
27.336578
 20
39.720734
 30
0.0
  0
LWPOLYLINE
  5
10c
100
AcDbEntity
  8
0
 62
7
100
AcDbPolyline
 90
1
 70
1
 10
27.336578
 20
1162.494077
 30
0.0
  0
SPLINE
  5
10d
100
AcDbEntity
  8
0
 62
7
100
AcDbSpline
 70
8
 71
3
 72
8
 73
4
 74
0
 40
0
 40
0
 40
0
 40
0
 40
1
 40
1
 40
1
 40
1
 10
27.336578
 20
1192.494070
 30
0.0
 10
27.336578
 20
1193.405097
 30
0.0
 10
27.822605
 20
1194.246921
 30
0.0
 10
28.611578
 20
1194.702434
 30
0.0
  0
SPLINE
  5
10e
100
AcDbEntity
  8
0
 62
7
100
AcDbSpline
 70
8
 71
3
 72
8
 73
4
 74
0
 40
0
 40
0
 40
0
 40
0
 40
1
 40
1
 40
1
 40
1
 10
28.611578
 20
1194.702434
 30
0.0
 10
29.400551
 20
1195.157948
 30
0.0
 10
30.372605
 20
1195.157948
 30
0.0
 10
31.161578
 20
1194.702434
 30
0.0
  0
SPLINE
  5
10f
100
AcDbEntity
  8
0
 62
7
100
AcDbSpline
 70
8
 71
3
 72
8
 73
4
 74
0
 40
0
 40
0
 40
0
 40
0
 40
1
 40
1
 40
1
 40
1
 10
31.161578
 20
1194.702434
 30
0.0
 10
31.950551
 20
1194.246921
 30
0.0
 10
32.436578
 20
1193.405097
 30
0.0
 10
32.436578
 20
1192.494070
 30
0.0
  0
SPLINE
  5
110
100
AcDbEntity
  8
0
 62
7
100
AcDbSpline
 70
8
 71
3
 72
8
 73
4
 74
0
 40
0
 40
0
 40
0
 40
0
 40
1
 40
1
 40
1
 40
1
 10
32.436578
 20
1192.494070
 30
0.0
 10
32.436578
 20
1191.583042
 30
0.0
 10
31.950551
 20
1190.741218
 30
0.0
 10
31.161578
 20
1190.285705
 30
0.0
  0
SPLINE
  5
111
100
AcDbEntity
  8
0
 62
7
100
AcDbSpline
 70
8
 71
3
 72
8
 73
4
 74
0
 40
0
 40
0
 40
0
 40
0
 40
1
 40
1
 40
1
 40
1
 10
31.161578
 20
1190.285705
 30
0.0
 10
30.372605
 20
1189.830191
 30
0.0
 10
29.400551
 20
1189.830191
 30
0.0
 10
28.611578
 20
1190.285705
 30
0.0
  0
SPLINE
  5
112
100
AcDbEntity
  8
0
 62
7
100
AcDbSpline
 70
8
 71
3
 72
8
 73
4
 74
0
 40
0
 40
0
 40
0
 40
0
 40
1
 40
1
 40
1
 40
1
 10
28.611578
 20
1190.285705
 30
0.0
 10
27.822605
 20
1190.741218
 30
0.0
 10
27.336578
 20
1191.583042
 30
0.0
 10
27.336578
 20
1192.494070
 30
0.0
  0
LWPOLYLINE
  5
113
100
AcDbEntity
  8
0
 62
7
100
AcDbPolyline
 90
1
 70
1
 10
27.336578
 20
39.720734
 30
0.0
  0
SPLINE
  5
114
100
AcDbEntity
  8
0
 62
7
100
AcDbSpline
 70
8
 71
3
 72
8
 73
4
 74
0
 40
0
 40
0
 40
0
 40
0
 40
1
 40
1
 40
1
 40
1
 10
27.310501
 20
947.879184
 30
0.0
 10
27.310501
 20
948.790212
 30
0.0
 10
27.796528
 20
949.632035
 30
0.0
 10
28.585501
 20
950.087549
 30
0.0
  0
SPLINE
  5
115
100
AcDbEntity
  8
0
 62
7
100
AcDbSpline
 70
8
 71
3
 72
8
 73
4
 74
0
 40
0
 40
0
 40
0
 40
0
 40
1
 40
1
 40
1
 40
1
 10
28.585501
 20
950.087549
 30
0.0
 10
29.374473
 20
950.543063
 30
0.0
 10
30.346528
 20
950.543063
 30
0.0
 10
31.135501
 20
950.087549
 30
0.0
  0
SPLINE
  5
116
100
AcDbEntity
  8
0
 62
7
100
AcDbSpline
 70
8
 71
3
 72
8
 73
4
 74
0
 40
0
 40
0
 40
0
 40
0
 40
1
 40
1
 40
1
 40
1
 10
31.135501
 20
950.087549
 30
0.0
 10
31.924473
 20
949.632035
 30
0.0
 10
32.410501
 20
948.790212
 30
0.0
 10
32.410501
 20
947.879184
 30
0.0
  0
SPLINE
  5
117
100
AcDbEntity
  8
0
 62
7
100
AcDbSpline
 70
8
 71
3
 72
8
 73
4
 74
0
 40
0
 40
0
 40
0
 40
0
 40
1
 40
1
 40
1
 40
1
 10
32.410501
 20
947.879184
 30
0.0
 10
32.410501
 20
946.968157
 30
0.0
 10
31.924473
 20
946.126333
 30
0.0
 10
31.135501
 20
945.670820
 30
0.0
  0
SPLINE
  5
118
100
AcDbEntity
  8
0
 62
7
100
AcDbSpline
 70
8
 71
3
 72
8
 73
4
 74
0
 40
0
 40
0
 40
0
 40
0
 40
1
 40
1
 40
1
 40
1
 10
31.135501
 20
945.670820
 30
0.0
 10
30.346528
 20
945.215306
 30
0.0
 10
29.374473
 20
945.215306
 30
0.0
 10
28.585501
 20
945.670820
 30
0.0
  0
SPLINE
  5
119
100
AcDbEntity
  8
0
 62
7
100
AcDbSpline
 70
8
 71
3
 72
8
 73
4
 74
0
 40
0
 40
0
 40
0
 40
0
 40
1
 40
1
 40
1
 40
1
 10
28.585501
 20
945.670820
 30
0.0
 10
27.796528
 20
946.126333
 30
0.0
 10
27.310501
 20
946.968157
 30
0.0
 10
27.310501
 20
947.879184
 30
0.0
  0
LWPOLYLINE
  5
11a
100
AcDbEntity
  8
0
 62
7
100
AcDbPolyline
 90
1
 70
1
 10
27.336578
 20
1192.494070
 30
0.0
  0
SPLINE
  5
11b
100
AcDbEntity
  8
0
 62
7
100
AcDbSpline
 70
8
 71
3
 72
8
 73
4
 74
0
 40
0
 40
0
 40
0
 40
0
 40
1
 40
1
 40
1
 40
1
 10
27.329188
 20
977.879177
 30
0.0
 10
27.328895
 20
978.790400
 30
0.0
 10
27.814858
 20
979.632530
 30
0.0
 10
28.603951
 20
980.088227
 30
0.0
  0
SPLINE
  5
11c
100
AcDbEntity
  8
0
 62
7
100
AcDbSpline
 70
8
 71
3
 72
8
 73
4
 74
0
 40
0
 40
0
 40
0
 40
0
 40
1
 40
1
 40
1
 40
1
 10
28.603951
 20
980.088227
 30
0.0
 10
29.393044
 20
980.543923
 30
0.0
 10
30.365332
 20
980.543923
 30
0.0
 10
31.154425
 20
980.088227
 30
0.0
  0
SPLINE
  5
11d
100
AcDbEntity
  8
0
 62
7
100
AcDbSpline
 70
8
 71
3
 72
8
 73
4
 74
0
 40
0
 40
0
 40
0
 40
0
 40
1
 40
1
 40
1
 40
1
 10
31.154425
 20
980.088227
 30
0.0
 10
31.943519
 20
979.632530
 30
0.0
 10
32.429482
 20
978.790400
 30
0.0
 10
32.429188
 20
977.879177
 30
0.0
  0
SPLINE
  5
11e
100
AcDbEntity
  8
0
 62
7
100
AcDbSpline
 70
8
 71
3
 72
8
 73
4
 74
0
 40
0
 40
0
 40
0
 40
0
 40
1
 40
1
 40
1
 40
1
 10
32.429188
 20
977.879177
 30
0.0
 10
32.429482
 20
976.967954
 30
0.0
 10
31.943519
 20
976.125824
 30
0.0
 10
31.154425
 20
975.670128
 30
0.0
  0
SPLINE
  5
11f
100
AcDbEntity
  8
0
 62
7
100
AcDbSpline
 70
8
 71
3
 72
8
 73
4
 74
0
 40
0
 40
0
 40
0
 40
0
 40
1
 40
1
 40
1
 40
1
 10
31.154425
 20
975.670128
 30
0.0
 10
30.365332
 20
975.214432
 30
0.0
 10
29.393044
 20
975.214432
 30
0.0
 10
28.603951
 20
975.670128
 30
0.0
  0
SPLINE
  5
120
100
AcDbEntity
  8
0
 62
7
100
AcDbSpline
 70
8
 71
3
 72
8
 73
4
 74
0
 40
0
 40
0
 40
0
 40
0
 40
1
 40
1
 40
1
 40
1
 10
28.603951
 20
975.670128
 30
0.0
 10
27.814858
 20
976.125824
 30
0.0
 10
27.328895
 20
976.967954
 30
0.0
 10
27.329188
 20
977.879177
 30
0.0
  0
LWPOLYLINE
  5
121
100
AcDbEntity
  8
0
 62
7
100
AcDbPolyline
 90
1
 70
1
 10
27.310501
 20
947.879184
 30
0.0
  0
SPLINE
  5
122
100
AcDbEntity
  8
0
 62
7
100
AcDbSpline
 70
8
 71
3
 72
8
 73
4
 74
0
 40
0
 40
0
 40
0
 40
0
 40
1
 40
1
 40
1
 40
1
 10
27.336578
 20
9.720739
 30
0.0
 10
27.336578
 20
10.631766
 30
0.0
 10
27.822605
 20
11.473590
 30
0.0
 10
28.611578
 20
11.929103
 30
0.0
  0
SPLINE
  5
123
100
AcDbEntity
  8
0
 62
7
100
AcDbSpline
 70
8
 71
3
 72
8
 73
4
 74
0
 40
0
 40
0
 40
0
 40
0
 40
1
 40
1
 40
1
 40
1
 10
28.611578
 20
11.929103
 30
0.0
 10
29.400551
 20
12.384617
 30
0.0
 10
30.372605
 20
12.384617
 30
0.0
 10
31.161578
 20
11.929103
 30
0.0
  0
SPLINE
  5
124
100
AcDbEntity
  8
0
 62
7
100
AcDbSpline
 70
8
 71
3
 72
8
 73
4
 74
0
 40
0
 40
0
 40
0
 40
0
 40
1
 40
1
 40
1
 40
1
 10
31.161578
 20
11.929103
 30
0.0
 10
31.950551
 20
11.473590
 30
0.0
 10
32.436578
 20
10.631766
 30
0.0
 10
32.436578
 20
9.720739
 30
0.0
  0
SPLINE
  5
125
100
AcDbEntity
  8
0
 62
7
100
AcDbSpline
 70
8
 71
3
 72
8
 73
4
 74
0
 40
0
 40
0
 40
0
 40
0
 40
1
 40
1
 40
1
 40
1
 10
32.436578
 20
9.720739
 30
0.0
 10
32.436578
 20
8.809712
 30
0.0
 10
31.950551
 20
7.967888
 30
0.0
 10
31.161578
 20
7.512374
 30
0.0
  0
SPLINE
  5
126
100
AcDbEntity
  8
0
 62
7
100
AcDbSpline
 70
8
 71
3
 72
8
 73
4
 74
0
 40
0
 40
0
 40
0
 40
0
 40
1
 40
1
 40
1
 40
1
 10
31.161578
 20
7.512374
 30
0.0
 10
30.372605
 20
7.056860
 30
0.0
 10
29.400551
 20
7.056860
 30
0.0
 10
28.611578
 20
7.512374
 30
0.0
  0
SPLINE
  5
127
100
AcDbEntity
  8
0
 62
7
100
AcDbSpline
 70
8
 71
3
 72
8
 73
4
 74
0
 40
0
 40
0
 40
0
 40
0
 40
1
 40
1
 40
1
 40
1
 10
28.611578
 20
7.512374
 30
0.0
 10
27.822605
 20
7.967888
 30
0.0
 10
27.336578
 20
8.809712
 30
0.0
 10
27.336578
 20
9.720739
 30
0.0
  0
LWPOLYLINE
  5
128
100
AcDbEntity
  8
0
 62
7
100
AcDbPolyline
 90
1
 70
1
 10
27.329188
 20
977.879177
 30
0.0
  0
SPLINE
  5
129
100
AcDbEntity
  8
0
 62
7
100
AcDbSpline
 70
8
 71
3
 72
8
 73
4
 74
0
 40
0
 40
0
 40
0
 40
0
 40
1
 40
1
 40
1
 40
1
 10
25.686577
 20
62.620734
 30
0.0
 10
25.686577
 20
64.121250
 30
0.0
 10
26.487092
 20
65.507783
 30
0.0
 10
27.786577
 20
66.258041
 30
0.0
  0
SPLINE
  5
12a
100
AcDbEntity
  8
0
 62
7
100
AcDbSpline
 70
8
 71
3
 72
8
 73
4
 74
0
 40
0
 40
0
 40
0
 40
0
 40
1
 40
1
 40
1
 40
1
 10
27.786577
 20
66.258041
 30
0.0
 10
29.086061
 20
67.008299
 30
0.0
 10
30.687092
 20
67.008299
 30
0.0
 10
31.986577
 20
66.258041
 30
0.0
  0
SPLINE
  5
12b
100
AcDbEntity
  8
0
 62
7
100
AcDbSpline
 70
8
 71
3
 72
8
 73
4
 74
0
 40
0
 40
0
 40
0
 40
0
 40
1
 40
1
 40
1
 40
1
 10
31.986577
 20
66.258041
 30
0.0
 10
33.286061
 20
65.507783
 30
0.0
 10
34.086577
 20
64.121250
 30
0.0
 10
34.086576
 20
62.620734
 30
0.0
  0
SPLINE
  5
12c
100
AcDbEntity
  8
0
 62
7
100
AcDbSpline
 70
8
 71
3
 72
8
 73
4
 74
0
 40
0
 40
0
 40
0
 40
0
 40
1
 40
1
 40
1
 40
1
 10
34.086576
 20
62.620734
 30
0.0
 10
34.086576
 20
61.120219
 30
0.0
 10
33.286061
 20
59.733685
 30
0.0
 10
31.986576
 20
58.983427
 30
0.0
  0
SPLINE
  5
12d
100
AcDbEntity
  8
0
 62
7
100
AcDbSpline
 70
8
 71
3
 72
8
 73
4
 74
0
 40
0
 40
0
 40
0
 40
0
 40
1
 40
1
 40
1
 40
1
 10
31.986576
 20
58.983427
 30
0.0
 10
30.687092
 20
58.233170
 30
0.0
 10
29.086061
 20
58.233170
 30
0.0
 10
27.786576
 20
58.983427
 30
0.0
  0
SPLINE
  5
12e
100
AcDbEntity
  8
0
 62
7
100
AcDbSpline
 70
8
 71
3
 72
8
 73
4
 74
0
 40
0
 40
0
 40
0
 40
0
 40
1
 40
1
 40
1
 40
1
 10
27.786576
 20
58.983427
 30
0.0
 10
26.487092
 20
59.733685
 30
0.0
 10
25.686576
 20
61.120219
 30
0.0
 10
25.686576
 20
62.620734
 30
0.0
  0
LWPOLYLINE
  5
12f
100
AcDbEntity
  8
0
 62
7
100
AcDbPolyline
 90
1
 70
1
 10
27.336578
 20
9.720739
 30
0.0
  0
SPLINE
  5
130
100
AcDbEntity
  8
0
 62
7
100
AcDbSpline
 70
8
 71
3
 72
8
 73
4
 74
0
 40
0
 40
0
 40
0
 40
0
 40
1
 40
1
 40
1
 40
1
 10
28.336576
 20
1006.794088
 30
0.0
 10
28.336283
 20
1007.705310
 30
0.0
 10
28.822246
 20
1008.547441
 30
0.0
 10
29.611339
 20
1009.003137
 30
0.0
  0
SPLINE
  5
131
100
AcDbEntity
  8
0
 62
7
100
AcDbSpline
 70
8
 71
3
 72
8
 73
4
 74
0
 40
0
 40
0
 40
0
 40
0
 40
1
 40
1
 40
1
 40
1
 10
29.611339
 20
1009.003137
 30
0.0
 10
30.400432
 20
1009.458833
 30
0.0
 10
31.372720
 20
1009.458833
 30
0.0
 10
32.161813
 20
1009.003137
 30
0.0
  0
SPLINE
  5
132
100
AcDbEntity
  8
0
 62
7
100
AcDbSpline
 70
8
 71
3
 72
8
 73
4
 74
0
 40
0
 40
0
 40
0
 40
0
 40
1
 40
1
 40
1
 40
1
 10
32.161813
 20
1009.003137
 30
0.0
 10
32.950906
 20
1008.547441
 30
0.0
 10
33.436869
 20
1007.705310
 30
0.0
 10
33.436576
 20
1006.794087
 30
0.0
  0
SPLINE
  5
133
100
AcDbEntity
  8
0
 62
7
100
AcDbSpline
 70
8
 71
3
 72
8
 73
4
 74
0
 40
0
 40
0
 40
0
 40
0
 40
1
 40
1
 40
1
 40
1
 10
33.436576
 20
1006.794087
 30
0.0
 10
33.436869
 20
1005.882865
 30
0.0
 10
32.950906
 20
1005.040734
 30
0.0
 10
32.161813
 20
1004.585038
 30
0.0
  0
SPLINE
  5
134
100
AcDbEntity
  8
0
 62
7
100
AcDbSpline
 70
8
 71
3
 72
8
 73
4
 74
0
 40
0
 40
0
 40
0
 40
0
 40
1
 40
1
 40
1
 40
1
 10
32.161813
 20
1004.585038
 30
0.0
 10
31.372720
 20
1004.129342
 30
0.0
 10
30.400432
 20
1004.129342
 30
0.0
 10
29.611339
 20
1004.585038
 30
0.0
  0
SPLINE
  5
135
100
AcDbEntity
  8
0
 62
7
100
AcDbSpline
 70
8
 71
3
 72
8
 73
4
 74
0
 40
0
 40
0
 40
0
 40
0
 40
1
 40
1
 40
1
 40
1
 10
29.611339
 20
1004.585038
 30
0.0
 10
28.822246
 20
1005.040734
 30
0.0
 10
28.336283
 20
1005.882865
 30
0.0
 10
28.336576
 20
1006.794087
 30
0.0
  0
LWPOLYLINE
  5
136
100
AcDbEntity
  8
0
 62
7
100
AcDbPolyline
 90
1
 70
1
 10
25.686576
 20
62.620734
 30
0.0
  0
SPLINE
  5
137
100
AcDbEntity
  8
0
 62
7
100
AcDbSpline
 70
8
 71
3
 72
8
 73
4
 74
0
 40
0
 40
0
 40
0
 40
0
 40
1
 40
1
 40
1
 40
1
 10
28.336576
 20
1136.794066
 30
0.0
 10
28.336283
 20
1137.705288
 30
0.0
 10
28.822246
 20
1138.547419
 30
0.0
 10
29.611339
 20
1139.003115
 30
0.0
  0
SPLINE
  5
138
100
AcDbEntity
  8
0
 62
7
100
AcDbSpline
 70
8
 71
3
 72
8
 73
4
 74
0
 40
0
 40
0
 40
0
 40
0
 40
1
 40
1
 40
1
 40
1
 10
29.611339
 20
1139.003115
 30
0.0
 10
30.400432
 20
1139.458811
 30
0.0
 10
31.372720
 20
1139.458811
 30
0.0
 10
32.161813
 20
1139.003115
 30
0.0
  0
SPLINE
  5
139
100
AcDbEntity
  8
0
 62
7
100
AcDbSpline
 70
8
 71
3
 72
8
 73
4
 74
0
 40
0
 40
0
 40
0
 40
0
 40
1
 40
1
 40
1
 40
1
 10
32.161813
 20
1139.003115
 30
0.0
 10
32.950906
 20
1138.547419
 30
0.0
 10
33.436869
 20
1137.705288
 30
0.0
 10
33.436576
 20
1136.794066
 30
0.0
  0
SPLINE
  5
13a
100
AcDbEntity
  8
0
 62
7
100
AcDbSpline
 70
8
 71
3
 72
8
 73
4
 74
0
 40
0
 40
0
 40
0
 40
0
 40
1
 40
1
 40
1
 40
1
 10
33.436576
 20
1136.794066
 30
0.0
 10
33.436869
 20
1135.882843
 30
0.0
 10
32.950906
 20
1135.040712
 30
0.0
 10
32.161813
 20
1134.585016
 30
0.0
  0
SPLINE
  5
13b
100
AcDbEntity
  8
0
 62
7
100
AcDbSpline
 70
8
 71
3
 72
8
 73
4
 74
0
 40
0
 40
0
 40
0
 40
0
 40
1
 40
1
 40
1
 40
1
 10
32.161813
 20
1134.585016
 30
0.0
 10
31.372720
 20
1134.129320
 30
0.0
 10
30.400432
 20
1134.129320
 30
0.0
 10
29.611339
 20
1134.585016
 30
0.0
  0
SPLINE
  5
13c
100
AcDbEntity
  8
0
 62
7
100
AcDbSpline
 70
8
 71
3
 72
8
 73
4
 74
0
 40
0
 40
0
 40
0
 40
0
 40
1
 40
1
 40
1
 40
1
 10
29.611339
 20
1134.585016
 30
0.0
 10
28.822246
 20
1135.040712
 30
0.0
 10
28.336283
 20
1135.882843
 30
0.0
 10
28.336576
 20
1136.794066
 30
0.0
  0
LWPOLYLINE
  5
13d
100
AcDbEntity
  8
0
 62
7
100
AcDbPolyline
 90
1
 70
1
 10
28.336576
 20
1006.794087
 30
0.0
  0
SPLINE
  5
13e
100
AcDbEntity
  8
0
 62
7
100
AcDbSpline
 70
8
 71
3
 72
8
 73
4
 74
0
 40
0
 40
0
 40
0
 40
0
 40
1
 40
1
 40
1
 40
1
 10
171.418083
 20
1159.932169
 30
0.0
 10
171.417790
 20
1160.843392
 30
0.0
 10
171.903753
 20
1161.685522
 30
0.0
 10
172.692846
 20
1162.141218
 30
0.0
  0
SPLINE
  5
13f
100
AcDbEntity
  8
0
 62
7
100
AcDbSpline
 70
8
 71
3
 72
8
 73
4
 74
0
 40
0
 40
0
 40
0
 40
0
 40
1
 40
1
 40
1
 40
1
 10
172.692846
 20
1162.141218
 30
0.0
 10
173.481939
 20
1162.596915
 30
0.0
 10
174.454227
 20
1162.596915
 30
0.0
 10
175.243320
 20
1162.141218
 30
0.0
  0
SPLINE
  5
140
100
AcDbEntity
  8
0
 62
7
100
AcDbSpline
 70
8
 71
3
 72
8
 73
4
 74
0
 40
0
 40
0
 40
0
 40
0
 40
1
 40
1
 40
1
 40
1
 10
175.243320
 20
1162.141218
 30
0.0
 10
176.032414
 20
1161.685522
 30
0.0
 10
176.518377
 20
1160.843392
 30
0.0
 10
176.518083
 20
1159.932169
 30
0.0
  0
SPLINE
  5
141
100
AcDbEntity
  8
0
 62
7
100
AcDbSpline
 70
8
 71
3
 72
8
 73
4
 74
0
 40
0
 40
0
 40
0
 40
0
 40
1
 40
1
 40
1
 40
1
 10
176.518083
 20
1159.932169
 30
0.0
 10
176.518377
 20
1159.020946
 30
0.0
 10
176.032414
 20
1158.178816
 30
0.0
 10
175.243320
 20
1157.723120
 30
0.0
  0
SPLINE
  5
142
100
AcDbEntity
  8
0
 62
7
100
AcDbSpline
 70
8
 71
3
 72
8
 73
4
 74
0
 40
0
 40
0
 40
0
 40
0
 40
1
 40
1
 40
1
 40
1
 10
175.243320
 20
1157.723120
 30
0.0
 10
174.454227
 20
1157.267424
 30
0.0
 10
173.481939
 20
1157.267424
 30
0.0
 10
172.692846
 20
1157.723120
 30
0.0
  0
SPLINE
  5
143
100
AcDbEntity
  8
0
 62
7
100
AcDbSpline
 70
8
 71
3
 72
8
 73
4
 74
0
 40
0
 40
0
 40
0
 40
0
 40
1
 40
1
 40
1
 40
1
 10
172.692846
 20
1157.723120
 30
0.0
 10
171.903753
 20
1158.178816
 30
0.0
 10
171.417790
 20
1159.020946
 30
0.0
 10
171.418083
 20
1159.932169
 30
0.0
  0
LWPOLYLINE
  5
144
100
AcDbEntity
  8
0
 62
7
100
AcDbPolyline
 90
1
 70
1
 10
28.336576
 20
1136.794066
 30
0.0
  0
SPLINE
  5
145
100
AcDbEntity
  8
0
 62
7
100
AcDbSpline
 70
8
 71
3
 72
8
 73
4
 74
0
 40
0
 40
0
 40
0
 40
0
 40
1
 40
1
 40
1
 40
1
 10
171.418083
 20
769.932182
 30
0.0
 10
171.417790
 20
770.843405
 30
0.0
 10
171.903753
 20
771.685535
 30
0.0
 10
172.692846
 20
772.141231
 30
0.0
  0
SPLINE
  5
146
100
AcDbEntity
  8
0
 62
7
100
AcDbSpline
 70
8
 71
3
 72
8
 73
4
 74
0
 40
0
 40
0
 40
0
 40
0
 40
1
 40
1
 40
1
 40
1
 10
172.692846
 20
772.141231
 30
0.0
 10
173.481939
 20
772.596927
 30
0.0
 10
174.454227
 20
772.596927
 30
0.0
 10
175.243320
 20
772.141231
 30
0.0
  0
SPLINE
  5
147
100
AcDbEntity
  8
0
 62
7
100
AcDbSpline
 70
8
 71
3
 72
8
 73
4
 74
0
 40
0
 40
0
 40
0
 40
0
 40
1
 40
1
 40
1
 40
1
 10
175.243320
 20
772.141231
 30
0.0
 10
176.032414
 20
771.685535
 30
0.0
 10
176.518377
 20
770.843405
 30
0.0
 10
176.518083
 20
769.932182
 30
0.0
  0
SPLINE
  5
148
100
AcDbEntity
  8
0
 62
7
100
AcDbSpline
 70
8
 71
3
 72
8
 73
4
 74
0
 40
0
 40
0
 40
0
 40
0
 40
1
 40
1
 40
1
 40
1
 10
176.518083
 20
769.932182
 30
0.0
 10
176.518377
 20
769.020959
 30
0.0
 10
176.032414
 20
768.178829
 30
0.0
 10
175.243320
 20
767.723133
 30
0.0
  0
SPLINE
  5
149
100
AcDbEntity
  8
0
 62
7
100
AcDbSpline
 70
8
 71
3
 72
8
 73
4
 74
0
 40
0
 40
0
 40
0
 40
0
 40
1
 40
1
 40
1
 40
1
 10
175.243320
 20
767.723133
 30
0.0
 10
174.454227
 20
767.267436
 30
0.0
 10
173.481939
 20
767.267436
 30
0.0
 10
172.692846
 20
767.723133
 30
0.0
  0
SPLINE
  5
14a
100
AcDbEntity
  8
0
 62
7
100
AcDbSpline
 70
8
 71
3
 72
8
 73
4
 74
0
 40
0
 40
0
 40
0
 40
0
 40
1
 40
1
 40
1
 40
1
 10
172.692846
 20
767.723133
 30
0.0
 10
171.903753
 20
768.178829
 30
0.0
 10
171.417790
 20
769.020959
 30
0.0
 10
171.418083
 20
769.932182
 30
0.0
  0
LWPOLYLINE
  5
14b
100
AcDbEntity
  8
0
 62
7
100
AcDbPolyline
 90
1
 70
1
 10
171.418083
 20
1159.932169
 30
0.0
  0
SPLINE
  5
14c
100
AcDbEntity
  8
0
 62
7
100
AcDbSpline
 70
8
 71
3
 72
8
 73
4
 74
0
 40
0
 40
0
 40
0
 40
0
 40
1
 40
1
 40
1
 40
1
 10
171.418083
 20
899.932186
 30
0.0
 10
171.417790
 20
900.843409
 30
0.0
 10
171.903753
 20
901.685540
 30
0.0
 10
172.692846
 20
902.141236
 30
0.0
  0
SPLINE
  5
14d
100
AcDbEntity
  8
0
 62
7
100
AcDbSpline
 70
8
 71
3
 72
8
 73
4
 74
0
 40
0
 40
0
 40
0
 40
0
 40
1
 40
1
 40
1
 40
1
 10
172.692846
 20
902.141236
 30
0.0
 10
173.481939
 20
902.596932
 30
0.0
 10
174.454227
 20
902.596932
 30
0.0
 10
175.243320
 20
902.141236
 30
0.0
  0
SPLINE
  5
14e
100
AcDbEntity
  8
0
 62
7
100
AcDbSpline
 70
8
 71
3
 72
8
 73
4
 74
0
 40
0
 40
0
 40
0
 40
0
 40
1
 40
1
 40
1
 40
1
 10
175.243320
 20
902.141236
 30
0.0
 10
176.032414
 20
901.685540
 30
0.0
 10
176.518377
 20
900.843409
 30
0.0
 10
176.518083
 20
899.932186
 30
0.0
  0
SPLINE
  5
14f
100
AcDbEntity
  8
0
 62
7
100
AcDbSpline
 70
8
 71
3
 72
8
 73
4
 74
0
 40
0
 40
0
 40
0
 40
0
 40
1
 40
1
 40
1
 40
1
 10
176.518083
 20
899.932186
 30
0.0
 10
176.518377
 20
899.020964
 30
0.0
 10
176.032414
 20
898.178833
 30
0.0
 10
175.243320
 20
897.723137
 30
0.0
  0
SPLINE
  5
150
100
AcDbEntity
  8
0
 62
7
100
AcDbSpline
 70
8
 71
3
 72
8
 73
4
 74
0
 40
0
 40
0
 40
0
 40
0
 40
1
 40
1
 40
1
 40
1
 10
175.243320
 20
897.723137
 30
0.0
 10
174.454227
 20
897.267441
 30
0.0
 10
173.481939
 20
897.267441
 30
0.0
 10
172.692846
 20
897.723137
 30
0.0
  0
SPLINE
  5
151
100
AcDbEntity
  8
0
 62
7
100
AcDbSpline
 70
8
 71
3
 72
8
 73
4
 74
0
 40
0
 40
0
 40
0
 40
0
 40
1
 40
1
 40
1
 40
1
 10
172.692846
 20
897.723137
 30
0.0
 10
171.903753
 20
898.178833
 30
0.0
 10
171.417790
 20
899.020964
 30
0.0
 10
171.418083
 20
899.932186
 30
0.0
  0
LWPOLYLINE
  5
152
100
AcDbEntity
  8
0
 62
7
100
AcDbPolyline
 90
1
 70
1
 10
171.418083
 20
769.932182
 30
0.0
  0
SPLINE
  5
153
100
AcDbEntity
  8
0
 62
7
100
AcDbSpline
 70
8
 71
3
 72
8
 73
4
 74
0
 40
0
 40
0
 40
0
 40
0
 40
1
 40
1
 40
1
 40
1
 10
171.418083
 20
629.932171
 30
0.0
 10
171.417790
 20
630.843394
 30
0.0
 10
171.903753
 20
631.685524
 30
0.0
 10
172.692846
 20
632.141220
 30
0.0
  0
SPLINE
  5
154
100
AcDbEntity
  8
0
 62
7
100
AcDbSpline
 70
8
 71
3
 72
8
 73
4
 74
0
 40
0
 40
0
 40
0
 40
0
 40
1
 40
1
 40
1
 40
1
 10
172.692846
 20
632.141220
 30
0.0
 10
173.481939
 20
632.596916
 30
0.0
 10
174.454227
 20
632.596916
 30
0.0
 10
175.243320
 20
632.141220
 30
0.0
  0
SPLINE
  5
155
100
AcDbEntity
  8
0
 62
7
100
AcDbSpline
 70
8
 71
3
 72
8
 73
4
 74
0
 40
0
 40
0
 40
0
 40
0
 40
1
 40
1
 40
1
 40
1
 10
175.243320
 20
632.141220
 30
0.0
 10
176.032414
 20
631.685524
 30
0.0
 10
176.518377
 20
630.843394
 30
0.0
 10
176.518083
 20
629.932171
 30
0.0
  0
SPLINE
  5
156
100
AcDbEntity
  8
0
 62
7
100
AcDbSpline
 70
8
 71
3
 72
8
 73
4
 74
0
 40
0
 40
0
 40
0
 40
0
 40
1
 40
1
 40
1
 40
1
 10
176.518083
 20
629.932171
 30
0.0
 10
176.518377
 20
629.020948
 30
0.0
 10
176.032414
 20
628.178818
 30
0.0
 10
175.243320
 20
627.723122
 30
0.0
  0
SPLINE
  5
157
100
AcDbEntity
  8
0
 62
7
100
AcDbSpline
 70
8
 71
3
 72
8
 73
4
 74
0
 40
0
 40
0
 40
0
 40
0
 40
1
 40
1
 40
1
 40
1
 10
175.243320
 20
627.723122
 30
0.0
 10
174.454227
 20
627.267425
 30
0.0
 10
173.481939
 20
627.267425
 30
0.0
 10
172.692846
 20
627.723122
 30
0.0
  0
SPLINE
  5
158
100
AcDbEntity
  8
0
 62
7
100
AcDbSpline
 70
8
 71
3
 72
8
 73
4
 74
0
 40
0
 40
0
 40
0
 40
0
 40
1
 40
1
 40
1
 40
1
 10
172.692846
 20
627.723122
 30
0.0
 10
171.903753
 20
628.178818
 30
0.0
 10
171.417790
 20
629.020948
 30
0.0
 10
171.418083
 20
629.932171
 30
0.0
  0
LWPOLYLINE
  5
159
100
AcDbEntity
  8
0
 62
7
100
AcDbPolyline
 90
1
 70
1
 10
171.418083
 20
899.932186
 30
0.0
  0
SPLINE
  5
15a
100
AcDbEntity
  8
0
 62
7
100
AcDbSpline
 70
8
 71
3
 72
8
 73
4
 74
0
 40
0
 40
0
 40
0
 40
0
 40
1
 40
1
 40
1
 40
1
 10
171.418083
 20
489.932181
 30
0.0
 10
171.417790
 20
490.843404
 30
0.0
 10
171.903753
 20
491.685534
 30
0.0
 10
172.692846
 20
492.141230
 30
0.0
  0
SPLINE
  5
15b
100
AcDbEntity
  8
0
 62
7
100
AcDbSpline
 70
8
 71
3
 72
8
 73
4
 74
0
 40
0
 40
0
 40
0
 40
0
 40
1
 40
1
 40
1
 40
1
 10
172.692846
 20
492.141230
 30
0.0
 10
173.481939
 20
492.596926
 30
0.0
 10
174.454227
 20
492.596926
 30
0.0
 10
175.243320
 20
492.141230
 30
0.0
  0
SPLINE
  5
15c
100
AcDbEntity
  8
0
 62
7
100
AcDbSpline
 70
8
 71
3
 72
8
 73
4
 74
0
 40
0
 40
0
 40
0
 40
0
 40
1
 40
1
 40
1
 40
1
 10
175.243320
 20
492.141230
 30
0.0
 10
176.032414
 20
491.685534
 30
0.0
 10
176.518377
 20
490.843404
 30
0.0
 10
176.518083
 20
489.932181
 30
0.0
  0
SPLINE
  5
15d
100
AcDbEntity
  8
0
 62
7
100
AcDbSpline
 70
8
 71
3
 72
8
 73
4
 74
0
 40
0
 40
0
 40
0
 40
0
 40
1
 40
1
 40
1
 40
1
 10
176.518083
 20
489.932181
 30
0.0
 10
176.518377
 20
489.020958
 30
0.0
 10
176.032414
 20
488.178828
 30
0.0
 10
175.243320
 20
487.723132
 30
0.0
  0
SPLINE
  5
15e
100
AcDbEntity
  8
0
 62
7
100
AcDbSpline
 70
8
 71
3
 72
8
 73
4
 74
0
 40
0
 40
0
 40
0
 40
0
 40
1
 40
1
 40
1
 40
1
 10
175.243320
 20
487.723132
 30
0.0
 10
174.454227
 20
487.267435
 30
0.0
 10
173.481939
 20
487.267435
 30
0.0
 10
172.692846
 20
487.723132
 30
0.0
  0
SPLINE
  5
15f
100
AcDbEntity
  8
0
 62
7
100
AcDbSpline
 70
8
 71
3
 72
8
 73
4
 74
0
 40
0
 40
0
 40
0
 40
0
 40
1
 40
1
 40
1
 40
1
 10
172.692846
 20
487.723132
 30
0.0
 10
171.903753
 20
488.178828
 30
0.0
 10
171.417790
 20
489.020958
 30
0.0
 10
171.418083
 20
489.932181
 30
0.0
  0
LWPOLYLINE
  5
160
100
AcDbEntity
  8
0
 62
7
100
AcDbPolyline
 90
1
 70
1
 10
171.418083
 20
629.932171
 30
0.0
  0
SPLINE
  5
161
100
AcDbEntity
  8
0
 62
7
100
AcDbSpline
 70
8
 71
3
 72
8
 73
4
 74
0
 40
0
 40
0
 40
0
 40
0
 40
1
 40
1
 40
1
 40
1
 10
171.418083
 20
349.932181
 30
0.0
 10
171.417790
 20
350.843403
 30
0.0
 10
171.903753
 20
351.685534
 30
0.0
 10
172.692846
 20
352.141230
 30
0.0
  0
SPLINE
  5
162
100
AcDbEntity
  8
0
 62
7
100
AcDbSpline
 70
8
 71
3
 72
8
 73
4
 74
0
 40
0
 40
0
 40
0
 40
0
 40
1
 40
1
 40
1
 40
1
 10
172.692846
 20
352.141230
 30
0.0
 10
173.481939
 20
352.596926
 30
0.0
 10
174.454227
 20
352.596926
 30
0.0
 10
175.243320
 20
352.141230
 30
0.0
  0
SPLINE
  5
163
100
AcDbEntity
  8
0
 62
7
100
AcDbSpline
 70
8
 71
3
 72
8
 73
4
 74
0
 40
0
 40
0
 40
0
 40
0
 40
1
 40
1
 40
1
 40
1
 10
175.243320
 20
352.141230
 30
0.0
 10
176.032414
 20
351.685534
 30
0.0
 10
176.518377
 20
350.843403
 30
0.0
 10
176.518083
 20
349.932180
 30
0.0
  0
SPLINE
  5
164
100
AcDbEntity
  8
0
 62
7
100
AcDbSpline
 70
8
 71
3
 72
8
 73
4
 74
0
 40
0
 40
0
 40
0
 40
0
 40
1
 40
1
 40
1
 40
1
 10
176.518083
 20
349.932180
 30
0.0
 10
176.518377
 20
349.020958
 30
0.0
 10
176.032414
 20
348.178827
 30
0.0
 10
175.243320
 20
347.723131
 30
0.0
  0
SPLINE
  5
165
100
AcDbEntity
  8
0
 62
7
100
AcDbSpline
 70
8
 71
3
 72
8
 73
4
 74
0
 40
0
 40
0
 40
0
 40
0
 40
1
 40
1
 40
1
 40
1
 10
175.243320
 20
347.723131
 30
0.0
 10
174.454227
 20
347.267435
 30
0.0
 10
173.481939
 20
347.267435
 30
0.0
 10
172.692846
 20
347.723131
 30
0.0
  0
SPLINE
  5
166
100
AcDbEntity
  8
0
 62
7
100
AcDbSpline
 70
8
 71
3
 72
8
 73
4
 74
0
 40
0
 40
0
 40
0
 40
0
 40
1
 40
1
 40
1
 40
1
 10
172.692846
 20
347.723131
 30
0.0
 10
171.903753
 20
348.178827
 30
0.0
 10
171.417790
 20
349.020958
 30
0.0
 10
171.418083
 20
349.932180
 30
0.0
  0
LWPOLYLINE
  5
167
100
AcDbEntity
  8
0
 62
7
100
AcDbPolyline
 90
1
 70
1
 10
171.418083
 20
489.932181
 30
0.0
  0
SPLINE
  5
168
100
AcDbEntity
  8
0
 62
7
100
AcDbSpline
 70
8
 71
3
 72
8
 73
4
 74
0
 40
0
 40
0
 40
0
 40
0
 40
1
 40
1
 40
1
 40
1
 10
171.418083
 20
209.932180
 30
0.0
 10
171.417790
 20
210.843403
 30
0.0
 10
171.903753
 20
211.685533
 30
0.0
 10
172.692846
 20
212.141229
 30
0.0
  0
SPLINE
  5
169
100
AcDbEntity
  8
0
 62
7
100
AcDbSpline
 70
8
 71
3
 72
8
 73
4
 74
0
 40
0
 40
0
 40
0
 40
0
 40
1
 40
1
 40
1
 40
1
 10
172.692846
 20
212.141229
 30
0.0
 10
173.481939
 20
212.596926
 30
0.0
 10
174.454227
 20
212.596926
 30
0.0
 10
175.243320
 20
212.141229
 30
0.0
  0
SPLINE
  5
16a
100
AcDbEntity
  8
0
 62
7
100
AcDbSpline
 70
8
 71
3
 72
8
 73
4
 74
0
 40
0
 40
0
 40
0
 40
0
 40
1
 40
1
 40
1
 40
1
 10
175.243320
 20
212.141229
 30
0.0
 10
176.032414
 20
211.685533
 30
0.0
 10
176.518377
 20
210.843403
 30
0.0
 10
176.518083
 20
209.932180
 30
0.0
  0
SPLINE
  5
16b
100
AcDbEntity
  8
0
 62
7
100
AcDbSpline
 70
8
 71
3
 72
8
 73
4
 74
0
 40
0
 40
0
 40
0
 40
0
 40
1
 40
1
 40
1
 40
1
 10
176.518083
 20
209.932180
 30
0.0
 10
176.518377
 20
209.020957
 30
0.0
 10
176.032414
 20
208.178827
 30
0.0
 10
175.243320
 20
207.723131
 30
0.0
  0
SPLINE
  5
16c
100
AcDbEntity
  8
0
 62
7
100
AcDbSpline
 70
8
 71
3
 72
8
 73
4
 74
0
 40
0
 40
0
 40
0
 40
0
 40
1
 40
1
 40
1
 40
1
 10
175.243320
 20
207.723131
 30
0.0
 10
174.454227
 20
207.267435
 30
0.0
 10
173.481939
 20
207.267435
 30
0.0
 10
172.692846
 20
207.723131
 30
0.0
  0
SPLINE
  5
16d
100
AcDbEntity
  8
0
 62
7
100
AcDbSpline
 70
8
 71
3
 72
8
 73
4
 74
0
 40
0
 40
0
 40
0
 40
0
 40
1
 40
1
 40
1
 40
1
 10
172.692846
 20
207.723131
 30
0.0
 10
171.903753
 20
208.178827
 30
0.0
 10
171.417790
 20
209.020957
 30
0.0
 10
171.418083
 20
209.932180
 30
0.0
  0
LWPOLYLINE
  5
16e
100
AcDbEntity
  8
0
 62
7
100
AcDbPolyline
 90
1
 70
1
 10
171.418083
 20
349.932180
 30
0.0
  0
SPLINE
  5
16f
100
AcDbEntity
  8
0
 62
7
100
AcDbSpline
 70
8
 71
3
 72
8
 73
4
 74
0
 40
0
 40
0
 40
0
 40
0
 40
1
 40
1
 40
1
 40
1
 10
171.418083
 20
719.932176
 30
0.0
 10
171.417790
 20
720.843399
 30
0.0
 10
171.903753
 20
721.685529
 30
0.0
 10
172.692846
 20
722.141225
 30
0.0
  0
SPLINE
  5
170
100
AcDbEntity
  8
0
 62
7
100
AcDbSpline
 70
8
 71
3
 72
8
 73
4
 74
0
 40
0
 40
0
 40
0
 40
0
 40
1
 40
1
 40
1
 40
1
 10
172.692846
 20
722.141225
 30
0.0
 10
173.481939
 20
722.596922
 30
0.0
 10
174.454227
 20
722.596922
 30
0.0
 10
175.243320
 20
722.141225
 30
0.0
  0
SPLINE
  5
171
100
AcDbEntity
  8
0
 62
7
100
AcDbSpline
 70
8
 71
3
 72
8
 73
4
 74
0
 40
0
 40
0
 40
0
 40
0
 40
1
 40
1
 40
1
 40
1
 10
175.243320
 20
722.141225
 30
0.0
 10
176.032414
 20
721.685529
 30
0.0
 10
176.518377
 20
720.843399
 30
0.0
 10
176.518083
 20
719.932176
 30
0.0
  0
SPLINE
  5
172
100
AcDbEntity
  8
0
 62
7
100
AcDbSpline
 70
8
 71
3
 72
8
 73
4
 74
0
 40
0
 40
0
 40
0
 40
0
 40
1
 40
1
 40
1
 40
1
 10
176.518083
 20
719.932176
 30
0.0
 10
176.518377
 20
719.020953
 30
0.0
 10
176.032414
 20
718.178823
 30
0.0
 10
175.243320
 20
717.723127
 30
0.0
  0
SPLINE
  5
173
100
AcDbEntity
  8
0
 62
7
100
AcDbSpline
 70
8
 71
3
 72
8
 73
4
 74
0
 40
0
 40
0
 40
0
 40
0
 40
1
 40
1
 40
1
 40
1
 10
175.243320
 20
717.723127
 30
0.0
 10
174.454227
 20
717.267431
 30
0.0
 10
173.481939
 20
717.267431
 30
0.0
 10
172.692846
 20
717.723127
 30
0.0
  0
SPLINE
  5
174
100
AcDbEntity
  8
0
 62
7
100
AcDbSpline
 70
8
 71
3
 72
8
 73
4
 74
0
 40
0
 40
0
 40
0
 40
0
 40
1
 40
1
 40
1
 40
1
 10
172.692846
 20
717.723127
 30
0.0
 10
171.903753
 20
718.178823
 30
0.0
 10
171.417790
 20
719.020953
 30
0.0
 10
171.418083
 20
719.932176
 30
0.0
  0
LWPOLYLINE
  5
175
100
AcDbEntity
  8
0
 62
7
100
AcDbPolyline
 90
1
 70
1
 10
171.418083
 20
209.932180
 30
0.0
  0
SPLINE
  5
176
100
AcDbEntity
  8
0
 62
7
100
AcDbSpline
 70
8
 71
3
 72
8
 73
4
 74
0
 40
0
 40
0
 40
0
 40
0
 40
1
 40
1
 40
1
 40
1
 10
171.418083
 20
1029.932191
 30
0.0
 10
171.417790
 20
1030.843414
 30
0.0
 10
171.903753
 20
1031.685544
 30
0.0
 10
172.692846
 20
1032.141240
 30
0.0
  0
SPLINE
  5
177
100
AcDbEntity
  8
0
 62
7
100
AcDbSpline
 70
8
 71
3
 72
8
 73
4
 74
0
 40
0
 40
0
 40
0
 40
0
 40
1
 40
1
 40
1
 40
1
 10
172.692846
 20
1032.141240
 30
0.0
 10
173.481939
 20
1032.596937
 30
0.0
 10
174.454227
 20
1032.596937
 30
0.0
 10
175.243320
 20
1032.141240
 30
0.0
  0
SPLINE
  5
178
100
AcDbEntity
  8
0
 62
7
100
AcDbSpline
 70
8
 71
3
 72
8
 73
4
 74
0
 40
0
 40
0
 40
0
 40
0
 40
1
 40
1
 40
1
 40
1
 10
175.243320
 20
1032.141240
 30
0.0
 10
176.032414
 20
1031.685544
 30
0.0
 10
176.518377
 20
1030.843414
 30
0.0
 10
176.518083
 20
1029.932191
 30
0.0
  0
SPLINE
  5
179
100
AcDbEntity
  8
0
 62
7
100
AcDbSpline
 70
8
 71
3
 72
8
 73
4
 74
0
 40
0
 40
0
 40
0
 40
0
 40
1
 40
1
 40
1
 40
1
 10
176.518083
 20
1029.932191
 30
0.0
 10
176.518377
 20
1029.020968
 30
0.0
 10
176.032414
 20
1028.178838
 30
0.0
 10
175.243320
 20
1027.723142
 30
0.0
  0
SPLINE
  5
17a
100
AcDbEntity
  8
0
 62
7
100
AcDbSpline
 70
8
 71
3
 72
8
 73
4
 74
0
 40
0
 40
0
 40
0
 40
0
 40
1
 40
1
 40
1
 40
1
 10
175.243320
 20
1027.723142
 30
0.0
 10
174.454227
 20
1027.267446
 30
0.0
 10
173.481939
 20
1027.267446
 30
0.0
 10
172.692846
 20
1027.723142
 30
0.0
  0
SPLINE
  5
17b
100
AcDbEntity
  8
0
 62
7
100
AcDbSpline
 70
8
 71
3
 72
8
 73
4
 74
0
 40
0
 40
0
 40
0
 40
0
 40
1
 40
1
 40
1
 40
1
 10
172.692846
 20
1027.723142
 30
0.0
 10
171.903753
 20
1028.178838
 30
0.0
 10
171.417790
 20
1029.020968
 30
0.0
 10
171.418083
 20
1029.932191
 30
0.0
  0
LWPOLYLINE
  5
17c
100
AcDbEntity
  8
0
 62
7
100
AcDbPolyline
 90
1
 70
1
 10
171.418083
 20
719.932176
 30
0.0
  0
SPLINE
  5
17d
100
AcDbEntity
  8
0
 62
7
100
AcDbSpline
 70
8
 71
3
 72
8
 73
4
 74
0
 40
0
 40
0
 40
0
 40
0
 40
1
 40
1
 40
1
 40
1
 10
171.418083
 20
79.932181
 30
0.0
 10
171.417790
 20
80.843404
 30
0.0
 10
171.903753
 20
81.685534
 30
0.0
 10
172.692846
 20
82.141230
 30
0.0
  0
SPLINE
  5
17e
100
AcDbEntity
  8
0
 62
7
100
AcDbSpline
 70
8
 71
3
 72
8
 73
4
 74
0
 40
0
 40
0
 40
0
 40
0
 40
1
 40
1
 40
1
 40
1
 10
172.692846
 20
82.141230
 30
0.0
 10
173.481939
 20
82.596926
 30
0.0
 10
174.454227
 20
82.596926
 30
0.0
 10
175.243320
 20
82.141230
 30
0.0
  0
SPLINE
  5
17f
100
AcDbEntity
  8
0
 62
7
100
AcDbSpline
 70
8
 71
3
 72
8
 73
4
 74
0
 40
0
 40
0
 40
0
 40
0
 40
1
 40
1
 40
1
 40
1
 10
175.243320
 20
82.141230
 30
0.0
 10
176.032414
 20
81.685534
 30
0.0
 10
176.518377
 20
80.843404
 30
0.0
 10
176.518083
 20
79.932181
 30
0.0
  0
SPLINE
  5
180
100
AcDbEntity
  8
0
 62
7
100
AcDbSpline
 70
8
 71
3
 72
8
 73
4
 74
0
 40
0
 40
0
 40
0
 40
0
 40
1
 40
1
 40
1
 40
1
 10
176.518083
 20
79.932181
 30
0.0
 10
176.518377
 20
79.020958
 30
0.0
 10
176.032414
 20
78.178828
 30
0.0
 10
175.243320
 20
77.723131
 30
0.0
  0
SPLINE
  5
181
100
AcDbEntity
  8
0
 62
7
100
AcDbSpline
 70
8
 71
3
 72
8
 73
4
 74
0
 40
0
 40
0
 40
0
 40
0
 40
1
 40
1
 40
1
 40
1
 10
175.243320
 20
77.723131
 30
0.0
 10
174.454227
 20
77.267435
 30
0.0
 10
173.481939
 20
77.267435
 30
0.0
 10
172.692846
 20
77.723131
 30
0.0
  0
SPLINE
  5
182
100
AcDbEntity
  8
0
 62
7
100
AcDbSpline
 70
8
 71
3
 72
8
 73
4
 74
0
 40
0
 40
0
 40
0
 40
0
 40
1
 40
1
 40
1
 40
1
 10
172.692846
 20
77.723131
 30
0.0
 10
171.903753
 20
78.178828
 30
0.0
 10
171.417790
 20
79.020958
 30
0.0
 10
171.418083
 20
79.932181
 30
0.0
  0
LWPOLYLINE
  5
183
100
AcDbEntity
  8
0
 62
7
100
AcDbPolyline
 90
1
 70
1
 10
171.418083
 20
1029.932191
 30
0.0
  0
SPLINE
  5
184
100
AcDbEntity
  8
0
 62
7
100
AcDbSpline
 70
8
 71
3
 72
8
 73
4
 74
0
 40
0
 40
0
 40
0
 40
0
 40
1
 40
1
 40
1
 40
1
 10
171.418083
 20
9.932167
 30
0.0
 10
171.417790
 20
10.843390
 30
0.0
 10
171.903753
 20
11.685520
 30
0.0
 10
172.692846
 20
12.141217
 30
0.0
  0
SPLINE
  5
185
100
AcDbEntity
  8
0
 62
7
100
AcDbSpline
 70
8
 71
3
 72
8
 73
4
 74
0
 40
0
 40
0
 40
0
 40
0
 40
1
 40
1
 40
1
 40
1
 10
172.692846
 20
12.141217
 30
0.0
 10
173.481939
 20
12.596913
 30
0.0
 10
174.454227
 20
12.596913
 30
0.0
 10
175.243320
 20
12.141217
 30
0.0
  0
SPLINE
  5
186
100
AcDbEntity
  8
0
 62
7
100
AcDbSpline
 70
8
 71
3
 72
8
 73
4
 74
0
 40
0
 40
0
 40
0
 40
0
 40
1
 40
1
 40
1
 40
1
 10
175.243320
 20
12.141217
 30
0.0
 10
176.032414
 20
11.685520
 30
0.0
 10
176.518377
 20
10.843390
 30
0.0
 10
176.518083
 20
9.932167
 30
0.0
  0
SPLINE
  5
187
100
AcDbEntity
  8
0
 62
7
100
AcDbSpline
 70
8
 71
3
 72
8
 73
4
 74
0
 40
0
 40
0
 40
0
 40
0
 40
1
 40
1
 40
1
 40
1
 10
176.518083
 20
9.932167
 30
0.0
 10
176.518377
 20
9.020944
 30
0.0
 10
176.032414
 20
8.178814
 30
0.0
 10
175.243320
 20
7.723118
 30
0.0
  0
SPLINE
  5
188
100
AcDbEntity
  8
0
 62
7
100
AcDbSpline
 70
8
 71
3
 72
8
 73
4
 74
0
 40
0
 40
0
 40
0
 40
0
 40
1
 40
1
 40
1
 40
1
 10
175.243320
 20
7.723118
 30
0.0
 10
174.454227
 20
7.267422
 30
0.0
 10
173.481939
 20
7.267422
 30
0.0
 10
172.692846
 20
7.723118
 30
0.0
  0
SPLINE
  5
189
100
AcDbEntity
  8
0
 62
7
100
AcDbSpline
 70
8
 71
3
 72
8
 73
4
 74
0
 40
0
 40
0
 40
0
 40
0
 40
1
 40
1
 40
1
 40
1
 10
172.692846
 20
7.723118
 30
0.0
 10
171.903753
 20
8.178814
 30
0.0
 10
171.417790
 20
9.020944
 30
0.0
 10
171.418083
 20
9.932167
 30
0.0
  0
LWPOLYLINE
  5
18a
100
AcDbEntity
  8
0
 62
7
100
AcDbPolyline
 90
1
 70
1
 10
171.418083
 20
79.932181
 30
0.0
  0
SPLINE
  5
18b
100
AcDbEntity
  8
0
 62
7
100
AcDbSpline
 70
8
 71
3
 72
8
 73
4
 74
0
 40
0
 40
0
 40
0
 40
0
 40
1
 40
1
 40
1
 40
1
 10
134.816953
 20
1210.609032
 30
0.0
 10
134.816660
 20
1211.520255
 30
0.0
 10
135.302623
 20
1212.362385
 30
0.0
 10
136.091716
 20
1212.818081
 30
0.0
  0
SPLINE
  5
18c
100
AcDbEntity
  8
0
 62
7
100
AcDbSpline
 70
8
 71
3
 72
8
 73
4
 74
0
 40
0
 40
0
 40
0
 40
0
 40
1
 40
1
 40
1
 40
1
 10
136.091716
 20
1212.818081
 30
0.0
 10
136.880809
 20
1213.273778
 30
0.0
 10
137.853097
 20
1213.273778
 30
0.0
 10
138.642190
 20
1212.818081
 30
0.0
  0
SPLINE
  5
18d
100
AcDbEntity
  8
0
 62
7
100
AcDbSpline
 70
8
 71
3
 72
8
 73
4
 74
0
 40
0
 40
0
 40
0
 40
0
 40
1
 40
1
 40
1
 40
1
 10
138.642190
 20
1212.818081
 30
0.0
 10
139.431284
 20
1212.362385
 30
0.0
 10
139.917247
 20
1211.520255
 30
0.0
 10
139.916953
 20
1210.609032
 30
0.0
  0
SPLINE
  5
18e
100
AcDbEntity
  8
0
 62
7
100
AcDbSpline
 70
8
 71
3
 72
8
 73
4
 74
0
 40
0
 40
0
 40
0
 40
0
 40
1
 40
1
 40
1
 40
1
 10
139.916953
 20
1210.609032
 30
0.0
 10
139.917247
 20
1209.697809
 30
0.0
 10
139.431284
 20
1208.855679
 30
0.0
 10
138.642190
 20
1208.399983
 30
0.0
  0
SPLINE
  5
18f
100
AcDbEntity
  8
0
 62
7
100
AcDbSpline
 70
8
 71
3
 72
8
 73
4
 74
0
 40
0
 40
0
 40
0
 40
0
 40
1
 40
1
 40
1
 40
1
 10
138.642190
 20
1208.399983
 30
0.0
 10
137.853097
 20
1207.944287
 30
0.0
 10
136.880809
 20
1207.944287
 30
0.0
 10
136.091716
 20
1208.399983
 30
0.0
  0
SPLINE
  5
190
100
AcDbEntity
  8
0
 62
7
100
AcDbSpline
 70
8
 71
3
 72
8
 73
4
 74
0
 40
0
 40
0
 40
0
 40
0
 40
1
 40
1
 40
1
 40
1
 10
136.091716
 20
1208.399983
 30
0.0
 10
135.302623
 20
1208.855679
 30
0.0
 10
134.816660
 20
1209.697809
 30
0.0
 10
134.816953
 20
1210.609032
 30
0.0
  0
LWPOLYLINE
  5
191
100
AcDbEntity
  8
0
 62
7
100
AcDbPolyline
 90
1
 70
1
 10
171.418083
 20
9.932167
 30
0.0
  0
SPLINE
  5
192
100
AcDbEntity
  8
0
 62
7
100
AcDbSpline
 70
8
 71
3
 72
8
 73
4
 74
0
 40
0
 40
0
 40
0
 40
0
 40
1
 40
1
 40
1
 40
1
 10
85.333578
 20
1211.572036
 30
0.0
 10
85.333578
 20
1212.483064
 30
0.0
 10
85.819606
 20
1213.324888
 30
0.0
 10
86.608579
 20
1213.780402
 30
0.0
  0
SPLINE
  5
193
100
AcDbEntity
  8
0
 62
7
100
AcDbSpline
 70
8
 71
3
 72
8
 73
4
 74
0
 40
0
 40
0
 40
0
 40
0
 40
1
 40
1
 40
1
 40
1
 10
86.608579
 20
1213.780402
 30
0.0
 10
87.397552
 20
1214.235916
 30
0.0
 10
88.369607
 20
1214.235916
 30
0.0
 10
89.158580
 20
1213.780402
 30
0.0
  0
SPLINE
  5
194
100
AcDbEntity
  8
0
 62
7
100
AcDbSpline
 70
8
 71
3
 72
8
 73
4
 74
0
 40
0
 40
0
 40
0
 40
0
 40
1
 40
1
 40
1
 40
1
 10
89.158580
 20
1213.780402
 30
0.0
 10
89.947553
 20
1213.324888
 30
0.0
 10
90.433581
 20
1212.483064
 30
0.0
 10
90.433581
 20
1211.572036
 30
0.0
  0
SPLINE
  5
195
100
AcDbEntity
  8
0
 62
7
100
AcDbSpline
 70
8
 71
3
 72
8
 73
4
 74
0
 40
0
 40
0
 40
0
 40
0
 40
1
 40
1
 40
1
 40
1
 10
90.433581
 20
1211.572036
 30
0.0
 10
90.433581
 20
1210.661008
 30
0.0
 10
89.947553
 20
1209.819184
 30
0.0
 10
89.158580
 20
1209.363670
 30
0.0
  0
SPLINE
  5
196
100
AcDbEntity
  8
0
 62
7
100
AcDbSpline
 70
8
 71
3
 72
8
 73
4
 74
0
 40
0
 40
0
 40
0
 40
0
 40
1
 40
1
 40
1
 40
1
 10
89.158580
 20
1209.363670
 30
0.0
 10
88.369607
 20
1208.908156
 30
0.0
 10
87.397552
 20
1208.908156
 30
0.0
 10
86.608579
 20
1209.363670
 30
0.0
  0
SPLINE
  5
197
100
AcDbEntity
  8
0
 62
7
100
AcDbSpline
 70
8
 71
3
 72
8
 73
4
 74
0
 40
0
 40
0
 40
0
 40
0
 40
1
 40
1
 40
1
 40
1
 10
86.608579
 20
1209.363670
 30
0.0
 10
85.819606
 20
1209.819184
 30
0.0
 10
85.333578
 20
1210.661008
 30
0.0
 10
85.333578
 20
1211.572036
 30
0.0
  0
LWPOLYLINE
  5
198
100
AcDbEntity
  8
0
 62
7
100
AcDbPolyline
 90
1
 70
1
 10
134.816953
 20
1210.609032
 30
0.0
  0
LWPOLYLINE
  5
199
100
AcDbEntity
  8
0
 62
7
100
AcDbPolyline
 90
1
 70
1
 10
85.333578
 20
1211.572036
 30
0.0
  0
LWPOLYLINE
  5
19a
100
AcDbEntity
  8
0
 62
7
100
AcDbPolyline
 90
3
 70
0
 10
41.896673
 20
1199.458564
 30
0.0
 10
20.986578
 20
1201.287973
 30
0.0
 10
20.986578
 20
993.287955
 30
0.0
  0
LWPOLYLINE
  5
19b
100
AcDbEntity
  8
0
 62
7
100
AcDbPolyline
 90
2
 70
0
 10
0.120758
 20
993.287955
 30
0.0
 10
20.986578
 20
993.287955
 30
0.0
  0
LWPOLYLINE
  5
19c
100
AcDbEntity
  8
0
 62
7
100
AcDbPolyline
 90
2
 70
0
 10
0.120758
 20
993.287955
 30
0.0
 10
0.120758
 20
0.120729
 30
0.0
  0
LWPOLYLINE
  5
19d
100
AcDbEntity
  8
0
 62
7
100
AcDbPolyline
 90
2
 70
0
 10
201.280583
 20
0.120729
 30
0.0
 10
0.120758
 20
0.120729
 30
0.0
  0
LWPOLYLINE
  5
19e
100
AcDbEntity
  8
0
 62
7
100
AcDbPolyline
 90
2
 70
0
 10
201.280583
 20
0.120729
 30
0.0
 10
201.280583
 20
1202.862746
 30
0.0
  0
LWPOLYLINE
  5
19f
100
AcDbEntity
  8
0
 62
7
100
AcDbPolyline
 90
2
 70
0
 10
162.370484
 20
1199.458564
 30
0.0
 10
201.280583
 20
1202.862746
 30
0.0
  0
LWPOLYLINE
  5
1a0
100
AcDbEntity
  8
0
 62
7
100
AcDbPolyline
 90
12
 70
0
 10
162.370484
 20
1199.458564
 30
0.0
 10
164.614765
 20
1202.141334
 30
0.0
 10
164.614765
 20
1235.012505
 30
0.0
 10
115.255447
 20
1235.012505
 30
0.0
 10
115.255447
 20
1218.326690
 30
0.0
 10
114.505449
 20
1218.326690
 30
0.0
 10
114.505449
 20
1221.238959
 30
0.0
 10
105.088007
 20
1198.416397
 30
0.0
 10
95.670566
 20
1221.238959
 30
0.0
 10
95.670566
 20
1218.326690
 30
0.0
 10
94.920565
 20
1218.326690
 30
0.0
 10
94.920565
 20
1235.012505
 30
0.0
  0
LWPOLYLINE
  5
1a1
100
AcDbEntity
  8
0
 62
7
100
AcDbPolyline
 90
10
 70
0
 10
80.846594
 20
1235.012505
 30
0.0
 10
80.846594
 20
1218.326690
 30
0.0
 10
80.096593
 20
1218.326690
 30
0.0
 10
80.096593
 20
1221.238959
 30
0.0
 10
70.679151
 20
1198.416397
 30
0.0
 10
61.261712
 20
1221.238959
 30
0.0
 10
61.261712
 20
1218.326690
 30
0.0
 10
60.511711
 20
1218.326690
 30
0.0
 10
60.511711
 20
1235.012505
 30
0.0
 10
39.652395
 20
1235.012505
 30
0.0
  0
LWPOLYLINE
  5
1a2
100
AcDbEntity
  8
0
 62
7
100
AcDbPolyline
 90
2
 70
0
 10
39.652395
 20
1202.141334
 30
0.0
 10
39.652395
 20
1235.012505
 30
0.0
  0
LWPOLYLINE
  5
1a3
100
AcDbEntity
  8
0
 62
7
100
AcDbPolyline
 90
2
 70
0
 10
41.896673
 20
1199.458564
 30
0.0
 10
39.652395
 20
1202.141334
 30
0.0
  0
LWPOLYLINE
  5
1a4
100
AcDbEntity
  8
0
 62
7
100
AcDbPolyline
 90
2
 70
0
 10
94.920565
 20
1235.012505
 30
0.0
 10
80.846594
 20
1235.012505
 30
0.0
  0
ENDSEC
  0
SECTION
  2
OBJECTS
  0
DICTIONARY
  5
C
330
0
100
AcDbDictionary
  3
ACAD_GROUP
350
D
  3
ACAD_MLINESTYLE
350
17
  0
DICTIONARY
  5
D
330
C
100
AcDbDictionary
  0
DICTIONARY
  5
1A
330
C
100
AcDbDictionary
  0
DICTIONARY
  5
17
330
C
100
AcDbDictionary
  3
STANDARD
350
18
  0
DICTIONARY
  5
19
330
C
100
AcDbDictionary
  0
ENDSEC
  0
EOF
