  0
SECTION
  2
HEADER
  9
$ACADVER
  1
AC1014
  9
$HANDSEED
  5
FFFF
  9
$MEASUREMENT
 70
     1
  0
ENDSEC
  0
SECTION
  2
TABLES
  0
TABLE
  2
VPORT
  5
8
330
0
100
AcDbSymbolTable
 70
     4
  0
VPORT
  5
2E
330
8
100
AcDbSymbolTableRecord
100
AcDbViewportTableRecord
  2
*ACTIVE
 70
     0
 10
0.0
 20
0.0
 11
1.0
 21
1.0
 12
210.0
 22
148.5
 13
0.0
 23
0.0
 14
10.0
 24
10.0
 15
10.0
 25
10.0
 16
0.0
 26
0.0
 36
1.0
 17
0.0
 27
0.0
 37
0.0
 40
341.0
 41
1.24
 42
50.0
 43
0.0
 44
0.0
 50
0.0
 51
0.0
 71
     0
 72
   100
 73
     1
 74
     3
 75
     0
 76
     0
 77
     0
 78
     0
  0
ENDTAB
  0
TABLE
  2
LTYPE
  5
5
330
0
100
AcDbSymbolTable
 70
     1
  0
LTYPE
  5
14
330
5
100
AcDbSymbolTableRecord
100
AcDbLinetypeTableRecord
  2
BYBLOCK
 70
     0
  3

 72
    65
 73
     0
 40
0.0
  0
LTYPE
  5
15
330
5
100
AcDbSymbolTableRecord
100
AcDbLinetypeTableRecord
  2
BYLAYER
 70
     0
  3

 72
    65
 73
     0
 40
0.0
  0
LTYPE
  5
16
330
5
100
AcDbSymbolTableRecord
100
AcDbLinetypeTableRecord
  2
CONTINUOUS
 70
     0
  3
Solid line
 72
    65
 73
     0
 40
0.0
  0
ENDTAB
  0
TABLE
  2
LAYER
  5
2
100
AcDbSymbolTable
 70
1
  0
LAYER
  5
50
100
AcDbSymbolTableRecord
100
AcDbLayerTableRecord
  2
0
 70
0
  6
CONTINUOUS
  0
ENDTAB
  0
TABLE
  2
STYLE
  5
3
330
0
100
AcDbSymbolTable
 70
     1
  0
STYLE
  5
11
330
3
100
AcDbSymbolTableRecord
100
AcDbTextStyleTableRecord
  2
STANDARD
 70
     0
 40
0.0
 41
1.0
 50
0.0
 71
     0
 42
2.5
  3
txt
  4

  0
ENDTAB
  0
TABLE
  2
VIEW
  5
6
330
0
100
AcDbSymbolTable
 70
     0
  0
ENDTAB
  0
TABLE
  2
UCS
  5
7
330
0
100
AcDbSymbolTable
 70
     0
  0
ENDTAB
  0
TABLE
  2
APPID
  5
9
330
0
100
AcDbSymbolTable
 70
     2
  0
APPID
  5
12
330
9
100
AcDbSymbolTableRecord
100
AcDbRegAppTableRecord
  2
ACAD
 70
     0
  0
ENDTAB
  0
TABLE
  2
DIMSTYLE
  5
A
330
0
100
AcDbSymbolTable
 70
     1
  0
DIMSTYLE
105
27
330
A
100
AcDbSymbolTableRecord
100
AcDbDimStyleTableRecord
  2
ISO-25
 70
     0
  3

  4

  5

  6

  7

 40
1.0
 41
2.5
 42
0.625
 43
3.75
 44
1.25
 45
0.0
 46
0.0
 47
0.0
 48
0.0
140
2.5
141
2.5
142
0.0
143
0.03937007874016
144
1.0
145
0.0
146
1.0
147
0.625
 71
     0
 72
     0
 73
     0
 74
     0
 75
     0
 76
     0
 77
     1
 78
     8
170
     0
171
     3
172
     1
173
     0
174
     0
175
     0
176
     0
177
     0
178
     0
270
     2
271
     2
272
     2
273
     2
274
     3
340
11
275
     0
280
     0
281
     0
282
     0
283
     0
284
     8
285
     0
286
     0
287
     3
288
     0
  0
ENDTAB
  0
TABLE
  2
BLOCK_RECORD
  5
1
330
0
100
AcDbSymbolTable
 70
     1
  0
BLOCK_RECORD
  5
1F
330
1
100
AcDbSymbolTableRecord
100
AcDbBlockTableRecord
  2
*MODEL_SPACE
  0
BLOCK_RECORD
  5
1B
330
1
100
AcDbSymbolTableRecord
100
AcDbBlockTableRecord
  2
*PAPER_SPACE
  0
ENDTAB
  0
ENDSEC
  0
SECTION
  2
BLOCKS
  0
BLOCK
  5
20
330
1F
100
AcDbEntity
  8
0
100
AcDbBlockBegin
  2
*MODEL_SPACE
 70
     0
 10
0.0
 20
0.0
 30
0.0
  3
*MODEL_SPACE
  1

  0
ENDBLK
  5
21
330
1F
100
AcDbEntity
  8
0
100
AcDbBlockEnd
  0
BLOCK
  5
1C
330
1B
100
AcDbEntity
 67
     1
  8
0
100
AcDbBlockBegin
  2
*PAPER_SPACE
  1

  0
ENDBLK
  5
1D
330
1B
100
AcDbEntity
 67
     1
  8
0
100
AcDbBlockEnd
  0
ENDSEC
  0
SECTION
  2
ENTITIES
  0
SPLINE
  5
100
100
AcDbEntity
  8
0
 62
7
100
AcDbSpline
 70
8
 71
3
 72
8
 73
4
 74
0
 40
0
 40
0
 40
0
 40
0
 40
1
 40
1
 40
1
 40
1
 10
13.000240
 20
-3.100069
 30
0.0
 10
14.408564
 20
-3.100069
 30
0.0
 10
15.549955
 20
-4.241458
 30
0.0
 10
15.549955
 20
-5.649784
 30
0.0
  0
SPLINE
  5
101
100
AcDbEntity
  8
0
 62
7
100
AcDbSpline
 70
8
 71
3
 72
8
 73
4
 74
0
 40
0
 40
0
 40
0
 40
0
 40
1
 40
1
 40
1
 40
1
 10
15.549955
 20
-5.649784
 30
0.0
 10
15.549955
 20
-7.058111
 30
0.0
 10
14.408564
 20
-8.200016
 30
0.0
 10
13.000240
 20
-8.200016
 30
0.0
  0
SPLINE
  5
102
100
AcDbEntity
  8
0
 62
7
100
AcDbSpline
 70
8
 71
3
 72
8
 73
4
 74
0
 40
0
 40
0
 40
0
 40
0
 40
1
 40
1
 40
1
 40
1
 10
13.000240
 20
-8.200016
 30
0.0
 10
11.591913
 20
-8.200016
 30
0.0
 10
10.450008
 20
-7.058111
 30
0.0
 10
10.450008
 20
-5.649784
 30
0.0
  0
SPLINE
  5
103
100
AcDbEntity
  8
0
 62
7
100
AcDbSpline
 70
8
 71
3
 72
8
 73
4
 74
0
 40
0
 40
0
 40
0
 40
0
 40
1
 40
1
 40
1
 40
1
 10
10.450008
 20
-5.649784
 30
0.0
 10
10.450008
 20
-4.241458
 30
0.0
 10
11.591913
 20
-3.100069
 30
0.0
 10
13.000240
 20
-3.100069
 30
0.0
  0
LWPOLYLINE
  5
104
100
AcDbEntity
  8
0
 62
7
100
AcDbPolyline
 90
43
 70
1
 10
-36.861316
 20
0.300240
 30
0.0
 10
-36.861316
 20
-18.130676
 30
0.0
 10
-53.692330
 20
-18.130676
 30
0.0
 10
-53.692330
 20
-173.467448
 30
0.0
 10
-37.954273
 20
-174.844625
 30
0.0
 10
-36.861316
 20
-174.306674
 30
0.0
 10
-36.861316
 20
-193.177872
 30
0.0
 10
-18.361670
 20
-193.177872
 30
0.0
 10
-18.361670
 20
-174.306674
 30
0.0
 10
-17.268713
 20
-174.844625
 30
0.0
 10
-6.230627
 20
-173.878793
 30
0.0
 10
-0.999939
 20
-173.511374
 30
0.0
 10
-0.999939
 20
-175.482311
 30
0.0
 10
0.000000
 20
-175.482311
 30
0.0
 10
0.000000
 20
-192.132977
 30
0.0
 10
315.999839
 20
-192.132977
 30
0.0
 10
315.999839
 20
-175.482311
 30
0.0
 10
316.999779
 20
-175.482311
 30
0.0
 10
316.999779
 20
-173.511374
 30
0.0
 10
322.230988
 20
-173.878793
 30
0.0
 10
333.268558
 20
-174.844625
 30
0.0
 10
334.361499
 20
-174.306674
 30
0.0
 10
334.361499
 20
-193.177872
 30
0.0
 10
352.861668
 20
-193.177872
 30
0.0
 10
352.861668
 20
-174.306674
 30
0.0
 10
353.954609
 20
-174.844625
 30
0.0
 10
369.692158
 20
-173.467448
 30
0.0
 10
369.692158
 20
-18.130676
 30
0.0
 10
352.861668
 20
-18.130676
 30
0.0
 10
352.861668
 20
0.300240
 30
0.0
 10
334.361499
 20
0.300240
 30
0.0
 10
334.361499
 20
-18.130676
 30
0.0
 10
316.999779
 20
-18.130676
 30
0.0
 10
316.999779
 20
-16.530774
 30
0.0
 10
315.999839
 20
-16.530774
 30
0.0
 10
315.999839
 20
0.000000
 30
0.0
 10
0.000000
 20
0.000000
 30
0.0
 10
0.000000
 20
-16.530774
 30
0.0
 10
-0.999939
 20
-16.530774
 30
0.0
 10
-0.999939
 20
-18.130676
 30
0.0
 10
-18.361670
 20
-18.130676
 30
0.0
 10
-18.361670
 20
0.300240
 30
0.0
 10
-36.861316
 20
0.300240
 30
0.0
  0
SPLINE
  5
105
100
AcDbEntity
  8
0
 62
7
100
AcDbSpline
 70
8
 71
3
 72
8
 73
4
 74
0
 40
0
 40
0
 40
0
 40
0
 40
1
 40
1
 40
1
 40
1
 10
158.000176
 20
-3.100069
 30
0.0
 10
159.408500
 20
-3.100069
 30
0.0
 10
160.549889
 20
-4.241458
 30
0.0
 10
160.549889
 20
-5.649784
 30
0.0
  0
SPLINE
  5
106
100
AcDbEntity
  8
0
 62
7
100
AcDbSpline
 70
8
 71
3
 72
8
 73
4
 74
0
 40
0
 40
0
 40
0
 40
0
 40
1
 40
1
 40
1
 40
1
 10
160.549889
 20
-5.649784
 30
0.0
 10
160.549889
 20
-7.058111
 30
0.0
 10
159.408500
 20
-8.200016
 30
0.0
 10
158.000176
 20
-8.200016
 30
0.0
  0
SPLINE
  5
107
100
AcDbEntity
  8
0
 62
7
100
AcDbSpline
 70
8
 71
3
 72
8
 73
4
 74
0
 40
0
 40
0
 40
0
 40
0
 40
1
 40
1
 40
1
 40
1
 10
158.000176
 20
-8.200016
 30
0.0
 10
156.591849
 20
-8.200016
 30
0.0
 10
155.449942
 20
-7.058111
 30
0.0
 10
155.449942
 20
-5.649784
 30
0.0
  0
SPLINE
  5
108
100
AcDbEntity
  8
0
 62
7
100
AcDbSpline
 70
8
 71
3
 72
8
 73
4
 74
0
 40
0
 40
0
 40
0
 40
0
 40
1
 40
1
 40
1
 40
1
 10
155.449942
 20
-5.649784
 30
0.0
 10
155.449942
 20
-4.241458
 30
0.0
 10
156.591849
 20
-3.100069
 30
0.0
 10
158.000176
 20
-3.100069
 30
0.0
  0
LWPOLYLINE
  5
109
100
AcDbEntity
  8
0
 62
7
100
AcDbPolyline
 90
1
 70
1
 10
13.000240
 20
-3.100069
 30
0.0
  0
SPLINE
  5
10a
100
AcDbEntity
  8
0
 62
7
100
AcDbSpline
 70
8
 71
3
 72
8
 73
4
 74
0
 40
0
 40
0
 40
0
 40
0
 40
1
 40
1
 40
1
 40
1
 10
303.000119
 20
-3.100069
 30
0.0
 10
304.408443
 20
-3.100069
 30
0.0
 10
305.549829
 20
-4.241458
 30
0.0
 10
305.549829
 20
-5.649784
 30
0.0
  0
SPLINE
  5
10b
100
AcDbEntity
  8
0
 62
7
100
AcDbSpline
 70
8
 71
3
 72
8
 73
4
 74
0
 40
0
 40
0
 40
0
 40
0
 40
1
 40
1
 40
1
 40
1
 10
305.549829
 20
-5.649784
 30
0.0
 10
305.549829
 20
-7.058111
 30
0.0
 10
304.408443
 20
-8.200016
 30
0.0
 10
303.000119
 20
-8.200016
 30
0.0
  0
SPLINE
  5
10c
100
AcDbEntity
  8
0
 62
7
100
AcDbSpline
 70
8
 71
3
 72
8
 73
4
 74
0
 40
0
 40
0
 40
0
 40
0
 40
1
 40
1
 40
1
 40
1
 10
303.000119
 20
-8.200016
 30
0.0
 10
301.591795
 20
-8.200016
 30
0.0
 10
300.449880
 20
-7.058111
 30
0.0
 10
300.449880
 20
-5.649784
 30
0.0
  0
SPLINE
  5
10d
100
AcDbEntity
  8
0
 62
7
100
AcDbSpline
 70
8
 71
3
 72
8
 73
4
 74
0
 40
0
 40
0
 40
0
 40
0
 40
1
 40
1
 40
1
 40
1
 10
300.449880
 20
-5.649784
 30
0.0
 10
300.449880
 20
-4.241458
 30
0.0
 10
301.591795
 20
-3.100069
 30
0.0
 10
303.000119
 20
-3.100069
 30
0.0
  0
LWPOLYLINE
  5
10e
100
AcDbEntity
  8
0
 62
7
100
AcDbPolyline
 90
1
 70
1
 10
158.000176
 20
-3.100069
 30
0.0
  0
SPLINE
  5
10f
100
AcDbEntity
  8
0
 62
7
100
AcDbSpline
 70
8
 71
3
 72
8
 73
4
 74
0
 40
0
 40
0
 40
0
 40
0
 40
1
 40
1
 40
1
 40
1
 10
77.999889
 20
-26.430945
 30
0.0
 10
80.209030
 20
-26.430945
 30
0.0
 10
82.000164
 20
-28.221559
 30
0.0
 10
82.000164
 20
-30.430700
 30
0.0
  0
SPLINE
  5
110
100
AcDbEntity
  8
0
 62
7
100
AcDbSpline
 70
8
 71
3
 72
8
 73
4
 74
0
 40
0
 40
0
 40
0
 40
0
 40
1
 40
1
 40
1
 40
1
 10
82.000164
 20
-30.430700
 30
0.0
 10
82.000164
 20
-32.639841
 30
0.0
 10
80.209030
 20
-34.430973
 30
0.0
 10
77.999889
 20
-34.430973
 30
0.0
  0
SPLINE
  5
111
100
AcDbEntity
  8
0
 62
7
100
AcDbSpline
 70
8
 71
3
 72
8
 73
4
 74
0
 40
0
 40
0
 40
0
 40
0
 40
1
 40
1
 40
1
 40
1
 10
77.999889
 20
-34.430973
 30
0.0
 10
75.790750
 20
-34.430973
 30
0.0
 10
74.000135
 20
-32.639841
 30
0.0
 10
74.000135
 20
-30.430700
 30
0.0
  0
SPLINE
  5
112
100
AcDbEntity
  8
0
 62
7
100
AcDbSpline
 70
8
 71
3
 72
8
 73
4
 74
0
 40
0
 40
0
 40
0
 40
0
 40
1
 40
1
 40
1
 40
1
 10
74.000135
 20
-30.430700
 30
0.0
 10
74.000135
 20
-28.221559
 30
0.0
 10
75.790750
 20
-26.430945
 30
0.0
 10
77.999889
 20
-26.430945
 30
0.0
  0
LWPOLYLINE
  5
113
100
AcDbEntity
  8
0
 62
7
100
AcDbPolyline
 90
1
 70
1
 10
303.000119
 20
-3.100069
 30
0.0
  0
SPLINE
  5
114
100
AcDbEntity
  8
0
 62
7
100
AcDbSpline
 70
8
 71
3
 72
8
 73
4
 74
0
 40
0
 40
0
 40
0
 40
0
 40
1
 40
1
 40
1
 40
1
 10
158.000176
 20
-26.430945
 30
0.0
 10
160.209315
 20
-26.430945
 30
0.0
 10
161.999930
 20
-28.221559
 30
0.0
 10
161.999930
 20
-30.430700
 30
0.0
  0
SPLINE
  5
115
100
AcDbEntity
  8
0
 62
7
100
AcDbSpline
 70
8
 71
3
 72
8
 73
4
 74
0
 40
0
 40
0
 40
0
 40
0
 40
1
 40
1
 40
1
 40
1
 10
161.999930
 20
-30.430700
 30
0.0
 10
161.999930
 20
-32.639841
 30
0.0
 10
160.209315
 20
-34.430973
 30
0.0
 10
158.000176
 20
-34.430973
 30
0.0
  0
SPLINE
  5
116
100
AcDbEntity
  8
0
 62
7
100
AcDbSpline
 70
8
 71
3
 72
8
 73
4
 74
0
 40
0
 40
0
 40
0
 40
0
 40
1
 40
1
 40
1
 40
1
 10
158.000176
 20
-34.430973
 30
0.0
 10
155.791035
 20
-34.430973
 30
0.0
 10
153.999888
 20
-32.639841
 30
0.0
 10
153.999904
 20
-30.430700
 30
0.0
  0
SPLINE
  5
117
100
AcDbEntity
  8
0
 62
7
100
AcDbSpline
 70
8
 71
3
 72
8
 73
4
 74
0
 40
0
 40
0
 40
0
 40
0
 40
1
 40
1
 40
1
 40
1
 10
153.999904
 20
-30.430700
 30
0.0
 10
153.999901
 20
-28.221559
 30
0.0
 10
155.791035
 20
-26.430945
 30
0.0
 10
158.000176
 20
-26.430945
 30
0.0
  0
LWPOLYLINE
  5
118
100
AcDbEntity
  8
0
 62
7
100
AcDbPolyline
 90
1
 70
1
 10
77.999889
 20
-26.430945
 30
0.0
  0
SPLINE
  5
119
100
AcDbEntity
  8
0
 62
7
100
AcDbSpline
 70
8
 71
3
 72
8
 73
4
 74
0
 40
0
 40
0
 40
0
 40
0
 40
1
 40
1
 40
1
 40
1
 10
237.999942
 20
-26.430945
 30
0.0
 10
240.209081
 20
-26.430945
 30
0.0
 10
242.000214
 20
-28.221559
 30
0.0
 10
242.000214
 20
-30.430700
 30
0.0
  0
SPLINE
  5
11a
100
AcDbEntity
  8
0
 62
7
100
AcDbSpline
 70
8
 71
3
 72
8
 73
4
 74
0
 40
0
 40
0
 40
0
 40
0
 40
1
 40
1
 40
1
 40
1
 10
242.000214
 20
-30.430700
 30
0.0
 10
242.000214
 20
-32.639841
 30
0.0
 10
240.209081
 20
-34.430973
 30
0.0
 10
237.999942
 20
-34.430973
 30
0.0
  0
SPLINE
  5
11b
100
AcDbEntity
  8
0
 62
7
100
AcDbSpline
 70
8
 71
3
 72
8
 73
4
 74
0
 40
0
 40
0
 40
0
 40
0
 40
1
 40
1
 40
1
 40
1
 10
237.999942
 20
-34.430973
 30
0.0
 10
235.790801
 20
-34.430973
 30
0.0
 10
234.000188
 20
-32.639841
 30
0.0
 10
234.000188
 20
-30.430700
 30
0.0
  0
SPLINE
  5
11c
100
AcDbEntity
  8
0
 62
7
100
AcDbSpline
 70
8
 71
3
 72
8
 73
4
 74
0
 40
0
 40
0
 40
0
 40
0
 40
1
 40
1
 40
1
 40
1
 10
234.000188
 20
-30.430700
 30
0.0
 10
234.000188
 20
-28.221559
 30
0.0
 10
235.790801
 20
-26.430945
 30
0.0
 10
237.999942
 20
-26.430945
 30
0.0
  0
LWPOLYLINE
  5
11d
100
AcDbEntity
  8
0
 62
7
100
AcDbPolyline
 90
1
 70
1
 10
158.000176
 20
-26.430945
 30
0.0
  0
SPLINE
  5
11e
100
AcDbEntity
  8
0
 62
7
100
AcDbSpline
 70
8
 71
3
 72
8
 73
4
 74
0
 40
0
 40
0
 40
0
 40
0
 40
1
 40
1
 40
1
 40
1
 10
-45.792038
 20
-28.879890
 30
0.0
 10
-44.383394
 20
-28.879890
 30
0.0
 10
-43.241793
 20
-30.021993
 30
0.0
 10
-43.242323
 20
-31.430640
 30
0.0
  0
SPLINE
  5
11f
100
AcDbEntity
  8
0
 62
7
100
AcDbSpline
 70
8
 71
3
 72
8
 73
4
 74
0
 40
0
 40
0
 40
0
 40
0
 40
1
 40
1
 40
1
 40
1
 10
-43.242323
 20
-31.430640
 30
0.0
 10
-43.241870
 20
-32.839287
 30
0.0
 10
-44.383394
 20
-33.981387
 30
0.0
 10
-45.792038
 20
-33.981387
 30
0.0
  0
SPLINE
  5
120
100
AcDbEntity
  8
0
 62
7
100
AcDbSpline
 70
8
 71
3
 72
8
 73
4
 74
0
 40
0
 40
0
 40
0
 40
0
 40
1
 40
1
 40
1
 40
1
 10
-45.792038
 20
-33.981387
 30
0.0
 10
-47.200685
 20
-33.981387
 30
0.0
 10
-48.342799
 20
-32.839287
 30
0.0
 10
-48.342270
 20
-31.430640
 30
0.0
  0
SPLINE
  5
121
100
AcDbEntity
  8
0
 62
7
100
AcDbSpline
 70
8
 71
3
 72
8
 73
4
 74
0
 40
0
 40
0
 40
0
 40
0
 40
1
 40
1
 40
1
 40
1
 10
-48.342270
 20
-31.430640
 30
0.0
 10
-48.342722
 20
-30.021993
 30
0.0
 10
-47.200685
 20
-28.879890
 30
0.0
 10
-45.792038
 20
-28.879890
 30
0.0
  0
LWPOLYLINE
  5
122
100
AcDbEntity
  8
0
 62
7
100
AcDbPolyline
 90
1
 70
1
 10
237.999942
 20
-26.430945
 30
0.0
  0
SPLINE
  5
123
100
AcDbEntity
  8
0
 62
7
100
AcDbSpline
 70
8
 71
3
 72
8
 73
4
 74
0
 40
0
 40
0
 40
0
 40
0
 40
1
 40
1
 40
1
 40
1
 10
361.792388
 20
-28.879890
 30
0.0
 10
363.201029
 20
-28.879890
 30
0.0
 10
364.342627
 20
-30.021993
 30
0.0
 10
364.342098
 20
-31.430640
 30
0.0
  0
SPLINE
  5
124
100
AcDbEntity
  8
0
 62
7
100
AcDbSpline
 70
8
 71
3
 72
8
 73
4
 74
0
 40
0
 40
0
 40
0
 40
0
 40
1
 40
1
 40
1
 40
1
 10
364.342098
 20
-31.430640
 30
0.0
 10
364.342548
 20
-32.839287
 30
0.0
 10
363.201029
 20
-33.981387
 30
0.0
 10
361.792388
 20
-33.981387
 30
0.0
  0
SPLINE
  5
125
100
AcDbEntity
  8
0
 62
7
100
AcDbSpline
 70
8
 71
3
 72
8
 73
4
 74
0
 40
0
 40
0
 40
0
 40
0
 40
1
 40
1
 40
1
 40
1
 10
361.792388
 20
-33.981387
 30
0.0
 10
360.383746
 20
-33.981387
 30
0.0
 10
359.241619
 20
-32.839287
 30
0.0
 10
359.242148
 20
-31.430640
 30
0.0
  0
SPLINE
  5
126
100
AcDbEntity
  8
0
 62
7
100
AcDbSpline
 70
8
 71
3
 72
8
 73
4
 74
0
 40
0
 40
0
 40
0
 40
0
 40
1
 40
1
 40
1
 40
1
 10
359.242148
 20
-31.430640
 30
0.0
 10
359.241699
 20
-30.021993
 30
0.0
 10
360.383746
 20
-28.879890
 30
0.0
 10
361.792388
 20
-28.879890
 30
0.0
  0
LWPOLYLINE
  5
127
100
AcDbEntity
  8
0
 62
7
100
AcDbPolyline
 90
1
 70
1
 10
-45.792038
 20
-28.879890
 30
0.0
  0
SPLINE
  5
128
100
AcDbEntity
  8
0
 62
7
100
AcDbSpline
 70
8
 71
3
 72
8
 73
4
 74
0
 40
0
 40
0
 40
0
 40
0
 40
1
 40
1
 40
1
 40
1
 10
13.000240
 20
-42.431002
 30
0.0
 10
15.209379
 20
-42.431002
 30
0.0
 10
16.999996
 20
-44.221617
 30
0.0
 10
16.999996
 20
-46.430758
 30
0.0
  0
SPLINE
  5
129
100
AcDbEntity
  8
0
 62
7
100
AcDbSpline
 70
8
 71
3
 72
8
 73
4
 74
0
 40
0
 40
0
 40
0
 40
0
 40
1
 40
1
 40
1
 40
1
 10
16.999996
 20
-46.430758
 30
0.0
 10
16.999996
 20
-48.639899
 30
0.0
 10
15.209379
 20
-50.430515
 30
0.0
 10
13.000240
 20
-50.430515
 30
0.0
  0
SPLINE
  5
12a
100
AcDbEntity
  8
0
 62
7
100
AcDbSpline
 70
8
 71
3
 72
8
 73
4
 74
0
 40
0
 40
0
 40
0
 40
0
 40
1
 40
1
 40
1
 40
1
 10
13.000240
 20
-50.430515
 30
0.0
 10
10.791102
 20
-50.430515
 30
0.0
 10
8.999967
 20
-48.639899
 30
0.0
 10
8.999967
 20
-46.430758
 30
0.0
  0
SPLINE
  5
12b
100
AcDbEntity
  8
0
 62
7
100
AcDbSpline
 70
8
 71
3
 72
8
 73
4
 74
0
 40
0
 40
0
 40
0
 40
0
 40
1
 40
1
 40
1
 40
1
 10
8.999967
 20
-46.430758
 30
0.0
 10
8.999967
 20
-44.221617
 30
0.0
 10
10.791102
 20
-42.431002
 30
0.0
 10
13.000240
 20
-42.431002
 30
0.0
  0
LWPOLYLINE
  5
12c
100
AcDbEntity
  8
0
 62
7
100
AcDbPolyline
 90
1
 70
1
 10
361.792388
 20
-28.879890
 30
0.0
  0
SPLINE
  5
12d
100
AcDbEntity
  8
0
 62
7
100
AcDbSpline
 70
8
 71
3
 72
8
 73
4
 74
0
 40
0
 40
0
 40
0
 40
0
 40
1
 40
1
 40
1
 40
1
 10
303.000119
 20
-42.431002
 30
0.0
 10
305.209258
 20
-42.431002
 30
0.0
 10
306.999878
 20
-44.221617
 30
0.0
 10
306.999878
 20
-46.430758
 30
0.0
  0
SPLINE
  5
12e
100
AcDbEntity
  8
0
 62
7
100
AcDbSpline
 70
8
 71
3
 72
8
 73
4
 74
0
 40
0
 40
0
 40
0
 40
0
 40
1
 40
1
 40
1
 40
1
 10
306.999878
 20
-46.430758
 30
0.0
 10
306.999878
 20
-48.639899
 30
0.0
 10
305.209258
 20
-50.430515
 30
0.0
 10
303.000119
 20
-50.430515
 30
0.0
  0
SPLINE
  5
12f
100
AcDbEntity
  8
0
 62
7
100
AcDbSpline
 70
8
 71
3
 72
8
 73
4
 74
0
 40
0
 40
0
 40
0
 40
0
 40
1
 40
1
 40
1
 40
1
 10
303.000119
 20
-50.430515
 30
0.0
 10
300.790980
 20
-50.430515
 30
0.0
 10
298.999831
 20
-48.639899
 30
0.0
 10
298.999831
 20
-46.430758
 30
0.0
  0
SPLINE
  5
130
100
AcDbEntity
  8
0
 62
7
100
AcDbSpline
 70
8
 71
3
 72
8
 73
4
 74
0
 40
0
 40
0
 40
0
 40
0
 40
1
 40
1
 40
1
 40
1
 10
298.999831
 20
-46.430758
 30
0.0
 10
298.999831
 20
-44.221617
 30
0.0
 10
300.790980
 20
-42.431002
 30
0.0
 10
303.000119
 20
-42.431002
 30
0.0
  0
LWPOLYLINE
  5
131
100
AcDbEntity
  8
0
 62
7
100
AcDbPolyline
 90
1
 70
1
 10
13.000240
 20
-42.431002
 30
0.0
  0
LWPOLYLINE
  5
132
100
AcDbEntity
  8
0
 62
7
100
AcDbPolyline
 90
1
 70
1
 10
303.000119
 20
-42.431002
 30
0.0
  0
SPLINE
  5
133
100
AcDbEntity
  8
0
 62
7
100
AcDbSpline
 70
8
 71
3
 72
8
 73
4
 74
0
 40
0
 40
0
 40
0
 40
0
 40
1
 40
1
 40
1
 40
1
 10
13.000240
 20
-142.430582
 30
0.0
 10
15.209379
 20
-142.430582
 30
0.0
 10
16.999996
 20
-144.221716
 30
0.0
 10
16.999996
 20
-146.430854
 30
0.0
  0
SPLINE
  5
134
100
AcDbEntity
  8
0
 62
7
100
AcDbSpline
 70
8
 71
3
 72
8
 73
4
 74
0
 40
0
 40
0
 40
0
 40
0
 40
1
 40
1
 40
1
 40
1
 10
16.999996
 20
-146.430854
 30
0.0
 10
16.999996
 20
-148.639993
 30
0.0
 10
15.209379
 20
-150.430611
 30
0.0
 10
13.000240
 20
-150.430611
 30
0.0
  0
SPLINE
  5
135
100
AcDbEntity
  8
0
 62
7
100
AcDbSpline
 70
8
 71
3
 72
8
 73
4
 74
0
 40
0
 40
0
 40
0
 40
0
 40
1
 40
1
 40
1
 40
1
 10
13.000240
 20
-150.430611
 30
0.0
 10
10.791102
 20
-150.430611
 30
0.0
 10
8.999967
 20
-148.639993
 30
0.0
 10
8.999967
 20
-146.430854
 30
0.0
  0
SPLINE
  5
136
100
AcDbEntity
  8
0
 62
7
100
AcDbSpline
 70
8
 71
3
 72
8
 73
4
 74
0
 40
0
 40
0
 40
0
 40
0
 40
1
 40
1
 40
1
 40
1
 10
8.999967
 20
-146.430854
 30
0.0
 10
8.999967
 20
-144.221716
 30
0.0
 10
10.791102
 20
-142.430582
 30
0.0
 10
13.000240
 20
-142.430582
 30
0.0
  0
LWPOLYLINE
  5
137
100
AcDbEntity
  8
0
 62
7
100
AcDbPolyline
 90
5
 70
1
 10
25.999963
 20
-46.430758
 30
0.0
 10
289.999870
 20
-46.430758
 30
0.0
 10
289.999870
 20
-146.430854
 30
0.0
 10
25.999963
 20
-146.430854
 30
0.0
 10
25.999963
 20
-46.430758
 30
0.0
  0
SPLINE
  5
138
100
AcDbEntity
  8
0
 62
7
100
AcDbSpline
 70
8
 71
3
 72
8
 73
4
 74
0
 40
0
 40
0
 40
0
 40
0
 40
1
 40
1
 40
1
 40
1
 10
303.000119
 20
-142.430582
 30
0.0
 10
305.209258
 20
-142.430582
 30
0.0
 10
306.999878
 20
-144.221716
 30
0.0
 10
306.999878
 20
-146.430854
 30
0.0
  0
SPLINE
  5
139
100
AcDbEntity
  8
0
 62
7
100
AcDbSpline
 70
8
 71
3
 72
8
 73
4
 74
0
 40
0
 40
0
 40
0
 40
0
 40
1
 40
1
 40
1
 40
1
 10
306.999878
 20
-146.430854
 30
0.0
 10
306.999878
 20
-148.639993
 30
0.0
 10
305.209258
 20
-150.430611
 30
0.0
 10
303.000119
 20
-150.430611
 30
0.0
  0
SPLINE
  5
13a
100
AcDbEntity
  8
0
 62
7
100
AcDbSpline
 70
8
 71
3
 72
8
 73
4
 74
0
 40
0
 40
0
 40
0
 40
0
 40
1
 40
1
 40
1
 40
1
 10
303.000119
 20
-150.430611
 30
0.0
 10
300.790980
 20
-150.430611
 30
0.0
 10
298.999831
 20
-148.639993
 30
0.0
 10
298.999831
 20
-146.430854
 30
0.0
  0
SPLINE
  5
13b
100
AcDbEntity
  8
0
 62
7
100
AcDbSpline
 70
8
 71
3
 72
8
 73
4
 74
0
 40
0
 40
0
 40
0
 40
0
 40
1
 40
1
 40
1
 40
1
 10
298.999831
 20
-146.430854
 30
0.0
 10
298.999831
 20
-144.221716
 30
0.0
 10
300.790980
 20
-142.430582
 30
0.0
 10
303.000119
 20
-142.430582
 30
0.0
  0
LWPOLYLINE
  5
13c
100
AcDbEntity
  8
0
 62
7
100
AcDbPolyline
 90
1
 70
1
 10
13.000240
 20
-142.430582
 30
0.0
  0
SPLINE
  5
13d
100
AcDbEntity
  8
0
 62
7
100
AcDbSpline
 70
8
 71
3
 72
8
 73
4
 74
0
 40
0
 40
0
 40
0
 40
0
 40
1
 40
1
 40
1
 40
1
 10
77.999889
 20
-158.430640
 30
0.0
 10
80.209030
 20
-158.430640
 30
0.0
 10
82.000164
 20
-160.221774
 30
0.0
 10
82.000164
 20
-162.430912
 30
0.0
  0
SPLINE
  5
13e
100
AcDbEntity
  8
0
 62
7
100
AcDbSpline
 70
8
 71
3
 72
8
 73
4
 74
0
 40
0
 40
0
 40
0
 40
0
 40
1
 40
1
 40
1
 40
1
 10
82.000164
 20
-162.430912
 30
0.0
 10
82.000164
 20
-164.640051
 30
0.0
 10
80.209030
 20
-166.430669
 30
0.0
 10
77.999889
 20
-166.430669
 30
0.0
  0
SPLINE
  5
13f
100
AcDbEntity
  8
0
 62
7
100
AcDbSpline
 70
8
 71
3
 72
8
 73
4
 74
0
 40
0
 40
0
 40
0
 40
0
 40
1
 40
1
 40
1
 40
1
 10
77.999889
 20
-166.430669
 30
0.0
 10
75.790750
 20
-166.430669
 30
0.0
 10
74.000135
 20
-164.640051
 30
0.0
 10
74.000135
 20
-162.430912
 30
0.0
  0
SPLINE
  5
140
100
AcDbEntity
  8
0
 62
7
100
AcDbSpline
 70
8
 71
3
 72
8
 73
4
 74
0
 40
0
 40
0
 40
0
 40
0
 40
1
 40
1
 40
1
 40
1
 10
74.000135
 20
-162.430912
 30
0.0
 10
74.000135
 20
-160.221774
 30
0.0
 10
75.790750
 20
-158.430640
 30
0.0
 10
77.999889
 20
-158.430640
 30
0.0
  0
LWPOLYLINE
  5
141
100
AcDbEntity
  8
0
 62
7
100
AcDbPolyline
 90
1
 70
1
 10
303.000119
 20
-142.430582
 30
0.0
  0
SPLINE
  5
142
100
AcDbEntity
  8
0
 62
7
100
AcDbSpline
 70
8
 71
3
 72
8
 73
4
 74
0
 40
0
 40
0
 40
0
 40
0
 40
1
 40
1
 40
1
 40
1
 10
158.000176
 20
-158.430640
 30
0.0
 10
160.209315
 20
-158.430640
 30
0.0
 10
161.999930
 20
-160.221774
 30
0.0
 10
161.999930
 20
-162.430912
 30
0.0
  0
SPLINE
  5
143
100
AcDbEntity
  8
0
 62
7
100
AcDbSpline
 70
8
 71
3
 72
8
 73
4
 74
0
 40
0
 40
0
 40
0
 40
0
 40
1
 40
1
 40
1
 40
1
 10
161.999930
 20
-162.430912
 30
0.0
 10
161.999930
 20
-164.640051
 30
0.0
 10
160.209315
 20
-166.430669
 30
0.0
 10
158.000176
 20
-166.430669
 30
0.0
  0
SPLINE
  5
144
100
AcDbEntity
  8
0
 62
7
100
AcDbSpline
 70
8
 71
3
 72
8
 73
4
 74
0
 40
0
 40
0
 40
0
 40
0
 40
1
 40
1
 40
1
 40
1
 10
158.000176
 20
-166.430669
 30
0.0
 10
155.791035
 20
-166.430669
 30
0.0
 10
153.999890
 20
-164.640051
 30
0.0
 10
153.999904
 20
-162.430912
 30
0.0
  0
SPLINE
  5
145
100
AcDbEntity
  8
0
 62
7
100
AcDbSpline
 70
8
 71
3
 72
8
 73
4
 74
0
 40
0
 40
0
 40
0
 40
0
 40
1
 40
1
 40
1
 40
1
 10
153.999904
 20
-162.430912
 30
0.0
 10
153.999901
 20
-160.221774
 30
0.0
 10
155.791035
 20
-158.430640
 30
0.0
 10
158.000176
 20
-158.430640
 30
0.0
  0
LWPOLYLINE
  5
146
100
AcDbEntity
  8
0
 62
7
100
AcDbPolyline
 90
1
 70
1
 10
77.999889
 20
-158.430640
 30
0.0
  0
SPLINE
  5
147
100
AcDbEntity
  8
0
 62
7
100
AcDbSpline
 70
8
 71
3
 72
8
 73
4
 74
0
 40
0
 40
0
 40
0
 40
0
 40
1
 40
1
 40
1
 40
1
 10
237.999942
 20
-158.430640
 30
0.0
 10
240.209083
 20
-158.430640
 30
0.0
 10
242.000214
 20
-160.221774
 30
0.0
 10
242.000214
 20
-162.430912
 30
0.0
  0
SPLINE
  5
148
100
AcDbEntity
  8
0
 62
7
100
AcDbSpline
 70
8
 71
3
 72
8
 73
4
 74
0
 40
0
 40
0
 40
0
 40
0
 40
1
 40
1
 40
1
 40
1
 10
242.000214
 20
-162.430912
 30
0.0
 10
242.000214
 20
-164.640051
 30
0.0
 10
240.209083
 20
-166.430669
 30
0.0
 10
237.999942
 20
-166.430669
 30
0.0
  0
SPLINE
  5
149
100
AcDbEntity
  8
0
 62
7
100
AcDbSpline
 70
8
 71
3
 72
8
 73
4
 74
0
 40
0
 40
0
 40
0
 40
0
 40
1
 40
1
 40
1
 40
1
 10
237.999942
 20
-166.430669
 30
0.0
 10
235.790803
 20
-166.430669
 30
0.0
 10
234.000188
 20
-164.640051
 30
0.0
 10
234.000188
 20
-162.430912
 30
0.0
  0
SPLINE
  5
14a
100
AcDbEntity
  8
0
 62
7
100
AcDbSpline
 70
8
 71
3
 72
8
 73
4
 74
0
 40
0
 40
0
 40
0
 40
0
 40
1
 40
1
 40
1
 40
1
 10
234.000188
 20
-162.430912
 30
0.0
 10
234.000188
 20
-160.221774
 30
0.0
 10
235.790803
 20
-158.430640
 30
0.0
 10
237.999942
 20
-158.430640
 30
0.0
  0
LWPOLYLINE
  5
14b
100
AcDbEntity
  8
0
 62
7
100
AcDbPolyline
 90
1
 70
1
 10
158.000176
 20
-158.430640
 30
0.0
  0
SPLINE
  5
14c
100
AcDbEntity
  8
0
 62
7
100
AcDbSpline
 70
8
 71
3
 72
8
 73
4
 74
0
 40
0
 40
0
 40
0
 40
0
 40
1
 40
1
 40
1
 40
1
 10
-45.792038
 20
-158.879707
 30
0.0
 10
-44.383394
 20
-158.879707
 30
0.0
 10
-43.241793
 20
-160.022331
 30
0.0
 10
-43.242323
 20
-161.430973
 30
0.0
  0
SPLINE
  5
14d
100
AcDbEntity
  8
0
 62
7
100
AcDbSpline
 70
8
 71
3
 72
8
 73
4
 74
0
 40
0
 40
0
 40
0
 40
0
 40
1
 40
1
 40
1
 40
1
 10
-43.242323
 20
-161.430973
 30
0.0
 10
-43.241870
 20
-162.839614
 30
0.0
 10
-44.383394
 20
-163.981723
 30
0.0
 10
-45.792038
 20
-163.981723
 30
0.0
  0
SPLINE
  5
14e
100
AcDbEntity
  8
0
 62
7
100
AcDbSpline
 70
8
 71
3
 72
8
 73
4
 74
0
 40
0
 40
0
 40
0
 40
0
 40
1
 40
1
 40
1
 40
1
 10
-45.792038
 20
-163.981723
 30
0.0
 10
-47.200685
 20
-163.981723
 30
0.0
 10
-48.342799
 20
-162.839614
 30
0.0
 10
-48.342270
 20
-161.430973
 30
0.0
  0
SPLINE
  5
14f
100
AcDbEntity
  8
0
 62
7
100
AcDbSpline
 70
8
 71
3
 72
8
 73
4
 74
0
 40
0
 40
0
 40
0
 40
0
 40
1
 40
1
 40
1
 40
1
 10
-48.342270
 20
-161.430973
 30
0.0
 10
-48.342722
 20
-160.022331
 30
0.0
 10
-47.200685
 20
-158.879707
 30
0.0
 10
-45.792038
 20
-158.879707
 30
0.0
  0
LWPOLYLINE
  5
150
100
AcDbEntity
  8
0
 62
7
100
AcDbPolyline
 90
1
 70
1
 10
237.999942
 20
-158.430640
 30
0.0
  0
SPLINE
  5
151
100
AcDbEntity
  8
0
 62
7
100
AcDbSpline
 70
8
 71
3
 72
8
 73
4
 74
0
 40
0
 40
0
 40
0
 40
0
 40
1
 40
1
 40
1
 40
1
 10
361.792388
 20
-158.879707
 30
0.0
 10
363.201029
 20
-158.879707
 30
0.0
 10
364.342627
 20
-160.022331
 30
0.0
 10
364.342098
 20
-161.430973
 30
0.0
  0
SPLINE
  5
152
100
AcDbEntity
  8
0
 62
7
100
AcDbSpline
 70
8
 71
3
 72
8
 73
4
 74
0
 40
0
 40
0
 40
0
 40
0
 40
1
 40
1
 40
1
 40
1
 10
364.342098
 20
-161.430973
 30
0.0
 10
364.342548
 20
-162.839614
 30
0.0
 10
363.201029
 20
-163.981723
 30
0.0
 10
361.792388
 20
-163.981723
 30
0.0
  0
SPLINE
  5
153
100
AcDbEntity
  8
0
 62
7
100
AcDbSpline
 70
8
 71
3
 72
8
 73
4
 74
0
 40
0
 40
0
 40
0
 40
0
 40
1
 40
1
 40
1
 40
1
 10
361.792388
 20
-163.981723
 30
0.0
 10
360.383746
 20
-163.981723
 30
0.0
 10
359.241619
 20
-162.839614
 30
0.0
 10
359.242148
 20
-161.430973
 30
0.0
  0
SPLINE
  5
154
100
AcDbEntity
  8
0
 62
7
100
AcDbSpline
 70
8
 71
3
 72
8
 73
4
 74
0
 40
0
 40
0
 40
0
 40
0
 40
1
 40
1
 40
1
 40
1
 10
359.242148
 20
-161.430973
 30
0.0
 10
359.241699
 20
-160.022331
 30
0.0
 10
360.383746
 20
-158.879707
 30
0.0
 10
361.792388
 20
-158.879707
 30
0.0
  0
LWPOLYLINE
  5
155
100
AcDbEntity
  8
0
 62
7
100
AcDbPolyline
 90
1
 70
1
 10
-45.792038
 20
-158.879707
 30
0.0
  0
SPLINE
  5
156
100
AcDbEntity
  8
0
 62
7
100
AcDbSpline
 70
8
 71
3
 72
8
 73
4
 74
0
 40
0
 40
0
 40
0
 40
0
 40
1
 40
1
 40
1
 40
1
 10
13.000240
 20
-183.727804
 30
0.0
 10
14.408564
 20
-183.727804
 30
0.0
 10
15.549955
 20
-184.869196
 30
0.0
 10
15.549955
 20
-186.277520
 30
0.0
  0
SPLINE
  5
157
100
AcDbEntity
  8
0
 62
7
100
AcDbSpline
 70
8
 71
3
 72
8
 73
4
 74
0
 40
0
 40
0
 40
0
 40
0
 40
1
 40
1
 40
1
 40
1
 10
15.549955
 20
-186.277520
 30
0.0
 10
15.549955
 20
-187.685844
 30
0.0
 10
14.408564
 20
-188.827751
 30
0.0
 10
13.000240
 20
-188.827751
 30
0.0
  0
SPLINE
  5
158
100
AcDbEntity
  8
0
 62
7
100
AcDbSpline
 70
8
 71
3
 72
8
 73
4
 74
0
 40
0
 40
0
 40
0
 40
0
 40
1
 40
1
 40
1
 40
1
 10
13.000240
 20
-188.827751
 30
0.0
 10
11.591913
 20
-188.827751
 30
0.0
 10
10.450008
 20
-187.685844
 30
0.0
 10
10.450008
 20
-186.277520
 30
0.0
  0
SPLINE
  5
159
100
AcDbEntity
  8
0
 62
7
100
AcDbSpline
 70
8
 71
3
 72
8
 73
4
 74
0
 40
0
 40
0
 40
0
 40
0
 40
1
 40
1
 40
1
 40
1
 10
10.450008
 20
-186.277520
 30
0.0
 10
10.450008
 20
-184.869196
 30
0.0
 10
11.591913
 20
-183.727804
 30
0.0
 10
13.000240
 20
-183.727804
 30
0.0
  0
LWPOLYLINE
  5
15a
100
AcDbEntity
  8
0
 62
7
100
AcDbPolyline
 90
1
 70
1
 10
361.792388
 20
-158.879707
 30
0.0
  0
SPLINE
  5
15b
100
AcDbEntity
  8
0
 62
7
100
AcDbSpline
 70
8
 71
3
 72
8
 73
4
 74
0
 40
0
 40
0
 40
0
 40
0
 40
1
 40
1
 40
1
 40
1
 10
158.000176
 20
-183.727804
 30
0.0
 10
159.408500
 20
-183.727804
 30
0.0
 10
160.549889
 20
-184.869196
 30
0.0
 10
160.549889
 20
-186.277520
 30
0.0
  0
SPLINE
  5
15c
100
AcDbEntity
  8
0
 62
7
100
AcDbSpline
 70
8
 71
3
 72
8
 73
4
 74
0
 40
0
 40
0
 40
0
 40
0
 40
1
 40
1
 40
1
 40
1
 10
160.549889
 20
-186.277520
 30
0.0
 10
160.549889
 20
-187.685844
 30
0.0
 10
159.408500
 20
-188.827751
 30
0.0
 10
158.000176
 20
-188.827751
 30
0.0
  0
SPLINE
  5
15d
100
AcDbEntity
  8
0
 62
7
100
AcDbSpline
 70
8
 71
3
 72
8
 73
4
 74
0
 40
0
 40
0
 40
0
 40
0
 40
1
 40
1
 40
1
 40
1
 10
158.000176
 20
-188.827751
 30
0.0
 10
156.591849
 20
-188.827751
 30
0.0
 10
155.449942
 20
-187.685844
 30
0.0
 10
155.449942
 20
-186.277520
 30
0.0
  0
SPLINE
  5
15e
100
AcDbEntity
  8
0
 62
7
100
AcDbSpline
 70
8
 71
3
 72
8
 73
4
 74
0
 40
0
 40
0
 40
0
 40
0
 40
1
 40
1
 40
1
 40
1
 10
155.449942
 20
-186.277520
 30
0.0
 10
155.449942
 20
-184.869196
 30
0.0
 10
156.591849
 20
-183.727804
 30
0.0
 10
158.000176
 20
-183.727804
 30
0.0
  0
LWPOLYLINE
  5
15f
100
AcDbEntity
  8
0
 62
7
100
AcDbPolyline
 90
1
 70
1
 10
13.000240
 20
-183.727804
 30
0.0
  0
SPLINE
  5
160
100
AcDbEntity
  8
0
 62
7
100
AcDbSpline
 70
8
 71
3
 72
8
 73
4
 74
0
 40
0
 40
0
 40
0
 40
0
 40
1
 40
1
 40
1
 40
1
 10
303.000119
 20
-183.727804
 30
0.0
 10
304.408443
 20
-183.727804
 30
0.0
 10
305.549829
 20
-184.869196
 30
0.0
 10
305.549829
 20
-186.277520
 30
0.0
  0
SPLINE
  5
161
100
AcDbEntity
  8
0
 62
7
100
AcDbSpline
 70
8
 71
3
 72
8
 73
4
 74
0
 40
0
 40
0
 40
0
 40
0
 40
1
 40
1
 40
1
 40
1
 10
305.549829
 20
-186.277520
 30
0.0
 10
305.549829
 20
-187.685844
 30
0.0
 10
304.408443
 20
-188.827751
 30
0.0
 10
303.000119
 20
-188.827751
 30
0.0
  0
SPLINE
  5
162
100
AcDbEntity
  8
0
 62
7
100
AcDbSpline
 70
8
 71
3
 72
8
 73
4
 74
0
 40
0
 40
0
 40
0
 40
0
 40
1
 40
1
 40
1
 40
1
 10
303.000119
 20
-188.827751
 30
0.0
 10
301.591795
 20
-188.827751
 30
0.0
 10
300.449880
 20
-187.685844
 30
0.0
 10
300.449880
 20
-186.277520
 30
0.0
  0
SPLINE
  5
163
100
AcDbEntity
  8
0
 62
7
100
AcDbSpline
 70
8
 71
3
 72
8
 73
4
 74
0
 40
0
 40
0
 40
0
 40
0
 40
1
 40
1
 40
1
 40
1
 10
300.449880
 20
-186.277520
 30
0.0
 10
300.449880
 20
-184.869196
 30
0.0
 10
301.591795
 20
-183.727804
 30
0.0
 10
303.000119
 20
-183.727804
 30
0.0
  0
LWPOLYLINE
  5
164
100
AcDbEntity
  8
0
 62
7
100
AcDbPolyline
 90
1
 70
1
 10
158.000176
 20
-183.727804
 30
0.0
  0
LWPOLYLINE
  5
165
100
AcDbEntity
  8
0
 62
7
100
AcDbPolyline
 90
1
 70
1
 10
303.000119
 20
-183.727804
 30
0.0
  0
ENDSEC
  0
SECTION
  2
OBJECTS
  0
DICTIONARY
  5
C
330
0
100
AcDbDictionary
  3
ACAD_GROUP
350
D
  3
ACAD_MLINESTYLE
350
17
  0
DICTIONARY
  5
D
330
C
100
AcDbDictionary
  0
DICTIONARY
  5
1A
330
C
100
AcDbDictionary
  0
DICTIONARY
  5
17
330
C
100
AcDbDictionary
  3
STANDARD
350
18
  0
DICTIONARY
  5
19
330
C
100
AcDbDictionary
  0
ENDSEC
  0
EOF
