  0
SECTION
  2
HEADER
  9
$ACADVER
  1
AC1009
  9
$EXTMIN
 10
-749.18329000
 20
-102.89129500
 30
0.0
  9
$EXTMAX
 10
750.81671000
 20
75.10860500
 30
0.0
  0
ENDSEC
  0
SECTION
  2
TABLES
  0
TABLE
  2
LAYER
 70
1
 0
LAYER
 2
layer_1
 70
0
 62
250
 6
CONTINUOUS
 0
ENDTAB
 0
ENDSEC
  0
SECTION
  2
ENTITIES
  0
POLYLINE
  8
layer_1
 62
256
 66
   1
 39
0.000000
 70
    1
  0
VERTEX
  8
0
 10
-739.18659000
 20
75.10860500
  0
VERTEX
  8
0
 10
740.81991000
 20
75.10860500
  0
VERTEX
  8
0
 10
741.33233975
 20
75.09553258
  0
VERTEX
  8
0
 10
741.83827067
 20
75.05674240
  0
VERTEX
  8
0
 10
742.33706212
 20
74.99287513
  0
VERTEX
  8
0
 10
742.82807348
 20
74.90457141
  0
VERTEX
  8
0
 10
743.31066410
 20
74.79247188
  0
VERTEX
  8
0
 10
743.78419337
 20
74.65721721
  0
VERTEX
  8
0
 10
744.24802065
 20
74.49944803
  0
VERTEX
  8
0
 10
744.70150531
 20
74.31980500
  0
VERTEX
  8
0
 10
745.14400672
 20
74.11892877
  0
VERTEX
  8
0
 10
745.57488424
 20
73.89745998
  0
VERTEX
  8
0
 10
745.99349725
 20
73.65603929
  0
VERTEX
  8
0
 10
746.39920512
 20
73.39530734
  0
VERTEX
  8
0
 10
746.79136721
 20
73.11590479
  0
VERTEX
  8
0
 10
747.16934289
 20
72.81847229
  0
VERTEX
  8
0
 10
747.53249153
 20
72.50365047
  0
VERTEX
  8
0
 10
747.88017250
 20
72.17208000
  0
VERTEX
  8
0
 10
748.21174517
 20
71.82440152
  0
VERTEX
  8
0
 10
748.52656891
 20
71.46125568
  0
VERTEX
  8
0
 10
748.82400309
 20
71.08328314
  0
VERTEX
  8
0
 10
749.10340707
 20
70.69112453
  0
VERTEX
  8
0
 10
749.36414023
 20
70.28542052
  0
VERTEX
  8
0
 10
749.60556193
 20
69.86681174
  0
VERTEX
  8
0
 10
749.82703154
 20
69.43593885
  0
VERTEX
  8
0
 10
750.02790844
 20
68.99344250
  0
VERTEX
  8
0
 10
750.20755198
 20
68.53996334
  0
VERTEX
  8
0
 10
750.36532155
 20
68.07614201
  0
VERTEX
  8
0
 10
750.50057650
 20
67.60261917
  0
VERTEX
  8
0
 10
750.61267621
 20
67.12003547
  0
VERTEX
  8
0
 10
750.70098005
 20
66.62903155
  0
VERTEX
  8
0
 10
750.76484738
 20
66.13024807
  0
VERTEX
  8
0
 10
750.80363757
 20
65.62432567
  0
VERTEX
  8
0
 10
750.81671000
 20
65.11190500
  0
VERTEX
  8
0
 10
750.81671000
 20
-92.89469500
  0
VERTEX
  8
0
 10
750.80363757
 20
-93.40711538
  0
VERTEX
  8
0
 10
750.76484738
 20
-93.91303694
  0
VERTEX
  8
0
 10
750.70098005
 20
-94.41181908
  0
VERTEX
  8
0
 10
750.61267621
 20
-94.90282117
  0
VERTEX
  8
0
 10
750.50057650
 20
-95.38540261
  0
VERTEX
  8
0
 10
750.36532155
 20
-95.85892278
  0
VERTEX
  8
0
 10
750.20755198
 20
-96.32274108
  0
VERTEX
  8
0
 10
750.02790844
 20
-96.77621687
  0
VERTEX
  8
0
 10
749.82703154
 20
-97.21870957
  0
VERTEX
  8
0
 10
749.60556193
 20
-97.64957854
  0
VERTEX
  8
0
 10
749.36414023
 20
-98.06818319
  0
VERTEX
  8
0
 10
749.10340707
 20
-98.47388289
  0
VERTEX
  8
0
 10
748.82400309
 20
-98.86603703
  0
VERTEX
  8
0
 10
748.52656891
 20
-99.24400501
  0
VERTEX
  8
0
 10
748.21174517
 20
-99.60714620
  0
VERTEX
  8
0
 10
747.88017250
 20
-99.95482000
  0
VERTEX
  8
0
 10
747.53249153
 20
-100.28638579
  0
VERTEX
  8
0
 10
747.16934289
 20
-100.60120296
  0
VERTEX
  8
0
 10
746.79136721
 20
-100.89863089
  0
VERTEX
  8
0
 10
746.39920512
 20
-101.17802898
  0
VERTEX
  8
0
 10
745.99349725
 20
-101.43875661
  0
VERTEX
  8
0
 10
745.57488424
 20
-101.68017317
  0
VERTEX
  8
0
 10
745.14400672
 20
-101.90163805
  0
VERTEX
  8
0
 10
744.70150531
 20
-102.10251063
  0
VERTEX
  8
0
 10
744.24802065
 20
-102.28215029
  0
VERTEX
  8
0
 10
743.78419337
 20
-102.43991644
  0
VERTEX
  8
0
 10
743.31066410
 20
-102.57516844
  0
VERTEX
  8
0
 10
742.82807348
 20
-102.68726570
  0
VERTEX
  8
0
 10
742.33706212
 20
-102.77556760
  0
VERTEX
  8
0
 10
741.83827067
 20
-102.83943353
  0
VERTEX
  8
0
 10
741.33233975
 20
-102.87822286
  0
VERTEX
  8
0
 10
740.81991000
 20
-102.89129500
  0
VERTEX
  8
0
 10
-739.18659000
 20
-102.89129500
  0
VERTEX
  8
0
 10
-739.69901067
 20
-102.87822286
  0
VERTEX
  8
0
 10
-740.20493307
 20
-102.83943353
  0
VERTEX
  8
0
 10
-740.70371655
 20
-102.77556760
  0
VERTEX
  8
0
 10
-741.19472047
 20
-102.68726570
  0
VERTEX
  8
0
 10
-741.67730417
 20
-102.57516844
  0
VERTEX
  8
0
 10
-742.15082701
 20
-102.43991644
  0
VERTEX
  8
0
 10
-742.61464834
 20
-102.28215029
  0
VERTEX
  8
0
 10
-743.06812750
 20
-102.10251063
  0
VERTEX
  8
0
 10
-743.51062385
 20
-101.90163805
  0
VERTEX
  8
0
 10
-743.94149674
 20
-101.68017317
  0
VERTEX
  8
0
 10
-744.36010552
 20
-101.43875661
  0
VERTEX
  8
0
 10
-744.76580953
 20
-101.17802898
  0
VERTEX
  8
0
 10
-745.15796814
 20
-100.89863089
  0
VERTEX
  8
0
 10
-745.53594068
 20
-100.60120296
  0
VERTEX
  8
0
 10
-745.89908652
 20
-100.28638579
  0
VERTEX
  8
0
 10
-746.24676500
 20
-99.95482000
  0
VERTEX
  8
0
 10
-746.57833547
 20
-99.60714620
  0
VERTEX
  8
0
 10
-746.89315729
 20
-99.24400501
  0
VERTEX
  8
0
 10
-747.19058979
 20
-98.86603703
  0
VERTEX
  8
0
 10
-747.46999234
 20
-98.47388289
  0
VERTEX
  8
0
 10
-747.73072429
 20
-98.06818319
  0
VERTEX
  8
0
 10
-747.97214498
 20
-97.64957854
  0
VERTEX
  8
0
 10
-748.19361377
 20
-97.21870957
  0
VERTEX
  8
0
 10
-748.39449000
 20
-96.77621687
  0
VERTEX
  8
0
 10
-748.57413303
 20
-96.32274108
  0
VERTEX
  8
0
 10
-748.73190221
 20
-95.85892278
  0
VERTEX
  8
0
 10
-748.86715688
 20
-95.38540261
  0
VERTEX
  8
0
 10
-748.97925641
 20
-94.90282117
  0
VERTEX
  8
0
 10
-749.06756013
 20
-94.41181908
  0
VERTEX
  8
0
 10
-749.13142740
 20
-93.91303694
  0
VERTEX
  8
0
 10
-749.17021758
 20
-93.40711538
  0
VERTEX
  8
0
 10
-749.18329000
 20
-92.89469500
  0
VERTEX
  8
0
 10
-749.18329000
 20
65.11190500
  0
VERTEX
  8
0
 10
-749.17021758
 20
65.62432567
  0
VERTEX
  8
0
 10
-749.13142740
 20
66.13024807
  0
VERTEX
  8
0
 10
-749.06756013
 20
66.62903155
  0
VERTEX
  8
0
 10
-748.97925641
 20
67.12003547
  0
VERTEX
  8
0
 10
-748.86715688
 20
67.60261917
  0
VERTEX
  8
0
 10
-748.73190221
 20
68.07614201
  0
VERTEX
  8
0
 10
-748.57413303
 20
68.53996334
  0
VERTEX
  8
0
 10
-748.39449000
 20
68.99344250
  0
VERTEX
  8
0
 10
-748.19361377
 20
69.43593885
  0
VERTEX
  8
0
 10
-747.97214498
 20
69.86681174
  0
VERTEX
  8
0
 10
-747.73072429
 20
70.28542052
  0
VERTEX
  8
0
 10
-747.46999234
 20
70.69112453
  0
VERTEX
  8
0
 10
-747.19058979
 20
71.08328314
  0
VERTEX
  8
0
 10
-746.89315729
 20
71.46125568
  0
VERTEX
  8
0
 10
-746.57833547
 20
71.82440152
  0
VERTEX
  8
0
 10
-746.24676500
 20
72.17208000
  0
VERTEX
  8
0
 10
-745.89908652
 20
72.50365047
  0
VERTEX
  8
0
 10
-745.53594068
 20
72.81847229
  0
VERTEX
  8
0
 10
-745.15796814
 20
73.11590479
  0
VERTEX
  8
0
 10
-744.76580953
 20
73.39530734
  0
VERTEX
  8
0
 10
-744.36010552
 20
73.65603929
  0
VERTEX
  8
0
 10
-743.94149674
 20
73.89745998
  0
VERTEX
  8
0
 10
-743.51062385
 20
74.11892877
  0
VERTEX
  8
0
 10
-743.06812750
 20
74.31980500
  0
VERTEX
  8
0
 10
-742.61464834
 20
74.49944803
  0
VERTEX
  8
0
 10
-742.15082701
 20
74.65721721
  0
VERTEX
  8
0
 10
-741.67730417
 20
74.79247188
  0
VERTEX
  8
0
 10
-741.19472047
 20
74.90457141
  0
VERTEX
  8
0
 10
-740.70371655
 20
74.99287513
  0
VERTEX
  8
0
 10
-740.20493307
 20
75.05674240
  0
VERTEX
  8
0
 10
-739.69901067
 20
75.09553258
  0
VERTEX
  8
0
 10
-739.18659000
 20
75.10860500
  0
SEQEND
  0
POLYLINE
  8
layer_1
 62
256
 66
   1
 39
0.000000
 70
    1
  0
VERTEX
  8
0
 10
-589.18339000
 20
-10.89129500
  0
VERTEX
  8
0
 10
-588.87664989
 20
-10.90678316
  0
VERTEX
  8
0
 10
-588.57877223
 20
-10.95224246
  0
VERTEX
  8
0
 10
-588.29126478
 20
-11.02616514
  0
VERTEX
  8
0
 10
-588.01563531
 20
-11.12704344
  0
VERTEX
  8
0
 10
-587.75339159
 20
-11.25336958
  0
VERTEX
  8
0
 10
-587.50604137
 20
-11.40363582
  0
VERTEX
  8
0
 10
-587.27509242
 20
-11.57633438
  0
VERTEX
  8
0
 10
-587.06205250
 20
-11.76995750
  0
VERTEX
  8
0
 10
-586.86842938
 20
-11.98299742
  0
VERTEX
  8
0
 10
-586.69573082
 20
-12.21394637
  0
VERTEX
  8
0
 10
-586.54546458
 20
-12.46129659
  0
VERTEX
  8
0
 10
-586.41913844
 20
-12.72354031
  0
VERTEX
  8
0
 10
-586.31826014
 20
-12.99916978
  0
VERTEX
  8
0
 10
-586.24433746
 20
-13.28667723
  0
VERTEX
  8
0
 10
-586.19887816
 20
-13.58455489
  0
VERTEX
  8
0
 10
-586.18339000
 20
-13.89129500
  0
VERTEX
  8
0
 10
-586.19887816
 20
-14.19803511
  0
VERTEX
  8
0
 10
-586.24433746
 20
-14.49591277
  0
VERTEX
  8
0
 10
-586.31826014
 20
-14.78342022
  0
VERTEX
  8
0
 10
-586.41913844
 20
-15.05904969
  0
VERTEX
  8
0
 10
-586.54546458
 20
-15.32129341
  0
VERTEX
  8
0
 10
-586.69573082
 20
-15.56864363
  0
VERTEX
  8
0
 10
-586.86842938
 20
-15.79959258
  0
VERTEX
  8
0
 10
-587.06205250
 20
-16.01263250
  0
VERTEX
  8
0
 10
-587.27509242
 20
-16.20625562
  0
VERTEX
  8
0
 10
-587.50604137
 20
-16.37895418
  0
VERTEX
  8
0
 10
-587.75339159
 20
-16.52922042
  0
VERTEX
  8
0
 10
-588.01563531
 20
-16.65554656
  0
VERTEX
  8
0
 10
-588.29126478
 20
-16.75642486
  0
VERTEX
  8
0
 10
-588.57877223
 20
-16.83034754
  0
VERTEX
  8
0
 10
-588.87664989
 20
-16.87580684
  0
VERTEX
  8
0
 10
-589.18339000
 20
-16.89129500
  0
VERTEX
  8
0
 10
-589.49013011
 20
-16.87580684
  0
VERTEX
  8
0
 10
-589.78800777
 20
-16.83034754
  0
VERTEX
  8
0
 10
-590.07551522
 20
-16.75642486
  0
VERTEX
  8
0
 10
-590.35114469
 20
-16.65554656
  0
VERTEX
  8
0
 10
-590.61338841
 20
-16.52922042
  0
VERTEX
  8
0
 10
-590.86073863
 20
-16.37895418
  0
VERTEX
  8
0
 10
-591.09168758
 20
-16.20625562
  0
VERTEX
  8
0
 10
-591.30472750
 20
-16.01263250
  0
VERTEX
  8
0
 10
-591.49835062
 20
-15.79959258
  0
VERTEX
  8
0
 10
-591.67104918
 20
-15.56864363
  0
VERTEX
  8
0
 10
-591.82131542
 20
-15.32129341
  0
VERTEX
  8
0
 10
-591.94764156
 20
-15.05904969
  0
VERTEX
  8
0
 10
-592.04851986
 20
-14.78342022
  0
VERTEX
  8
0
 10
-592.12244254
 20
-14.49591277
  0
VERTEX
  8
0
 10
-592.16790184
 20
-14.19803511
  0
VERTEX
  8
0
 10
-592.18339000
 20
-13.89129500
  0
VERTEX
  8
0
 10
-592.16790184
 20
-13.58455489
  0
VERTEX
  8
0
 10
-592.12244254
 20
-13.28667723
  0
VERTEX
  8
0
 10
-592.04851986
 20
-12.99916978
  0
VERTEX
  8
0
 10
-591.94764156
 20
-12.72354031
  0
VERTEX
  8
0
 10
-591.82131542
 20
-12.46129659
  0
VERTEX
  8
0
 10
-591.67104918
 20
-12.21394637
  0
VERTEX
  8
0
 10
-591.49835062
 20
-11.98299742
  0
VERTEX
  8
0
 10
-591.30472750
 20
-11.76995750
  0
VERTEX
  8
0
 10
-591.09168758
 20
-11.57633438
  0
VERTEX
  8
0
 10
-590.86073863
 20
-11.40363582
  0
VERTEX
  8
0
 10
-590.61338841
 20
-11.25336958
  0
VERTEX
  8
0
 10
-590.35114469
 20
-11.12704344
  0
VERTEX
  8
0
 10
-590.07551522
 20
-11.02616514
  0
VERTEX
  8
0
 10
-589.78800777
 20
-10.95224246
  0
VERTEX
  8
0
 10
-589.49013011
 20
-10.90678316
  0
VERTEX
  8
0
 10
-589.18339000
 20
-10.89129500
  0
SEQEND
  0
POLYLINE
  8
layer_1
 62
256
 66
   1
 39
0.000000
 70
    1
  0
VERTEX
  8
0
 10
-449.18339000
 20
-10.89129500
  0
VERTEX
  8
0
 10
-448.87664989
 20
-10.90678316
  0
VERTEX
  8
0
 10
-448.57877223
 20
-10.95224246
  0
VERTEX
  8
0
 10
-448.29126478
 20
-11.02616514
  0
VERTEX
  8
0
 10
-448.01563531
 20
-11.12704344
  0
VERTEX
  8
0
 10
-447.75339159
 20
-11.25336958
  0
VERTEX
  8
0
 10
-447.50604137
 20
-11.40363582
  0
VERTEX
  8
0
 10
-447.27509242
 20
-11.57633438
  0
VERTEX
  8
0
 10
-447.06205250
 20
-11.76995750
  0
VERTEX
  8
0
 10
-446.86842938
 20
-11.98299742
  0
VERTEX
  8
0
 10
-446.69573082
 20
-12.21394637
  0
VERTEX
  8
0
 10
-446.54546458
 20
-12.46129659
  0
VERTEX
  8
0
 10
-446.41913844
 20
-12.72354031
  0
VERTEX
  8
0
 10
-446.31826014
 20
-12.99916978
  0
VERTEX
  8
0
 10
-446.24433746
 20
-13.28667723
  0
VERTEX
  8
0
 10
-446.19887816
 20
-13.58455489
  0
VERTEX
  8
0
 10
-446.18339000
 20
-13.89129500
  0
VERTEX
  8
0
 10
-446.19887816
 20
-14.19803511
  0
VERTEX
  8
0
 10
-446.24433746
 20
-14.49591277
  0
VERTEX
  8
0
 10
-446.31826014
 20
-14.78342022
  0
VERTEX
  8
0
 10
-446.41913844
 20
-15.05904969
  0
VERTEX
  8
0
 10
-446.54546458
 20
-15.32129341
  0
VERTEX
  8
0
 10
-446.69573082
 20
-15.56864363
  0
VERTEX
  8
0
 10
-446.86842938
 20
-15.79959258
  0
VERTEX
  8
0
 10
-447.06205250
 20
-16.01263250
  0
VERTEX
  8
0
 10
-447.27509242
 20
-16.20625562
  0
VERTEX
  8
0
 10
-447.50604137
 20
-16.37895418
  0
VERTEX
  8
0
 10
-447.75339159
 20
-16.52922042
  0
VERTEX
  8
0
 10
-448.01563531
 20
-16.65554656
  0
VERTEX
  8
0
 10
-448.29126478
 20
-16.75642486
  0
VERTEX
  8
0
 10
-448.57877223
 20
-16.83034754
  0
VERTEX
  8
0
 10
-448.87664989
 20
-16.87580684
  0
VERTEX
  8
0
 10
-449.18339000
 20
-16.89129500
  0
VERTEX
  8
0
 10
-449.49013011
 20
-16.87580684
  0
VERTEX
  8
0
 10
-449.78800777
 20
-16.83034754
  0
VERTEX
  8
0
 10
-450.07551522
 20
-16.75642486
  0
VERTEX
  8
0
 10
-450.35114469
 20
-16.65554656
  0
VERTEX
  8
0
 10
-450.61338841
 20
-16.52922042
  0
VERTEX
  8
0
 10
-450.86073863
 20
-16.37895418
  0
VERTEX
  8
0
 10
-451.09168758
 20
-16.20625562
  0
VERTEX
  8
0
 10
-451.30472750
 20
-16.01263250
  0
VERTEX
  8
0
 10
-451.49835062
 20
-15.79959258
  0
VERTEX
  8
0
 10
-451.67104918
 20
-15.56864363
  0
VERTEX
  8
0
 10
-451.82131542
 20
-15.32129341
  0
VERTEX
  8
0
 10
-451.94764156
 20
-15.05904969
  0
VERTEX
  8
0
 10
-452.04851986
 20
-14.78342022
  0
VERTEX
  8
0
 10
-452.12244254
 20
-14.49591277
  0
VERTEX
  8
0
 10
-452.16790184
 20
-14.19803511
  0
VERTEX
  8
0
 10
-452.18339000
 20
-13.89129500
  0
VERTEX
  8
0
 10
-452.16790184
 20
-13.58455489
  0
VERTEX
  8
0
 10
-452.12244254
 20
-13.28667723
  0
VERTEX
  8
0
 10
-452.04851986
 20
-12.99916978
  0
VERTEX
  8
0
 10
-451.94764156
 20
-12.72354031
  0
VERTEX
  8
0
 10
-451.82131542
 20
-12.46129659
  0
VERTEX
  8
0
 10
-451.67104918
 20
-12.21394637
  0
VERTEX
  8
0
 10
-451.49835062
 20
-11.98299742
  0
VERTEX
  8
0
 10
-451.30472750
 20
-11.76995750
  0
VERTEX
  8
0
 10
-451.09168758
 20
-11.57633438
  0
VERTEX
  8
0
 10
-450.86073863
 20
-11.40363582
  0
VERTEX
  8
0
 10
-450.61338841
 20
-11.25336958
  0
VERTEX
  8
0
 10
-450.35114469
 20
-11.12704344
  0
VERTEX
  8
0
 10
-450.07551522
 20
-11.02616514
  0
VERTEX
  8
0
 10
-449.78800777
 20
-10.95224246
  0
VERTEX
  8
0
 10
-449.49013011
 20
-10.90678316
  0
VERTEX
  8
0
 10
-449.18339000
 20
-10.89129500
  0
SEQEND
  0
POLYLINE
  8
layer_1
 62
256
 66
   1
 39
0.000000
 70
    1
  0
VERTEX
  8
0
 10
-219.18339000
 20
-10.89129500
  0
VERTEX
  8
0
 10
-218.87664989
 20
-10.90678316
  0
VERTEX
  8
0
 10
-218.57877223
 20
-10.95224246
  0
VERTEX
  8
0
 10
-218.29126478
 20
-11.02616514
  0
VERTEX
  8
0
 10
-218.01563531
 20
-11.12704344
  0
VERTEX
  8
0
 10
-217.75339159
 20
-11.25336958
  0
VERTEX
  8
0
 10
-217.50604137
 20
-11.40363582
  0
VERTEX
  8
0
 10
-217.27509242
 20
-11.57633438
  0
VERTEX
  8
0
 10
-217.06205250
 20
-11.76995750
  0
VERTEX
  8
0
 10
-216.86842938
 20
-11.98299742
  0
VERTEX
  8
0
 10
-216.69573082
 20
-12.21394637
  0
VERTEX
  8
0
 10
-216.54546458
 20
-12.46129659
  0
VERTEX
  8
0
 10
-216.41913844
 20
-12.72354031
  0
VERTEX
  8
0
 10
-216.31826014
 20
-12.99916978
  0
VERTEX
  8
0
 10
-216.24433746
 20
-13.28667723
  0
VERTEX
  8
0
 10
-216.19887816
 20
-13.58455489
  0
VERTEX
  8
0
 10
-216.18339000
 20
-13.89129500
  0
VERTEX
  8
0
 10
-216.19887816
 20
-14.19803511
  0
VERTEX
  8
0
 10
-216.24433746
 20
-14.49591277
  0
VERTEX
  8
0
 10
-216.31826014
 20
-14.78342022
  0
VERTEX
  8
0
 10
-216.41913844
 20
-15.05904969
  0
VERTEX
  8
0
 10
-216.54546458
 20
-15.32129341
  0
VERTEX
  8
0
 10
-216.69573082
 20
-15.56864363
  0
VERTEX
  8
0
 10
-216.86842938
 20
-15.79959258
  0
VERTEX
  8
0
 10
-217.06205250
 20
-16.01263250
  0
VERTEX
  8
0
 10
-217.27509242
 20
-16.20625562
  0
VERTEX
  8
0
 10
-217.50604137
 20
-16.37895418
  0
VERTEX
  8
0
 10
-217.75339159
 20
-16.52922042
  0
VERTEX
  8
0
 10
-218.01563531
 20
-16.65554656
  0
VERTEX
  8
0
 10
-218.29126478
 20
-16.75642486
  0
VERTEX
  8
0
 10
-218.57877223
 20
-16.83034754
  0
VERTEX
  8
0
 10
-218.87664989
 20
-16.87580684
  0
VERTEX
  8
0
 10
-219.18339000
 20
-16.89129500
  0
VERTEX
  8
0
 10
-219.49013011
 20
-16.87580684
  0
VERTEX
  8
0
 10
-219.78800777
 20
-16.83034754
  0
VERTEX
  8
0
 10
-220.07551522
 20
-16.75642486
  0
VERTEX
  8
0
 10
-220.35114469
 20
-16.65554656
  0
VERTEX
  8
0
 10
-220.61338841
 20
-16.52922042
  0
VERTEX
  8
0
 10
-220.86073863
 20
-16.37895418
  0
VERTEX
  8
0
 10
-221.09168758
 20
-16.20625562
  0
VERTEX
  8
0
 10
-221.30472750
 20
-16.01263250
  0
VERTEX
  8
0
 10
-221.49835062
 20
-15.79959258
  0
VERTEX
  8
0
 10
-221.67104918
 20
-15.56864363
  0
VERTEX
  8
0
 10
-221.82131542
 20
-15.32129341
  0
VERTEX
  8
0
 10
-221.94764156
 20
-15.05904969
  0
VERTEX
  8
0
 10
-222.04851986
 20
-14.78342022
  0
VERTEX
  8
0
 10
-222.12244254
 20
-14.49591277
  0
VERTEX
  8
0
 10
-222.16790184
 20
-14.19803511
  0
VERTEX
  8
0
 10
-222.18339000
 20
-13.89129500
  0
VERTEX
  8
0
 10
-222.16790184
 20
-13.58455489
  0
VERTEX
  8
0
 10
-222.12244254
 20
-13.28667723
  0
VERTEX
  8
0
 10
-222.04851986
 20
-12.99916978
  0
VERTEX
  8
0
 10
-221.94764156
 20
-12.72354031
  0
VERTEX
  8
0
 10
-221.82131542
 20
-12.46129659
  0
VERTEX
  8
0
 10
-221.67104918
 20
-12.21394637
  0
VERTEX
  8
0
 10
-221.49835062
 20
-11.98299742
  0
VERTEX
  8
0
 10
-221.30472750
 20
-11.76995750
  0
VERTEX
  8
0
 10
-221.09168758
 20
-11.57633438
  0
VERTEX
  8
0
 10
-220.86073863
 20
-11.40363582
  0
VERTEX
  8
0
 10
-220.61338841
 20
-11.25336958
  0
VERTEX
  8
0
 10
-220.35114469
 20
-11.12704344
  0
VERTEX
  8
0
 10
-220.07551522
 20
-11.02616514
  0
VERTEX
  8
0
 10
-219.78800777
 20
-10.95224246
  0
VERTEX
  8
0
 10
-219.49013011
 20
-10.90678316
  0
VERTEX
  8
0
 10
-219.18339000
 20
-10.89129500
  0
SEQEND
  0
POLYLINE
  8
layer_1
 62
256
 66
   1
 39
0.000000
 70
    1
  0
VERTEX
  8
0
 10
-109.18339000
 20
-10.89129500
  0
VERTEX
  8
0
 10
-108.87664989
 20
-10.90678316
  0
VERTEX
  8
0
 10
-108.57877223
 20
-10.95224246
  0
VERTEX
  8
0
 10
-108.29126478
 20
-11.02616514
  0
VERTEX
  8
0
 10
-108.01563531
 20
-11.12704344
  0
VERTEX
  8
0
 10
-107.75339159
 20
-11.25336958
  0
VERTEX
  8
0
 10
-107.50604137
 20
-11.40363582
  0
VERTEX
  8
0
 10
-107.27509242
 20
-11.57633438
  0
VERTEX
  8
0
 10
-107.06205250
 20
-11.76995750
  0
VERTEX
  8
0
 10
-106.86842938
 20
-11.98299742
  0
VERTEX
  8
0
 10
-106.69573082
 20
-12.21394637
  0
VERTEX
  8
0
 10
-106.54546458
 20
-12.46129659
  0
VERTEX
  8
0
 10
-106.41913844
 20
-12.72354031
  0
VERTEX
  8
0
 10
-106.31826014
 20
-12.99916978
  0
VERTEX
  8
0
 10
-106.24433746
 20
-13.28667723
  0
VERTEX
  8
0
 10
-106.19887816
 20
-13.58455489
  0
VERTEX
  8
0
 10
-106.18339000
 20
-13.89129500
  0
VERTEX
  8
0
 10
-106.19887816
 20
-14.19803511
  0
VERTEX
  8
0
 10
-106.24433746
 20
-14.49591277
  0
VERTEX
  8
0
 10
-106.31826014
 20
-14.78342022
  0
VERTEX
  8
0
 10
-106.41913844
 20
-15.05904969
  0
VERTEX
  8
0
 10
-106.54546458
 20
-15.32129341
  0
VERTEX
  8
0
 10
-106.69573082
 20
-15.56864363
  0
VERTEX
  8
0
 10
-106.86842938
 20
-15.79959258
  0
VERTEX
  8
0
 10
-107.06205250
 20
-16.01263250
  0
VERTEX
  8
0
 10
-107.27509242
 20
-16.20625562
  0
VERTEX
  8
0
 10
-107.50604137
 20
-16.37895418
  0
VERTEX
  8
0
 10
-107.75339159
 20
-16.52922042
  0
VERTEX
  8
0
 10
-108.01563531
 20
-16.65554656
  0
VERTEX
  8
0
 10
-108.29126478
 20
-16.75642486
  0
VERTEX
  8
0
 10
-108.57877223
 20
-16.83034754
  0
VERTEX
  8
0
 10
-108.87664989
 20
-16.87580684
  0
VERTEX
  8
0
 10
-109.18339000
 20
-16.89129500
  0
VERTEX
  8
0
 10
-109.49013011
 20
-16.87580684
  0
VERTEX
  8
0
 10
-109.78800777
 20
-16.83034754
  0
VERTEX
  8
0
 10
-110.07551522
 20
-16.75642486
  0
VERTEX
  8
0
 10
-110.35114469
 20
-16.65554656
  0
VERTEX
  8
0
 10
-110.61338841
 20
-16.52922042
  0
VERTEX
  8
0
 10
-110.86073863
 20
-16.37895418
  0
VERTEX
  8
0
 10
-111.09168758
 20
-16.20625562
  0
VERTEX
  8
0
 10
-111.30472750
 20
-16.01263250
  0
VERTEX
  8
0
 10
-111.49835062
 20
-15.79959258
  0
VERTEX
  8
0
 10
-111.67104918
 20
-15.56864363
  0
VERTEX
  8
0
 10
-111.82131542
 20
-15.32129341
  0
VERTEX
  8
0
 10
-111.94764156
 20
-15.05904969
  0
VERTEX
  8
0
 10
-112.04851986
 20
-14.78342022
  0
VERTEX
  8
0
 10
-112.12244254
 20
-14.49591277
  0
VERTEX
  8
0
 10
-112.16790184
 20
-14.19803511
  0
VERTEX
  8
0
 10
-112.18339000
 20
-13.89129500
  0
VERTEX
  8
0
 10
-112.16790184
 20
-13.58455489
  0
VERTEX
  8
0
 10
-112.12244254
 20
-13.28667723
  0
VERTEX
  8
0
 10
-112.04851986
 20
-12.99916978
  0
VERTEX
  8
0
 10
-111.94764156
 20
-12.72354031
  0
VERTEX
  8
0
 10
-111.82131542
 20
-12.46129659
  0
VERTEX
  8
0
 10
-111.67104918
 20
-12.21394637
  0
VERTEX
  8
0
 10
-111.49835062
 20
-11.98299742
  0
VERTEX
  8
0
 10
-111.30472750
 20
-11.76995750
  0
VERTEX
  8
0
 10
-111.09168758
 20
-11.57633438
  0
VERTEX
  8
0
 10
-110.86073863
 20
-11.40363582
  0
VERTEX
  8
0
 10
-110.61338841
 20
-11.25336958
  0
VERTEX
  8
0
 10
-110.35114469
 20
-11.12704344
  0
VERTEX
  8
0
 10
-110.07551522
 20
-11.02616514
  0
VERTEX
  8
0
 10
-109.78800777
 20
-10.95224246
  0
VERTEX
  8
0
 10
-109.49013011
 20
-10.90678316
  0
VERTEX
  8
0
 10
-109.18339000
 20
-10.89129500
  0
SEQEND
  0
POLYLINE
  8
layer_1
 62
256
 66
   1
 39
0.000000
 70
    1
  0
VERTEX
  8
0
 10
-9.18339000
 20
-10.89129500
  0
VERTEX
  8
0
 10
-8.87664989
 20
-10.90678316
  0
VERTEX
  8
0
 10
-8.57877223
 20
-10.95224246
  0
VERTEX
  8
0
 10
-8.29126478
 20
-11.02616514
  0
VERTEX
  8
0
 10
-8.01563531
 20
-11.12704344
  0
VERTEX
  8
0
 10
-7.75339159
 20
-11.25336958
  0
VERTEX
  8
0
 10
-7.50604137
 20
-11.40363582
  0
VERTEX
  8
0
 10
-7.27509242
 20
-11.57633438
  0
VERTEX
  8
0
 10
-7.06205250
 20
-11.76995750
  0
VERTEX
  8
0
 10
-6.86842938
 20
-11.98299742
  0
VERTEX
  8
0
 10
-6.69573082
 20
-12.21394637
  0
VERTEX
  8
0
 10
-6.54546458
 20
-12.46129659
  0
VERTEX
  8
0
 10
-6.41913844
 20
-12.72354031
  0
VERTEX
  8
0
 10
-6.31826014
 20
-12.99916978
  0
VERTEX
  8
0
 10
-6.24433746
 20
-13.28667723
  0
VERTEX
  8
0
 10
-6.19887816
 20
-13.58455489
  0
VERTEX
  8
0
 10
-6.18339000
 20
-13.89129500
  0
VERTEX
  8
0
 10
-6.19887816
 20
-14.19803511
  0
VERTEX
  8
0
 10
-6.24433746
 20
-14.49591277
  0
VERTEX
  8
0
 10
-6.31826014
 20
-14.78342022
  0
VERTEX
  8
0
 10
-6.41913844
 20
-15.05904969
  0
VERTEX
  8
0
 10
-6.54546458
 20
-15.32129341
  0
VERTEX
  8
0
 10
-6.69573082
 20
-15.56864363
  0
VERTEX
  8
0
 10
-6.86842938
 20
-15.79959258
  0
VERTEX
  8
0
 10
-7.06205250
 20
-16.01263250
  0
VERTEX
  8
0
 10
-7.27509242
 20
-16.20625562
  0
VERTEX
  8
0
 10
-7.50604137
 20
-16.37895418
  0
VERTEX
  8
0
 10
-7.75339159
 20
-16.52922042
  0
VERTEX
  8
0
 10
-8.01563531
 20
-16.65554656
  0
VERTEX
  8
0
 10
-8.29126478
 20
-16.75642486
  0
VERTEX
  8
0
 10
-8.57877223
 20
-16.83034754
  0
VERTEX
  8
0
 10
-8.87664989
 20
-16.87580684
  0
VERTEX
  8
0
 10
-9.18339000
 20
-16.89129500
  0
VERTEX
  8
0
 10
-9.49013011
 20
-16.87580684
  0
VERTEX
  8
0
 10
-9.78800777
 20
-16.83034754
  0
VERTEX
  8
0
 10
-10.07551522
 20
-16.75642486
  0
VERTEX
  8
0
 10
-10.35114469
 20
-16.65554656
  0
VERTEX
  8
0
 10
-10.61338841
 20
-16.52922042
  0
VERTEX
  8
0
 10
-10.86073863
 20
-16.37895418
  0
VERTEX
  8
0
 10
-11.09168758
 20
-16.20625562
  0
VERTEX
  8
0
 10
-11.30472750
 20
-16.01263250
  0
VERTEX
  8
0
 10
-11.49835062
 20
-15.79959258
  0
VERTEX
  8
0
 10
-11.67104918
 20
-15.56864363
  0
VERTEX
  8
0
 10
-11.82131542
 20
-15.32129341
  0
VERTEX
  8
0
 10
-11.94764156
 20
-15.05904969
  0
VERTEX
  8
0
 10
-12.04851986
 20
-14.78342022
  0
VERTEX
  8
0
 10
-12.12244254
 20
-14.49591277
  0
VERTEX
  8
0
 10
-12.16790184
 20
-14.19803511
  0
VERTEX
  8
0
 10
-12.18339000
 20
-13.89129500
  0
VERTEX
  8
0
 10
-12.16790184
 20
-13.58455489
  0
VERTEX
  8
0
 10
-12.12244254
 20
-13.28667723
  0
VERTEX
  8
0
 10
-12.04851986
 20
-12.99916978
  0
VERTEX
  8
0
 10
-11.94764156
 20
-12.72354031
  0
VERTEX
  8
0
 10
-11.82131542
 20
-12.46129659
  0
VERTEX
  8
0
 10
-11.67104918
 20
-12.21394637
  0
VERTEX
  8
0
 10
-11.49835062
 20
-11.98299742
  0
VERTEX
  8
0
 10
-11.30472750
 20
-11.76995750
  0
VERTEX
  8
0
 10
-11.09168758
 20
-11.57633438
  0
VERTEX
  8
0
 10
-10.86073863
 20
-11.40363582
  0
VERTEX
  8
0
 10
-10.61338841
 20
-11.25336958
  0
VERTEX
  8
0
 10
-10.35114469
 20
-11.12704344
  0
VERTEX
  8
0
 10
-10.07551522
 20
-11.02616514
  0
VERTEX
  8
0
 10
-9.78800777
 20
-10.95224246
  0
VERTEX
  8
0
 10
-9.49013011
 20
-10.90678316
  0
VERTEX
  8
0
 10
-9.18339000
 20
-10.89129500
  0
SEQEND
  0
POLYLINE
  8
layer_1
 62
256
 66
   1
 39
0.000000
 70
    1
  0
VERTEX
  8
0
 10
240.81661000
 20
-10.89129500
  0
VERTEX
  8
0
 10
241.12335011
 20
-10.90678316
  0
VERTEX
  8
0
 10
241.42122777
 20
-10.95224246
  0
VERTEX
  8
0
 10
241.70873522
 20
-11.02616514
  0
VERTEX
  8
0
 10
241.98436469
 20
-11.12704344
  0
VERTEX
  8
0
 10
242.24660841
 20
-11.25336958
  0
VERTEX
  8
0
 10
242.49395863
 20
-11.40363582
  0
VERTEX
  8
0
 10
242.72490758
 20
-11.57633438
  0
VERTEX
  8
0
 10
242.93794750
 20
-11.76995750
  0
VERTEX
  8
0
 10
243.13157062
 20
-11.98299742
  0
VERTEX
  8
0
 10
243.30426918
 20
-12.21394637
  0
VERTEX
  8
0
 10
243.45453542
 20
-12.46129659
  0
VERTEX
  8
0
 10
243.58086156
 20
-12.72354031
  0
VERTEX
  8
0
 10
243.68173986
 20
-12.99916978
  0
VERTEX
  8
0
 10
243.75566254
 20
-13.28667723
  0
VERTEX
  8
0
 10
243.80112184
 20
-13.58455489
  0
VERTEX
  8
0
 10
243.81661000
 20
-13.89129500
  0
VERTEX
  8
0
 10
243.80112184
 20
-14.19803511
  0
VERTEX
  8
0
 10
243.75566254
 20
-14.49591277
  0
VERTEX
  8
0
 10
243.68173986
 20
-14.78342022
  0
VERTEX
  8
0
 10
243.58086156
 20
-15.05904969
  0
VERTEX
  8
0
 10
243.45453542
 20
-15.32129341
  0
VERTEX
  8
0
 10
243.30426918
 20
-15.56864363
  0
VERTEX
  8
0
 10
243.13157062
 20
-15.79959258
  0
VERTEX
  8
0
 10
242.93794750
 20
-16.01263250
  0
VERTEX
  8
0
 10
242.72490758
 20
-16.20625562
  0
VERTEX
  8
0
 10
242.49395863
 20
-16.37895418
  0
VERTEX
  8
0
 10
242.24660841
 20
-16.52922042
  0
VERTEX
  8
0
 10
241.98436469
 20
-16.65554656
  0
VERTEX
  8
0
 10
241.70873522
 20
-16.75642486
  0
VERTEX
  8
0
 10
241.42122777
 20
-16.83034754
  0
VERTEX
  8
0
 10
241.12335011
 20
-16.87580684
  0
VERTEX
  8
0
 10
240.81661000
 20
-16.89129500
  0
VERTEX
  8
0
 10
240.50986989
 20
-16.87580684
  0
VERTEX
  8
0
 10
240.21199223
 20
-16.83034754
  0
VERTEX
  8
0
 10
239.92448478
 20
-16.75642486
  0
VERTEX
  8
0
 10
239.64885531
 20
-16.65554656
  0
VERTEX
  8
0
 10
239.38661159
 20
-16.52922042
  0
VERTEX
  8
0
 10
239.13926137
 20
-16.37895418
  0
VERTEX
  8
0
 10
238.90831242
 20
-16.20625562
  0
VERTEX
  8
0
 10
238.69527250
 20
-16.01263250
  0
VERTEX
  8
0
 10
238.50164938
 20
-15.79959258
  0
VERTEX
  8
0
 10
238.32895082
 20
-15.56864363
  0
VERTEX
  8
0
 10
238.17868458
 20
-15.32129341
  0
VERTEX
  8
0
 10
238.05235844
 20
-15.05904969
  0
VERTEX
  8
0
 10
237.95148014
 20
-14.78342022
  0
VERTEX
  8
0
 10
237.87755746
 20
-14.49591277
  0
VERTEX
  8
0
 10
237.83209816
 20
-14.19803511
  0
VERTEX
  8
0
 10
237.81661000
 20
-13.89129500
  0
VERTEX
  8
0
 10
237.83209816
 20
-13.58455489
  0
VERTEX
  8
0
 10
237.87755746
 20
-13.28667723
  0
VERTEX
  8
0
 10
237.95148014
 20
-12.99916978
  0
VERTEX
  8
0
 10
238.05235844
 20
-12.72354031
  0
VERTEX
  8
0
 10
238.17868458
 20
-12.46129659
  0
VERTEX
  8
0
 10
238.32895082
 20
-12.21394637
  0
VERTEX
  8
0
 10
238.50164938
 20
-11.98299742
  0
VERTEX
  8
0
 10
238.69527250
 20
-11.76995750
  0
VERTEX
  8
0
 10
238.90831242
 20
-11.57633438
  0
VERTEX
  8
0
 10
239.13926137
 20
-11.40363582
  0
VERTEX
  8
0
 10
239.38661159
 20
-11.25336958
  0
VERTEX
  8
0
 10
239.64885531
 20
-11.12704344
  0
VERTEX
  8
0
 10
239.92448478
 20
-11.02616514
  0
VERTEX
  8
0
 10
240.21199223
 20
-10.95224246
  0
VERTEX
  8
0
 10
240.50986989
 20
-10.90678316
  0
VERTEX
  8
0
 10
240.81661000
 20
-10.89129500
  0
SEQEND
  0
POLYLINE
  8
layer_1
 62
256
 66
   1
 39
0.000000
 70
    1
  0
VERTEX
  8
0
 10
460.81661000
 20
-10.89129500
  0
VERTEX
  8
0
 10
461.12335011
 20
-10.90678316
  0
VERTEX
  8
0
 10
461.42122777
 20
-10.95224246
  0
VERTEX
  8
0
 10
461.70873522
 20
-11.02616514
  0
VERTEX
  8
0
 10
461.98436469
 20
-11.12704344
  0
VERTEX
  8
0
 10
462.24660841
 20
-11.25336958
  0
VERTEX
  8
0
 10
462.49395863
 20
-11.40363582
  0
VERTEX
  8
0
 10
462.72490758
 20
-11.57633438
  0
VERTEX
  8
0
 10
462.93794750
 20
-11.76995750
  0
VERTEX
  8
0
 10
463.13157062
 20
-11.98299742
  0
VERTEX
  8
0
 10
463.30426918
 20
-12.21394637
  0
VERTEX
  8
0
 10
463.45453542
 20
-12.46129659
  0
VERTEX
  8
0
 10
463.58086156
 20
-12.72354031
  0
VERTEX
  8
0
 10
463.68173986
 20
-12.99916978
  0
VERTEX
  8
0
 10
463.75566254
 20
-13.28667723
  0
VERTEX
  8
0
 10
463.80112184
 20
-13.58455489
  0
VERTEX
  8
0
 10
463.81661000
 20
-13.89129500
  0
VERTEX
  8
0
 10
463.80112184
 20
-14.19803511
  0
VERTEX
  8
0
 10
463.75566254
 20
-14.49591277
  0
VERTEX
  8
0
 10
463.68173986
 20
-14.78342022
  0
VERTEX
  8
0
 10
463.58086156
 20
-15.05904969
  0
VERTEX
  8
0
 10
463.45453542
 20
-15.32129341
  0
VERTEX
  8
0
 10
463.30426918
 20
-15.56864363
  0
VERTEX
  8
0
 10
463.13157062
 20
-15.79959258
  0
VERTEX
  8
0
 10
462.93794750
 20
-16.01263250
  0
VERTEX
  8
0
 10
462.72490758
 20
-16.20625562
  0
VERTEX
  8
0
 10
462.49395863
 20
-16.37895418
  0
VERTEX
  8
0
 10
462.24660841
 20
-16.52922042
  0
VERTEX
  8
0
 10
461.98436469
 20
-16.65554656
  0
VERTEX
  8
0
 10
461.70873522
 20
-16.75642486
  0
VERTEX
  8
0
 10
461.42122777
 20
-16.83034754
  0
VERTEX
  8
0
 10
461.12335011
 20
-16.87580684
  0
VERTEX
  8
0
 10
460.81661000
 20
-16.89129500
  0
VERTEX
  8
0
 10
460.50986989
 20
-16.87580684
  0
VERTEX
  8
0
 10
460.21199223
 20
-16.83034754
  0
VERTEX
  8
0
 10
459.92448478
 20
-16.75642486
  0
VERTEX
  8
0
 10
459.64885531
 20
-16.65554656
  0
VERTEX
  8
0
 10
459.38661159
 20
-16.52922042
  0
VERTEX
  8
0
 10
459.13926137
 20
-16.37895418
  0
VERTEX
  8
0
 10
458.90831242
 20
-16.20625562
  0
VERTEX
  8
0
 10
458.69527250
 20
-16.01263250
  0
VERTEX
  8
0
 10
458.50164938
 20
-15.79959258
  0
VERTEX
  8
0
 10
458.32895082
 20
-15.56864363
  0
VERTEX
  8
0
 10
458.17868458
 20
-15.32129341
  0
VERTEX
  8
0
 10
458.05235844
 20
-15.05904969
  0
VERTEX
  8
0
 10
457.95148014
 20
-14.78342022
  0
VERTEX
  8
0
 10
457.87755746
 20
-14.49591277
  0
VERTEX
  8
0
 10
457.83209816
 20
-14.19803511
  0
VERTEX
  8
0
 10
457.81661000
 20
-13.89129500
  0
VERTEX
  8
0
 10
457.83209816
 20
-13.58455489
  0
VERTEX
  8
0
 10
457.87755746
 20
-13.28667723
  0
VERTEX
  8
0
 10
457.95148014
 20
-12.99916978
  0
VERTEX
  8
0
 10
458.05235844
 20
-12.72354031
  0
VERTEX
  8
0
 10
458.17868458
 20
-12.46129659
  0
VERTEX
  8
0
 10
458.32895082
 20
-12.21394637
  0
VERTEX
  8
0
 10
458.50164938
 20
-11.98299742
  0
VERTEX
  8
0
 10
458.69527250
 20
-11.76995750
  0
VERTEX
  8
0
 10
458.90831242
 20
-11.57633438
  0
VERTEX
  8
0
 10
459.13926137
 20
-11.40363582
  0
VERTEX
  8
0
 10
459.38661159
 20
-11.25336958
  0
VERTEX
  8
0
 10
459.64885531
 20
-11.12704344
  0
VERTEX
  8
0
 10
459.92448478
 20
-11.02616514
  0
VERTEX
  8
0
 10
460.21199223
 20
-10.95224246
  0
VERTEX
  8
0
 10
460.50986989
 20
-10.90678316
  0
VERTEX
  8
0
 10
460.81661000
 20
-10.89129500
  0
SEQEND
  0
POLYLINE
  8
layer_1
 62
256
 66
   1
 39
0.000000
 70
    1
  0
VERTEX
  8
0
 10
640.81661000
 20
-10.89129500
  0
VERTEX
  8
0
 10
641.12335011
 20
-10.90678316
  0
VERTEX
  8
0
 10
641.42122777
 20
-10.95224246
  0
VERTEX
  8
0
 10
641.70873522
 20
-11.02616514
  0
VERTEX
  8
0
 10
641.98436469
 20
-11.12704344
  0
VERTEX
  8
0
 10
642.24660841
 20
-11.25336958
  0
VERTEX
  8
0
 10
642.49395863
 20
-11.40363582
  0
VERTEX
  8
0
 10
642.72490758
 20
-11.57633438
  0
VERTEX
  8
0
 10
642.93794750
 20
-11.76995750
  0
VERTEX
  8
0
 10
643.13157062
 20
-11.98299742
  0
VERTEX
  8
0
 10
643.30426918
 20
-12.21394637
  0
VERTEX
  8
0
 10
643.45453542
 20
-12.46129659
  0
VERTEX
  8
0
 10
643.58086156
 20
-12.72354031
  0
VERTEX
  8
0
 10
643.68173986
 20
-12.99916978
  0
VERTEX
  8
0
 10
643.75566254
 20
-13.28667723
  0
VERTEX
  8
0
 10
643.80112184
 20
-13.58455489
  0
VERTEX
  8
0
 10
643.81661000
 20
-13.89129500
  0
VERTEX
  8
0
 10
643.80112184
 20
-14.19803511
  0
VERTEX
  8
0
 10
643.75566254
 20
-14.49591277
  0
VERTEX
  8
0
 10
643.68173986
 20
-14.78342022
  0
VERTEX
  8
0
 10
643.58086156
 20
-15.05904969
  0
VERTEX
  8
0
 10
643.45453542
 20
-15.32129341
  0
VERTEX
  8
0
 10
643.30426918
 20
-15.56864363
  0
VERTEX
  8
0
 10
643.13157062
 20
-15.79959258
  0
VERTEX
  8
0
 10
642.93794750
 20
-16.01263250
  0
VERTEX
  8
0
 10
642.72490758
 20
-16.20625562
  0
VERTEX
  8
0
 10
642.49395863
 20
-16.37895418
  0
VERTEX
  8
0
 10
642.24660841
 20
-16.52922042
  0
VERTEX
  8
0
 10
641.98436469
 20
-16.65554656
  0
VERTEX
  8
0
 10
641.70873522
 20
-16.75642486
  0
VERTEX
  8
0
 10
641.42122777
 20
-16.83034754
  0
VERTEX
  8
0
 10
641.12335011
 20
-16.87580684
  0
VERTEX
  8
0
 10
640.81661000
 20
-16.89129500
  0
VERTEX
  8
0
 10
640.50986989
 20
-16.87580684
  0
VERTEX
  8
0
 10
640.21199223
 20
-16.83034754
  0
VERTEX
  8
0
 10
639.92448478
 20
-16.75642486
  0
VERTEX
  8
0
 10
639.64885531
 20
-16.65554656
  0
VERTEX
  8
0
 10
639.38661159
 20
-16.52922042
  0
VERTEX
  8
0
 10
639.13926137
 20
-16.37895418
  0
VERTEX
  8
0
 10
638.90831242
 20
-16.20625562
  0
VERTEX
  8
0
 10
638.69527250
 20
-16.01263250
  0
VERTEX
  8
0
 10
638.50164938
 20
-15.79959258
  0
VERTEX
  8
0
 10
638.32895082
 20
-15.56864363
  0
VERTEX
  8
0
 10
638.17868458
 20
-15.32129341
  0
VERTEX
  8
0
 10
638.05235844
 20
-15.05904969
  0
VERTEX
  8
0
 10
637.95148014
 20
-14.78342022
  0
VERTEX
  8
0
 10
637.87755746
 20
-14.49591277
  0
VERTEX
  8
0
 10
637.83209816
 20
-14.19803511
  0
VERTEX
  8
0
 10
637.81661000
 20
-13.89129500
  0
VERTEX
  8
0
 10
637.83209816
 20
-13.58455489
  0
VERTEX
  8
0
 10
637.87755746
 20
-13.28667723
  0
VERTEX
  8
0
 10
637.95148014
 20
-12.99916978
  0
VERTEX
  8
0
 10
638.05235844
 20
-12.72354031
  0
VERTEX
  8
0
 10
638.17868458
 20
-12.46129659
  0
VERTEX
  8
0
 10
638.32895082
 20
-12.21394637
  0
VERTEX
  8
0
 10
638.50164938
 20
-11.98299742
  0
VERTEX
  8
0
 10
638.69527250
 20
-11.76995750
  0
VERTEX
  8
0
 10
638.90831242
 20
-11.57633438
  0
VERTEX
  8
0
 10
639.13926137
 20
-11.40363582
  0
VERTEX
  8
0
 10
639.38661159
 20
-11.25336958
  0
VERTEX
  8
0
 10
639.64885531
 20
-11.12704344
  0
VERTEX
  8
0
 10
639.92448478
 20
-11.02616514
  0
VERTEX
  8
0
 10
640.21199223
 20
-10.95224246
  0
VERTEX
  8
0
 10
640.50986989
 20
-10.90678316
  0
VERTEX
  8
0
 10
640.81661000
 20
-10.89129500
  0
SEQEND
  0
POLYLINE
  8
layer_1
 62
256
 66
   1
 39
0.000000
 70
    1
  0
VERTEX
  8
0
 10
660.81661000
 20
-10.89129500
  0
VERTEX
  8
0
 10
661.12335011
 20
-10.90678316
  0
VERTEX
  8
0
 10
661.42122777
 20
-10.95224246
  0
VERTEX
  8
0
 10
661.70873522
 20
-11.02616514
  0
VERTEX
  8
0
 10
661.98436469
 20
-11.12704344
  0
VERTEX
  8
0
 10
662.24660841
 20
-11.25336958
  0
VERTEX
  8
0
 10
662.49395863
 20
-11.40363582
  0
VERTEX
  8
0
 10
662.72490758
 20
-11.57633438
  0
VERTEX
  8
0
 10
662.93794750
 20
-11.76995750
  0
VERTEX
  8
0
 10
663.13157062
 20
-11.98299742
  0
VERTEX
  8
0
 10
663.30426918
 20
-12.21394637
  0
VERTEX
  8
0
 10
663.45453542
 20
-12.46129659
  0
VERTEX
  8
0
 10
663.58086156
 20
-12.72354031
  0
VERTEX
  8
0
 10
663.68173986
 20
-12.99916978
  0
VERTEX
  8
0
 10
663.75566254
 20
-13.28667723
  0
VERTEX
  8
0
 10
663.80112184
 20
-13.58455489
  0
VERTEX
  8
0
 10
663.81661000
 20
-13.89129500
  0
VERTEX
  8
0
 10
663.80112184
 20
-14.19803511
  0
VERTEX
  8
0
 10
663.75566254
 20
-14.49591277
  0
VERTEX
  8
0
 10
663.68173986
 20
-14.78342022
  0
VERTEX
  8
0
 10
663.58086156
 20
-15.05904969
  0
VERTEX
  8
0
 10
663.45453542
 20
-15.32129341
  0
VERTEX
  8
0
 10
663.30426918
 20
-15.56864363
  0
VERTEX
  8
0
 10
663.13157062
 20
-15.79959258
  0
VERTEX
  8
0
 10
662.93794750
 20
-16.01263250
  0
VERTEX
  8
0
 10
662.72490758
 20
-16.20625562
  0
VERTEX
  8
0
 10
662.49395863
 20
-16.37895418
  0
VERTEX
  8
0
 10
662.24660841
 20
-16.52922042
  0
VERTEX
  8
0
 10
661.98436469
 20
-16.65554656
  0
VERTEX
  8
0
 10
661.70873522
 20
-16.75642486
  0
VERTEX
  8
0
 10
661.42122777
 20
-16.83034754
  0
VERTEX
  8
0
 10
661.12335011
 20
-16.87580684
  0
VERTEX
  8
0
 10
660.81661000
 20
-16.89129500
  0
VERTEX
  8
0
 10
660.50986989
 20
-16.87580684
  0
VERTEX
  8
0
 10
660.21199223
 20
-16.83034754
  0
VERTEX
  8
0
 10
659.92448478
 20
-16.75642486
  0
VERTEX
  8
0
 10
659.64885531
 20
-16.65554656
  0
VERTEX
  8
0
 10
659.38661159
 20
-16.52922042
  0
VERTEX
  8
0
 10
659.13926137
 20
-16.37895418
  0
VERTEX
  8
0
 10
658.90831242
 20
-16.20625562
  0
VERTEX
  8
0
 10
658.69527250
 20
-16.01263250
  0
VERTEX
  8
0
 10
658.50164938
 20
-15.79959258
  0
VERTEX
  8
0
 10
658.32895082
 20
-15.56864363
  0
VERTEX
  8
0
 10
658.17868458
 20
-15.32129341
  0
VERTEX
  8
0
 10
658.05235844
 20
-15.05904969
  0
VERTEX
  8
0
 10
657.95148014
 20
-14.78342022
  0
VERTEX
  8
0
 10
657.87755746
 20
-14.49591277
  0
VERTEX
  8
0
 10
657.83209816
 20
-14.19803511
  0
VERTEX
  8
0
 10
657.81661000
 20
-13.89129500
  0
VERTEX
  8
0
 10
657.83209816
 20
-13.58455489
  0
VERTEX
  8
0
 10
657.87755746
 20
-13.28667723
  0
VERTEX
  8
0
 10
657.95148014
 20
-12.99916978
  0
VERTEX
  8
0
 10
658.05235844
 20
-12.72354031
  0
VERTEX
  8
0
 10
658.17868458
 20
-12.46129659
  0
VERTEX
  8
0
 10
658.32895082
 20
-12.21394637
  0
VERTEX
  8
0
 10
658.50164938
 20
-11.98299742
  0
VERTEX
  8
0
 10
658.69527250
 20
-11.76995750
  0
VERTEX
  8
0
 10
658.90831242
 20
-11.57633438
  0
VERTEX
  8
0
 10
659.13926137
 20
-11.40363582
  0
VERTEX
  8
0
 10
659.38661159
 20
-11.25336958
  0
VERTEX
  8
0
 10
659.64885531
 20
-11.12704344
  0
VERTEX
  8
0
 10
659.92448478
 20
-11.02616514
  0
VERTEX
  8
0
 10
660.21199223
 20
-10.95224246
  0
VERTEX
  8
0
 10
660.50986989
 20
-10.90678316
  0
VERTEX
  8
0
 10
660.81661000
 20
-10.89129500
  0
SEQEND
  0
ENDSEC
  0
EOF
