  0
SECTION
  2
HEADER
  9
$ACADVER
  1
AC1009
  9
$EXTMIN
 10
-749.18329000
 20
-92.89134000
 30
0.0
  9
$EXTMAX
 10
750.81671000
 20
65.10866000
 30
0.0
  0
ENDSEC
  0
SECTION
  2
TABLES
  0
TABLE
  2
LAYER
 70
1
 0
LAYER
 2
layer_1
 70
0
 62
250
 6
CONTINUOUS
 0
ENDTAB
 0
ENDSEC
  0
SECTION
  2
ENTITIES
  0
POLYLINE
  8
layer_1
 62
256
 66
   1
 39
0.000000
 70
    1
  0
VERTEX
  8
0
 10
-740.30989000
 20
65.10866000
  0
VERTEX
  8
0
 10
741.94321000
 20
65.10866000
  0
VERTEX
  8
0
 10
742.39805321
 20
65.09705653
  0
VERTEX
  8
0
 10
742.84712870
 20
65.06262519
  0
VERTEX
  8
0
 10
743.28986779
 20
65.00593459
  0
VERTEX
  8
0
 10
743.72570180
 20
64.92755336
  0
VERTEX
  8
0
 10
744.15406202
 20
64.82805011
  0
VERTEX
  8
0
 10
744.57437978
 20
64.70799345
  0
VERTEX
  8
0
 10
744.98608637
 20
64.56795200
  0
VERTEX
  8
0
 10
745.38861312
 20
64.40849437
  0
VERTEX
  8
0
 10
745.78139134
 20
64.23018919
  0
VERTEX
  8
0
 10
746.16385233
 20
64.03360507
  0
VERTEX
  8
0
 10
746.53542741
 20
63.81931062
  0
VERTEX
  8
0
 10
746.89554789
 20
63.58787445
  0
VERTEX
  8
0
 10
747.24364508
 20
63.33986519
  0
VERTEX
  8
0
 10
747.57915028
 20
63.07585146
  0
VERTEX
  8
0
 10
747.90149482
 20
62.79640185
  0
VERTEX
  8
0
 10
748.21011000
 20
62.50208500
  0
VERTEX
  8
0
 10
748.50442713
 20
62.19346952
  0
VERTEX
  8
0
 10
748.78387753
 20
61.87112401
  0
VERTEX
  8
0
 10
749.04789250
 20
61.53561711
  0
VERTEX
  8
0
 10
749.29590336
 20
61.18751742
  0
VERTEX
  8
0
 10
749.52734141
 20
60.82739356
  0
VERTEX
  8
0
 10
749.74163798
 20
60.45581415
  0
VERTEX
  8
0
 10
749.93822436
 20
60.07334780
  0
VERTEX
  8
0
 10
750.11653188
 20
59.68056312
  0
VERTEX
  8
0
 10
750.27599183
 20
59.27802874
  0
VERTEX
  8
0
 10
750.41603554
 20
58.86631327
  0
VERTEX
  8
0
 10
750.53609431
 20
58.44598532
  0
VERTEX
  8
0
 10
750.63559945
 20
58.01761352
  0
VERTEX
  8
0
 10
750.71398228
 20
57.58176646
  0
VERTEX
  8
0
 10
750.77067411
 20
57.13901278
  0
VERTEX
  8
0
 10
750.80510625
 20
56.68992109
  0
VERTEX
  8
0
 10
750.81671000
 20
56.23506000
  0
VERTEX
  8
0
 10
750.81671000
 20
-84.01784000
  0
VERTEX
  8
0
 10
750.80510625
 20
-84.47269201
  0
VERTEX
  8
0
 10
750.77067411
 20
-84.92177518
  0
VERTEX
  8
0
 10
750.71398228
 20
-85.36452089
  0
VERTEX
  8
0
 10
750.63559945
 20
-85.80036051
  0
VERTEX
  8
0
 10
750.53609431
 20
-86.22872539
  0
VERTEX
  8
0
 10
750.41603554
 20
-86.64904691
  0
VERTEX
  8
0
 10
750.27599183
 20
-87.06075643
  0
VERTEX
  8
0
 10
750.11653188
 20
-87.46328531
  0
VERTEX
  8
0
 10
749.93822436
 20
-87.85606493
  0
VERTEX
  8
0
 10
749.74163798
 20
-88.23852665
  0
VERTEX
  8
0
 10
749.52734141
 20
-88.61010183
  0
VERTEX
  8
0
 10
749.29590336
 20
-88.97022184
  0
VERTEX
  8
0
 10
749.04789250
 20
-89.31831804
  0
VERTEX
  8
0
 10
748.78387753
 20
-89.65382181
  0
VERTEX
  8
0
 10
748.50442713
 20
-89.97616451
  0
VERTEX
  8
0
 10
748.21011000
 20
-90.28477750
  0
VERTEX
  8
0
 10
747.90149482
 20
-90.57909215
  0
VERTEX
  8
0
 10
747.57915028
 20
-90.85853983
  0
VERTEX
  8
0
 10
747.24364508
 20
-91.12255190
  0
VERTEX
  8
0
 10
746.89554789
 20
-91.37055973
  0
VERTEX
  8
0
 10
746.53542741
 20
-91.60199468
  0
VERTEX
  8
0
 10
746.16385233
 20
-91.81628812
  0
VERTEX
  8
0
 10
745.78139134
 20
-92.01287142
  0
VERTEX
  8
0
 10
745.38861312
 20
-92.19117594
  0
VERTEX
  8
0
 10
744.98608637
 20
-92.35063305
  0
VERTEX
  8
0
 10
744.57437978
 20
-92.49067411
  0
VERTEX
  8
0
 10
744.15406202
 20
-92.61073049
  0
VERTEX
  8
0
 10
743.72570180
 20
-92.71023355
  0
VERTEX
  8
0
 10
743.28986779
 20
-92.78861467
  0
VERTEX
  8
0
 10
742.84712870
 20
-92.84530521
  0
VERTEX
  8
0
 10
742.39805321
 20
-92.87973653
  0
VERTEX
  8
0
 10
741.94321000
 20
-92.89134000
  0
VERTEX
  8
0
 10
-740.30989000
 20
-92.89134000
  0
VERTEX
  8
0
 10
-740.76473292
 20
-92.87973653
  0
VERTEX
  8
0
 10
-741.21380758
 20
-92.84530521
  0
VERTEX
  8
0
 10
-741.65654532
 20
-92.78861467
  0
VERTEX
  8
0
 10
-742.09237750
 20
-92.71023355
  0
VERTEX
  8
0
 10
-742.52073546
 20
-92.61073049
  0
VERTEX
  8
0
 10
-742.94105055
 20
-92.49067411
  0
VERTEX
  8
0
 10
-743.35275411
 20
-92.35063305
  0
VERTEX
  8
0
 10
-743.75527750
 20
-92.19117594
  0
VERTEX
  8
0
 10
-744.14805206
 20
-92.01287142
  0
VERTEX
  8
0
 10
-744.53050914
 20
-91.81628812
  0
VERTEX
  8
0
 10
-744.90208009
 20
-91.60199468
  0
VERTEX
  8
0
 10
-745.26219625
 20
-91.37055973
  0
VERTEX
  8
0
 10
-745.61028897
 20
-91.12255190
  0
VERTEX
  8
0
 10
-745.94578961
 20
-90.85853983
  0
VERTEX
  8
0
 10
-746.26812950
 20
-90.57909215
  0
VERTEX
  8
0
 10
-746.57674000
 20
-90.28477750
  0
VERTEX
  8
0
 10
-746.87105245
 20
-89.97616451
  0
VERTEX
  8
0
 10
-747.15049820
 20
-89.65382181
  0
VERTEX
  8
0
 10
-747.41450860
 20
-89.31831804
  0
VERTEX
  8
0
 10
-747.66251500
 20
-88.97022184
  0
VERTEX
  8
0
 10
-747.89394874
 20
-88.61010183
  0
VERTEX
  8
0
 10
-748.10824117
 20
-88.23852665
  0
VERTEX
  8
0
 10
-748.30482364
 20
-87.85606493
  0
VERTEX
  8
0
 10
-748.48312750
 20
-87.46328531
  0
VERTEX
  8
0
 10
-748.64258409
 20
-87.06075643
  0
VERTEX
  8
0
 10
-748.78262477
 20
-86.64904691
  0
VERTEX
  8
0
 10
-748.90268087
 20
-86.22872539
  0
VERTEX
  8
0
 10
-749.00218375
 20
-85.80036051
  0
VERTEX
  8
0
 10
-749.08056476
 20
-85.36452089
  0
VERTEX
  8
0
 10
-749.13725523
 20
-84.92177518
  0
VERTEX
  8
0
 10
-749.17168653
 20
-84.47269201
  0
VERTEX
  8
0
 10
-749.18329000
 20
-84.01784000
  0
VERTEX
  8
0
 10
-749.18329000
 20
56.23506000
  0
VERTEX
  8
0
 10
-749.17168653
 20
56.68992109
  0
VERTEX
  8
0
 10
-749.13725523
 20
57.13901278
  0
VERTEX
  8
0
 10
-749.08056476
 20
57.58176646
  0
VERTEX
  8
0
 10
-749.00218375
 20
58.01761352
  0
VERTEX
  8
0
 10
-748.90268087
 20
58.44598532
  0
VERTEX
  8
0
 10
-748.78262477
 20
58.86631327
  0
VERTEX
  8
0
 10
-748.64258409
 20
59.27802874
  0
VERTEX
  8
0
 10
-748.48312750
 20
59.68056312
  0
VERTEX
  8
0
 10
-748.30482364
 20
60.07334780
  0
VERTEX
  8
0
 10
-748.10824117
 20
60.45581415
  0
VERTEX
  8
0
 10
-747.89394874
 20
60.82739356
  0
VERTEX
  8
0
 10
-747.66251500
 20
61.18751742
  0
VERTEX
  8
0
 10
-747.41450860
 20
61.53561711
  0
VERTEX
  8
0
 10
-747.15049820
 20
61.87112401
  0
VERTEX
  8
0
 10
-746.87105245
 20
62.19346952
  0
VERTEX
  8
0
 10
-746.57674000
 20
62.50208500
  0
VERTEX
  8
0
 10
-746.26812950
 20
62.79640185
  0
VERTEX
  8
0
 10
-745.94578961
 20
63.07585146
  0
VERTEX
  8
0
 10
-745.61028897
 20
63.33986519
  0
VERTEX
  8
0
 10
-745.26219625
 20
63.58787445
  0
VERTEX
  8
0
 10
-744.90208009
 20
63.81931062
  0
VERTEX
  8
0
 10
-744.53050914
 20
64.03360507
  0
VERTEX
  8
0
 10
-744.14805206
 20
64.23018919
  0
VERTEX
  8
0
 10
-743.75527750
 20
64.40849437
  0
VERTEX
  8
0
 10
-743.35275411
 20
64.56795200
  0
VERTEX
  8
0
 10
-742.94105055
 20
64.70799345
  0
VERTEX
  8
0
 10
-742.52073546
 20
64.82805011
  0
VERTEX
  8
0
 10
-742.09237750
 20
64.92755336
  0
VERTEX
  8
0
 10
-741.65654532
 20
65.00593459
  0
VERTEX
  8
0
 10
-741.21380758
 20
65.06262519
  0
VERTEX
  8
0
 10
-740.76473292
 20
65.09705653
  0
VERTEX
  8
0
 10
-740.30989000
 20
65.10866000
  0
SEQEND
  0
POLYLINE
  8
layer_1
 62
256
 66
   1
 39
0.000000
 70
    1
  0
VERTEX
  8
0
 10
-589.18339000
 20
-10.89134000
  0
VERTEX
  8
0
 10
-588.87664989
 20
-10.90682816
  0
VERTEX
  8
0
 10
-588.57877223
 20
-10.95228746
  0
VERTEX
  8
0
 10
-588.29126478
 20
-11.02621014
  0
VERTEX
  8
0
 10
-588.01563531
 20
-11.12708844
  0
VERTEX
  8
0
 10
-587.75339159
 20
-11.25341458
  0
VERTEX
  8
0
 10
-587.50604137
 20
-11.40368082
  0
VERTEX
  8
0
 10
-587.27509242
 20
-11.57637938
  0
VERTEX
  8
0
 10
-587.06205250
 20
-11.77000250
  0
VERTEX
  8
0
 10
-586.86842938
 20
-11.98304242
  0
VERTEX
  8
0
 10
-586.69573082
 20
-12.21399137
  0
VERTEX
  8
0
 10
-586.54546458
 20
-12.46134159
  0
VERTEX
  8
0
 10
-586.41913844
 20
-12.72358531
  0
VERTEX
  8
0
 10
-586.31826014
 20
-12.99921478
  0
VERTEX
  8
0
 10
-586.24433746
 20
-13.28672223
  0
VERTEX
  8
0
 10
-586.19887816
 20
-13.58459989
  0
VERTEX
  8
0
 10
-586.18339000
 20
-13.89134000
  0
VERTEX
  8
0
 10
-586.19887816
 20
-14.19808011
  0
VERTEX
  8
0
 10
-586.24433746
 20
-14.49595777
  0
VERTEX
  8
0
 10
-586.31826014
 20
-14.78346522
  0
VERTEX
  8
0
 10
-586.41913844
 20
-15.05909469
  0
VERTEX
  8
0
 10
-586.54546458
 20
-15.32133841
  0
VERTEX
  8
0
 10
-586.69573082
 20
-15.56868863
  0
VERTEX
  8
0
 10
-586.86842938
 20
-15.79963758
  0
VERTEX
  8
0
 10
-587.06205250
 20
-16.01267750
  0
VERTEX
  8
0
 10
-587.27509242
 20
-16.20630062
  0
VERTEX
  8
0
 10
-587.50604137
 20
-16.37899918
  0
VERTEX
  8
0
 10
-587.75339159
 20
-16.52926542
  0
VERTEX
  8
0
 10
-588.01563531
 20
-16.65559156
  0
VERTEX
  8
0
 10
-588.29126478
 20
-16.75646986
  0
VERTEX
  8
0
 10
-588.57877223
 20
-16.83039254
  0
VERTEX
  8
0
 10
-588.87664989
 20
-16.87585184
  0
VERTEX
  8
0
 10
-589.18339000
 20
-16.89134000
  0
VERTEX
  8
0
 10
-589.49013011
 20
-16.87585184
  0
VERTEX
  8
0
 10
-589.78800777
 20
-16.83039254
  0
VERTEX
  8
0
 10
-590.07551522
 20
-16.75646986
  0
VERTEX
  8
0
 10
-590.35114469
 20
-16.65559156
  0
VERTEX
  8
0
 10
-590.61338841
 20
-16.52926542
  0
VERTEX
  8
0
 10
-590.86073863
 20
-16.37899918
  0
VERTEX
  8
0
 10
-591.09168758
 20
-16.20630062
  0
VERTEX
  8
0
 10
-591.30472750
 20
-16.01267750
  0
VERTEX
  8
0
 10
-591.49835062
 20
-15.79963758
  0
VERTEX
  8
0
 10
-591.67104918
 20
-15.56868863
  0
VERTEX
  8
0
 10
-591.82131542
 20
-15.32133841
  0
VERTEX
  8
0
 10
-591.94764156
 20
-15.05909469
  0
VERTEX
  8
0
 10
-592.04851986
 20
-14.78346522
  0
VERTEX
  8
0
 10
-592.12244254
 20
-14.49595777
  0
VERTEX
  8
0
 10
-592.16790184
 20
-14.19808011
  0
VERTEX
  8
0
 10
-592.18339000
 20
-13.89134000
  0
VERTEX
  8
0
 10
-592.16790184
 20
-13.58459989
  0
VERTEX
  8
0
 10
-592.12244254
 20
-13.28672223
  0
VERTEX
  8
0
 10
-592.04851986
 20
-12.99921478
  0
VERTEX
  8
0
 10
-591.94764156
 20
-12.72358531
  0
VERTEX
  8
0
 10
-591.82131542
 20
-12.46134159
  0
VERTEX
  8
0
 10
-591.67104918
 20
-12.21399137
  0
VERTEX
  8
0
 10
-591.49835062
 20
-11.98304242
  0
VERTEX
  8
0
 10
-591.30472750
 20
-11.77000250
  0
VERTEX
  8
0
 10
-591.09168758
 20
-11.57637938
  0
VERTEX
  8
0
 10
-590.86073863
 20
-11.40368082
  0
VERTEX
  8
0
 10
-590.61338841
 20
-11.25341458
  0
VERTEX
  8
0
 10
-590.35114469
 20
-11.12708844
  0
VERTEX
  8
0
 10
-590.07551522
 20
-11.02621014
  0
VERTEX
  8
0
 10
-589.78800777
 20
-10.95228746
  0
VERTEX
  8
0
 10
-589.49013011
 20
-10.90682816
  0
VERTEX
  8
0
 10
-589.18339000
 20
-10.89134000
  0
SEQEND
  0
POLYLINE
  8
layer_1
 62
256
 66
   1
 39
0.000000
 70
    1
  0
VERTEX
  8
0
 10
-449.18339000
 20
-10.89134000
  0
VERTEX
  8
0
 10
-448.87664989
 20
-10.90682816
  0
VERTEX
  8
0
 10
-448.57877223
 20
-10.95228746
  0
VERTEX
  8
0
 10
-448.29126478
 20
-11.02621014
  0
VERTEX
  8
0
 10
-448.01563531
 20
-11.12708844
  0
VERTEX
  8
0
 10
-447.75339159
 20
-11.25341458
  0
VERTEX
  8
0
 10
-447.50604137
 20
-11.40368082
  0
VERTEX
  8
0
 10
-447.27509242
 20
-11.57637938
  0
VERTEX
  8
0
 10
-447.06205250
 20
-11.77000250
  0
VERTEX
  8
0
 10
-446.86842938
 20
-11.98304242
  0
VERTEX
  8
0
 10
-446.69573082
 20
-12.21399137
  0
VERTEX
  8
0
 10
-446.54546458
 20
-12.46134159
  0
VERTEX
  8
0
 10
-446.41913844
 20
-12.72358531
  0
VERTEX
  8
0
 10
-446.31826014
 20
-12.99921478
  0
VERTEX
  8
0
 10
-446.24433746
 20
-13.28672223
  0
VERTEX
  8
0
 10
-446.19887816
 20
-13.58459989
  0
VERTEX
  8
0
 10
-446.18339000
 20
-13.89134000
  0
VERTEX
  8
0
 10
-446.19887816
 20
-14.19808011
  0
VERTEX
  8
0
 10
-446.24433746
 20
-14.49595777
  0
VERTEX
  8
0
 10
-446.31826014
 20
-14.78346522
  0
VERTEX
  8
0
 10
-446.41913844
 20
-15.05909469
  0
VERTEX
  8
0
 10
-446.54546458
 20
-15.32133841
  0
VERTEX
  8
0
 10
-446.69573082
 20
-15.56868863
  0
VERTEX
  8
0
 10
-446.86842938
 20
-15.79963758
  0
VERTEX
  8
0
 10
-447.06205250
 20
-16.01267750
  0
VERTEX
  8
0
 10
-447.27509242
 20
-16.20630062
  0
VERTEX
  8
0
 10
-447.50604137
 20
-16.37899918
  0
VERTEX
  8
0
 10
-447.75339159
 20
-16.52926542
  0
VERTEX
  8
0
 10
-448.01563531
 20
-16.65559156
  0
VERTEX
  8
0
 10
-448.29126478
 20
-16.75646986
  0
VERTEX
  8
0
 10
-448.57877223
 20
-16.83039254
  0
VERTEX
  8
0
 10
-448.87664989
 20
-16.87585184
  0
VERTEX
  8
0
 10
-449.18339000
 20
-16.89134000
  0
VERTEX
  8
0
 10
-449.49013011
 20
-16.87585184
  0
VERTEX
  8
0
 10
-449.78800777
 20
-16.83039254
  0
VERTEX
  8
0
 10
-450.07551522
 20
-16.75646986
  0
VERTEX
  8
0
 10
-450.35114469
 20
-16.65559156
  0
VERTEX
  8
0
 10
-450.61338841
 20
-16.52926542
  0
VERTEX
  8
0
 10
-450.86073863
 20
-16.37899918
  0
VERTEX
  8
0
 10
-451.09168758
 20
-16.20630062
  0
VERTEX
  8
0
 10
-451.30472750
 20
-16.01267750
  0
VERTEX
  8
0
 10
-451.49835062
 20
-15.79963758
  0
VERTEX
  8
0
 10
-451.67104918
 20
-15.56868863
  0
VERTEX
  8
0
 10
-451.82131542
 20
-15.32133841
  0
VERTEX
  8
0
 10
-451.94764156
 20
-15.05909469
  0
VERTEX
  8
0
 10
-452.04851986
 20
-14.78346522
  0
VERTEX
  8
0
 10
-452.12244254
 20
-14.49595777
  0
VERTEX
  8
0
 10
-452.16790184
 20
-14.19808011
  0
VERTEX
  8
0
 10
-452.18339000
 20
-13.89134000
  0
VERTEX
  8
0
 10
-452.16790184
 20
-13.58459989
  0
VERTEX
  8
0
 10
-452.12244254
 20
-13.28672223
  0
VERTEX
  8
0
 10
-452.04851986
 20
-12.99921478
  0
VERTEX
  8
0
 10
-451.94764156
 20
-12.72358531
  0
VERTEX
  8
0
 10
-451.82131542
 20
-12.46134159
  0
VERTEX
  8
0
 10
-451.67104918
 20
-12.21399137
  0
VERTEX
  8
0
 10
-451.49835062
 20
-11.98304242
  0
VERTEX
  8
0
 10
-451.30472750
 20
-11.77000250
  0
VERTEX
  8
0
 10
-451.09168758
 20
-11.57637938
  0
VERTEX
  8
0
 10
-450.86073863
 20
-11.40368082
  0
VERTEX
  8
0
 10
-450.61338841
 20
-11.25341458
  0
VERTEX
  8
0
 10
-450.35114469
 20
-11.12708844
  0
VERTEX
  8
0
 10
-450.07551522
 20
-11.02621014
  0
VERTEX
  8
0
 10
-449.78800777
 20
-10.95228746
  0
VERTEX
  8
0
 10
-449.49013011
 20
-10.90682816
  0
VERTEX
  8
0
 10
-449.18339000
 20
-10.89134000
  0
SEQEND
  0
POLYLINE
  8
layer_1
 62
256
 66
   1
 39
0.000000
 70
    1
  0
VERTEX
  8
0
 10
-219.18339000
 20
-10.89134000
  0
VERTEX
  8
0
 10
-218.87664989
 20
-10.90682816
  0
VERTEX
  8
0
 10
-218.57877223
 20
-10.95228746
  0
VERTEX
  8
0
 10
-218.29126478
 20
-11.02621014
  0
VERTEX
  8
0
 10
-218.01563531
 20
-11.12708844
  0
VERTEX
  8
0
 10
-217.75339159
 20
-11.25341458
  0
VERTEX
  8
0
 10
-217.50604137
 20
-11.40368082
  0
VERTEX
  8
0
 10
-217.27509242
 20
-11.57637938
  0
VERTEX
  8
0
 10
-217.06205250
 20
-11.77000250
  0
VERTEX
  8
0
 10
-216.86842938
 20
-11.98304242
  0
VERTEX
  8
0
 10
-216.69573082
 20
-12.21399137
  0
VERTEX
  8
0
 10
-216.54546458
 20
-12.46134159
  0
VERTEX
  8
0
 10
-216.41913844
 20
-12.72358531
  0
VERTEX
  8
0
 10
-216.31826014
 20
-12.99921478
  0
VERTEX
  8
0
 10
-216.24433746
 20
-13.28672223
  0
VERTEX
  8
0
 10
-216.19887816
 20
-13.58459989
  0
VERTEX
  8
0
 10
-216.18339000
 20
-13.89134000
  0
VERTEX
  8
0
 10
-216.19887816
 20
-14.19808011
  0
VERTEX
  8
0
 10
-216.24433746
 20
-14.49595777
  0
VERTEX
  8
0
 10
-216.31826014
 20
-14.78346522
  0
VERTEX
  8
0
 10
-216.41913844
 20
-15.05909469
  0
VERTEX
  8
0
 10
-216.54546458
 20
-15.32133841
  0
VERTEX
  8
0
 10
-216.69573082
 20
-15.56868863
  0
VERTEX
  8
0
 10
-216.86842938
 20
-15.79963758
  0
VERTEX
  8
0
 10
-217.06205250
 20
-16.01267750
  0
VERTEX
  8
0
 10
-217.27509242
 20
-16.20630062
  0
VERTEX
  8
0
 10
-217.50604137
 20
-16.37899918
  0
VERTEX
  8
0
 10
-217.75339159
 20
-16.52926542
  0
VERTEX
  8
0
 10
-218.01563531
 20
-16.65559156
  0
VERTEX
  8
0
 10
-218.29126478
 20
-16.75646986
  0
VERTEX
  8
0
 10
-218.57877223
 20
-16.83039254
  0
VERTEX
  8
0
 10
-218.87664989
 20
-16.87585184
  0
VERTEX
  8
0
 10
-219.18339000
 20
-16.89134000
  0
VERTEX
  8
0
 10
-219.49013011
 20
-16.87585184
  0
VERTEX
  8
0
 10
-219.78800777
 20
-16.83039254
  0
VERTEX
  8
0
 10
-220.07551522
 20
-16.75646986
  0
VERTEX
  8
0
 10
-220.35114469
 20
-16.65559156
  0
VERTEX
  8
0
 10
-220.61338841
 20
-16.52926542
  0
VERTEX
  8
0
 10
-220.86073863
 20
-16.37899918
  0
VERTEX
  8
0
 10
-221.09168758
 20
-16.20630062
  0
VERTEX
  8
0
 10
-221.30472750
 20
-16.01267750
  0
VERTEX
  8
0
 10
-221.49835062
 20
-15.79963758
  0
VERTEX
  8
0
 10
-221.67104918
 20
-15.56868863
  0
VERTEX
  8
0
 10
-221.82131542
 20
-15.32133841
  0
VERTEX
  8
0
 10
-221.94764156
 20
-15.05909469
  0
VERTEX
  8
0
 10
-222.04851986
 20
-14.78346522
  0
VERTEX
  8
0
 10
-222.12244254
 20
-14.49595777
  0
VERTEX
  8
0
 10
-222.16790184
 20
-14.19808011
  0
VERTEX
  8
0
 10
-222.18339000
 20
-13.89134000
  0
VERTEX
  8
0
 10
-222.16790184
 20
-13.58459989
  0
VERTEX
  8
0
 10
-222.12244254
 20
-13.28672223
  0
VERTEX
  8
0
 10
-222.04851986
 20
-12.99921478
  0
VERTEX
  8
0
 10
-221.94764156
 20
-12.72358531
  0
VERTEX
  8
0
 10
-221.82131542
 20
-12.46134159
  0
VERTEX
  8
0
 10
-221.67104918
 20
-12.21399137
  0
VERTEX
  8
0
 10
-221.49835062
 20
-11.98304242
  0
VERTEX
  8
0
 10
-221.30472750
 20
-11.77000250
  0
VERTEX
  8
0
 10
-221.09168758
 20
-11.57637938
  0
VERTEX
  8
0
 10
-220.86073863
 20
-11.40368082
  0
VERTEX
  8
0
 10
-220.61338841
 20
-11.25341458
  0
VERTEX
  8
0
 10
-220.35114469
 20
-11.12708844
  0
VERTEX
  8
0
 10
-220.07551522
 20
-11.02621014
  0
VERTEX
  8
0
 10
-219.78800777
 20
-10.95228746
  0
VERTEX
  8
0
 10
-219.49013011
 20
-10.90682816
  0
VERTEX
  8
0
 10
-219.18339000
 20
-10.89134000
  0
SEQEND
  0
POLYLINE
  8
layer_1
 62
256
 66
   1
 39
0.000000
 70
    1
  0
VERTEX
  8
0
 10
-109.18339000
 20
-10.89134000
  0
VERTEX
  8
0
 10
-108.87664989
 20
-10.90682816
  0
VERTEX
  8
0
 10
-108.57877223
 20
-10.95228746
  0
VERTEX
  8
0
 10
-108.29126478
 20
-11.02621014
  0
VERTEX
  8
0
 10
-108.01563531
 20
-11.12708844
  0
VERTEX
  8
0
 10
-107.75339159
 20
-11.25341458
  0
VERTEX
  8
0
 10
-107.50604137
 20
-11.40368082
  0
VERTEX
  8
0
 10
-107.27509242
 20
-11.57637938
  0
VERTEX
  8
0
 10
-107.06205250
 20
-11.77000250
  0
VERTEX
  8
0
 10
-106.86842938
 20
-11.98304242
  0
VERTEX
  8
0
 10
-106.69573082
 20
-12.21399137
  0
VERTEX
  8
0
 10
-106.54546458
 20
-12.46134159
  0
VERTEX
  8
0
 10
-106.41913844
 20
-12.72358531
  0
VERTEX
  8
0
 10
-106.31826014
 20
-12.99921478
  0
VERTEX
  8
0
 10
-106.24433746
 20
-13.28672223
  0
VERTEX
  8
0
 10
-106.19887816
 20
-13.58459989
  0
VERTEX
  8
0
 10
-106.18339000
 20
-13.89134000
  0
VERTEX
  8
0
 10
-106.19887816
 20
-14.19808011
  0
VERTEX
  8
0
 10
-106.24433746
 20
-14.49595777
  0
VERTEX
  8
0
 10
-106.31826014
 20
-14.78346522
  0
VERTEX
  8
0
 10
-106.41913844
 20
-15.05909469
  0
VERTEX
  8
0
 10
-106.54546458
 20
-15.32133841
  0
VERTEX
  8
0
 10
-106.69573082
 20
-15.56868863
  0
VERTEX
  8
0
 10
-106.86842938
 20
-15.79963758
  0
VERTEX
  8
0
 10
-107.06205250
 20
-16.01267750
  0
VERTEX
  8
0
 10
-107.27509242
 20
-16.20630062
  0
VERTEX
  8
0
 10
-107.50604137
 20
-16.37899918
  0
VERTEX
  8
0
 10
-107.75339159
 20
-16.52926542
  0
VERTEX
  8
0
 10
-108.01563531
 20
-16.65559156
  0
VERTEX
  8
0
 10
-108.29126478
 20
-16.75646986
  0
VERTEX
  8
0
 10
-108.57877223
 20
-16.83039254
  0
VERTEX
  8
0
 10
-108.87664989
 20
-16.87585184
  0
VERTEX
  8
0
 10
-109.18339000
 20
-16.89134000
  0
VERTEX
  8
0
 10
-109.49013011
 20
-16.87585184
  0
VERTEX
  8
0
 10
-109.78800777
 20
-16.83039254
  0
VERTEX
  8
0
 10
-110.07551522
 20
-16.75646986
  0
VERTEX
  8
0
 10
-110.35114469
 20
-16.65559156
  0
VERTEX
  8
0
 10
-110.61338841
 20
-16.52926542
  0
VERTEX
  8
0
 10
-110.86073863
 20
-16.37899918
  0
VERTEX
  8
0
 10
-111.09168758
 20
-16.20630062
  0
VERTEX
  8
0
 10
-111.30472750
 20
-16.01267750
  0
VERTEX
  8
0
 10
-111.49835062
 20
-15.79963758
  0
VERTEX
  8
0
 10
-111.67104918
 20
-15.56868863
  0
VERTEX
  8
0
 10
-111.82131542
 20
-15.32133841
  0
VERTEX
  8
0
 10
-111.94764156
 20
-15.05909469
  0
VERTEX
  8
0
 10
-112.04851986
 20
-14.78346522
  0
VERTEX
  8
0
 10
-112.12244254
 20
-14.49595777
  0
VERTEX
  8
0
 10
-112.16790184
 20
-14.19808011
  0
VERTEX
  8
0
 10
-112.18339000
 20
-13.89134000
  0
VERTEX
  8
0
 10
-112.16790184
 20
-13.58459989
  0
VERTEX
  8
0
 10
-112.12244254
 20
-13.28672223
  0
VERTEX
  8
0
 10
-112.04851986
 20
-12.99921478
  0
VERTEX
  8
0
 10
-111.94764156
 20
-12.72358531
  0
VERTEX
  8
0
 10
-111.82131542
 20
-12.46134159
  0
VERTEX
  8
0
 10
-111.67104918
 20
-12.21399137
  0
VERTEX
  8
0
 10
-111.49835062
 20
-11.98304242
  0
VERTEX
  8
0
 10
-111.30472750
 20
-11.77000250
  0
VERTEX
  8
0
 10
-111.09168758
 20
-11.57637938
  0
VERTEX
  8
0
 10
-110.86073863
 20
-11.40368082
  0
VERTEX
  8
0
 10
-110.61338841
 20
-11.25341458
  0
VERTEX
  8
0
 10
-110.35114469
 20
-11.12708844
  0
VERTEX
  8
0
 10
-110.07551522
 20
-11.02621014
  0
VERTEX
  8
0
 10
-109.78800777
 20
-10.95228746
  0
VERTEX
  8
0
 10
-109.49013011
 20
-10.90682816
  0
VERTEX
  8
0
 10
-109.18339000
 20
-10.89134000
  0
SEQEND
  0
POLYLINE
  8
layer_1
 62
256
 66
   1
 39
0.000000
 70
    1
  0
VERTEX
  8
0
 10
-9.18339000
 20
-10.89134000
  0
VERTEX
  8
0
 10
-8.87664989
 20
-10.90682816
  0
VERTEX
  8
0
 10
-8.57877223
 20
-10.95228746
  0
VERTEX
  8
0
 10
-8.29126478
 20
-11.02621014
  0
VERTEX
  8
0
 10
-8.01563531
 20
-11.12708844
  0
VERTEX
  8
0
 10
-7.75339159
 20
-11.25341458
  0
VERTEX
  8
0
 10
-7.50604137
 20
-11.40368082
  0
VERTEX
  8
0
 10
-7.27509242
 20
-11.57637938
  0
VERTEX
  8
0
 10
-7.06205250
 20
-11.77000250
  0
VERTEX
  8
0
 10
-6.86842938
 20
-11.98304242
  0
VERTEX
  8
0
 10
-6.69573082
 20
-12.21399137
  0
VERTEX
  8
0
 10
-6.54546458
 20
-12.46134159
  0
VERTEX
  8
0
 10
-6.41913844
 20
-12.72358531
  0
VERTEX
  8
0
 10
-6.31826014
 20
-12.99921478
  0
VERTEX
  8
0
 10
-6.24433746
 20
-13.28672223
  0
VERTEX
  8
0
 10
-6.19887816
 20
-13.58459989
  0
VERTEX
  8
0
 10
-6.18339000
 20
-13.89134000
  0
VERTEX
  8
0
 10
-6.19887816
 20
-14.19808011
  0
VERTEX
  8
0
 10
-6.24433746
 20
-14.49595777
  0
VERTEX
  8
0
 10
-6.31826014
 20
-14.78346522
  0
VERTEX
  8
0
 10
-6.41913844
 20
-15.05909469
  0
VERTEX
  8
0
 10
-6.54546458
 20
-15.32133841
  0
VERTEX
  8
0
 10
-6.69573082
 20
-15.56868863
  0
VERTEX
  8
0
 10
-6.86842938
 20
-15.79963758
  0
VERTEX
  8
0
 10
-7.06205250
 20
-16.01267750
  0
VERTEX
  8
0
 10
-7.27509242
 20
-16.20630062
  0
VERTEX
  8
0
 10
-7.50604137
 20
-16.37899918
  0
VERTEX
  8
0
 10
-7.75339159
 20
-16.52926542
  0
VERTEX
  8
0
 10
-8.01563531
 20
-16.65559156
  0
VERTEX
  8
0
 10
-8.29126478
 20
-16.75646986
  0
VERTEX
  8
0
 10
-8.57877223
 20
-16.83039254
  0
VERTEX
  8
0
 10
-8.87664989
 20
-16.87585184
  0
VERTEX
  8
0
 10
-9.18339000
 20
-16.89134000
  0
VERTEX
  8
0
 10
-9.49013011
 20
-16.87585184
  0
VERTEX
  8
0
 10
-9.78800777
 20
-16.83039254
  0
VERTEX
  8
0
 10
-10.07551522
 20
-16.75646986
  0
VERTEX
  8
0
 10
-10.35114469
 20
-16.65559156
  0
VERTEX
  8
0
 10
-10.61338841
 20
-16.52926542
  0
VERTEX
  8
0
 10
-10.86073863
 20
-16.37899918
  0
VERTEX
  8
0
 10
-11.09168758
 20
-16.20630062
  0
VERTEX
  8
0
 10
-11.30472750
 20
-16.01267750
  0
VERTEX
  8
0
 10
-11.49835062
 20
-15.79963758
  0
VERTEX
  8
0
 10
-11.67104918
 20
-15.56868863
  0
VERTEX
  8
0
 10
-11.82131542
 20
-15.32133841
  0
VERTEX
  8
0
 10
-11.94764156
 20
-15.05909469
  0
VERTEX
  8
0
 10
-12.04851986
 20
-14.78346522
  0
VERTEX
  8
0
 10
-12.12244254
 20
-14.49595777
  0
VERTEX
  8
0
 10
-12.16790184
 20
-14.19808011
  0
VERTEX
  8
0
 10
-12.18339000
 20
-13.89134000
  0
VERTEX
  8
0
 10
-12.16790184
 20
-13.58459989
  0
VERTEX
  8
0
 10
-12.12244254
 20
-13.28672223
  0
VERTEX
  8
0
 10
-12.04851986
 20
-12.99921478
  0
VERTEX
  8
0
 10
-11.94764156
 20
-12.72358531
  0
VERTEX
  8
0
 10
-11.82131542
 20
-12.46134159
  0
VERTEX
  8
0
 10
-11.67104918
 20
-12.21399137
  0
VERTEX
  8
0
 10
-11.49835062
 20
-11.98304242
  0
VERTEX
  8
0
 10
-11.30472750
 20
-11.77000250
  0
VERTEX
  8
0
 10
-11.09168758
 20
-11.57637938
  0
VERTEX
  8
0
 10
-10.86073863
 20
-11.40368082
  0
VERTEX
  8
0
 10
-10.61338841
 20
-11.25341458
  0
VERTEX
  8
0
 10
-10.35114469
 20
-11.12708844
  0
VERTEX
  8
0
 10
-10.07551522
 20
-11.02621014
  0
VERTEX
  8
0
 10
-9.78800777
 20
-10.95228746
  0
VERTEX
  8
0
 10
-9.49013011
 20
-10.90682816
  0
VERTEX
  8
0
 10
-9.18339000
 20
-10.89134000
  0
SEQEND
  0
POLYLINE
  8
layer_1
 62
256
 66
   1
 39
0.000000
 70
    1
  0
VERTEX
  8
0
 10
240.81661000
 20
-10.89134000
  0
VERTEX
  8
0
 10
241.12335011
 20
-10.90682816
  0
VERTEX
  8
0
 10
241.42122777
 20
-10.95228746
  0
VERTEX
  8
0
 10
241.70873522
 20
-11.02621014
  0
VERTEX
  8
0
 10
241.98436469
 20
-11.12708844
  0
VERTEX
  8
0
 10
242.24660841
 20
-11.25341458
  0
VERTEX
  8
0
 10
242.49395863
 20
-11.40368082
  0
VERTEX
  8
0
 10
242.72490758
 20
-11.57637938
  0
VERTEX
  8
0
 10
242.93794750
 20
-11.77000250
  0
VERTEX
  8
0
 10
243.13157062
 20
-11.98304242
  0
VERTEX
  8
0
 10
243.30426918
 20
-12.21399137
  0
VERTEX
  8
0
 10
243.45453542
 20
-12.46134159
  0
VERTEX
  8
0
 10
243.58086156
 20
-12.72358531
  0
VERTEX
  8
0
 10
243.68173986
 20
-12.99921478
  0
VERTEX
  8
0
 10
243.75566254
 20
-13.28672223
  0
VERTEX
  8
0
 10
243.80112184
 20
-13.58459989
  0
VERTEX
  8
0
 10
243.81661000
 20
-13.89134000
  0
VERTEX
  8
0
 10
243.80112184
 20
-14.19808011
  0
VERTEX
  8
0
 10
243.75566254
 20
-14.49595777
  0
VERTEX
  8
0
 10
243.68173986
 20
-14.78346522
  0
VERTEX
  8
0
 10
243.58086156
 20
-15.05909469
  0
VERTEX
  8
0
 10
243.45453542
 20
-15.32133841
  0
VERTEX
  8
0
 10
243.30426918
 20
-15.56868863
  0
VERTEX
  8
0
 10
243.13157062
 20
-15.79963758
  0
VERTEX
  8
0
 10
242.93794750
 20
-16.01267750
  0
VERTEX
  8
0
 10
242.72490758
 20
-16.20630062
  0
VERTEX
  8
0
 10
242.49395863
 20
-16.37899918
  0
VERTEX
  8
0
 10
242.24660841
 20
-16.52926542
  0
VERTEX
  8
0
 10
241.98436469
 20
-16.65559156
  0
VERTEX
  8
0
 10
241.70873522
 20
-16.75646986
  0
VERTEX
  8
0
 10
241.42122777
 20
-16.83039254
  0
VERTEX
  8
0
 10
241.12335011
 20
-16.87585184
  0
VERTEX
  8
0
 10
240.81661000
 20
-16.89134000
  0
VERTEX
  8
0
 10
240.50986989
 20
-16.87585184
  0
VERTEX
  8
0
 10
240.21199223
 20
-16.83039254
  0
VERTEX
  8
0
 10
239.92448478
 20
-16.75646986
  0
VERTEX
  8
0
 10
239.64885531
 20
-16.65559156
  0
VERTEX
  8
0
 10
239.38661159
 20
-16.52926542
  0
VERTEX
  8
0
 10
239.13926137
 20
-16.37899918
  0
VERTEX
  8
0
 10
238.90831242
 20
-16.20630062
  0
VERTEX
  8
0
 10
238.69527250
 20
-16.01267750
  0
VERTEX
  8
0
 10
238.50164938
 20
-15.79963758
  0
VERTEX
  8
0
 10
238.32895082
 20
-15.56868863
  0
VERTEX
  8
0
 10
238.17868458
 20
-15.32133841
  0
VERTEX
  8
0
 10
238.05235844
 20
-15.05909469
  0
VERTEX
  8
0
 10
237.95148014
 20
-14.78346522
  0
VERTEX
  8
0
 10
237.87755746
 20
-14.49595777
  0
VERTEX
  8
0
 10
237.83209816
 20
-14.19808011
  0
VERTEX
  8
0
 10
237.81661000
 20
-13.89134000
  0
VERTEX
  8
0
 10
237.83209816
 20
-13.58459989
  0
VERTEX
  8
0
 10
237.87755746
 20
-13.28672223
  0
VERTEX
  8
0
 10
237.95148014
 20
-12.99921478
  0
VERTEX
  8
0
 10
238.05235844
 20
-12.72358531
  0
VERTEX
  8
0
 10
238.17868458
 20
-12.46134159
  0
VERTEX
  8
0
 10
238.32895082
 20
-12.21399137
  0
VERTEX
  8
0
 10
238.50164938
 20
-11.98304242
  0
VERTEX
  8
0
 10
238.69527250
 20
-11.77000250
  0
VERTEX
  8
0
 10
238.90831242
 20
-11.57637938
  0
VERTEX
  8
0
 10
239.13926137
 20
-11.40368082
  0
VERTEX
  8
0
 10
239.38661159
 20
-11.25341458
  0
VERTEX
  8
0
 10
239.64885531
 20
-11.12708844
  0
VERTEX
  8
0
 10
239.92448478
 20
-11.02621014
  0
VERTEX
  8
0
 10
240.21199223
 20
-10.95228746
  0
VERTEX
  8
0
 10
240.50986989
 20
-10.90682816
  0
VERTEX
  8
0
 10
240.81661000
 20
-10.89134000
  0
SEQEND
  0
POLYLINE
  8
layer_1
 62
256
 66
   1
 39
0.000000
 70
    1
  0
VERTEX
  8
0
 10
460.81661000
 20
-10.89134000
  0
VERTEX
  8
0
 10
461.12335011
 20
-10.90682816
  0
VERTEX
  8
0
 10
461.42122777
 20
-10.95228746
  0
VERTEX
  8
0
 10
461.70873522
 20
-11.02621014
  0
VERTEX
  8
0
 10
461.98436469
 20
-11.12708844
  0
VERTEX
  8
0
 10
462.24660841
 20
-11.25341458
  0
VERTEX
  8
0
 10
462.49395863
 20
-11.40368082
  0
VERTEX
  8
0
 10
462.72490758
 20
-11.57637938
  0
VERTEX
  8
0
 10
462.93794750
 20
-11.77000250
  0
VERTEX
  8
0
 10
463.13157062
 20
-11.98304242
  0
VERTEX
  8
0
 10
463.30426918
 20
-12.21399137
  0
VERTEX
  8
0
 10
463.45453542
 20
-12.46134159
  0
VERTEX
  8
0
 10
463.58086156
 20
-12.72358531
  0
VERTEX
  8
0
 10
463.68173986
 20
-12.99921478
  0
VERTEX
  8
0
 10
463.75566254
 20
-13.28672223
  0
VERTEX
  8
0
 10
463.80112184
 20
-13.58459989
  0
VERTEX
  8
0
 10
463.81661000
 20
-13.89134000
  0
VERTEX
  8
0
 10
463.80112184
 20
-14.19808011
  0
VERTEX
  8
0
 10
463.75566254
 20
-14.49595777
  0
VERTEX
  8
0
 10
463.68173986
 20
-14.78346522
  0
VERTEX
  8
0
 10
463.58086156
 20
-15.05909469
  0
VERTEX
  8
0
 10
463.45453542
 20
-15.32133841
  0
VERTEX
  8
0
 10
463.30426918
 20
-15.56868863
  0
VERTEX
  8
0
 10
463.13157062
 20
-15.79963758
  0
VERTEX
  8
0
 10
462.93794750
 20
-16.01267750
  0
VERTEX
  8
0
 10
462.72490758
 20
-16.20630062
  0
VERTEX
  8
0
 10
462.49395863
 20
-16.37899918
  0
VERTEX
  8
0
 10
462.24660841
 20
-16.52926542
  0
VERTEX
  8
0
 10
461.98436469
 20
-16.65559156
  0
VERTEX
  8
0
 10
461.70873522
 20
-16.75646986
  0
VERTEX
  8
0
 10
461.42122777
 20
-16.83039254
  0
VERTEX
  8
0
 10
461.12335011
 20
-16.87585184
  0
VERTEX
  8
0
 10
460.81661000
 20
-16.89134000
  0
VERTEX
  8
0
 10
460.50986989
 20
-16.87585184
  0
VERTEX
  8
0
 10
460.21199223
 20
-16.83039254
  0
VERTEX
  8
0
 10
459.92448478
 20
-16.75646986
  0
VERTEX
  8
0
 10
459.64885531
 20
-16.65559156
  0
VERTEX
  8
0
 10
459.38661159
 20
-16.52926542
  0
VERTEX
  8
0
 10
459.13926137
 20
-16.37899918
  0
VERTEX
  8
0
 10
458.90831242
 20
-16.20630062
  0
VERTEX
  8
0
 10
458.69527250
 20
-16.01267750
  0
VERTEX
  8
0
 10
458.50164938
 20
-15.79963758
  0
VERTEX
  8
0
 10
458.32895082
 20
-15.56868863
  0
VERTEX
  8
0
 10
458.17868458
 20
-15.32133841
  0
VERTEX
  8
0
 10
458.05235844
 20
-15.05909469
  0
VERTEX
  8
0
 10
457.95148014
 20
-14.78346522
  0
VERTEX
  8
0
 10
457.87755746
 20
-14.49595777
  0
VERTEX
  8
0
 10
457.83209816
 20
-14.19808011
  0
VERTEX
  8
0
 10
457.81661000
 20
-13.89134000
  0
VERTEX
  8
0
 10
457.83209816
 20
-13.58459989
  0
VERTEX
  8
0
 10
457.87755746
 20
-13.28672223
  0
VERTEX
  8
0
 10
457.95148014
 20
-12.99921478
  0
VERTEX
  8
0
 10
458.05235844
 20
-12.72358531
  0
VERTEX
  8
0
 10
458.17868458
 20
-12.46134159
  0
VERTEX
  8
0
 10
458.32895082
 20
-12.21399137
  0
VERTEX
  8
0
 10
458.50164938
 20
-11.98304242
  0
VERTEX
  8
0
 10
458.69527250
 20
-11.77000250
  0
VERTEX
  8
0
 10
458.90831242
 20
-11.57637938
  0
VERTEX
  8
0
 10
459.13926137
 20
-11.40368082
  0
VERTEX
  8
0
 10
459.38661159
 20
-11.25341458
  0
VERTEX
  8
0
 10
459.64885531
 20
-11.12708844
  0
VERTEX
  8
0
 10
459.92448478
 20
-11.02621014
  0
VERTEX
  8
0
 10
460.21199223
 20
-10.95228746
  0
VERTEX
  8
0
 10
460.50986989
 20
-10.90682816
  0
VERTEX
  8
0
 10
460.81661000
 20
-10.89134000
  0
SEQEND
  0
POLYLINE
  8
layer_1
 62
256
 66
   1
 39
0.000000
 70
    1
  0
VERTEX
  8
0
 10
640.81661000
 20
-10.89134000
  0
VERTEX
  8
0
 10
641.12335011
 20
-10.90682816
  0
VERTEX
  8
0
 10
641.42122777
 20
-10.95228746
  0
VERTEX
  8
0
 10
641.70873522
 20
-11.02621014
  0
VERTEX
  8
0
 10
641.98436469
 20
-11.12708844
  0
VERTEX
  8
0
 10
642.24660841
 20
-11.25341458
  0
VERTEX
  8
0
 10
642.49395863
 20
-11.40368082
  0
VERTEX
  8
0
 10
642.72490758
 20
-11.57637938
  0
VERTEX
  8
0
 10
642.93794750
 20
-11.77000250
  0
VERTEX
  8
0
 10
643.13157062
 20
-11.98304242
  0
VERTEX
  8
0
 10
643.30426918
 20
-12.21399137
  0
VERTEX
  8
0
 10
643.45453542
 20
-12.46134159
  0
VERTEX
  8
0
 10
643.58086156
 20
-12.72358531
  0
VERTEX
  8
0
 10
643.68173986
 20
-12.99921478
  0
VERTEX
  8
0
 10
643.75566254
 20
-13.28672223
  0
VERTEX
  8
0
 10
643.80112184
 20
-13.58459989
  0
VERTEX
  8
0
 10
643.81661000
 20
-13.89134000
  0
VERTEX
  8
0
 10
643.80112184
 20
-14.19808011
  0
VERTEX
  8
0
 10
643.75566254
 20
-14.49595777
  0
VERTEX
  8
0
 10
643.68173986
 20
-14.78346522
  0
VERTEX
  8
0
 10
643.58086156
 20
-15.05909469
  0
VERTEX
  8
0
 10
643.45453542
 20
-15.32133841
  0
VERTEX
  8
0
 10
643.30426918
 20
-15.56868863
  0
VERTEX
  8
0
 10
643.13157062
 20
-15.79963758
  0
VERTEX
  8
0
 10
642.93794750
 20
-16.01267750
  0
VERTEX
  8
0
 10
642.72490758
 20
-16.20630062
  0
VERTEX
  8
0
 10
642.49395863
 20
-16.37899918
  0
VERTEX
  8
0
 10
642.24660841
 20
-16.52926542
  0
VERTEX
  8
0
 10
641.98436469
 20
-16.65559156
  0
VERTEX
  8
0
 10
641.70873522
 20
-16.75646986
  0
VERTEX
  8
0
 10
641.42122777
 20
-16.83039254
  0
VERTEX
  8
0
 10
641.12335011
 20
-16.87585184
  0
VERTEX
  8
0
 10
640.81661000
 20
-16.89134000
  0
VERTEX
  8
0
 10
640.50986989
 20
-16.87585184
  0
VERTEX
  8
0
 10
640.21199223
 20
-16.83039254
  0
VERTEX
  8
0
 10
639.92448478
 20
-16.75646986
  0
VERTEX
  8
0
 10
639.64885531
 20
-16.65559156
  0
VERTEX
  8
0
 10
639.38661159
 20
-16.52926542
  0
VERTEX
  8
0
 10
639.13926137
 20
-16.37899918
  0
VERTEX
  8
0
 10
638.90831242
 20
-16.20630062
  0
VERTEX
  8
0
 10
638.69527250
 20
-16.01267750
  0
VERTEX
  8
0
 10
638.50164938
 20
-15.79963758
  0
VERTEX
  8
0
 10
638.32895082
 20
-15.56868863
  0
VERTEX
  8
0
 10
638.17868458
 20
-15.32133841
  0
VERTEX
  8
0
 10
638.05235844
 20
-15.05909469
  0
VERTEX
  8
0
 10
637.95148014
 20
-14.78346522
  0
VERTEX
  8
0
 10
637.87755746
 20
-14.49595777
  0
VERTEX
  8
0
 10
637.83209816
 20
-14.19808011
  0
VERTEX
  8
0
 10
637.81661000
 20
-13.89134000
  0
VERTEX
  8
0
 10
637.83209816
 20
-13.58459989
  0
VERTEX
  8
0
 10
637.87755746
 20
-13.28672223
  0
VERTEX
  8
0
 10
637.95148014
 20
-12.99921478
  0
VERTEX
  8
0
 10
638.05235844
 20
-12.72358531
  0
VERTEX
  8
0
 10
638.17868458
 20
-12.46134159
  0
VERTEX
  8
0
 10
638.32895082
 20
-12.21399137
  0
VERTEX
  8
0
 10
638.50164938
 20
-11.98304242
  0
VERTEX
  8
0
 10
638.69527250
 20
-11.77000250
  0
VERTEX
  8
0
 10
638.90831242
 20
-11.57637938
  0
VERTEX
  8
0
 10
639.13926137
 20
-11.40368082
  0
VERTEX
  8
0
 10
639.38661159
 20
-11.25341458
  0
VERTEX
  8
0
 10
639.64885531
 20
-11.12708844
  0
VERTEX
  8
0
 10
639.92448478
 20
-11.02621014
  0
VERTEX
  8
0
 10
640.21199223
 20
-10.95228746
  0
VERTEX
  8
0
 10
640.50986989
 20
-10.90682816
  0
VERTEX
  8
0
 10
640.81661000
 20
-10.89134000
  0
SEQEND
  0
POLYLINE
  8
layer_1
 62
256
 66
   1
 39
0.000000
 70
    1
  0
VERTEX
  8
0
 10
660.81661000
 20
-10.89134000
  0
VERTEX
  8
0
 10
661.12335011
 20
-10.90682816
  0
VERTEX
  8
0
 10
661.42122777
 20
-10.95228746
  0
VERTEX
  8
0
 10
661.70873522
 20
-11.02621014
  0
VERTEX
  8
0
 10
661.98436469
 20
-11.12708844
  0
VERTEX
  8
0
 10
662.24660841
 20
-11.25341458
  0
VERTEX
  8
0
 10
662.49395863
 20
-11.40368082
  0
VERTEX
  8
0
 10
662.72490758
 20
-11.57637938
  0
VERTEX
  8
0
 10
662.93794750
 20
-11.77000250
  0
VERTEX
  8
0
 10
663.13157062
 20
-11.98304242
  0
VERTEX
  8
0
 10
663.30426918
 20
-12.21399137
  0
VERTEX
  8
0
 10
663.45453542
 20
-12.46134159
  0
VERTEX
  8
0
 10
663.58086156
 20
-12.72358531
  0
VERTEX
  8
0
 10
663.68173986
 20
-12.99921478
  0
VERTEX
  8
0
 10
663.75566254
 20
-13.28672223
  0
VERTEX
  8
0
 10
663.80112184
 20
-13.58459989
  0
VERTEX
  8
0
 10
663.81661000
 20
-13.89134000
  0
VERTEX
  8
0
 10
663.80112184
 20
-14.19808011
  0
VERTEX
  8
0
 10
663.75566254
 20
-14.49595777
  0
VERTEX
  8
0
 10
663.68173986
 20
-14.78346522
  0
VERTEX
  8
0
 10
663.58086156
 20
-15.05909469
  0
VERTEX
  8
0
 10
663.45453542
 20
-15.32133841
  0
VERTEX
  8
0
 10
663.30426918
 20
-15.56868863
  0
VERTEX
  8
0
 10
663.13157062
 20
-15.79963758
  0
VERTEX
  8
0
 10
662.93794750
 20
-16.01267750
  0
VERTEX
  8
0
 10
662.72490758
 20
-16.20630062
  0
VERTEX
  8
0
 10
662.49395863
 20
-16.37899918
  0
VERTEX
  8
0
 10
662.24660841
 20
-16.52926542
  0
VERTEX
  8
0
 10
661.98436469
 20
-16.65559156
  0
VERTEX
  8
0
 10
661.70873522
 20
-16.75646986
  0
VERTEX
  8
0
 10
661.42122777
 20
-16.83039254
  0
VERTEX
  8
0
 10
661.12335011
 20
-16.87585184
  0
VERTEX
  8
0
 10
660.81661000
 20
-16.89134000
  0
VERTEX
  8
0
 10
660.50986989
 20
-16.87585184
  0
VERTEX
  8
0
 10
660.21199223
 20
-16.83039254
  0
VERTEX
  8
0
 10
659.92448478
 20
-16.75646986
  0
VERTEX
  8
0
 10
659.64885531
 20
-16.65559156
  0
VERTEX
  8
0
 10
659.38661159
 20
-16.52926542
  0
VERTEX
  8
0
 10
659.13926137
 20
-16.37899918
  0
VERTEX
  8
0
 10
658.90831242
 20
-16.20630062
  0
VERTEX
  8
0
 10
658.69527250
 20
-16.01267750
  0
VERTEX
  8
0
 10
658.50164938
 20
-15.79963758
  0
VERTEX
  8
0
 10
658.32895082
 20
-15.56868863
  0
VERTEX
  8
0
 10
658.17868458
 20
-15.32133841
  0
VERTEX
  8
0
 10
658.05235844
 20
-15.05909469
  0
VERTEX
  8
0
 10
657.95148014
 20
-14.78346522
  0
VERTEX
  8
0
 10
657.87755746
 20
-14.49595777
  0
VERTEX
  8
0
 10
657.83209816
 20
-14.19808011
  0
VERTEX
  8
0
 10
657.81661000
 20
-13.89134000
  0
VERTEX
  8
0
 10
657.83209816
 20
-13.58459989
  0
VERTEX
  8
0
 10
657.87755746
 20
-13.28672223
  0
VERTEX
  8
0
 10
657.95148014
 20
-12.99921478
  0
VERTEX
  8
0
 10
658.05235844
 20
-12.72358531
  0
VERTEX
  8
0
 10
658.17868458
 20
-12.46134159
  0
VERTEX
  8
0
 10
658.32895082
 20
-12.21399137
  0
VERTEX
  8
0
 10
658.50164938
 20
-11.98304242
  0
VERTEX
  8
0
 10
658.69527250
 20
-11.77000250
  0
VERTEX
  8
0
 10
658.90831242
 20
-11.57637938
  0
VERTEX
  8
0
 10
659.13926137
 20
-11.40368082
  0
VERTEX
  8
0
 10
659.38661159
 20
-11.25341458
  0
VERTEX
  8
0
 10
659.64885531
 20
-11.12708844
  0
VERTEX
  8
0
 10
659.92448478
 20
-11.02621014
  0
VERTEX
  8
0
 10
660.21199223
 20
-10.95228746
  0
VERTEX
  8
0
 10
660.50986989
 20
-10.90682816
  0
VERTEX
  8
0
 10
660.81661000
 20
-10.89134000
  0
SEQEND
  0
ENDSEC
  0
EOF
